<?xml version="1.0" standalone="no"?>
<!DOCTYPE svg PUBLIC "-//W3C//DTD SVG 20010904//EN"
 "http://www.w3.org/TR/2001/REC-SVG-20010904/DTD/svg10.dtd">
<svg version="1.0" xmlns="http://www.w3.org/2000/svg"
 width="661.000000pt" height="661.000000pt" viewBox="0 0 661.000000 661.000000"
 preserveAspectRatio="xMidYMid meet">
<metadata>
Created by potrace 1.14, written by Peter Selinger 2001-2017
</metadata>
<g transform="translate(0.000000,661.000000) scale(0.100000,-0.100000)"
fill="#000000" stroke="none">
<path d="M4720 6066 c-294 -59 -485 -537 -371 -927 61 -207 170 -336 318 -374
79 -21 82 -19 32 17 -99 72 -180 196 -218 339 -27 98 -32 144 -32 265 0 86 7
136 36 267 9 40 73 176 109 229 44 67 119 137 176 166 51 25 28 33 -50 18z"/>
<path d="M4895 6059 c-127 -16 -246 -120 -325 -283 -66 -138 -90 -242 -92
-396 -2 -229 64 -412 194 -540 66 -66 74 -67 82 -14 3 25 19 86 36 136 21 61
29 104 27 136 l-3 47 -65 1 -64 1 3 34 c5 41 2 38 35 41 32 3 38 18 33 78 -3
25 -7 88 -11 140 -3 52 -11 100 -17 108 -6 7 -25 12 -42 10 -28 -3 -31 0 -34
26 -4 35 6 42 65 45 25 0 49 3 53 6 4 2 5 27 2 55 l-5 50 32 0 c20 0 31 -5 32
-15 1 -8 3 -24 4 -35 1 -11 3 -27 4 -35 0 -9 11 -15 26 -15 24 0 25 3 22 52
-2 52 -2 52 29 55 30 2 30 1 33 -44 3 -59 6 -63 42 -63 36 0 77 -20 104 -50
28 -30 25 -103 -4 -134 l-23 -24 21 -7 c15 -5 43 8 103 48 46 31 100 63 121
73 20 10 37 21 37 24 0 32 -48 180 -79 244 -84 174 -224 265 -376 245z"/>
<path d="M5520 5585 c-172 -34 -352 -142 -498 -298 -172 -183 -269 -447 -237
-640 50 -299 376 -394 715 -210 293 159 508 480 512 763 3 279 -205 442 -492
385z m-150 -320 c25 -4 52 -8 60 -10 8 -2 42 -7 75 -11 33 -3 69 -8 80 -11 11
-2 40 -6 65 -9 104 -12 138 -24 153 -56 29 -61 11 -86 -214 -293 -102 -94
-271 -249 -303 -279 -41 -37 -73 -33 -83 12 -2 6 -4 18 -6 25 -5 17 -26 118
-30 142 -2 11 -7 31 -10 45 -7 28 -68 317 -72 340 -3 23 14 66 35 85 34 30 86
42 148 34 31 -5 77 -11 102 -14z"/>
<path d="M5174 5195 c-6 -13 32 -221 62 -350 3 -11 8 -37 11 -59 8 -50 8 -48
93 177 37 100 71 189 74 198 6 13 -4 18 -51 27 -32 6 -86 14 -120 18 -54 6
-64 4 -69 -11z"/>
<path d="M5497 5163 c-7 -12 -157 -410 -157 -417 0 -4 19 10 41 31 85 78 98
90 199 183 56 52 113 104 126 115 13 11 24 30 24 41 0 18 -10 22 -87 33 -49 7
-100 14 -115 17 -14 3 -28 2 -31 -3z"/>
<path d="M4851 5517 c3 -74 8 -81 58 -74 57 7 91 31 91 63 0 40 -26 57 -92 62
l-59 4 2 -55z"/>
<path d="M4864 5335 c2 -22 5 -54 5 -71 1 -30 3 -31 37 -27 25 2 44 14 67 40
18 20 39 43 47 51 12 13 11 17 -8 32 -16 14 -38 18 -87 17 l-65 -1 4 -41z"/>
<path d="M6024 5362 c11 -18 19 -102 18 -174 -8 -347 -313 -724 -687 -849 -86
-29 -254 -33 -322 -7 -46 17 -51 1 -7 -22 13 -7 24 -17 24 -20 0 -4 28 -20 63
-36 167 -76 418 -24 623 129 186 140 312 314 375 517 30 97 33 249 6 326 -20
57 -73 144 -89 144 -5 0 -7 -3 -4 -8z"/>
<path d="M738 5342 c-47 -21 -695 -662 -720 -711 -17 -34 -18 -135 -18 -2236
0 -1466 4 -2212 10 -2237 14 -47 72 -105 118 -117 60 -15 4170 -12 4207 4 24
9 224 154 570 411 367 272 441 332 459 367 18 38 19 75 19 1534 0 1477 0 1495
-20 1521 -39 53 -121 55 -158 4 -20 -27 -20 -43 -21 -1372 0 -1482 4 -1382
-61 -1426 -27 -18 -93 -18 -2077 -19 -2041 0 -2049 0 -2085 20 -71 40 -66
-130 -66 2033 -1 1847 0 1955 16 1982 10 16 30 37 46 47 26 17 98 18 1509 19
1382 1 1484 2 1509 18 58 38 59 122 2 156 -31 20 -63 20 -1617 20 -1479 -1
-1587 -2 -1622 -18z"/>
<path d="M1479 3809 c-10 -10 -17 -24 -14 -31 2 -7 6 -31 9 -53 3 -22 21 -132
40 -245 19 -113 37 -218 40 -235 3 -16 12 -73 21 -125 9 -52 18 -104 20 -115
1 -11 10 -65 20 -120 9 -55 18 -109 20 -120 2 -11 10 -63 19 -115 9 -52 19
-110 22 -129 3 -18 8 -43 10 -55 2 -11 7 -41 10 -66 11 -79 14 -80 205 -80
190 0 192 1 204 75 3 26 8 56 11 68 2 12 6 39 9 62 3 22 8 51 10 65 2 14 7 45
10 70 4 25 8 59 11 75 3 17 7 41 9 55 3 21 19 130 41 280 3 19 7 42 9 50 3 8
7 42 11 75 7 77 19 89 27 28 6 -46 21 -147 32 -223 3 -19 12 -80 21 -135 8
-55 17 -112 19 -126 3 -15 7 -47 10 -70 3 -24 10 -69 15 -99 5 -30 11 -71 14
-90 15 -112 20 -132 33 -145 22 -23 345 -22 367 1 9 8 16 19 16 23 0 6 52 318
105 631 3 19 8 51 11 70 3 19 9 55 14 80 5 25 12 63 15 85 3 22 25 155 49 295
36 208 42 260 32 280 -11 25 -13 25 -149 27 -125 1 -140 0 -158 -18 -10 -10
-20 -32 -20 -49 -1 -16 -2 -33 -3 -37 -1 -5 -6 -39 -10 -78 -4 -38 -9 -81 -11
-95 -2 -14 -6 -50 -10 -80 -4 -30 -8 -66 -10 -80 -2 -14 -6 -52 -10 -85 -3
-33 -8 -71 -10 -85 -2 -14 -6 -50 -9 -80 -3 -30 -8 -66 -10 -80 -3 -14 -8 -52
-11 -85 -4 -33 -8 -69 -10 -80 -1 -11 -3 -33 -4 -49 -2 -61 -18 -7 -36 119 -9
71 -18 137 -20 145 -4 23 -15 100 -20 145 -3 22 -9 65 -15 95 -5 30 -12 75
-15 100 -32 240 -53 354 -68 365 -17 12 -240 19 -290 9 -40 -8 -45 -21 -62
-169 -4 -27 -8 -57 -10 -65 -2 -8 -7 -42 -11 -75 -3 -33 -8 -62 -9 -65 -2 -3
-6 -30 -10 -60 -3 -30 -12 -95 -20 -145 -7 -49 -17 -110 -20 -135 -3 -25 -8
-56 -10 -70 -2 -14 -7 -43 -9 -65 -3 -22 -8 -58 -12 -80 -4 -22 -7 -48 -6 -57
0 -10 -3 -20 -7 -22 -4 -3 -8 0 -8 7 0 13 -12 124 -18 167 -5 38 -15 121 -30
250 -2 19 -9 71 -14 115 -6 44 -13 105 -16 135 -4 30 -8 66 -10 80 -3 14 -7
48 -10 75 -16 151 -22 172 -48 178 -12 3 -78 5 -146 5 -107 0 -126 -3 -142
-19z"/>
<path d="M3400 3822 c-13 -5 -77 -49 -90 -62 -3 -3 -40 -31 -82 -63 -116 -86
-108 -71 -108 -212 0 -129 8 -155 47 -155 9 0 59 33 112 73 52 39 100 75 106
79 9 5 12 -146 12 -562 0 -447 3 -572 13 -585 10 -12 39 -15 160 -15 128 0
149 2 162 18 12 15 14 118 14 740 -1 694 -2 724 -20 737 -14 10 -56 14 -165
13 -80 -1 -153 -3 -161 -6z"/>
<path d="M4106 3727 c-72 -55 -134 -105 -138 -111 -4 -6 -8 -66 -8 -133 0
-127 8 -153 48 -153 8 0 59 32 111 72 53 39 101 75 107 80 7 5 11 -157 11
-562 0 -447 3 -573 13 -585 19 -23 302 -22 321 1 12 14 14 143 14 738 0 655
-1 722 -16 737 -14 14 -41 17 -174 16 l-158 -1 -131 -99z"/>
</g>
</svg>
