<svg width="429" height="398" viewBox="0 0 429 398" fill="none" xmlns="http://www.w3.org/2000/svg">
<path d="M0.228516 12.25C0.228516 5.62258 5.6011 0.25 12.2285 0.25H416.229C422.856 0.25 428.229 5.62258 428.229 12.25V64.25H0.228516V12.25Z" fill="#1C1C1C"/>
<path d="M41.5786 38.5322C40.494 38.5322 39.556 38.2777 38.7646 37.7686C37.9733 37.2594 37.3618 36.5373 36.9302 35.6021C36.5041 34.6668 36.291 33.5573 36.291 32.2734V32.2568C36.291 30.9674 36.5041 29.8551 36.9302 28.9199C37.3618 27.9847 37.9705 27.2625 38.7563 26.7534C39.5477 26.2443 40.4857 25.9897 41.5703 25.9897C42.4115 25.9897 43.1751 26.1558 43.8613 26.4878C44.5531 26.8143 45.123 27.2708 45.5713 27.8574C46.0195 28.4385 46.3018 29.1108 46.418 29.8745L46.4097 29.8911H44.9072L44.8989 29.8745C44.7661 29.3599 44.542 28.9172 44.2266 28.5464C43.9111 28.1701 43.5265 27.8796 43.0728 27.6748C42.6245 27.4701 42.1237 27.3677 41.5703 27.3677C40.8066 27.3677 40.1426 27.5669 39.5781 27.9653C39.0192 28.3638 38.5876 28.9282 38.2832 29.6587C37.9788 30.3892 37.8267 31.2552 37.8267 32.2568V32.2734C37.8267 33.2695 37.9788 34.1328 38.2832 34.8633C38.5876 35.5938 39.0192 36.1582 39.5781 36.5566C40.1426 36.9551 40.8094 37.1543 41.5786 37.1543C42.1375 37.1543 42.6439 37.0658 43.0977 36.8887C43.5514 36.7061 43.9333 36.4487 44.2432 36.1167C44.5531 35.7791 44.7689 35.3807 44.8906 34.9214L44.9072 34.9048H46.418V34.9214C46.2852 35.6519 45.9974 36.2882 45.5547 36.8306C45.112 37.3674 44.5503 37.7852 43.8696 38.084C43.1945 38.3828 42.4308 38.5322 41.5786 38.5322ZM50.7572 38.4077C50.1928 38.4077 49.6837 38.2998 49.2299 38.084C48.7816 37.8682 48.4247 37.561 48.1591 37.1626C47.899 36.7642 47.7689 36.2938 47.7689 35.7515V35.7349C47.7689 34.938 48.0512 34.3154 48.6156 33.8672C49.1856 33.4134 49.9908 33.1561 51.0311 33.0952L54.3183 32.896V34.0498L51.2055 34.249C50.5248 34.2878 50.0267 34.4289 49.7113 34.6724C49.4014 34.9159 49.2465 35.259 49.2465 35.7017V35.7183C49.2465 36.172 49.418 36.5262 49.7611 36.7808C50.1042 37.0298 50.5359 37.1543 51.056 37.1543C51.5486 37.1543 51.9857 37.0575 52.3676 36.8638C52.7494 36.6646 53.0482 36.3962 53.2641 36.0586C53.4854 35.721 53.5961 35.3392 53.5961 34.9131V32.124C53.5961 31.5706 53.4273 31.1501 53.0897 30.8623C52.7577 30.569 52.2569 30.4224 51.5873 30.4224C51.0505 30.4224 50.6106 30.5192 50.2675 30.7129C49.9244 30.901 49.6947 31.1694 49.5785 31.5181L49.5702 31.543H48.1259L48.1342 31.4932C48.2116 31.0228 48.4053 30.6133 48.7152 30.2646C49.0307 29.9105 49.4374 29.6366 49.9354 29.4429C50.4335 29.2437 51.0007 29.144 51.6371 29.144C52.3676 29.144 52.9846 29.263 53.4882 29.501C53.9973 29.7389 54.3819 30.082 54.642 30.5303C54.9076 30.973 55.0404 31.5042 55.0404 32.124V38.25H53.5961V36.9302H53.4633C53.2751 37.2456 53.0455 37.514 52.7743 37.7354C52.5087 37.9567 52.2071 38.1255 51.8695 38.2417C51.532 38.3524 51.1612 38.4077 50.7572 38.4077ZM57.2381 38.25V29.3018H58.6824V30.6465H58.8152C59.0421 30.1706 59.3686 29.8026 59.7947 29.5425C60.2208 29.2769 60.7631 29.144 61.4217 29.144C62.4288 29.144 63.2008 29.4318 63.7376 30.0073C64.2799 30.5773 64.5511 31.3936 64.5511 32.4561V38.25H63.1067V32.8047C63.1067 31.9967 62.9352 31.3991 62.5921 31.0117C62.2545 30.6188 61.7288 30.4224 61.0149 30.4224C60.539 30.4224 60.1267 30.5247 59.7781 30.7295C59.4295 30.9342 59.1583 31.2248 58.9646 31.6011C58.7765 31.9774 58.6824 32.4284 58.6824 32.9541V38.25H57.2381ZM70.3844 38.4077C69.5488 38.4077 68.8239 38.2168 68.2096 37.835C67.5954 37.4531 67.1195 36.9136 66.7819 36.2163C66.4443 35.519 66.2756 34.6973 66.2756 33.751V33.7344C66.2756 32.8047 66.4416 31.9967 66.7736 31.3105C67.1112 30.6243 67.5871 30.0931 68.2013 29.7168C68.8156 29.335 69.5405 29.144 70.3761 29.144C71.1011 29.144 71.7264 29.2713 72.2521 29.5259C72.7778 29.7804 73.1984 30.1235 73.5138 30.5552C73.8293 30.9813 74.0313 31.46 74.1198 31.9912L74.1281 32.041H72.6921L72.6838 32.0161C72.5731 31.5734 72.3213 31.1971 71.9284 30.8872C71.5355 30.5773 71.0181 30.4224 70.3761 30.4224C69.8394 30.4224 69.3745 30.5579 68.9816 30.8291C68.5887 31.1003 68.2844 31.4849 68.0685 31.9829C67.8582 32.4754 67.7531 33.0592 67.7531 33.7344V33.751C67.7531 34.4372 67.861 35.0348 68.0768 35.5439C68.2927 36.0475 68.597 36.4377 68.9899 36.7144C69.3828 36.991 69.8449 37.1294 70.3761 37.1294C70.9793 37.1294 71.4719 36.9993 71.8537 36.7393C72.2355 36.4792 72.5094 36.1001 72.6755 35.6021L72.6921 35.5522L74.1198 35.5439L74.1032 35.6353C73.9815 36.172 73.7656 36.6507 73.4557 37.0713C73.1458 37.4863 72.7363 37.8128 72.2272 38.0508C71.7181 38.2887 71.1039 38.4077 70.3844 38.4077ZM79.4468 38.4077C78.5946 38.4077 77.8614 38.2196 77.2471 37.8433C76.6384 37.467 76.168 36.9357 75.836 36.2495C75.5095 35.5578 75.3463 34.7443 75.3463 33.8091V33.8008C75.3463 32.8766 75.5095 32.0659 75.836 31.3687C76.168 30.6714 76.6356 30.1263 77.2388 29.7334C77.842 29.3405 78.5476 29.144 79.3555 29.144C80.169 29.144 80.8663 29.3322 81.4473 29.7085C82.0339 30.0848 82.4822 30.6105 82.7921 31.2856C83.1075 31.9552 83.2652 32.7355 83.2652 33.6265V34.1909H76.0933V33.0371H82.5264L81.8126 34.0913V33.5186C81.8126 32.8158 81.7074 32.2375 81.4971 31.7837C81.2868 31.3299 80.9963 30.9924 80.6256 30.771C80.2548 30.5441 79.8287 30.4307 79.3472 30.4307C78.8658 30.4307 78.4341 30.5496 78.0523 30.7876C77.676 31.02 77.3772 31.3659 77.1558 31.8252C76.9345 32.2845 76.8238 32.849 76.8238 33.5186V34.0913C76.8238 34.7277 76.9317 35.2728 77.1475 35.7266C77.3633 36.1748 77.6705 36.5207 78.0689 36.7642C78.4674 37.0021 78.9377 37.1211 79.48 37.1211C79.884 37.1211 80.2354 37.0658 80.5342 36.9551C80.8331 36.8444 81.0793 36.7033 81.273 36.5317C81.4667 36.3602 81.6023 36.1859 81.6798 36.0088L81.713 35.9341H83.1573L83.1407 36.0005C83.0632 36.3049 82.9249 36.6009 82.7257 36.8887C82.532 37.1709 82.2802 37.4282 81.9703 37.6606C81.6604 37.8875 81.2924 38.0701 80.8663 38.2085C80.4457 38.3413 79.9726 38.4077 79.4468 38.4077ZM85.1474 38.25V25.749H86.5918V38.25H85.1474Z" fill="#007AFF"/>
<path fill-rule="evenodd" clip-rule="evenodd" d="M373.029 32.25C373.029 26.6167 377.595 22.05 383.229 22.05C388.862 22.05 393.429 26.6167 393.429 32.25C393.429 37.8833 388.862 42.45 383.229 42.45C377.595 42.45 373.029 37.8833 373.029 32.25ZM383.229 20.45C376.712 20.45 371.429 25.7331 371.429 32.25C371.429 38.767 376.712 44.05 383.229 44.05C389.745 44.05 395.029 38.767 395.029 32.25C395.029 25.7331 389.745 20.45 383.229 20.45ZM383.229 33.5C383.919 33.5 384.479 32.9404 384.479 32.25C384.479 31.5597 383.919 31 383.229 31C382.538 31 381.979 31.5597 381.979 32.25C381.979 32.9404 382.538 33.5 383.229 33.5ZM379.479 32.25C379.479 32.9404 378.919 33.5 378.229 33.5C377.538 33.5 376.979 32.9404 376.979 32.25C376.979 31.5597 377.538 31 378.229 31C378.919 31 379.479 31.5597 379.479 32.25ZM388.229 33.5C388.919 33.5 389.479 32.9404 389.479 32.25C389.479 31.5597 388.919 31 388.229 31C387.538 31 386.979 31.5597 386.979 32.25C386.979 32.9404 387.538 33.5 388.229 33.5Z" fill="#007AFF"/>
<path d="M180.263 30.25L177.05 18.272H179.275L181.334 27.2617H181.45L183.816 18.272H185.716L188.107 27.2617H188.223L190.274 18.272H192.482L189.277 30.25H187.269L184.828 21.6753H184.704L182.28 30.25H180.263ZM195.551 30.3994C194.981 30.3994 194.469 30.2887 194.015 30.0674C193.567 29.846 193.213 29.5334 192.953 29.1294C192.698 28.7199 192.571 28.2384 192.571 27.6851V27.6685C192.571 26.8605 192.867 26.2241 193.459 25.7593C194.057 25.2944 194.909 25.0316 196.016 24.9707L199.369 24.7632V26.1245L196.306 26.3237C195.725 26.3569 195.296 26.4787 195.02 26.689C194.743 26.8993 194.605 27.1925 194.605 27.5688V27.5854C194.605 27.9728 194.751 28.2744 195.044 28.4902C195.343 28.7061 195.722 28.814 196.182 28.814C196.597 28.814 196.967 28.731 197.294 28.5649C197.62 28.3989 197.878 28.1748 198.066 27.8926C198.254 27.6048 198.348 27.2811 198.348 26.9214V24.0493C198.348 23.5955 198.204 23.2497 197.917 23.0117C197.629 22.7682 197.203 22.6465 196.638 22.6465C196.168 22.6465 195.783 22.7295 195.484 22.8955C195.186 23.056 194.984 23.2856 194.878 23.5845L194.87 23.6177H192.919L192.928 23.543C192.994 23.0339 193.193 22.5884 193.525 22.2065C193.857 21.8247 194.297 21.5286 194.845 21.3184C195.393 21.1081 196.024 21.0029 196.738 21.0029C197.524 21.0029 198.188 21.1247 198.73 21.3682C199.272 21.6061 199.685 21.9548 199.967 22.4141C200.249 22.8678 200.39 23.4129 200.39 24.0493V30.25H198.348V29.0049H198.207C198.041 29.2926 197.825 29.5417 197.56 29.752C197.299 29.9622 197.001 30.1227 196.663 30.2334C196.326 30.3441 195.955 30.3994 195.551 30.3994ZM206.331 33.4375C205.535 33.4375 204.846 33.3324 204.265 33.1221C203.689 32.9118 203.235 32.613 202.903 32.2256C202.571 31.8438 202.369 31.3983 202.297 30.8892L202.306 30.8643H204.364L204.381 30.8892C204.447 31.1769 204.649 31.4121 204.987 31.5947C205.33 31.7829 205.789 31.877 206.365 31.877C207.073 31.877 207.621 31.7192 208.008 31.4038C208.401 31.0884 208.598 30.6401 208.598 30.0591V28.3159H208.456C208.285 28.6424 208.061 28.9191 207.784 29.146C207.513 29.3729 207.2 29.5444 206.846 29.6606C206.497 29.7713 206.113 29.8267 205.692 29.8267C204.929 29.8267 204.267 29.644 203.708 29.2788C203.149 28.908 202.718 28.3962 202.413 27.7432C202.115 27.0902 201.965 26.3348 201.965 25.4771V25.4604C201.965 24.5861 202.117 23.8169 202.422 23.1528C202.726 22.4888 203.158 21.9686 203.717 21.5923C204.281 21.216 204.954 21.0278 205.734 21.0278C206.154 21.0278 206.539 21.0942 206.888 21.2271C207.242 21.3599 207.552 21.548 207.817 21.7915C208.088 22.035 208.31 22.3283 208.481 22.6714H208.589V21.1772H210.656V30.0259C210.656 30.7231 210.479 31.3263 210.125 31.8354C209.776 32.3501 209.278 32.7458 208.631 33.0225C207.983 33.2992 207.217 33.4375 206.331 33.4375ZM206.331 28.1831C206.807 28.1831 207.217 28.0697 207.56 27.8428C207.903 27.6104 208.166 27.2922 208.349 26.8882C208.537 26.4842 208.631 26.0138 208.631 25.4771V25.4604C208.631 24.9237 208.537 24.4533 208.349 24.0493C208.166 23.6398 207.903 23.3216 207.56 23.0947C207.217 22.8623 206.807 22.7461 206.331 22.7461C205.85 22.7461 205.441 22.8623 205.103 23.0947C204.771 23.3216 204.516 23.6398 204.339 24.0493C204.168 24.4533 204.082 24.9237 204.082 25.4604V25.4771C204.082 26.0083 204.168 26.4787 204.339 26.8882C204.516 27.2922 204.771 27.6104 205.103 27.8428C205.441 28.0697 205.85 28.1831 206.331 28.1831ZM212.746 30.25V21.1772H214.813V22.5884H214.954C215.148 22.0848 215.46 21.6947 215.892 21.418C216.329 21.1413 216.846 21.0029 217.444 21.0029C217.854 21.0029 218.222 21.0693 218.548 21.2021C218.88 21.335 219.165 21.5231 219.403 21.7666C219.641 22.0101 219.824 22.3006 219.951 22.6382H220.1C220.25 22.3117 220.457 22.0267 220.723 21.7832C220.994 21.5342 221.31 21.3433 221.669 21.2104C222.034 21.0721 222.427 21.0029 222.848 21.0029C223.457 21.0029 223.977 21.1247 224.409 21.3682C224.846 21.6061 225.18 21.9492 225.413 22.3975C225.651 22.8457 225.77 23.3825 225.77 24.0078V30.25H223.703V24.5142C223.703 23.922 223.567 23.4793 223.296 23.186C223.025 22.8872 222.613 22.7378 222.059 22.7378C221.7 22.7378 221.387 22.8208 221.121 22.9868C220.856 23.1473 220.648 23.3659 220.499 23.6426C220.355 23.9193 220.283 24.2319 220.283 24.5806V30.25H218.216V24.3647C218.216 23.8612 218.069 23.4655 217.776 23.1777C217.488 22.8844 217.09 22.7378 216.581 22.7378C216.243 22.7378 215.939 22.8263 215.668 23.0034C215.402 23.175 215.192 23.4129 215.037 23.7173C214.888 24.0161 214.813 24.3537 214.813 24.73V30.25H212.746ZM227.785 30.25V21.1772H229.843V30.25H227.785ZM228.822 19.6582C228.485 19.6582 228.194 19.5392 227.951 19.3013C227.707 19.0633 227.586 18.7783 227.586 18.4463C227.586 18.1032 227.707 17.8154 227.951 17.583C228.194 17.3451 228.485 17.2261 228.822 17.2261C229.16 17.2261 229.448 17.3451 229.686 17.583C229.929 17.8154 230.051 18.1032 230.051 18.4463C230.051 18.7783 229.929 19.0633 229.686 19.3013C229.448 19.5392 229.16 19.6582 228.822 19.6582ZM238.97 30.25V20.3804H238.821L235.841 22.4805V20.4717L238.97 18.272H241.103V30.25H238.97ZM246.929 30.25V20.3804H246.779L243.799 22.4805V20.4717L246.929 18.272H249.062V30.25H246.929Z" fill="white"/>
<path d="M208.043 46.3706C207.569 46.3706 207.148 46.2648 206.78 46.0532C206.411 45.8374 206.122 45.5391 205.91 45.1582H205.808V46.25H204.704V36.6904H205.808V40.4863H205.91C206.096 40.1224 206.38 39.8325 206.761 39.6167C207.146 39.3966 207.573 39.2866 208.043 39.2866C208.623 39.2866 209.126 39.4326 209.554 39.7246C209.985 40.0166 210.32 40.4271 210.557 40.9561C210.793 41.485 210.912 42.1071 210.912 42.8223V42.835C210.912 43.5459 210.793 44.168 210.557 44.7012C210.32 45.2301 209.985 45.6406 209.554 45.9326C209.126 46.2246 208.623 46.3706 208.043 46.3706ZM207.789 45.3931C208.208 45.3931 208.565 45.2915 208.862 45.0884C209.158 44.881 209.384 44.5869 209.541 44.2061C209.702 43.821 209.782 43.3639 209.782 42.835V42.8223C209.782 42.2891 209.702 41.832 209.541 41.4512C209.384 41.0703 209.158 40.7783 208.862 40.5752C208.565 40.3678 208.208 40.2642 207.789 40.2642C207.374 40.2642 207.017 40.3678 206.716 40.5752C206.416 40.7826 206.185 41.0767 206.024 41.4575C205.863 41.8384 205.783 42.2933 205.783 42.8223V42.835C205.783 43.3597 205.863 43.8146 206.024 44.1997C206.185 44.5806 206.416 44.8747 206.716 45.082C207.017 45.2894 207.374 45.3931 207.789 45.3931ZM215.36 46.3706C214.712 46.3706 214.152 46.2288 213.678 45.9453C213.208 45.6576 212.844 45.2492 212.586 44.7202C212.332 44.1912 212.205 43.5628 212.205 42.835V42.8223C212.205 42.0902 212.332 41.4596 212.586 40.9307C212.844 40.4017 213.208 39.9954 213.678 39.7119C214.152 39.4284 214.712 39.2866 215.36 39.2866C216.012 39.2866 216.572 39.4284 217.042 39.7119C217.512 39.9954 217.874 40.4017 218.127 40.9307C218.386 41.4596 218.515 42.0902 218.515 42.8223V42.835C218.515 43.5628 218.386 44.1912 218.127 44.7202C217.874 45.2492 217.512 45.6576 217.042 45.9453C216.572 46.2288 216.012 46.3706 215.36 46.3706ZM215.36 45.3931C215.792 45.3931 216.158 45.2915 216.458 45.0884C216.758 44.8853 216.987 44.5933 217.144 44.2124C217.304 43.8315 217.385 43.3724 217.385 42.835V42.8223C217.385 42.2806 217.304 41.8193 217.144 41.4385C216.987 41.0576 216.758 40.7677 216.458 40.5688C216.158 40.3657 215.792 40.2642 215.36 40.2642C214.928 40.2642 214.562 40.3657 214.262 40.5688C213.961 40.7677 213.731 41.0576 213.57 41.4385C213.413 41.8193 213.335 42.2806 213.335 42.8223V42.835C213.335 43.3724 213.413 43.8315 213.57 44.2124C213.731 44.5933 213.961 44.8853 214.262 45.0884C214.562 45.2915 214.928 45.3931 215.36 45.3931ZM222.582 46.3008C221.879 46.3008 221.369 46.159 221.052 45.8755C220.739 45.592 220.582 45.1243 220.582 44.4727V40.3213H219.503V39.4072H220.582V37.6362H221.725V39.4072H223.223V40.3213H221.725V44.1934C221.725 44.5954 221.801 44.8853 221.953 45.063C222.106 45.2365 222.359 45.3232 222.715 45.3232C222.812 45.3232 222.895 45.3211 222.963 45.3169C223.034 45.3127 223.121 45.3063 223.223 45.2979V46.2373C223.117 46.2542 223.011 46.269 222.905 46.2817C222.8 46.2944 222.692 46.3008 222.582 46.3008Z" fill="#8D8D99" fill-opacity="0.6"/>
<g clip-path="url(#clip0_90_3139)">
<rect width="428" height="926" transform="translate(0.228516 63.25)" fill="#030014"/>
<rect x="357.229" y="80.25" width="50" height="50" rx="15" fill="#615CFF"/>
<path d="M377.228 111.916C376.311 111.916 375.526 111.59 374.874 110.937C374.221 110.284 373.895 109.5 373.895 108.583V101.916C373.895 101 374.221 100.215 374.874 99.5622C375.526 98.9094 376.311 98.583 377.228 98.583H387.228C388.145 98.583 388.929 98.9094 389.582 99.5622C390.235 100.215 390.561 101 390.561 101.916V108.583C390.561 109.5 390.235 110.284 389.582 110.937C388.929 111.59 388.145 111.916 387.228 111.916H377.228ZM377.228 101.916H387.228C387.533 101.916 387.825 101.951 388.103 102.021C388.381 102.09 388.645 102.201 388.895 102.354V101.916C388.895 101.458 388.731 101.066 388.405 100.739C388.078 100.412 387.686 100.249 387.228 100.25H377.228C376.77 100.25 376.377 100.413 376.05 100.74C375.724 101.066 375.561 101.459 375.561 101.916V102.354C375.811 102.201 376.075 102.09 376.353 102.021C376.631 101.951 376.922 101.916 377.228 101.916ZM375.686 104.625L384.957 106.875C385.082 106.902 385.207 106.902 385.332 106.875C385.457 106.847 385.575 106.791 385.686 106.708L388.582 104.291C388.429 104.083 388.235 103.913 387.999 103.781C387.763 103.648 387.506 103.582 387.228 103.583H377.228C376.867 103.583 376.551 103.677 376.28 103.865C376.01 104.052 375.812 104.306 375.686 104.625Z" fill="white"/>
<rect x="357.229" y="80.25" width="50" height="50" rx="15" stroke="white" stroke-width="2"/>
<g clip-path="url(#clip1_90_3139)">
<path d="M307.229 115.25C307.229 115.755 307.039 116.241 306.696 116.611C306.353 116.981 305.882 117.207 305.379 117.245L305.229 117.25H303.229C302.725 117.25 302.239 117.06 301.869 116.717C301.499 116.373 301.272 115.903 301.234 115.4L301.229 115.25H307.229ZM304.229 98.25C306.044 98.25 307.788 98.9549 309.094 100.216C310.399 101.477 311.163 103.196 311.225 105.01L311.229 105.25V109.014L313.051 112.658C313.131 112.817 313.171 112.993 313.167 113.171C313.164 113.348 313.118 113.523 313.032 113.679C312.947 113.834 312.825 113.967 312.677 114.066C312.529 114.164 312.359 114.225 312.182 114.244L312.067 114.25H296.391C296.214 114.25 296.038 114.207 295.881 114.124C295.723 114.042 295.588 113.923 295.487 113.776C295.385 113.63 295.321 113.462 295.299 113.285C295.278 113.109 295.299 112.929 295.361 112.763L295.407 112.658L297.229 109.014V105.25C297.229 103.393 297.967 101.613 299.28 100.3C300.592 98.9875 302.373 98.25 304.229 98.25Z" fill="white"/>
</g>
<path d="M50.4566 90.7586C50.4566 90.3677 50.1397 90.0508 49.7488 90.0508H26.7174C26.3627 90.0506 26.0223 90.1905 25.7702 90.44L21.1281 95.0386C21.0016 95.1637 20.9011 95.3127 20.8325 95.4769C20.7639 95.641 20.7286 95.8172 20.7285 95.9952V128.087C20.7285 128.444 20.8703 128.787 21.1227 129.039C21.3751 129.291 21.7174 129.433 22.0743 129.433H52.3136C52.6018 129.433 52.8823 129.341 53.1139 129.169L59.9765 124.09C60.1455 123.965 60.2828 123.802 60.3774 123.614C60.4719 123.426 60.5211 123.219 60.5211 123.009V101.402C60.5211 100.996 60.1926 100.668 59.7873 100.668C59.3821 100.668 59.0536 100.996 59.0536 101.402V120.85C59.0536 121.371 58.6311 121.793 58.1099 121.793C53.1399 121.793 48.1671 121.79 43.1943 121.788C38.2215 121.785 33.2486 121.782 28.2787 121.782C27.7575 121.782 27.335 121.36 27.3349 120.838C27.3347 114.598 27.3348 108.357 27.3349 102.116C27.3349 99.0146 27.3349 95.9134 27.3349 92.8122V92.4103C27.3349 91.8895 27.7569 91.467 28.2777 91.4666C28.4373 91.4665 28.5828 91.4664 28.6808 91.4664H49.7488C50.1397 91.4664 50.4566 91.1495 50.4566 90.7586Z" fill="white"/>
<path fill-rule="evenodd" clip-rule="evenodd" d="M50.1989 109.983V103.499H47.0864V105.544H47.8712V109.983H50.1989ZM41.2244 107.743L39.9197 103.852H37.4436L36.1334 107.743L34.2937 103.852H31.8176L34.8275 109.983H37.4435L38.681 106.93L39.9196 109.983H42.5345L45.5446 103.852H43.0685L41.2244 107.743ZM54.4677 103.499V109.983H52.14V105.544H51.3552V103.499H54.4677Z" fill="white"/>
<path fill-rule="evenodd" clip-rule="evenodd" d="M53.4272 92.9827C53.4595 93.0378 53.4933 93.0912 53.5271 93.14C53.5326 93.1486 53.5383 93.1569 53.544 93.1651L53.5441 93.1654L53.5442 93.1654C53.5498 93.1736 53.5554 93.1817 53.5609 93.1903L53.5768 93.2137L53.5768 93.2138C53.5951 93.2408 53.6136 93.2679 53.6324 93.2941L53.6741 93.3507L53.6968 93.3808C53.7118 93.4009 53.7268 93.421 53.7425 93.4403L53.7889 93.497C53.8109 93.5245 53.8337 93.552 53.8565 93.5756L53.9069 93.6314C53.9297 93.6566 53.9525 93.6809 53.9761 93.7053L54.0279 93.758C54.0515 93.7816 54.0751 93.8044 54.0995 93.8264L54.1103 93.8363L54.1257 93.8505L54.126 93.8508L54.1263 93.8511C54.1357 93.8597 54.1437 93.8672 54.1537 93.8759L54.1578 93.8794C54.1761 93.8954 54.2042 93.9199 54.2269 93.9388L54.2827 93.9852L54.3613 94.0426L54.4179 94.0843L54.4183 94.0845C54.4449 94.1025 54.4715 94.1206 54.4966 94.1378L54.5524 94.1739C54.5747 94.1876 54.5981 94.2008 54.6212 94.2138L54.6397 94.2243L54.6565 94.2339L54.6652 94.239C54.675 94.2447 54.6814 94.2484 54.6924 94.2541C54.717 94.267 54.7421 94.2791 54.7672 94.2913L54.7977 94.306L54.8347 94.3233C54.8826 94.3454 54.9314 94.365 54.9809 94.3831L55.0218 94.3973L55.0527 94.4075C55.0783 94.416 55.1037 94.4245 55.1295 94.4318C55.1413 94.4356 55.1532 94.4386 55.165 94.4415C55.1728 94.4434 55.1807 94.4454 55.1885 94.4476L55.2813 94.4704L55.3465 94.483L55.3737 94.4877C55.3966 94.4918 55.4191 94.4959 55.4417 94.4987L55.4763 94.5034C55.5242 94.5089 55.5722 94.5144 55.621 94.5168L55.7947 94.5262L55.7405 94.4987L55.7186 94.4867C55.687 94.4694 55.655 94.4519 55.6257 94.4334L55.5172 94.3634L55.4739 94.3359C55.4594 94.326 55.4452 94.3152 55.4309 94.3044L55.4309 94.3044L55.4306 94.3042L55.4306 94.3042C55.4202 94.2963 55.4098 94.2885 55.3992 94.2809L55.3916 94.2754C55.3712 94.2607 55.3587 94.2518 55.3418 94.2384C55.3048 94.2103 55.2682 94.1795 55.232 94.1491L55.1979 94.1205L55.1759 94.1024C55.1217 94.0536 55.069 94.0033 55.0187 93.9506C55.0088 93.9408 54.9993 93.9306 54.9897 93.9203L54.9895 93.9201L54.9809 93.9109L54.9746 93.9043C54.9385 93.8657 54.9015 93.8256 54.8661 93.7863C54.8546 93.7733 54.8431 93.7595 54.8317 93.7458L54.8315 93.7456L54.8142 93.725C54.7943 93.7012 54.7747 93.6767 54.7551 93.6524L54.7546 93.6518L54.7191 93.6078L54.6688 93.5418C54.6365 93.4985 54.6051 93.4545 54.5744 93.4089C54.5689 93.4008 54.5632 93.3928 54.5576 93.3848L54.5575 93.3847L54.5575 93.3847C54.5495 93.3733 54.5414 93.3619 54.5335 93.3499C54.4903 93.2847 54.4478 93.2178 54.4069 93.1486C54.3362 93.0291 54.2701 92.9041 54.208 92.7751C54.1805 92.7185 54.1545 92.6603 54.1294 92.6022C53.7449 91.7341 53.5515 90.6679 53.6151 89.5223V89.516C53.6938 88.1211 54.149 86.8749 54.8197 85.9879C54.859 85.936 54.8984 85.8865 54.9393 85.8377L54.9636 85.8071L54.9812 85.7863L54.9814 85.7861C55.0152 85.7462 55.0485 85.7069 55.0847 85.6687L55.1044 85.6475C55.1209 85.63 55.1376 85.6131 55.1544 85.5962L55.1545 85.596L55.1545 85.596C55.1769 85.5735 55.1992 85.551 55.2207 85.5272L55.2412 85.5067C55.2637 85.4846 55.2865 85.4638 55.3095 85.4428L55.3096 85.4427L55.3096 85.4427C55.3299 85.4242 55.3503 85.4055 55.3709 85.3856L55.3984 85.3605C55.4889 85.2818 55.5816 85.2079 55.6768 85.1403L55.7059 85.1191C55.7531 85.0868 55.7994 85.0554 55.8474 85.0255L55.871 85.0121C55.9096 84.988 55.9482 84.9657 55.9873 84.9431L55.9873 84.9431L56.0039 84.9335L56.0204 84.9241H56.0275C56.0746 84.8989 56.1226 84.8753 56.1706 84.8533L56.1832 84.847L56.2012 84.8392C56.2537 84.8156 56.3061 84.7936 56.3585 84.7731L56.1847 84.7637H56.0055L55.9072 84.77L55.8419 84.7747C55.819 84.7747 55.7966 84.7786 55.7739 84.7826C55.7647 84.7843 55.7554 84.7859 55.746 84.7873L55.687 84.7959C55.6577 84.8009 55.6283 84.8074 55.5994 84.8138L55.5994 84.8138L55.5769 84.8187L55.5329 84.8281C55.4826 84.8407 55.4315 84.8549 55.3819 84.8714L55.3434 84.8848C55.3057 84.8973 55.2687 84.9107 55.2317 84.9249L55.1743 84.9492L55.1611 84.9548C55.1354 84.9656 55.1094 84.9765 55.0839 84.9886L55.0218 85.0192L54.9377 85.0625L54.8748 85.0986L54.7961 85.1466L54.796 85.1467C54.7748 85.16 54.7536 85.1734 54.7332 85.1875L54.6546 85.2402L54.5925 85.285L54.5139 85.3424L54.4525 85.3919C54.4274 85.4124 54.403 85.4336 54.3786 85.4548L54.3786 85.4548L54.3197 85.5075C54.2945 85.5303 54.2701 85.5539 54.2457 85.5775L54.1899 85.6317C54.1712 85.6504 54.153 85.6699 54.1346 85.6897L54.1343 85.6899L54.1152 85.7104L54.1048 85.7214L54.0982 85.7284C54.0846 85.7427 54.0763 85.7515 54.0641 85.7654L54.0547 85.7762L54.0543 85.7766L54.0541 85.7769C54.0354 85.7981 54.0064 85.8312 53.9855 85.8566L53.943 85.9061C53.9037 85.9538 53.8652 86.0026 53.8274 86.0524C53.2479 86.8182 52.8745 87.7712 52.7164 88.7682C52.6551 89.1525 52.626 89.5412 52.6291 89.9304C52.6291 90.009 52.6291 90.0876 52.6346 90.1662C52.6803 91.1703 52.9405 92.1571 53.4272 92.9827ZM56.8232 88.4985L56.8074 88.5L56.8224 88.4985H56.8232ZM56.6393 88.518L56.633 88.5187C56.6059 88.5216 56.5816 88.524 56.5606 88.5253L56.6392 89.4602C56.6951 89.4562 57.0693 89.4303 57.1606 89.4271C57.435 89.3815 57.7015 89.2581 57.707 88.9121C57.6433 88.5253 57.2675 88.4757 56.9467 88.4899L56.8539 88.4993L56.6235 88.5198L56.633 88.5187L56.6832 88.5131L56.7206 88.5089L56.6393 88.518ZM66.1124 91.8505C66.1172 91.8843 66.1172 91.9252 66.1172 91.9629L66.1156 92.0486V92.2499C66.1149 92.2671 66.1136 92.2844 66.1123 92.3018V92.3019C66.1104 92.3266 66.1085 92.3516 66.1085 92.3765C66.1079 92.3861 66.107 92.3957 66.1061 92.4053L66.1061 92.4054L66.1061 92.4055C66.1046 92.4218 66.103 92.4383 66.103 92.4551C66.0991 92.5015 66.0936 92.5487 66.0881 92.5959C66.0873 92.6035 66.0862 92.6112 66.0851 92.6187L66.0851 92.6188C66.083 92.6337 66.081 92.6484 66.081 92.6635C66.0716 92.7319 66.0613 92.8011 66.0487 92.8711C66.0299 92.9953 66.0024 93.1211 65.9701 93.2477C65.7294 94.15 65.3061 94.9933 64.7262 95.7253C64.3774 96.175 63.982 96.5867 63.5468 96.9535C63.3429 97.1247 63.1303 97.2853 62.9099 97.4347C62.7657 97.5327 62.6205 97.6236 62.4743 97.7075C61.9273 98.0282 61.3332 98.2607 60.7138 98.3963C60.643 98.4105 60.5723 98.4238 60.5015 98.4348L60.4871 98.4375C60.4699 98.4409 60.4525 98.4443 60.4347 98.4443C60.3875 98.4513 60.3395 98.4584 60.2923 98.4639L60.2805 98.4654H60.2805C60.2583 98.4682 60.2357 98.471 60.2137 98.471L60.1947 98.4729L60.1746 98.4752L60.1744 98.4752L60.1744 98.4752C60.1448 98.4786 60.1152 98.482 60.0863 98.482C60.058 98.4859 60.0305 98.4859 60.003 98.4859L59.8827 98.4907H59.7978C59.7863 98.4907 59.7732 98.4912 59.7599 98.4917C59.7323 98.4927 59.7034 98.4938 59.6838 98.4907C59.666 98.4878 59.652 98.4875 59.6354 98.4872H59.6354C59.6249 98.4871 59.6132 98.4869 59.5988 98.4859C59.5619 98.4836 59.5163 98.4804 59.488 98.4781C59.471 98.4767 59.4571 98.475 59.441 98.473C59.4302 98.4717 59.4183 98.4702 59.4038 98.4686C59.3677 98.4647 59.3323 98.4608 59.2969 98.4553L59.2136 98.4411L59.2026 98.4391C59.1701 98.4332 59.1324 98.4264 59.1106 98.4215C59.0862 98.416 59.0595 98.4097 59.0319 98.4026L58.9321 98.3782L58.8534 98.3538C58.8212 98.3444 58.789 98.3342 58.7575 98.3232L58.6789 98.2949C58.6663 98.29 58.6532 98.2846 58.6402 98.2792L58.6402 98.2792C58.6217 98.2716 58.6032 98.2639 58.5861 98.2579C58.5639 98.2501 58.5444 98.2414 58.5252 98.2328L58.5249 98.2326L58.5075 98.2249L58.4186 98.1824C58.3951 98.1703 58.3768 98.1604 58.3494 98.1456L58.349 98.1453L58.3463 98.1439C58.3269 98.1334 58.3058 98.1212 58.2869 98.1103L58.2728 98.1021L58.2606 98.0951L58.2492 98.0887C58.23 98.078 58.2118 98.0678 58.1914 98.0527C58.167 98.0346 58.1348 98.0126 58.1128 97.9977C58.0999 97.9889 58.0892 97.981 58.0771 97.9721C58.0684 97.9657 58.059 97.9587 58.0475 97.9505C58.02 97.9308 57.9901 97.9072 57.9689 97.8899C57.9476 97.8726 57.9264 97.8553 57.9059 97.8372C57.8698 97.8058 57.8336 97.7743 57.799 97.7405L57.5113 97.4716L57.5246 97.4771L57.5333 97.4818L57.5466 97.4889L57.5694 97.5007L57.5804 97.507L57.6174 97.5267L57.6583 97.5487L57.6803 97.5605L57.6921 97.5668L57.7165 97.5793L57.7322 97.5864C57.7748 97.6023 57.8189 97.6163 57.8623 97.63L57.8737 97.6336L57.8895 97.6391L57.9484 97.6564H57.9547C58.0192 97.6753 58.0837 97.691 58.1489 97.7059L58.1812 97.7138C58.2456 97.728 58.3109 97.7405 58.377 97.7515L58.41 97.7563C58.4776 97.7665 58.5452 97.7759 58.6144 97.783H58.6349L58.6507 97.7845L58.6692 97.7862C58.727 97.7917 58.7848 97.7971 58.8432 97.7971H59.1058C59.1758 97.7956 59.245 97.7916 59.3158 97.7861H59.3551C59.4259 97.7798 59.4974 97.7712 59.569 97.761L59.6004 97.7563C59.6759 97.7453 59.753 97.7319 59.8284 97.7162C59.9039 97.7004 59.9802 97.6823 60.0557 97.6635C60.1312 97.6446 60.2051 97.6234 60.2837 97.6006C61.1091 97.3425 61.8791 96.9329 62.5545 96.3928C62.8486 96.1613 63.1268 95.9102 63.3872 95.6412C64.4605 94.5293 65.1327 93.2225 65.3466 92.0038C65.3592 91.9315 65.3694 91.8599 65.3788 91.7883L65.3799 91.7822L65.3811 91.7762C65.3831 91.7661 65.3851 91.756 65.3851 91.7459C65.393 91.6767 65.4001 91.6075 65.4056 91.5391V91.5006L65.4073 91.4774C65.4115 91.4197 65.4158 91.3615 65.4158 91.304V91.039C65.4134 90.9722 65.4095 90.9061 65.404 90.8401V90.8118C65.3985 90.7497 65.3914 90.6883 65.3828 90.627V90.6011C65.3725 90.5366 65.3615 90.4729 65.349 90.41L65.3462 90.3995L65.3461 90.3992L65.3461 90.3991C65.3436 90.3897 65.3411 90.3806 65.3411 90.3715C65.3269 90.3086 65.312 90.2457 65.2955 90.1835C65.2944 90.1792 65.2933 90.1749 65.2919 90.1706L65.2892 90.1623C65.2782 90.1222 65.2664 90.0829 65.253 90.0436L65.2483 90.0263C65.2455 90.0199 65.2431 90.0133 65.2412 90.0066C65.22 89.9453 65.198 89.884 65.1736 89.8242L65.3112 89.9649C65.356 90.0098 65.4024 90.0585 65.441 90.1025C65.4795 90.1466 65.5172 90.1922 65.5526 90.2394L65.5668 90.259C65.5966 90.2999 65.6265 90.3416 65.6548 90.384C65.6616 90.3947 65.668 90.4056 65.6746 90.4166L65.6871 90.4375C65.7075 90.4697 65.7272 90.5028 65.746 90.5358L65.7489 90.541C65.759 90.5591 65.7655 90.5707 65.7798 90.5995L65.8008 90.6409C65.8112 90.6613 65.8213 90.6811 65.8278 90.6946C65.8338 90.7071 65.8382 90.7175 65.8433 90.7295L65.8434 90.7297L65.8435 90.7299C65.8476 90.7397 65.8522 90.7506 65.8585 90.7646C65.8726 90.796 65.8859 90.8273 65.8992 90.8587L65.8994 90.859L65.9269 90.9337C65.9317 90.9479 65.9368 90.962 65.9418 90.9762L65.9419 90.9764L65.942 90.9766L65.9421 90.9769C65.9483 90.9945 65.9546 91.0122 65.9607 91.0304L65.9843 91.109C65.9899 91.1288 65.9961 91.1514 66.0017 91.1717L66.0066 91.1895L66.0118 91.2081C66.0189 91.2332 66.0236 91.2529 66.0314 91.2867C66.0357 91.305 66.04 91.3266 66.0439 91.3462C66.0471 91.3628 66.0502 91.3781 66.0527 91.3889C66.0582 91.4125 66.0629 91.4329 66.0684 91.4675C66.0739 91.5021 66.0802 91.5438 66.0841 91.5721L66.0866 91.5898L66.0867 91.59L66.0867 91.5904L66.0867 91.5906C66.0896 91.6104 66.0921 91.6284 66.0951 91.6563C66.0966 91.6696 66.0974 91.6842 66.0982 91.6985L66.0982 91.6986C66.0996 91.723 66.1009 91.747 66.1054 91.7648C66.1093 91.7806 66.1096 91.7949 66.1099 91.8104C66.1101 91.8226 66.1104 91.8355 66.1124 91.8505ZM59.9313 88.9507C59.9911 88.9192 60.0508 88.8885 60.1106 88.8595L60.1507 88.8429C60.1931 88.8224 60.236 88.803 60.2786 88.7838L60.2787 88.7837L60.2789 88.7836L60.3024 88.773L60.3418 88.7557L60.3976 88.7313L60.5171 88.6818L60.6594 88.6259L60.7561 88.5905L60.9024 88.541L60.9944 88.5119C61.0455 88.4954 61.0982 88.4805 61.1516 88.4663L61.1826 88.4578L61.1826 88.4578C61.1986 88.4533 61.2144 88.4489 61.2303 88.4451C61.3089 88.4246 61.3875 88.4066 61.4661 88.39C61.7437 88.3313 62.0262 88.2995 62.3098 88.2949C62.3581 88.2917 62.4061 88.2928 62.4537 88.2939C62.4774 88.2944 62.501 88.2949 62.5245 88.2949C62.7037 88.3026 62.882 88.3246 63.0576 88.3609C63.1315 88.3759 63.2156 88.3971 63.2762 88.4136C63.3367 88.4301 63.3957 88.4498 63.4547 88.4702C63.6277 88.5316 63.794 88.6106 63.9508 88.7061C64.1068 88.8019 64.2515 88.9148 64.3825 89.0427C64.3922 89.0524 64.4017 89.0625 64.4112 89.0727L64.4113 89.0729L64.4115 89.073L64.4169 89.0788L64.4265 89.089C64.4415 89.107 64.4584 89.1253 64.4755 89.1439L64.4893 89.1588L64.5051 89.1763C65.1114 89.8643 65.3095 90.8606 65.1169 91.9558C65.1043 92.029 65.0901 92.1013 65.0736 92.1752C65.0571 92.2491 65.0367 92.3333 65.0194 92.3977L65.0161 92.41L65.016 92.4103C64.9998 92.4707 64.9835 92.5317 64.9643 92.5927C64.9439 92.658 64.9234 92.7233 64.9006 92.7893C64.8716 92.8734 64.8401 92.9576 64.8071 93.0417C64.763 93.1549 64.7159 93.2674 64.664 93.3798C64.6037 93.5088 64.5384 93.6398 64.4682 93.773C64.3979 93.9061 64.3227 94.0371 64.2425 94.1661C63.9492 94.6373 63.6065 95.0759 63.2203 95.4745C62.6097 96.1134 61.891 96.6393 61.0974 97.0282C60.9496 97.0989 60.8025 97.1634 60.6547 97.2208L60.6256 97.2314C60.5615 97.2546 60.4979 97.2776 60.4338 97.2995C60.2865 97.3508 60.1402 97.3949 59.995 97.4315C59.9219 97.4496 59.8409 97.4693 59.7772 97.4819C59.7135 97.4945 59.649 97.5062 59.5853 97.5165L59.535 97.5251C59.48 97.5338 59.4249 97.5408 59.3699 97.5471H59.3432C59.2811 97.5542 59.2199 97.5589 59.1586 97.5636L59.1584 97.5636H59.1112C59.0609 97.5691 59.0106 97.5691 58.961 97.5691H58.7039C58.656 97.5668 58.608 97.5636 58.5608 97.5589L58.5168 97.555C58.4602 97.5495 58.4028 97.5424 58.3469 97.5338L58.3171 97.5283C58.2717 97.5216 58.2278 97.5128 58.1833 97.5039L58.1755 97.5023L58.1315 97.4929C58.0765 97.4803 58.0222 97.4669 57.9687 97.452H57.9577C57.9082 97.4371 57.8587 97.4213 57.8099 97.404L57.7682 97.3891C57.7211 97.3718 57.6747 97.3537 57.6291 97.334L57.6141 97.3285C57.5819 97.3144 57.5536 97.301 57.5198 97.2829C57.5029 97.2739 57.4841 97.2645 57.4649 97.2549L57.4647 97.2548C57.4455 97.2452 57.4258 97.2354 57.4073 97.2255C57.3845 97.213 57.3617 97.2004 57.3397 97.187C57.3035 97.166 57.2682 97.144 57.2336 97.121L57.1699 97.0785C57.1329 97.0549 57.0975 97.0274 57.0622 96.9999L57.0622 96.9999L57.0103 96.9598L56.9847 96.9387C56.9401 96.9021 56.8925 96.863 56.8609 96.8261C56.8396 96.8012 56.8172 96.7786 56.795 96.7561C56.7779 96.7388 56.7609 96.7216 56.7445 96.7034L56.7107 96.6641C56.6855 96.6343 56.6604 96.6036 56.6368 96.5729L56.6014 96.5265C56.5778 96.4951 56.5558 96.4628 56.5338 96.4306L56.526 96.4191C56.5189 96.4087 56.5118 96.3983 56.5055 96.3874C56.4764 96.3418 56.4481 96.2962 56.4221 96.2482C56.422 96.2475 56.422 96.2469 56.422 96.2462C56.4219 96.2453 56.422 96.2444 56.4221 96.2435C56.393 96.1947 56.3671 96.1444 56.3435 96.0933C56.3383 96.0828 56.3337 96.0723 56.3292 96.0618L56.3223 96.0461C56.3058 96.0099 56.29 95.973 56.2751 95.936L56.2539 95.8802C56.2427 95.8535 56.2325 95.8223 56.2225 95.7918L56.2145 95.7678L56.1972 95.7151C56.1823 95.6648 56.1674 95.6137 56.1548 95.5618C56.153 95.5569 56.1517 95.5519 56.1509 95.5468C56.1367 95.4902 56.1249 95.4328 56.1139 95.3746C56.1129 95.3692 56.1116 95.3636 56.1103 95.358C56.1074 95.3456 56.1045 95.3328 56.1045 95.3204C56.0974 95.2795 56.0911 95.2378 56.0856 95.1961L56.0831 95.1805C56.0804 95.1645 56.0777 95.1483 56.0777 95.1317C56.0763 95.118 56.0746 95.105 56.073 95.0925C56.0694 95.0638 56.0659 95.0372 56.0659 95.0082C56.0604 94.9878 56.0604 94.9673 56.0604 94.9469C56.0541 94.8935 56.0541 94.8399 56.0541 94.7857V94.5726C56.0541 94.5655 56.0535 94.5595 56.0529 94.5535C56.0517 94.5414 56.0505 94.5294 56.0541 94.5089C56.0596 94.4783 56.0596 94.4468 56.0596 94.4154V94.3847C56.0636 94.3344 56.0683 94.2809 56.0746 94.2274C56.0752 94.2205 56.0761 94.2136 56.0771 94.2069L56.0771 94.2068C56.0786 94.196 56.0801 94.1854 56.0801 94.1747L56.0872 94.1221C56.0958 94.0537 56.1053 93.986 56.1178 93.9168C56.1288 93.8534 56.1414 93.7897 56.1556 93.7258C56.1584 93.7124 56.1609 93.702 56.1636 93.6906L56.1637 93.6905C56.1671 93.6764 56.1708 93.6608 56.176 93.6361C56.1845 93.596 56.1955 93.5532 56.2033 93.5227L56.2059 93.5127C56.2093 93.4993 56.2125 93.488 56.2159 93.4761L56.2161 93.4753L56.2161 93.4753C56.2204 93.4602 56.225 93.4437 56.2311 93.4199C56.242 93.3768 56.2561 93.3297 56.2656 93.2983L56.2657 93.298C56.2699 93.284 56.2737 93.2721 56.2779 93.2593C56.283 93.2435 56.2886 93.2265 56.2955 93.2029C56.3067 93.1651 56.3185 93.1311 56.331 93.0952L56.3687 92.9867C56.3784 92.9584 56.3902 92.9284 56.4005 92.9022L56.4063 92.8875L56.415 92.8648C56.4268 92.8333 56.4355 92.8105 56.452 92.7697C56.4685 92.7288 56.4905 92.6761 56.5039 92.6454L56.5171 92.6148C56.5258 92.5943 56.5346 92.5739 56.544 92.5534C56.5629 92.5102 56.5833 92.4669 56.6038 92.4245C56.6171 92.3954 56.6305 92.3663 56.6446 92.3372C56.6682 92.2892 56.6926 92.2421 56.7178 92.1941L56.7298 92.1705L56.7302 92.1697L56.7302 92.1697C56.7384 92.1534 56.7466 92.1372 56.7555 92.121C56.7709 92.0934 56.7859 92.066 56.8009 92.0386L56.801 92.0383L56.8012 92.0381C56.825 91.9945 56.8487 91.9509 56.8742 91.9071L56.8892 91.8819C56.9208 91.8245 56.9563 91.7677 56.9922 91.7104L57.0024 91.694C57.0163 91.6683 57.0308 91.6463 57.0454 91.6242L57.0512 91.6154C57.0802 91.5698 57.1093 91.5242 57.14 91.4786C57.1526 91.4597 57.1659 91.4408 57.1792 91.4219L57.199 91.3937C57.2281 91.352 57.2658 91.2985 57.287 91.2686C57.2969 91.2548 57.3054 91.2436 57.3145 91.2316C57.3252 91.2177 57.3367 91.2025 57.3523 91.1806C57.3814 91.1397 57.4121 91.1004 57.4427 91.0611L57.5096 90.9746C57.5227 90.9591 57.5364 90.9416 57.55 90.9242C57.5689 90.9001 57.5874 90.8764 57.6039 90.859C57.6193 90.8427 57.6318 90.8282 57.645 90.8128C57.6561 90.7999 57.6679 90.7862 57.6825 90.7701C57.6988 90.7522 57.7174 90.7306 57.7352 90.71L57.7353 90.7098L57.7356 90.7095C57.7528 90.6895 57.7693 90.6704 57.7824 90.6561C57.8091 90.627 57.8351 90.5987 57.861 90.5696L57.9124 90.5149L57.913 90.5143L57.913 90.5142C57.9464 90.4786 57.9798 90.443 58.0183 90.4029C58.0765 90.3424 58.1354 90.2842 58.1952 90.226L58.2109 90.2111L58.2573 90.1663L58.2923 90.1343C58.3215 90.1076 58.3508 90.0809 58.376 90.0562C58.4045 90.0283 58.4366 90.0005 58.4677 89.9735L58.4901 89.954L58.5805 89.8722L58.6976 89.7755C58.7086 89.7666 58.7188 89.7582 58.729 89.7499L58.729 89.7499C58.7485 89.7338 58.7683 89.7175 58.7951 89.6968L58.8348 89.6664L58.8349 89.6663C58.8639 89.6441 58.8926 89.6221 58.9147 89.6049L58.9302 89.5926C58.9549 89.5732 58.9763 89.5564 59.0129 89.5309C59.039 89.5128 59.0659 89.4932 59.0903 89.4756L59.0905 89.4754L59.0907 89.4752L59.0909 89.4751C59.1074 89.4631 59.1226 89.4521 59.1356 89.4429L59.1678 89.4199L59.1679 89.4198C59.1894 89.4045 59.2108 89.3891 59.2323 89.3745L59.3605 89.2903L59.3896 89.2713C59.409 89.2585 59.4284 89.2458 59.4478 89.2337L59.4666 89.2219L59.5062 89.1964C59.5352 89.1776 59.5619 89.1603 59.5909 89.1433L59.6836 89.0867C59.7339 89.0576 59.7843 89.0301 59.8345 89.0026L59.8346 89.0026L59.8873 88.9735L59.9313 88.9507ZM55.0014 86.1192C54.9212 86.2241 54.8442 86.3357 54.7703 86.4542C54.3556 87.1316 54.0743 87.8821 53.9415 88.6652C53.8464 89.1988 53.8103 89.7412 53.8338 90.2826C53.8503 90.6794 53.9014 91.0741 53.9863 91.462C54.0194 91.6104 54.0571 91.7556 54.0996 91.8976C54.142 92.0397 54.1889 92.1773 54.2403 92.3104C54.3386 92.568 54.458 92.8171 54.5973 93.0551L54.6073 93.0717C54.6438 93.1327 54.6796 93.1924 54.7199 93.2501L54.7624 93.3114C54.7907 93.3533 54.8198 93.3942 54.8497 93.434C54.8599 93.4479 54.8703 93.4613 54.8807 93.4746L54.8808 93.4747L54.8809 93.4748C54.8881 93.484 54.8953 93.4932 54.9024 93.5025C54.9299 93.5378 54.9582 93.5724 54.9865 93.6062C55.0148 93.6401 55.025 93.6518 55.0447 93.6739C55.0643 93.6959 55.1013 93.7368 55.1304 93.7666L55.1566 93.7938L55.1566 93.7939C55.1694 93.8072 55.179 93.8174 55.1925 93.8303L55.2089 93.8462C55.2302 93.8668 55.2581 93.8939 55.2814 93.9153L55.345 93.9734L55.4394 94.0521L55.5031 94.1024C55.5182 94.1138 55.5334 94.1249 55.5486 94.1359C55.5688 94.1506 55.589 94.1653 55.6092 94.181L55.6666 94.2203C55.7217 94.2565 55.7775 94.2903 55.8349 94.321C55.8396 94.2612 55.8459 94.2015 55.8538 94.1409V94.1236C55.864 94.045 55.8758 93.9664 55.8892 93.8877C55.9016 93.8147 55.914 93.7565 55.9277 93.6925L55.9277 93.6924L55.9308 93.6778L55.9497 93.5992C55.9599 93.5567 55.9701 93.5142 55.9812 93.4718L55.9845 93.459C55.9937 93.4235 56.0002 93.3982 56.0087 93.3672L56.037 93.2681C56.0496 93.2265 56.0621 93.1856 56.0755 93.1439C56.0795 93.1309 56.0838 93.1182 56.0881 93.1055L56.0881 93.1054L56.0975 93.0771C56.1807 92.8284 56.2784 92.5847 56.39 92.3474H56.3672L56.309 91.569L56.107 91.5839H56.1022L55.4889 91.6295L55.3639 91.6382L55.415 91.0713L55.7099 91.0453L55.7767 91.0414C55.8162 91.0352 55.8522 91.0152 55.8782 90.985C55.9043 90.9547 55.9188 90.9162 55.919 90.8763L55.7578 88.7698C55.7486 88.7323 55.7314 88.6972 55.7075 88.6668C55.6781 88.6347 55.641 88.6107 55.5998 88.597C55.5585 88.5832 55.5144 88.5802 55.4716 88.5882C55.4415 88.5857 55.4113 88.5857 55.3812 88.5882L55.1508 88.6086H55.1312L55.0942 88.1077L55.3922 88.0731L55.4944 88.0661H55.511L56.0417 88.026L55.9843 87.2593H56.0362L56.4002 87.2318H56.4521L56.508 87.9937L56.5724 87.9882L56.7549 87.9764H56.7541L56.5724 87.9882L56.8673 87.9623H56.8814L56.8264 87.2035L57.2424 87.1721H57.2935L57.3517 87.9411C57.9595 87.9481 58.4234 88.136 58.5476 88.6487C58.6191 89.0513 58.454 89.3202 58.1945 89.4782C58.3085 89.513 58.415 89.5686 58.5086 89.6422C58.469 89.675 58.4298 89.7082 58.3908 89.7418C58.2407 89.8706 58.0935 90.0071 57.9492 90.1513C57.781 89.9068 57.3532 89.8942 57.0175 89.9154L56.7155 89.9421L56.6605 89.9477L56.747 90.9785L57.0419 90.9517C57.0726 90.9517 57.1091 90.95 57.1502 90.9481L57.1502 90.9481C57.1828 90.9466 57.2182 90.9449 57.2557 90.9439C57.2919 90.8967 57.3296 90.8503 57.3674 90.8039L57.3674 90.8039C57.3831 90.7835 57.3996 90.763 57.4161 90.7434C57.4484 90.7041 57.4814 90.6647 57.5144 90.6262L57.5985 90.5295L57.6205 90.5046C57.6389 90.4836 57.6574 90.4625 57.6772 90.4422C57.7338 90.3793 57.792 90.3164 57.8517 90.2551C58.0233 90.075 58.2032 89.9038 58.3908 89.7418C58.43 89.7082 58.4695 89.6751 58.5091 89.6426L58.5086 89.6422C59.0415 89.2006 59.6329 88.8325 60.2672 88.5488C60.2076 88.0852 60.0961 87.6297 59.9346 87.1909C59.8625 86.9942 59.7785 86.8019 59.683 86.6154C59.6421 86.5367 59.5996 86.4581 59.5556 86.3834C59.0154 85.4682 58.2394 84.8895 57.3611 84.8431H57.1975C57.1433 84.8431 57.0953 84.8431 57.0442 84.8509C56.8916 84.8615 56.7404 84.8873 56.5929 84.928C56.0024 85.1033 55.4536 85.5209 55.0014 86.1192ZM63.1254 91.1352L59.4837 90.6183C59.3862 90.6045 59.2315 90.583 59.0537 90.6287C58.8878 90.6714 58.731 90.7572 58.6042 90.8745C58.4773 90.9917 58.3865 91.1348 58.3438 91.2844C58.2974 91.4471 58.3305 91.583 58.3519 91.6708L58.3527 91.6741L59.2092 95.7232C59.2282 95.813 59.3019 95.8774 59.4026 95.892C59.5034 95.9067 59.6158 95.8694 59.6975 95.7942L63.4033 92.3844L63.4067 92.3812C63.5273 92.2674 63.6138 92.1296 63.663 91.9987C63.7148 91.861 63.7266 91.7279 63.7008 91.5993C63.6993 91.5919 63.6974 91.5847 63.6952 91.5776C63.6664 91.4862 63.623 91.362 63.4885 91.2681C63.3762 91.1897 63.2542 91.1535 63.1254 91.1352ZM59.283 91.152L60.8074 91.3684L59.5989 94.5822L58.9417 91.4753L58.9403 91.4691C58.9164 91.3709 58.9164 91.3435 58.923 91.3206C58.9344 91.2805 58.9587 91.2423 58.9924 91.2111C59.0261 91.1799 59.0675 91.1574 59.1108 91.1463C59.1422 91.1382 59.1828 91.1378 59.283 91.152ZM60.1582 94.6764L61.372 91.4486L62.9246 91.669C62.9934 91.6788 63.033 91.6936 63.068 91.718C63.0764 91.7239 63.0817 91.7297 63.0876 91.7399C63.0945 91.7519 63.1016 91.7689 63.112 91.8007C63.1183 91.8404 63.1139 91.8774 63.0984 91.9186C63.0793 91.9693 63.0471 92.017 63.0142 92.0486L60.1582 94.6764Z" fill="white"/>
<rect x="20.2285" y="225.25" width="184" height="56" rx="16" fill="#101020"/>
<path d="M53.9985 250.91L52.5885 249.5L56.8085 245.25L58.2285 246.69L53.9985 250.91ZM38.2285 246.75C38.2285 245.822 38.5973 244.931 39.2536 244.275C39.91 243.619 40.8003 243.25 41.7285 243.25C42.6568 243.25 43.547 243.619 44.2034 244.275C44.8598 244.931 45.2285 245.822 45.2285 246.75C45.2285 247.678 44.8598 248.568 44.2034 249.225C43.547 249.881 42.6568 250.25 41.7285 250.25C40.8003 250.25 39.91 249.881 39.2536 249.225C38.5973 248.568 38.2285 247.678 38.2285 246.75ZM43.3385 263.01L40.5085 260.18C40.321 259.989 40.216 259.732 40.216 259.465C40.216 259.198 40.321 258.941 40.5085 258.75L48.9985 250.28C49.3885 249.89 50.0185 249.89 50.4085 250.28L53.2285 253.11C53.3235 253.202 53.3989 253.313 53.4505 253.435C53.502 253.557 53.5286 253.688 53.5286 253.82C53.5286 253.952 53.502 254.083 53.4505 254.205C53.3989 254.327 53.3235 254.438 53.2285 254.53L44.7585 263.01C44.3585 263.4 43.7285 263.4 43.3385 263.01Z" fill="#F2F5F7"/>
<path d="M71.835 260.359C71.3975 260.359 71.1377 260.086 71.1377 259.628V251.247C71.1377 250.652 71.5137 250.276 72.1221 250.276C72.6416 250.276 72.9492 250.509 73.1816 251.083L76.1006 258.172H76.1553L79.0674 251.083C79.2998 250.516 79.6143 250.276 80.1475 250.276C80.7422 250.276 81.1182 250.646 81.1182 251.247V259.628C81.1182 260.086 80.8516 260.359 80.4209 260.359C79.9834 260.359 79.7168 260.086 79.7168 259.628V252.99H79.6689L76.9209 259.614C76.7568 260.011 76.5107 260.188 76.1279 260.188C75.7451 260.188 75.4922 260.011 75.335 259.628L72.5801 252.99H72.5322V259.628C72.5322 260.086 72.2725 260.359 71.835 260.359ZM83.7021 260.359C83.2236 260.359 82.9365 260.059 82.9365 259.566V251.069C82.9365 250.577 83.2236 250.276 83.7021 250.276C84.1738 250.276 84.4678 250.577 84.4678 251.069V259.566C84.4678 260.059 84.1738 260.359 83.7021 260.359ZM87.0518 260.359C86.5732 260.359 86.2861 260.059 86.2861 259.566V251.069C86.2861 250.577 86.5732 250.276 87.0518 250.276C87.5234 250.276 87.8174 250.577 87.8174 251.069V259.566C87.8174 260.059 87.5234 260.359 87.0518 260.359ZM95.0703 260.38C94.5439 260.38 94.2568 260.161 94.0518 259.628L91.9189 254.016C91.8711 253.886 91.8369 253.742 91.8369 253.605C91.8369 253.195 92.1514 252.929 92.582 252.929C92.9238 252.929 93.1562 253.113 93.2793 253.51L95.0635 258.808H95.0908L96.875 253.496C96.998 253.113 97.2305 252.929 97.5654 252.929C97.9893 252.929 98.29 253.209 98.29 253.599C98.29 253.729 98.2627 253.872 98.2148 253.995L96.082 259.628C95.8906 260.147 95.5762 260.38 95.0703 260.38ZM101.927 260.387C100.512 260.387 99.4727 259.806 99.1309 258.924C99.083 258.814 99.0693 258.712 99.0693 258.616C99.0693 258.247 99.3359 258.028 99.7051 258.028C99.9512 258.028 100.163 258.145 100.348 258.418C100.717 258.999 101.147 259.259 102.002 259.259C102.843 259.259 103.41 258.896 103.41 258.302C103.41 257.83 103.13 257.577 102.357 257.393L101.223 257.126C99.8281 256.798 99.1445 256.114 99.1445 255.089C99.1445 253.79 100.272 252.929 101.981 252.929C103.28 252.929 104.347 253.592 104.552 254.439C104.565 254.521 104.579 254.59 104.579 254.658C104.579 254.986 104.374 255.205 104.005 255.205C103.766 255.205 103.554 255.123 103.41 254.891C103.089 254.344 102.651 254.057 101.927 254.057C101.134 254.057 100.587 254.446 100.587 255.007C100.587 255.458 100.936 255.772 101.694 255.95L102.809 256.21C104.319 256.559 104.9 257.099 104.9 258.165C104.9 259.498 103.704 260.387 101.927 260.387ZM113.309 260.414C110.485 260.414 108.708 258.438 108.708 255.273C108.708 252.163 110.479 250.222 113.288 250.222C115.127 250.222 116.604 251.138 117.15 252.457C117.239 252.676 117.26 252.847 117.26 253.018C117.26 253.421 116.993 253.694 116.576 253.694C116.228 253.694 116.002 253.53 115.811 253.147C115.312 252.102 114.437 251.562 113.295 251.562C111.408 251.562 110.273 252.942 110.273 255.26C110.273 257.618 111.442 259.074 113.322 259.074C114.922 259.074 116.029 258.049 116.05 256.552V256.381H114.061C113.664 256.381 113.391 256.135 113.391 255.766C113.391 255.39 113.664 255.144 114.061 255.144H116.795C117.267 255.144 117.561 255.444 117.561 255.943V256.189C117.561 258.794 115.995 260.414 113.309 260.414ZM122.257 260.359C121.778 260.359 121.491 260.059 121.491 259.566V251.712H119.071C118.647 251.712 118.36 251.452 118.36 251.049C118.36 250.646 118.647 250.386 119.071 250.386H125.436C125.859 250.386 126.146 250.646 126.146 251.049C126.146 251.452 125.859 251.712 125.436 251.712H123.022V259.566C123.022 260.059 122.729 260.359 122.257 260.359ZM130.501 260.359C130.022 260.359 129.735 260.059 129.735 259.566V251.712H127.315C126.892 251.712 126.604 251.452 126.604 251.049C126.604 250.646 126.892 250.386 127.315 250.386H133.68C134.104 250.386 134.391 250.646 134.391 251.049C134.391 251.452 134.104 251.712 133.68 251.712H131.267V259.566C131.267 260.059 130.973 260.359 130.501 260.359Z" fill="white"/>
<rect x="145.729" y="244.75" width="42" height="20" rx="7.5" fill="#191929"/>
<path d="M153.979 256.5L157.479 254.25L153.979 252V256.5ZM153.229 259.25V258.25H151.229C150.954 258.25 150.718 258.152 150.522 257.956C150.326 257.76 150.228 257.525 150.229 257.25V251.25C150.229 250.975 150.327 250.74 150.523 250.544C150.719 250.348 150.954 250.25 151.229 250.25H159.229C159.504 250.25 159.739 250.348 159.935 250.544C160.131 250.74 160.229 250.975 160.229 251.25V257.25C160.229 257.525 160.131 257.761 159.935 257.957C159.739 258.153 159.503 258.25 159.229 258.25H157.229V259.25H153.229Z" fill="#EF4444"/>
<path d="M166.464 258.25C166.168 258.25 165.98 258.057 165.98 257.75V250.924C165.98 250.618 166.168 250.424 166.464 250.424C166.759 250.424 166.947 250.618 166.947 250.924V257.38H170.304C170.578 257.38 170.766 257.557 170.766 257.815C170.766 258.073 170.578 258.25 170.304 258.25H166.464ZM172.12 251.724C171.803 251.724 171.54 251.461 171.54 251.144C171.54 250.822 171.803 250.564 172.12 250.564C172.442 250.564 172.705 250.822 172.705 251.144C172.705 251.461 172.442 251.724 172.12 251.724ZM172.12 258.347C171.846 258.347 171.652 258.143 171.652 257.847V253.067C171.652 252.771 171.846 252.567 172.12 252.567C172.394 252.567 172.587 252.771 172.587 253.067V257.847C172.587 258.143 172.394 258.347 172.12 258.347ZM175.896 258.347C175.589 258.347 175.417 258.212 175.283 257.874L173.505 253.239C173.473 253.158 173.457 253.078 173.457 252.997C173.457 252.739 173.645 252.567 173.924 252.567C174.134 252.567 174.273 252.68 174.359 252.922L175.89 257.256H175.912L177.448 252.922C177.534 252.68 177.673 252.567 177.877 252.567C178.157 252.567 178.339 252.739 178.339 252.997C178.339 253.078 178.323 253.158 178.291 253.239L176.519 257.874C176.395 258.196 176.196 258.347 175.896 258.347ZM181.347 258.347C179.698 258.347 178.731 257.283 178.731 255.479C178.731 253.717 179.725 252.567 181.267 252.567C182.695 252.567 183.7 253.636 183.7 255.167C183.7 255.505 183.506 255.709 183.184 255.709H179.693C179.693 256.837 180.311 257.536 181.31 257.536C181.976 257.536 182.384 257.299 182.819 256.666C182.916 256.531 183.023 256.478 183.168 256.478C183.415 256.478 183.582 256.639 183.582 256.886C183.582 256.961 183.555 257.058 183.512 257.16C183.152 257.917 182.368 258.347 181.347 258.347ZM179.698 254.979H182.733C182.711 254.012 182.115 253.378 181.25 253.378C180.38 253.378 179.757 254.018 179.698 254.979Z" fill="#F2F5F7"/>
<rect x="145.729" y="244.75" width="42" height="20" rx="7.5" stroke="#F2F5F7"/>
<rect x="20.7285" y="225.75" width="183" height="55" rx="15.5" stroke="white" stroke-opacity="0.1"/>
<rect x="20.2285" y="375.25" width="204" height="127" rx="16" fill="#101020"/>
<path d="M103.229 402.35C102.76 402.35 102.473 402.062 102.473 401.564V394.48C102.473 393.982 102.76 393.695 103.229 393.695C103.703 393.695 103.984 393.982 103.984 394.48V401.564C103.984 402.062 103.703 402.35 103.229 402.35ZM106.229 402.35C105.76 402.35 105.473 402.062 105.473 401.564V394.58C105.473 394.088 105.76 393.795 106.229 393.795H108.76C110.441 393.795 111.607 394.938 111.607 396.625C111.607 398.312 110.406 399.455 108.695 399.455H106.984V401.564C106.984 402.062 106.703 402.35 106.229 402.35ZM106.984 398.236H108.355C109.439 398.236 110.072 397.65 110.072 396.625C110.072 395.611 109.445 395.031 108.361 395.031H106.984V398.236ZM113.471 402.25C113.002 402.25 112.715 401.957 112.715 401.465V394.48C112.715 393.982 113.002 393.695 113.471 393.695C113.945 393.695 114.227 393.982 114.227 394.48V400.973H117.467C117.877 400.973 118.158 401.219 118.158 401.611C118.158 402.004 117.883 402.25 117.467 402.25H113.471ZM124.369 402.35C123.9 402.35 123.619 402.062 123.619 401.564V395.072H121.686C121.275 395.072 120.994 394.826 120.994 394.434C120.994 394.041 121.27 393.795 121.686 393.795H127.059C127.475 393.795 127.75 394.041 127.75 394.434C127.75 394.826 127.469 395.072 127.059 395.072H125.125V401.564C125.125 402.062 124.844 402.35 124.369 402.35ZM129.268 402.25C128.799 402.25 128.553 401.992 128.553 401.611C128.553 401.318 128.652 401.143 128.975 400.838L131.559 398.277C132.637 397.211 132.906 396.783 132.906 396.139C132.906 395.383 132.326 394.838 131.512 394.838C130.75 394.838 130.217 395.225 129.918 395.986C129.766 396.291 129.59 396.449 129.244 396.449C128.834 396.449 128.588 396.197 128.588 395.822C128.588 395.711 128.605 395.605 128.635 395.506C128.863 394.592 129.877 393.625 131.523 393.625C133.217 393.625 134.383 394.627 134.383 396.045C134.383 397.035 133.908 397.703 132.508 399.074L130.568 400.984V401.014H133.943C134.342 401.014 134.588 401.26 134.588 401.635C134.588 402.004 134.342 402.25 133.943 402.25H129.268ZM138.83 402.42C136.744 402.42 135.502 400.727 135.502 398.014C135.502 395.312 136.756 393.625 138.83 393.625C140.898 393.625 142.146 395.301 142.146 398.008C142.146 400.715 140.91 402.42 138.83 402.42ZM138.83 401.184C139.973 401.184 140.623 400.018 140.623 398.014C140.623 396.033 139.961 394.861 138.83 394.861C137.693 394.861 137.025 396.039 137.025 398.008C137.025 400.012 137.682 401.184 138.83 401.184Z" fill="#FFB63B"/>
<rect x="20.7285" y="375.75" width="203" height="126" rx="15.5" stroke="white" stroke-opacity="0.1"/>
<rect x="244.229" y="375.25" width="316" height="127" rx="16" fill="#101020"/>
<path d="M373.729 402.25C373.26 402.25 372.973 401.957 372.973 401.465V394.58C372.973 394.088 373.26 393.795 373.729 393.795H376.482C378.018 393.795 379.008 394.621 379.008 395.904C379.008 396.812 378.334 397.604 377.467 397.744V397.791C378.615 397.902 379.418 398.729 379.418 399.848C379.418 401.336 378.322 402.25 376.518 402.25H373.729ZM374.484 397.357H375.867C376.922 397.357 377.514 396.912 377.514 396.127C377.514 395.389 377.004 394.973 376.102 394.973H374.484V397.357ZM374.484 401.072H376.172C377.285 401.072 377.877 400.609 377.877 399.742C377.877 398.881 377.268 398.43 376.107 398.43H374.484V401.072ZM382.523 402.361C381.176 402.361 380.32 401.488 380.32 400.053V396.684C380.32 396.197 380.619 395.916 381.047 395.916C381.475 395.916 381.779 396.197 381.779 396.689V399.76C381.779 400.65 382.213 401.131 383.033 401.131C383.877 401.131 384.398 400.533 384.398 399.631V396.684C384.398 396.197 384.703 395.916 385.131 395.916C385.553 395.916 385.857 396.197 385.857 396.689V401.629C385.857 402.098 385.576 402.367 385.16 402.367C384.738 402.367 384.451 402.098 384.451 401.629V401.172H384.422C384.094 401.928 383.467 402.361 382.523 402.361ZM387.779 402.367C387.352 402.367 387.053 402.092 387.053 401.6V396.654C387.053 396.203 387.316 395.916 387.75 395.916C388.178 395.916 388.471 396.203 388.471 396.654V397.088H388.5C388.834 396.35 389.479 395.922 390.434 395.922C391.805 395.922 392.584 396.801 392.584 398.236V401.6C392.584 402.092 392.285 402.367 391.857 402.367C391.43 402.367 391.125 402.092 391.125 401.6V398.529C391.125 397.65 390.715 397.158 389.883 397.158C389.045 397.158 388.512 397.762 388.512 398.652V401.6C388.512 402.092 388.207 402.367 387.779 402.367ZM396.076 402.35C394.512 402.35 393.498 401.113 393.498 399.139C393.498 397.176 394.512 395.934 396.076 395.934C396.967 395.934 397.67 396.396 397.998 397.082H398.033V394.445C398.033 393.953 398.332 393.678 398.76 393.678C399.188 393.678 399.492 393.953 399.492 394.445V401.635C399.492 402.104 399.193 402.367 398.771 402.367C398.35 402.367 398.033 402.109 398.033 401.635V401.148H398.004C397.705 401.863 397.037 402.35 396.076 402.35ZM396.516 401.154C397.436 401.154 398.039 400.375 398.039 399.145C398.039 397.926 397.436 397.135 396.516 397.135C395.578 397.135 394.992 397.914 394.992 399.145C394.992 400.381 395.572 401.154 396.516 401.154ZM403.477 402.373C401.578 402.373 400.459 401.184 400.459 399.168C400.459 397.188 401.602 395.91 403.395 395.91C405.094 395.91 406.254 397.117 406.254 398.805C406.254 399.238 406.008 399.496 405.574 399.496H401.912V399.543C401.912 400.58 402.516 401.248 403.465 401.248C404.121 401.248 404.549 401.02 405.018 400.422C405.17 400.252 405.305 400.188 405.51 400.188C405.838 400.188 406.096 400.398 406.096 400.75C406.096 400.861 406.061 400.99 405.996 401.119C405.586 401.91 404.66 402.373 403.477 402.373ZM401.924 398.535H404.824C404.795 397.633 404.221 397.041 403.4 397.041C402.58 397.041 401.982 397.645 401.924 398.535ZM409.594 402.373C408.281 402.373 407.361 401.869 407.062 401.125C407.021 401.02 407.004 400.926 407.004 400.838C407.004 400.486 407.262 400.264 407.613 400.264C407.854 400.264 408.059 400.375 408.246 400.621C408.574 401.096 408.949 401.307 409.646 401.307C410.326 401.307 410.777 401.02 410.777 400.551C410.777 400.176 410.543 399.971 409.904 399.824L408.896 399.596C407.684 399.32 407.086 398.723 407.086 397.82C407.086 396.666 408.082 395.91 409.617 395.91C410.812 395.91 411.738 396.496 411.932 397.211C411.949 397.287 411.961 397.357 411.961 397.428C411.961 397.732 411.768 397.949 411.398 397.949C411.188 397.949 410.977 397.873 410.842 397.68C410.555 397.252 410.197 396.982 409.582 396.982C408.943 396.982 408.504 397.293 408.504 397.738C408.504 398.102 408.773 398.348 409.418 398.494L410.408 398.711C411.721 399.01 412.242 399.484 412.242 400.404C412.242 401.594 411.176 402.373 409.594 402.373ZM413.936 402.367C413.508 402.367 413.203 402.092 413.203 401.6V394.445C413.203 393.953 413.508 393.678 413.936 393.678C414.363 393.678 414.662 393.953 414.662 394.445V401.6C414.662 402.092 414.363 402.367 413.936 402.367ZM416.666 395.166C416.215 395.166 415.857 394.814 415.857 394.375C415.857 393.93 416.215 393.584 416.666 393.584C417.123 393.584 417.48 393.93 417.48 394.375C417.48 394.814 417.123 395.166 416.666 395.166ZM416.666 402.367C416.221 402.367 415.939 402.074 415.939 401.6V396.684C415.939 396.215 416.221 395.916 416.666 395.916C417.111 395.916 417.398 396.215 417.398 396.689V401.6C417.398 402.074 417.111 402.367 416.666 402.367ZM421.301 404.588C420.111 404.582 419.197 404.125 418.781 403.457C418.693 403.311 418.658 403.17 418.658 403.018C418.658 402.695 418.898 402.455 419.268 402.455C419.473 402.455 419.619 402.525 419.801 402.701C420.287 403.188 420.721 403.422 421.312 403.428C422.303 403.439 422.895 402.883 422.895 402.057V401.066H422.865C422.543 401.734 421.811 402.186 420.92 402.186C419.361 402.186 418.365 400.979 418.365 399.068C418.365 397.123 419.35 395.934 420.949 395.934C421.834 395.934 422.52 396.391 422.877 397.094H422.9V396.66C422.9 396.18 423.217 395.916 423.633 395.916C424.055 395.916 424.359 396.18 424.359 396.66V402.051C424.359 403.615 423.217 404.6 421.301 404.588ZM421.365 401.049C422.297 401.049 422.906 400.293 422.906 399.08C422.906 397.873 422.297 397.088 421.365 397.088C420.445 397.088 419.859 397.861 419.859 399.08C419.859 400.311 420.445 401.049 421.365 401.049ZM427.371 402.35C426.17 402.35 425.297 401.594 425.297 400.475C425.297 399.373 426.146 398.711 427.658 398.617L429.305 398.523V398.078C429.305 397.428 428.865 397.053 428.145 397.053C427.576 397.053 427.207 397.246 426.844 397.779C426.691 397.979 426.498 398.072 426.252 398.072C425.895 398.072 425.637 397.838 425.637 397.486C425.637 397.352 425.672 397.223 425.736 397.088C426.053 396.367 427.014 395.91 428.203 395.91C429.744 395.91 430.746 396.725 430.746 397.973V401.635C430.746 402.104 430.447 402.367 430.037 402.367C429.639 402.367 429.363 402.127 429.34 401.693V401.26H429.311C428.953 401.934 428.174 402.35 427.371 402.35ZM427.816 401.248C428.637 401.248 429.305 400.697 429.305 399.947V399.473L427.863 399.561C427.16 399.607 426.756 399.924 426.756 400.416C426.756 400.926 427.184 401.248 427.816 401.248Z" fill="#FFB63B"/>
<rect x="244.729" y="375.75" width="315" height="126" rx="15.5" stroke="white" stroke-opacity="0.1"/>
<rect x="224.229" y="225.25" width="201.302" height="56" rx="16" fill="#101020"/>
<g clip-path="url(#clip2_90_3139)">
<path d="M263.87 256.152C262.266 262.584 255.75 266.494 249.327 264.89C242.895 263.287 238.985 256.771 240.588 250.348C242.191 243.916 248.699 240.006 255.131 241.61C261.554 243.203 265.473 249.72 263.87 256.152Z" fill="url(#paint0_linear_90_3139)"/>
<path d="M257.943 251.754C258.177 250.161 256.968 249.298 255.299 248.726L255.843 246.561L254.53 246.233L254.005 248.342C253.658 248.258 253.302 248.173 252.946 248.098L253.471 245.979L252.158 245.651L251.624 247.808C251.333 247.742 251.052 247.676 250.78 247.611V247.601L248.961 247.151L248.614 248.558C248.614 248.558 249.589 248.783 249.571 248.792C250.105 248.923 250.199 249.279 250.18 249.561L249.561 252.026C249.599 252.036 249.646 252.045 249.702 252.073C249.655 252.064 249.608 252.054 249.561 252.036L248.699 255.486C248.633 255.645 248.464 255.889 248.099 255.795C248.108 255.814 247.143 255.561 247.143 255.561L246.486 257.07L248.202 257.501C248.521 257.586 248.83 257.661 249.139 257.745L248.596 259.929L249.908 260.258L250.452 258.092C250.808 258.186 251.164 258.279 251.502 258.364L250.968 260.52L252.28 260.848L252.824 258.664C255.074 259.086 256.761 258.917 257.464 256.883C258.036 255.251 257.436 254.304 256.255 253.686C257.127 253.489 257.774 252.917 257.943 251.754ZM254.933 255.973C254.53 257.604 251.774 256.723 250.883 256.498L251.605 253.601C252.496 253.826 255.364 254.267 254.933 255.973ZM255.346 251.726C254.971 253.217 252.683 252.458 251.943 252.27L252.599 249.645C253.339 249.833 255.73 250.179 255.346 251.726Z" fill="white"/>
</g>
<path d="M275.903 260.25C275.425 260.25 275.138 259.949 275.138 259.457V251.179C275.138 250.687 275.425 250.386 275.903 250.386H279.075C280.825 250.386 281.974 251.356 281.974 252.847C281.974 253.893 281.201 254.829 280.217 254.993V255.048C281.557 255.198 282.459 256.148 282.459 257.461C282.459 259.197 281.194 260.25 279.096 260.25H275.903ZM276.669 254.583H278.385C279.711 254.583 280.442 254.036 280.442 253.059C280.442 252.143 279.813 251.637 278.706 251.637H276.669V254.583ZM276.669 258.999H278.781C280.162 258.999 280.894 258.432 280.894 257.365C280.894 256.299 280.142 255.752 278.692 255.752H276.669V258.999ZM284.387 251.972C283.915 251.972 283.532 251.589 283.532 251.124C283.532 250.652 283.915 250.283 284.387 250.283C284.865 250.283 285.248 250.652 285.248 251.124C285.248 251.589 284.865 251.972 284.387 251.972ZM284.387 260.38C283.942 260.38 283.648 260.072 283.648 259.601V253.715C283.648 253.236 283.942 252.929 284.387 252.929C284.831 252.929 285.125 253.236 285.125 253.715V259.601C285.125 260.072 284.831 260.38 284.387 260.38ZM287.066 258.527V254.228H286.547C286.164 254.228 285.932 254.009 285.932 253.646C285.932 253.277 286.164 253.059 286.547 253.059H287.066V251.992C287.066 251.521 287.36 251.206 287.812 251.206C288.256 251.206 288.55 251.521 288.55 251.992V253.059H289.391C289.773 253.059 290.006 253.284 290.006 253.646C290.006 254.009 289.773 254.228 289.391 254.228H288.55V258.199C288.55 258.773 288.748 259.033 289.281 259.074L289.397 259.081C289.821 259.122 290.033 259.293 290.033 259.642C290.033 260.086 289.691 260.312 288.967 260.312H288.892C287.682 260.312 287.066 259.717 287.066 258.527ZM294.032 260.387C291.975 260.387 290.635 258.958 290.635 256.668C290.635 254.392 291.968 252.929 294.019 252.929C295.406 252.929 296.596 253.667 296.91 254.672C296.951 254.788 296.979 254.911 296.979 255.014C296.979 255.39 296.712 255.622 296.35 255.622C296.035 255.622 295.857 255.499 295.68 255.171C295.311 254.487 294.805 254.159 294.046 254.159C292.891 254.159 292.139 255.123 292.139 256.654C292.139 258.22 292.904 259.149 294.046 259.149C294.846 259.149 295.331 258.794 295.68 258.172C295.885 257.816 296.042 257.693 296.363 257.693C296.726 257.693 296.992 257.939 296.992 258.309C296.992 258.425 296.965 258.548 296.91 258.691C296.534 259.683 295.365 260.387 294.032 260.387ZM301.278 260.387C299.221 260.387 297.867 258.972 297.867 256.654C297.867 254.344 299.228 252.929 301.278 252.929C303.329 252.929 304.689 254.344 304.689 256.654C304.689 258.972 303.336 260.387 301.278 260.387ZM301.278 259.17C302.44 259.17 303.186 258.254 303.186 256.654C303.186 255.062 302.434 254.146 301.278 254.146C300.123 254.146 299.371 255.062 299.371 256.654C299.371 258.254 300.123 259.17 301.278 259.17ZM306.617 251.972C306.146 251.972 305.763 251.589 305.763 251.124C305.763 250.652 306.146 250.283 306.617 250.283C307.096 250.283 307.479 250.652 307.479 251.124C307.479 251.589 307.096 251.972 306.617 251.972ZM306.617 260.38C306.173 260.38 305.879 260.072 305.879 259.601V253.715C305.879 253.236 306.173 252.929 306.617 252.929C307.062 252.929 307.355 253.236 307.355 253.715V259.601C307.355 260.072 307.062 260.38 306.617 260.38ZM309.604 260.38C309.167 260.38 308.866 260.086 308.866 259.601V253.674C308.866 253.223 309.14 252.929 309.57 252.929C309.994 252.929 310.288 253.223 310.288 253.681V254.248H310.322C310.712 253.428 311.464 252.936 312.571 252.936C314.157 252.936 315.066 253.947 315.066 255.595V259.601C315.066 260.086 314.759 260.38 314.321 260.38C313.891 260.38 313.583 260.086 313.583 259.601V255.882C313.583 254.802 313.077 254.207 312.052 254.207C311.013 254.207 310.343 254.945 310.343 256.06V259.601C310.343 260.086 310.035 260.38 309.604 260.38Z" fill="white"/>
<rect x="326.729" y="244.75" width="82.3023" height="20" rx="7.5" fill="#191929"/>
<path d="M335.747 250.621C335.789 250.493 335.97 250.493 336.012 250.621L337.175 254.183C337.19 254.227 337.225 254.261 337.27 254.274L341.058 255.348C341.193 255.387 341.193 255.578 341.058 255.617L337.27 256.691C337.225 256.704 337.19 256.738 337.175 256.782L336.012 260.344C335.97 260.472 335.789 260.472 335.747 260.344L334.584 256.782C334.57 256.738 334.534 256.704 334.49 256.691L330.702 255.617C330.566 255.578 330.566 255.387 330.702 255.348L334.49 254.274C334.534 254.261 334.57 254.227 334.584 254.183L335.747 250.621Z" fill="#BEF264"/>
<path d="M338.354 248.865C338.366 248.829 338.417 248.829 338.429 248.865L338.759 249.877C338.763 249.889 338.773 249.899 338.786 249.902L339.862 250.208C339.9 250.218 339.9 250.273 339.862 250.284L338.786 250.589C338.773 250.593 338.763 250.602 338.759 250.615L338.429 251.626C338.417 251.662 338.366 251.662 338.354 251.626L338.023 250.615C338.019 250.602 338.009 250.593 337.997 250.589L336.921 250.284C336.883 250.273 336.883 250.218 336.921 250.208L337.997 249.902C338.009 249.899 338.019 249.889 338.023 249.877L338.354 248.865Z" fill="#BEF264"/>
<path d="M340.006 252.59C340.013 252.567 340.046 252.567 340.053 252.59L340.261 253.227C340.264 253.235 340.27 253.241 340.278 253.243L340.955 253.435C340.98 253.442 340.98 253.476 340.955 253.483L340.278 253.675C340.27 253.678 340.264 253.684 340.261 253.692L340.053 254.329C340.046 254.351 340.013 254.351 340.006 254.329L339.798 253.692C339.795 253.684 339.789 253.678 339.781 253.675L339.104 253.483C339.079 253.476 339.079 253.442 339.104 253.435L339.781 253.243C339.789 253.241 339.795 253.235 339.798 253.227L340.006 252.59Z" fill="#BEF264"/>
<path d="M346.766 258.325C346.471 258.325 346.283 258.132 346.283 257.826V250.924C346.283 250.618 346.471 250.424 346.766 250.424C347.062 250.424 347.25 250.618 347.25 250.924V253.851H351.503V250.924C351.503 250.618 351.691 250.424 351.987 250.424C352.282 250.424 352.47 250.618 352.47 250.924V257.826C352.47 258.132 352.282 258.325 351.987 258.325C351.691 258.325 351.503 258.132 351.503 257.826V254.721H347.25V257.826C347.25 258.132 347.062 258.325 346.766 258.325ZM356.144 258.347C354.597 258.347 353.555 257.235 353.555 255.457C353.555 253.674 354.597 252.567 356.144 252.567C357.686 252.567 358.728 253.674 358.728 255.457C358.728 257.235 357.686 258.347 356.144 258.347ZM356.144 257.525C357.132 257.525 357.777 256.773 357.777 255.457C357.777 254.141 357.132 253.389 356.144 253.389C355.156 253.389 354.506 254.141 354.506 255.457C354.506 256.773 355.156 257.525 356.144 257.525ZM359.974 256.961V253.432H359.506C359.238 253.432 359.087 253.292 359.087 253.045C359.087 252.804 359.238 252.664 359.506 252.664H359.974V251.708C359.974 251.413 360.167 251.208 360.441 251.208C360.715 251.208 360.908 251.413 360.908 251.708V252.664H361.628C361.897 252.664 362.047 252.804 362.047 253.045C362.047 253.292 361.897 253.432 361.628 253.432H360.908V256.757C360.908 257.229 361.075 257.455 361.542 257.487L361.623 257.493C361.929 257.514 362.068 257.638 362.068 257.858C362.068 258.143 361.907 258.293 361.386 258.293H361.327C360.425 258.293 359.974 257.853 359.974 256.961ZM367.837 258.325C367.542 258.325 367.354 258.132 367.354 257.826V251.37H365.291C365.017 251.37 364.829 251.192 364.829 250.935C364.829 250.677 365.017 250.5 365.291 250.5H370.383C370.657 250.5 370.845 250.677 370.845 250.935C370.845 251.192 370.657 251.37 370.383 251.37H368.32V257.826C368.32 258.132 368.132 258.325 367.837 258.325ZM370.872 258.347C370.598 258.347 370.404 258.143 370.404 257.847V253.04C370.404 252.761 370.587 252.567 370.845 252.567C371.103 252.567 371.285 252.761 371.285 253.04V253.577H371.307C371.468 252.997 372.016 252.567 372.574 252.567C372.778 252.567 372.923 252.616 373.015 252.702C373.095 252.777 373.133 252.884 373.133 253.013C373.133 253.158 373.085 253.266 372.988 253.341C372.891 253.421 372.746 253.459 372.542 253.459C371.699 253.459 371.339 254.066 371.339 254.78V257.847C371.339 258.143 371.146 258.347 370.872 258.347ZM375.872 258.347C374.223 258.347 373.256 257.283 373.256 255.479C373.256 253.717 374.25 252.567 375.792 252.567C377.22 252.567 378.225 253.636 378.225 255.167C378.225 255.505 378.031 255.709 377.709 255.709H374.218C374.218 256.837 374.836 257.536 375.835 257.536C376.501 257.536 376.909 257.299 377.344 256.666C377.441 256.531 377.548 256.478 377.693 256.478C377.94 256.478 378.107 256.639 378.107 256.886C378.107 256.961 378.08 257.058 378.037 257.16C377.677 257.917 376.893 258.347 375.872 258.347ZM374.223 254.979H377.258C377.236 254.012 376.64 253.378 375.775 253.378C374.905 253.378 374.282 254.018 374.223 254.979ZM379.637 258.347C379.363 258.347 379.17 258.143 379.17 257.847V253.04C379.17 252.761 379.353 252.567 379.61 252.567C379.868 252.567 380.051 252.761 380.051 253.04V253.556H380.072C380.384 252.954 380.98 252.567 381.845 252.567C383.069 252.567 383.778 253.357 383.778 254.625V257.847C383.778 258.143 383.585 258.347 383.311 258.347C383.037 258.347 382.844 258.143 382.844 257.847V254.791C382.844 253.889 382.42 253.395 381.56 253.395C380.679 253.395 380.105 254.018 380.105 254.963V257.847C380.105 258.143 379.911 258.347 379.637 258.347ZM387.087 258.347C385.664 258.347 384.697 257.208 384.697 255.457C384.697 253.706 385.658 252.567 387.066 252.567C387.866 252.567 388.51 252.959 388.843 253.572H388.865V250.902C388.865 250.607 389.058 250.403 389.332 250.403C389.606 250.403 389.799 250.607 389.799 250.902V257.89C389.799 258.159 389.611 258.347 389.343 258.347C389.08 258.347 388.865 258.164 388.865 257.89V257.251H388.849C388.543 257.917 387.962 258.347 387.087 258.347ZM387.264 257.525C388.226 257.525 388.87 256.708 388.87 255.457C388.87 254.211 388.226 253.389 387.264 253.389C386.276 253.389 385.653 254.195 385.653 255.457C385.653 256.725 386.276 257.525 387.264 257.525ZM391.577 251.724C391.26 251.724 390.997 251.461 390.997 251.144C390.997 250.822 391.26 250.564 391.577 250.564C391.899 250.564 392.163 250.822 392.163 251.144C392.163 251.461 391.899 251.724 391.577 251.724ZM391.577 258.347C391.303 258.347 391.11 258.143 391.11 257.847V253.067C391.11 252.771 391.303 252.567 391.577 252.567C391.851 252.567 392.045 252.771 392.045 253.067V257.847C392.045 258.143 391.851 258.347 391.577 258.347ZM393.774 258.347C393.5 258.347 393.307 258.143 393.307 257.847V253.04C393.307 252.761 393.489 252.567 393.747 252.567C394.005 252.567 394.188 252.761 394.188 253.04V253.556H394.209C394.521 252.954 395.117 252.567 395.982 252.567C397.206 252.567 397.915 253.357 397.915 254.625V257.847C397.915 258.143 397.722 258.347 397.448 258.347C397.174 258.347 396.981 258.143 396.981 257.847V254.791C396.981 253.889 396.556 253.395 395.697 253.395C394.816 253.395 394.241 254.018 394.241 254.963V257.847C394.241 258.143 394.048 258.347 393.774 258.347ZM401.363 260.355C400.429 260.345 399.65 259.974 399.258 259.356C399.183 259.238 399.15 259.131 399.15 259.007C399.15 258.771 399.322 258.604 399.569 258.604C399.725 258.604 399.816 258.658 399.962 258.819C400.44 259.346 400.832 259.55 401.401 259.561C402.4 259.577 403.007 259.002 403.007 258.169V257.289H402.985C402.642 257.896 401.976 258.293 401.191 258.293C399.768 258.293 398.834 257.17 398.834 255.436C398.834 253.685 399.768 252.567 401.213 252.567C402.003 252.567 402.62 252.954 402.991 253.583H403.007V253.051C403.007 252.761 403.206 252.567 403.474 252.567C403.743 252.567 403.941 252.761 403.941 253.051V258.137C403.941 259.469 402.953 260.372 401.363 260.355ZM401.379 257.471C402.352 257.471 403.007 256.666 403.007 255.436C403.007 254.206 402.352 253.389 401.379 253.389C400.418 253.389 399.79 254.184 399.79 255.436C399.79 256.687 400.418 257.471 401.379 257.471Z" fill="#A3E635"/>
<rect x="326.729" y="244.75" width="82.3023" height="20" rx="7.5" stroke="#A3E635"/>
<rect x="224.729" y="225.75" width="200.302" height="55" rx="15.5" stroke="white" stroke-opacity="0.1"/>
<path d="M25.5723 196.399C24.8691 196.399 24.4473 195.969 24.4473 195.222V185.483H21.5469C20.9316 185.483 20.5098 185.114 20.5098 184.525C20.5098 183.937 20.9229 183.567 21.5469 183.567H29.6064C30.2305 183.567 30.6436 183.937 30.6436 184.525C30.6436 185.114 30.2217 185.483 29.6064 185.483H26.7061V195.222C26.7061 195.969 26.2842 196.399 25.5723 196.399ZM31.4258 196.426C30.7666 196.426 30.3359 195.995 30.3359 195.274V187.856C30.3359 187.171 30.7578 186.749 31.3818 186.749C31.9883 186.749 32.4189 187.171 32.4189 187.856V188.568H32.4629C32.7178 187.479 33.5264 186.775 34.458 186.775C34.8008 186.775 35.0645 186.863 35.2314 187.013C35.4336 187.18 35.5391 187.443 35.5391 187.804C35.5391 188.146 35.4336 188.401 35.2139 188.577C35.0029 188.762 34.6777 188.858 34.2471 188.867C32.999 188.876 32.5244 189.658 32.5244 190.792V195.274C32.5244 195.995 32.085 196.426 31.4258 196.426ZM40.3115 196.435C37.4639 196.435 35.7852 194.65 35.7852 191.627C35.7852 188.656 37.499 186.74 40.1885 186.74C42.7373 186.74 44.4775 188.551 44.4775 191.082C44.4775 191.732 44.1084 192.119 43.458 192.119H37.9648V192.189C37.9648 193.745 38.8701 194.747 40.2939 194.747C41.2783 194.747 41.9199 194.404 42.623 193.508C42.8516 193.253 43.0537 193.156 43.3613 193.156C43.8535 193.156 44.2402 193.473 44.2402 194C44.2402 194.167 44.1875 194.36 44.0908 194.554C43.4756 195.74 42.0869 196.435 40.3115 196.435ZM37.9824 190.678H42.333C42.2891 189.324 41.4277 188.437 40.1973 188.437C38.9668 188.437 38.0703 189.342 37.9824 190.678ZM46.9824 196.426C46.3408 196.426 45.8926 196.013 45.8926 195.274V187.856C45.8926 187.18 46.2881 186.749 46.9385 186.749C47.5801 186.749 48.0195 187.18 48.0195 187.856V188.507H48.0635C48.5645 187.399 49.5312 186.758 50.9639 186.758C53.0205 186.758 54.1895 188.076 54.1895 190.229V195.274C54.1895 196.013 53.7412 196.426 53.0996 196.426C52.458 196.426 52.001 196.013 52.001 195.274V190.669C52.001 189.351 51.3857 188.612 50.1377 188.612C48.8809 188.612 48.0811 189.518 48.0811 190.854V195.274C48.0811 196.013 47.624 196.426 46.9824 196.426ZM59.4277 196.399C57.0811 196.399 55.5605 194.545 55.5605 191.583C55.5605 188.639 57.0811 186.775 59.4277 186.775C60.7637 186.775 61.8184 187.47 62.3105 188.498H62.3633V184.543C62.3633 183.805 62.8115 183.392 63.4531 183.392C64.0947 183.392 64.5518 183.805 64.5518 184.543V195.327C64.5518 196.03 64.1035 196.426 63.4707 196.426C62.8379 196.426 62.3633 196.039 62.3633 195.327V194.598H62.3193C61.8711 195.67 60.8691 196.399 59.4277 196.399ZM60.0869 194.606C61.4668 194.606 62.3721 193.438 62.3721 191.592C62.3721 189.764 61.4668 188.577 60.0869 188.577C58.6807 188.577 57.8018 189.746 57.8018 191.592C57.8018 193.446 58.6719 194.606 60.0869 194.606ZM67.5312 185.624C66.8545 185.624 66.3184 185.097 66.3184 184.438C66.3184 183.77 66.8545 183.251 67.5312 183.251C68.2168 183.251 68.7529 183.77 68.7529 184.438C68.7529 185.097 68.2168 185.624 67.5312 185.624ZM67.5312 196.426C66.8633 196.426 66.4414 195.986 66.4414 195.274V187.9C66.4414 187.197 66.8633 186.749 67.5312 186.749C68.1992 186.749 68.6299 187.197 68.6299 187.909V195.274C68.6299 195.986 68.1992 196.426 67.5312 196.426ZM71.5566 196.426C70.915 196.426 70.4668 196.013 70.4668 195.274V187.856C70.4668 187.18 70.8623 186.749 71.5127 186.749C72.1543 186.749 72.5938 187.18 72.5938 187.856V188.507H72.6377C73.1387 187.399 74.1055 186.758 75.5381 186.758C77.5947 186.758 78.7637 188.076 78.7637 190.229V195.274C78.7637 196.013 78.3154 196.426 77.6738 196.426C77.0322 196.426 76.5752 196.013 76.5752 195.274V190.669C76.5752 189.351 75.96 188.612 74.7119 188.612C73.4551 188.612 72.6553 189.518 72.6553 190.854V195.274C72.6553 196.013 72.1982 196.426 71.5566 196.426ZM84.5381 199.757C82.7539 199.748 81.3828 199.062 80.7588 198.061C80.627 197.841 80.5742 197.63 80.5742 197.401C80.5742 196.918 80.9346 196.558 81.4883 196.558C81.7959 196.558 82.0156 196.663 82.2881 196.927C83.0176 197.656 83.668 198.008 84.5557 198.017C86.041 198.034 86.9287 197.199 86.9287 195.96V194.475H86.8848C86.4014 195.477 85.3027 196.153 83.9668 196.153C81.6289 196.153 80.1348 194.343 80.1348 191.478C80.1348 188.56 81.6113 186.775 84.0107 186.775C85.3379 186.775 86.3662 187.461 86.9023 188.516H86.9375V187.865C86.9375 187.145 87.4121 186.749 88.0361 186.749C88.6689 186.749 89.126 187.145 89.126 187.865V195.951C89.126 198.298 87.4121 199.774 84.5381 199.757ZM84.6348 194.448C86.0322 194.448 86.9463 193.314 86.9463 191.495C86.9463 189.685 86.0322 188.507 84.6348 188.507C83.2549 188.507 82.376 189.667 82.376 191.495C82.376 193.341 83.2549 194.448 84.6348 194.448Z" fill="white"/>
<path d="M26.5566 346.461C23.3486 346.461 21.3447 344.545 21.3447 341.776V334.596C21.3447 333.849 21.7754 333.418 22.4785 333.418C23.1904 333.418 23.6123 333.849 23.6123 334.596V341.574C23.6123 343.306 24.6758 344.483 26.5566 344.483C28.4375 344.483 29.5098 343.306 29.5098 341.574V334.596C29.5098 333.849 29.9316 333.418 30.6436 333.418C31.3467 333.418 31.7686 333.849 31.7686 334.596V341.776C31.7686 344.545 29.7734 346.461 26.5566 346.461ZM34.8887 349.563C34.2471 349.563 33.7988 349.15 33.7988 348.412V337.874C33.7988 337.153 34.2383 336.749 34.8623 336.749C35.4863 336.749 35.9346 337.153 35.9346 337.874V338.542H35.9785C36.5059 337.461 37.5605 336.775 38.9141 336.775C41.2783 336.775 42.7812 338.612 42.7812 341.592C42.7812 344.562 41.2871 346.399 38.9492 346.399C37.5957 346.399 36.541 345.749 36.0312 344.703H35.9873V348.412C35.9873 349.15 35.5303 349.563 34.8887 349.563ZM38.2461 344.606C39.6611 344.606 40.54 343.438 40.54 341.592C40.54 339.755 39.6611 338.577 38.2461 338.577C36.8838 338.577 35.9785 339.781 35.9697 341.592C35.9785 343.42 36.8838 344.606 38.2461 344.606ZM48.2832 346.435C45.5586 346.435 43.8008 344.589 43.8008 341.601C43.8008 338.63 45.5498 336.74 48.2656 336.74C50.0938 336.74 51.6494 337.681 52.0977 338.99C52.168 339.175 52.2119 339.359 52.2119 339.518C52.2119 340.062 51.7988 340.396 51.2715 340.396C50.832 340.396 50.5684 340.212 50.3135 339.772C49.8477 338.92 49.2324 338.516 48.3271 338.516C46.9209 338.516 46.0244 339.685 46.0244 341.592C46.0244 343.525 46.9297 344.668 48.3184 344.668C49.2852 344.668 49.8828 344.22 50.3047 343.473C50.6035 342.98 50.8408 342.796 51.3154 342.796C51.834 342.796 52.2383 343.147 52.2383 343.692C52.2383 343.859 52.1943 344.044 52.1064 344.255C51.5879 345.529 50.041 346.435 48.2832 346.435ZM57.8369 346.435C55.1035 346.435 53.3281 344.615 53.3281 341.592C53.3281 338.586 55.1211 336.74 57.8369 336.74C60.5527 336.74 62.3457 338.577 62.3457 341.592C62.3457 344.615 60.5703 346.435 57.8369 346.435ZM57.8369 344.703C59.2256 344.703 60.1221 343.578 60.1221 341.592C60.1221 339.614 59.2256 338.48 57.8369 338.48C56.457 338.48 55.5518 339.614 55.5518 341.592C55.5518 343.578 56.4482 344.703 57.8369 344.703ZM64.8418 346.426C64.1826 346.426 63.752 346.004 63.752 345.274V337.865C63.752 337.153 64.1826 336.749 64.7979 336.749C65.4131 336.749 65.8525 337.153 65.8525 337.865V338.551H65.8965C66.3008 337.47 67.2852 336.758 68.5508 336.758C69.8691 336.758 70.8096 337.435 71.1523 338.63H71.2051C71.6533 337.479 72.7607 336.758 74.1055 336.758C75.9424 336.758 77.1465 337.997 77.1465 339.86V345.274C77.1465 346.004 76.707 346.426 76.0566 346.426C75.3975 346.426 74.958 346.004 74.958 345.274V340.396C74.958 339.254 74.3604 338.604 73.2881 338.604C72.2334 338.604 71.5127 339.377 71.5127 340.493V345.274C71.5127 346.004 71.0996 346.426 70.4492 346.426C69.79 346.426 69.3857 346.004 69.3857 345.274V340.282C69.3857 339.245 68.7529 338.604 67.7334 338.604C66.6787 338.604 65.9404 339.421 65.9404 340.546V345.274C65.9404 346.004 65.4922 346.426 64.8418 346.426ZM80.0469 335.624C79.3701 335.624 78.834 335.097 78.834 334.438C78.834 333.77 79.3701 333.251 80.0469 333.251C80.7324 333.251 81.2686 333.77 81.2686 334.438C81.2686 335.097 80.7324 335.624 80.0469 335.624ZM80.0469 346.426C79.3789 346.426 78.957 345.986 78.957 345.274V337.9C78.957 337.197 79.3789 336.749 80.0469 336.749C80.7148 336.749 81.1455 337.197 81.1455 337.909V345.274C81.1455 345.986 80.7148 346.426 80.0469 346.426ZM84.0723 346.426C83.4307 346.426 82.9824 346.013 82.9824 345.274V337.856C82.9824 337.18 83.3779 336.749 84.0283 336.749C84.6699 336.749 85.1094 337.18 85.1094 337.856V338.507H85.1533C85.6543 337.399 86.6211 336.758 88.0537 336.758C90.1104 336.758 91.2793 338.076 91.2793 340.229V345.274C91.2793 346.013 90.8311 346.426 90.1895 346.426C89.5479 346.426 89.0908 346.013 89.0908 345.274V340.669C89.0908 339.351 88.4756 338.612 87.2275 338.612C85.9707 338.612 85.1709 339.518 85.1709 340.854V345.274C85.1709 346.013 84.7139 346.426 84.0723 346.426ZM97.0537 349.757C95.2695 349.748 93.8984 349.062 93.2744 348.061C93.1426 347.841 93.0898 347.63 93.0898 347.401C93.0898 346.918 93.4502 346.558 94.0039 346.558C94.3115 346.558 94.5312 346.663 94.8037 346.927C95.5332 347.656 96.1836 348.008 97.0713 348.017C98.5566 348.034 99.4443 347.199 99.4443 345.96V344.475H99.4004C98.917 345.477 97.8184 346.153 96.4824 346.153C94.1445 346.153 92.6504 344.343 92.6504 341.478C92.6504 338.56 94.127 336.775 96.5264 336.775C97.8535 336.775 98.8818 337.461 99.418 338.516H99.4531V337.865C99.4531 337.145 99.9277 336.749 100.552 336.749C101.185 336.749 101.642 337.145 101.642 337.865V345.951C101.642 348.298 99.9277 349.774 97.0537 349.757ZM97.1504 344.448C98.5479 344.448 99.4619 343.314 99.4619 341.495C99.4619 339.685 98.5479 338.507 97.1504 338.507C95.7705 338.507 94.8916 339.667 94.8916 341.495C94.8916 343.341 95.7705 344.448 97.1504 344.448Z" fill="white"/>
<path d="M358.949 344.391C357.262 344.391 356.137 343.688 355.809 342.727C355.756 342.586 355.727 342.434 355.727 342.293C355.727 341.871 355.996 341.602 356.395 341.602C356.729 341.602 356.939 341.736 357.104 342.076C357.367 342.809 358.094 343.137 358.996 343.137C360.016 343.137 360.73 342.633 360.73 341.93C360.73 341.32 360.309 340.945 359.207 340.717L358.299 340.529C356.605 340.184 355.814 339.387 355.814 338.15C355.814 336.662 357.121 335.654 358.955 335.654C360.449 335.654 361.609 336.322 361.955 337.441C361.99 337.535 362.008 337.646 362.008 337.787C362.008 338.156 361.744 338.408 361.352 338.408C361 338.408 360.783 338.256 360.625 337.928C360.338 337.213 359.734 336.908 358.943 336.908C358.006 336.908 357.338 337.354 357.338 338.062C357.338 338.637 357.76 339.006 358.814 339.229L359.723 339.416C361.504 339.785 362.254 340.5 362.254 341.754C362.254 343.371 360.982 344.391 358.949 344.391ZM364.146 344.25C363.678 344.25 363.391 343.957 363.391 343.465V336.58C363.391 336.088 363.678 335.795 364.146 335.795H368.266C368.682 335.795 368.957 336.041 368.957 336.434C368.957 336.826 368.682 337.072 368.266 337.072H364.902V339.357H368.09C368.477 339.357 368.74 339.586 368.74 339.955C368.74 340.324 368.482 340.559 368.09 340.559H364.902V342.973H368.266C368.682 342.973 368.957 343.219 368.957 343.611C368.957 344.004 368.682 344.25 368.266 344.25H364.146ZM370.932 344.25C370.463 344.25 370.176 343.957 370.176 343.465V336.58C370.176 336.088 370.463 335.795 370.932 335.795H375.051C375.467 335.795 375.742 336.041 375.742 336.434C375.742 336.826 375.467 337.072 375.051 337.072H371.688V339.357H374.875C375.262 339.357 375.525 339.586 375.525 339.955C375.525 340.324 375.268 340.559 374.875 340.559H371.688V342.973H375.051C375.467 342.973 375.742 343.219 375.742 343.611C375.742 344.004 375.467 344.25 375.051 344.25H370.932ZM379.732 344.35C379.27 344.35 378.971 344.08 378.971 343.652C378.971 343.535 379 343.371 379.07 343.189L381.525 336.516C381.73 335.953 382.07 335.695 382.621 335.695C383.178 335.695 383.518 335.941 383.729 336.51L386.189 343.189C386.26 343.383 386.289 343.518 386.289 343.652C386.289 344.062 385.973 344.35 385.533 344.35C385.123 344.35 384.895 344.162 384.76 343.711L384.203 342.094H381.045L380.488 343.699C380.348 344.156 380.125 344.35 379.732 344.35ZM381.402 340.898H383.834L382.633 337.289H382.592L381.402 340.898ZM388.146 344.25C387.678 344.25 387.391 343.957 387.391 343.465V336.48C387.391 335.982 387.678 335.695 388.146 335.695C388.621 335.695 388.902 335.982 388.902 336.48V342.973H392.143C392.553 342.973 392.834 343.219 392.834 343.611C392.834 344.004 392.559 344.25 392.143 344.25H388.146ZM394.58 344.25C394.111 344.25 393.824 343.957 393.824 343.465V336.48C393.824 335.982 394.111 335.695 394.58 335.695C395.055 335.695 395.336 335.982 395.336 336.48V342.973H398.576C398.986 342.973 399.268 343.219 399.268 343.611C399.268 344.004 398.992 344.25 398.576 344.25H394.58Z" fill="white"/>
<rect x="347.729" y="325.75" width="60" height="29" rx="7.5" stroke="#F2F5F7"/>
</g>
<defs>
<linearGradient id="paint0_linear_90_3139" x1="1439.58" y1="240.674" x2="1439.58" y2="2641.01" gradientUnits="userSpaceOnUse">
<stop stop-color="#F9AA4B"/>
<stop offset="1" stop-color="#F7931A"/>
</linearGradient>
<clipPath id="clip0_90_3139">
<rect width="428" height="926" fill="white" transform="translate(0.228516 63.25)"/>
</clipPath>
<clipPath id="clip1_90_3139">
<rect width="24" height="24" fill="white" transform="translate(292.229 96.25)"/>
</clipPath>
<clipPath id="clip2_90_3139">
<rect width="24" height="24" fill="white" transform="translate(240.229 241.25)"/>
</clipPath>
</defs>
</svg>
