<svg width="33" height="33" viewBox="0 0 33 33" fill="none" xmlns="http://www.w3.org/2000/svg">
<path d="M30.8594 16.25C30.8594 13.4811 30.0383 10.7743 28.4999 8.47202C26.9616 6.16973 24.7751 4.37531 22.2169 3.31569C19.6588 2.25606 16.8438 1.97881 14.1281 2.51901C11.4124 3.0592 8.91782 4.39257 6.95988 6.35051C5.00195 8.30844 3.66858 10.803 3.12838 13.5187C2.58819 16.2345 2.86543 19.0494 3.92506 21.6076C4.98469 24.1657 6.7791 26.3522 9.08139 27.8906C11.3837 29.4289 14.0904 30.25 16.8594 30.25C20.5724 30.25 24.1334 28.775 26.7589 26.1495C29.3844 23.524 30.8594 19.963 30.8594 16.25ZM24.8594 17.25H12.7094L18.2894 22.857L16.8594 24.25L8.85938 16.25L16.8594 8.25L18.2894 9.677L12.7094 15.25L24.8594 15.25V17.25Z" fill="black"/>
</svg>
