<svg width="33" height="33" viewBox="0 0 33 33" fill="none" xmlns="http://www.w3.org/2000/svg">
<path d="M2.85938 16.25C2.85938 19.0189 3.68046 21.7257 5.2188 24.028C6.75714 26.3303 8.94364 28.1247 11.5018 29.1843C14.06 30.2439 16.8749 30.5212 19.5906 29.981C22.3064 29.4408 24.8009 28.1074 26.7589 26.1495C28.7168 24.1916 30.0502 21.697 30.5904 18.9813C31.1306 16.2655 30.8533 13.4506 29.7937 10.8924C28.7341 8.33427 26.9396 6.14777 24.6374 4.60943C22.3351 3.07109 19.6283 2.25 16.8594 2.25C13.1463 2.25 9.58539 3.725 6.95988 6.3505C4.33437 8.97601 2.85938 12.537 2.85938 16.25ZM8.85938 15.25H21.0094L15.4294 9.643L16.8594 8.25L24.8594 16.25L16.8594 24.25L15.4294 22.823L21.0094 17.25H8.85938V15.25Z" fill="black"/>
</svg>
