<svg width="144" height="143" viewBox="0 0 144 143" fill="none" xmlns="http://www.w3.org/2000/svg">
<g filter="url(#filter0_ii_146_298)">
<circle cx="71.9097" cy="71.5049" r="70.2568" fill="#DC6420"/>
</g>
<circle cx="71.9097" cy="71.5049" r="70.8554" stroke="black" stroke-width="1.19718"/>
<mask id="mask0_146_298" style="mask-type:alpha" maskUnits="userSpaceOnUse" x="1" y="0" width="140" height="140">
<path d="M70.2235 138.703H70.3052L70.3839 138.681C89.9404 133.193 107.323 126.138 119.821 115.585C132.349 105.009 139.95 90.9346 139.95 71.5053C139.95 32.6952 108.993 1.21675 70.7855 1.21675C32.578 1.21675 1.62104 32.6952 1.62104 71.5053C1.62104 110.344 32.0451 138.703 70.2235 138.703Z" fill="#D9D9D9" stroke="black" stroke-width="1.1876"/>
</mask>
<g mask="url(#mask0_146_298)">
<mask id="path-4-inside-1_146_298" fill="white">
<path d="M151.083 74.0905C151.083 95.1318 142.771 115.311 127.975 130.19C113.18 145.068 93.1125 153.427 72.1884 153.427C51.2643 153.427 31.1972 145.068 16.4016 130.19C1.60602 115.311 -6.70605 95.1318 -6.70605 74.0905C-6.70605 53.0493 1.60602 32.8698 16.4016 17.9914C31.1972 3.113 51.2643 -5.24561 72.1884 -5.24561C93.1125 -5.24561 113.18 3.113 127.975 17.9914C142.771 32.8698 151.083 53.0493 151.083 74.0905ZM43.6789 6.32684C37.2998 26.3216 34.462 46.8318 35.1654 67.8576C35.1853 68.4274 35.4459 68.5792 35.9471 68.3129C44.2727 63.8755 51.2484 58.6305 58.3096 52.5823C68.1132 44.1757 75.8493 34.7425 84.2347 25.5283C90.6636 18.462 98.0665 12.0486 107.575 9.80631C107.594 9.8014 107.611 9.79103 107.624 9.77651C107.637 9.76198 107.645 9.74395 107.648 9.72467C107.651 9.7054 107.648 9.68574 107.639 9.66816C107.631 9.65059 107.618 9.63588 107.601 9.62589C87.729 -1.24637 64.6702 -2.56083 43.8114 6.18509C43.7803 6.19878 43.7525 6.21844 43.7297 6.24284C43.7069 6.26723 43.6896 6.29583 43.6789 6.32684ZM12.5295 67.9478C17.0704 72.1446 23.7172 72.7374 29.3857 70.7829C29.5538 70.7227 29.6335 70.6039 29.625 70.4263C28.6368 49.8359 30.9777 29.6536 36.6477 9.87933C36.6523 9.86082 36.6516 9.84136 36.6455 9.82328C36.6393 9.80521 36.6282 9.78931 36.6132 9.77749C36.5983 9.76568 36.5803 9.75846 36.5614 9.75671C36.5425 9.75497 36.5235 9.75876 36.5067 9.76765C21.6012 18.3532 10.8379 30.6273 4.21674 46.5899C3.85365 47.4576 4.43887 48.2737 4.52431 49.1157C5.18642 55.6322 7.59995 63.3858 12.5295 67.9478ZM140.352 47.1483C135.517 34.8756 127.798 24.6649 117.605 16.3185C117.084 15.8918 116.508 15.6226 115.875 15.5109C110.385 14.5458 105.313 15.5911 100.659 18.6467C91.424 24.7165 84.1407 33.9693 76.7805 42.247C65.516 54.9234 51.3211 67.3206 35.8147 74.6017C35.6808 74.6647 35.6253 74.7707 35.6481 74.9196L37.3354 86.7154C37.3396 86.7428 37.3491 86.7691 37.3634 86.7927C37.3777 86.8164 37.3965 86.837 37.4187 86.8534C37.4409 86.8698 37.4661 86.8816 37.4929 86.8881C37.5197 86.8946 37.5474 86.8958 37.5746 86.8915C74.4937 80.7574 108.717 67.6199 140.246 47.4791C140.371 47.3989 140.406 47.2886 140.352 47.1483ZM44.1189 108.529C55.8534 104.783 66.5925 107.231 78.0279 110.926C92.9106 115.732 108.579 118.593 124.12 115.153C127.114 114.491 135.188 111.918 136.67 109.066C145.903 91.3389 147.846 72.7302 142.501 53.2395C142.489 53.1964 142.467 53.1566 142.438 53.1234C142.408 53.0901 142.371 53.0644 142.329 53.0481C142.288 53.0319 142.243 53.0255 142.199 53.0297C142.154 53.0338 142.112 53.0483 142.074 53.072C110.343 73.0925 75.9789 86.2128 38.98 92.4329C38.9422 92.4395 38.9061 92.4538 38.874 92.4749C38.8419 92.496 38.8144 92.5235 38.7932 92.5557C38.772 92.5878 38.7575 92.624 38.7507 92.662C38.7439 92.7 38.7449 92.739 38.7536 92.7765C40.0579 98.0945 41.7339 103.292 43.7815 108.37C43.8441 108.527 43.9566 108.58 44.1189 108.529ZM29.9325 76.509C15.5454 80.1431 4.81051 72.8319 0.833537 58.8152C0.824545 58.7817 0.804567 58.7521 0.776829 58.7314C0.749091 58.7106 0.71521 58.6999 0.680654 58.7009C0.646098 58.7019 0.612884 58.7145 0.586369 58.7369C0.559854 58.7592 0.541588 58.7898 0.534517 58.8238C-1.63837 69.2193 -1.59423 79.6018 0.66694 89.9715C0.712505 90.1834 0.843503 90.2879 1.05994 90.2851C11.2808 90.1276 21.4489 89.31 31.5643 87.8323C31.7153 87.8094 31.7793 87.722 31.7566 87.5702L30.1461 76.6507C30.1421 76.6269 30.1333 76.6042 30.1201 76.584C30.107 76.5638 30.0899 76.5465 30.0699 76.5332C30.0499 76.5199 30.0274 76.5109 30.0037 76.5067C29.9801 76.5026 29.9559 76.5033 29.9325 76.509ZM22.1879 127.816C22.6265 128.228 22.9468 128.559 23.149 128.808C23.1748 128.839 23.2081 128.863 23.2455 128.877C23.283 128.891 23.3233 128.895 23.3625 128.889C23.4017 128.883 23.4385 128.867 23.4693 128.842C23.5 128.818 23.5236 128.785 23.5378 128.748C26.7031 120.702 31.5003 115.754 38.5144 111.024C38.6483 110.936 38.6839 110.817 38.6212 110.668C36.3544 105.135 34.5261 99.4591 33.1363 93.64C33.0936 93.4567 32.9783 93.3794 32.7903 93.408C22.8002 94.8857 12.7559 95.7377 2.65757 95.9639C2.6118 95.9651 2.56693 95.9769 2.52651 95.9985C2.48609 96.0201 2.45123 96.0509 2.4247 96.0884C2.39817 96.126 2.3807 96.1692 2.37366 96.2147C2.36663 96.2602 2.37023 96.3067 2.38418 96.3505C6.24581 108.55 12.8471 119.039 22.1879 127.816ZM46.3787 114.079C52.6026 126.97 61.8252 138.706 73.047 147.623C73.1631 147.715 73.3065 147.764 73.4529 147.761C95.5078 147.211 116.016 137.112 129.682 119.693C129.85 119.478 129.804 119.412 129.545 119.495C114.508 124.311 97.6009 122.618 82.4833 118.267C80.8657 117.8 77.4982 116.723 72.3807 115.037C64.29 112.373 55.0076 111.308 46.541 113.709C46.5045 113.72 46.4707 113.738 46.4421 113.763C46.4134 113.788 46.3905 113.819 46.3751 113.855C46.3596 113.89 46.3519 113.928 46.3525 113.967C46.3532 114.005 46.3621 114.044 46.3787 114.079ZM28.8091 133.4C39.2292 141.067 50.8369 145.686 63.6322 147.258C63.6581 147.263 63.6849 147.259 63.7084 147.247C63.7318 147.235 63.7506 147.215 63.7618 147.191C63.773 147.167 63.776 147.14 63.7703 147.114C63.7647 147.088 63.7506 147.065 63.7304 147.048C54.3554 138.265 46.8543 128.08 41.227 116.493C41.2041 116.445 41.1713 116.403 41.131 116.37C41.0906 116.336 41.0436 116.312 40.993 116.298C40.9424 116.284 40.8895 116.281 40.8377 116.29C40.786 116.298 40.7366 116.318 40.693 116.347C34.7325 120.27 30.6046 125.638 28.3093 132.451C28.2039 132.763 28.3705 133.08 28.8091 133.4Z"/>
</mask>
<path d="M151.083 74.0905C151.083 95.1318 142.771 115.311 127.975 130.19C113.18 145.068 93.1125 153.427 72.1884 153.427C51.2643 153.427 31.1972 145.068 16.4016 130.19C1.60602 115.311 -6.70605 95.1318 -6.70605 74.0905C-6.70605 53.0493 1.60602 32.8698 16.4016 17.9914C31.1972 3.113 51.2643 -5.24561 72.1884 -5.24561C93.1125 -5.24561 113.18 3.113 127.975 17.9914C142.771 32.8698 151.083 53.0493 151.083 74.0905ZM43.6789 6.32684C37.2998 26.3216 34.462 46.8318 35.1654 67.8576C35.1853 68.4274 35.4459 68.5792 35.9471 68.3129C44.2727 63.8755 51.2484 58.6305 58.3096 52.5823C68.1132 44.1757 75.8493 34.7425 84.2347 25.5283C90.6636 18.462 98.0665 12.0486 107.575 9.80631C107.594 9.8014 107.611 9.79103 107.624 9.77651C107.637 9.76198 107.645 9.74395 107.648 9.72467C107.651 9.7054 107.648 9.68574 107.639 9.66816C107.631 9.65059 107.618 9.63588 107.601 9.62589C87.729 -1.24637 64.6702 -2.56083 43.8114 6.18509C43.7803 6.19878 43.7525 6.21844 43.7297 6.24284C43.7069 6.26723 43.6896 6.29583 43.6789 6.32684ZM12.5295 67.9478C17.0704 72.1446 23.7172 72.7374 29.3857 70.7829C29.5538 70.7227 29.6335 70.6039 29.625 70.4263C28.6368 49.8359 30.9777 29.6536 36.6477 9.87933C36.6523 9.86082 36.6516 9.84136 36.6455 9.82328C36.6393 9.80521 36.6282 9.78931 36.6132 9.77749C36.5983 9.76568 36.5803 9.75846 36.5614 9.75671C36.5425 9.75497 36.5235 9.75876 36.5067 9.76765C21.6012 18.3532 10.8379 30.6273 4.21674 46.5899C3.85365 47.4576 4.43887 48.2737 4.52431 49.1157C5.18642 55.6322 7.59995 63.3858 12.5295 67.9478ZM140.352 47.1483C135.517 34.8756 127.798 24.6649 117.605 16.3185C117.084 15.8918 116.508 15.6226 115.875 15.5109C110.385 14.5458 105.313 15.5911 100.659 18.6467C91.424 24.7165 84.1407 33.9693 76.7805 42.247C65.516 54.9234 51.3211 67.3206 35.8147 74.6017C35.6808 74.6647 35.6253 74.7707 35.6481 74.9196L37.3354 86.7154C37.3396 86.7428 37.3491 86.7691 37.3634 86.7927C37.3777 86.8164 37.3965 86.837 37.4187 86.8534C37.4409 86.8698 37.4661 86.8816 37.4929 86.8881C37.5197 86.8946 37.5474 86.8958 37.5746 86.8915C74.4937 80.7574 108.717 67.6199 140.246 47.4791C140.371 47.3989 140.406 47.2886 140.352 47.1483ZM44.1189 108.529C55.8534 104.783 66.5925 107.231 78.0279 110.926C92.9106 115.732 108.579 118.593 124.12 115.153C127.114 114.491 135.188 111.918 136.67 109.066C145.903 91.3389 147.846 72.7302 142.501 53.2395C142.489 53.1964 142.467 53.1566 142.438 53.1234C142.408 53.0901 142.371 53.0644 142.329 53.0481C142.288 53.0319 142.243 53.0255 142.199 53.0297C142.154 53.0338 142.112 53.0483 142.074 53.072C110.343 73.0925 75.9789 86.2128 38.98 92.4329C38.9422 92.4395 38.9061 92.4538 38.874 92.4749C38.8419 92.496 38.8144 92.5235 38.7932 92.5557C38.772 92.5878 38.7575 92.624 38.7507 92.662C38.7439 92.7 38.7449 92.739 38.7536 92.7765C40.0579 98.0945 41.7339 103.292 43.7815 108.37C43.8441 108.527 43.9566 108.58 44.1189 108.529ZM29.9325 76.509C15.5454 80.1431 4.81051 72.8319 0.833537 58.8152C0.824545 58.7817 0.804567 58.7521 0.776829 58.7314C0.749091 58.7106 0.71521 58.6999 0.680654 58.7009C0.646098 58.7019 0.612884 58.7145 0.586369 58.7369C0.559854 58.7592 0.541588 58.7898 0.534517 58.8238C-1.63837 69.2193 -1.59423 79.6018 0.66694 89.9715C0.712505 90.1834 0.843503 90.2879 1.05994 90.2851C11.2808 90.1276 21.4489 89.31 31.5643 87.8323C31.7153 87.8094 31.7793 87.722 31.7566 87.5702L30.1461 76.6507C30.1421 76.6269 30.1333 76.6042 30.1201 76.584C30.107 76.5638 30.0899 76.5465 30.0699 76.5332C30.0499 76.5199 30.0274 76.5109 30.0037 76.5067C29.9801 76.5026 29.9559 76.5033 29.9325 76.509ZM22.1879 127.816C22.6265 128.228 22.9468 128.559 23.149 128.808C23.1748 128.839 23.2081 128.863 23.2455 128.877C23.283 128.891 23.3233 128.895 23.3625 128.889C23.4017 128.883 23.4385 128.867 23.4693 128.842C23.5 128.818 23.5236 128.785 23.5378 128.748C26.7031 120.702 31.5003 115.754 38.5144 111.024C38.6483 110.936 38.6839 110.817 38.6212 110.668C36.3544 105.135 34.5261 99.4591 33.1363 93.64C33.0936 93.4567 32.9783 93.3794 32.7903 93.408C22.8002 94.8857 12.7559 95.7377 2.65757 95.9639C2.6118 95.9651 2.56693 95.9769 2.52651 95.9985C2.48609 96.0201 2.45123 96.0509 2.4247 96.0884C2.39817 96.126 2.3807 96.1692 2.37366 96.2147C2.36663 96.2602 2.37023 96.3067 2.38418 96.3505C6.24581 108.55 12.8471 119.039 22.1879 127.816ZM46.3787 114.079C52.6026 126.97 61.8252 138.706 73.047 147.623C73.1631 147.715 73.3065 147.764 73.4529 147.761C95.5078 147.211 116.016 137.112 129.682 119.693C129.85 119.478 129.804 119.412 129.545 119.495C114.508 124.311 97.6009 122.618 82.4833 118.267C80.8657 117.8 77.4982 116.723 72.3807 115.037C64.29 112.373 55.0076 111.308 46.541 113.709C46.5045 113.72 46.4707 113.738 46.4421 113.763C46.4134 113.788 46.3905 113.819 46.3751 113.855C46.3596 113.89 46.3519 113.928 46.3525 113.967C46.3532 114.005 46.3621 114.044 46.3787 114.079ZM28.8091 133.4C39.2292 141.067 50.8369 145.686 63.6322 147.258C63.6581 147.263 63.6849 147.259 63.7084 147.247C63.7318 147.235 63.7506 147.215 63.7618 147.191C63.773 147.167 63.776 147.14 63.7703 147.114C63.7647 147.088 63.7506 147.065 63.7304 147.048C54.3554 138.265 46.8543 128.08 41.227 116.493C41.2041 116.445 41.1713 116.403 41.131 116.37C41.0906 116.336 41.0436 116.312 40.993 116.298C40.9424 116.284 40.8895 116.281 40.8377 116.29C40.786 116.298 40.7366 116.318 40.693 116.347C34.7325 120.27 30.6046 125.638 28.3093 132.451C28.2039 132.763 28.3705 133.08 28.8091 133.4Z" fill="black" stroke="#DC6420" stroke-width="1.68616" mask="url(#path-4-inside-1_146_298)"/>
</g>
<defs>
<filter id="filter0_ii_146_298" x="0.455566" y="0.0507812" width="142.908" height="142.908" filterUnits="userSpaceOnUse" color-interpolation-filters="sRGB">
<feFlood flood-opacity="0" result="BackgroundImageFix"/>
<feBlend mode="normal" in="SourceGraphic" in2="BackgroundImageFix" result="shape"/>
<feColorMatrix in="SourceAlpha" type="matrix" values="0 0 0 0 0 0 0 0 0 0 0 0 0 0 0 0 0 0 127 0" result="hardAlpha"/>
<feOffset dx="-9.55493" dy="-11.8031"/>
<feComposite in2="hardAlpha" operator="arithmetic" k2="-1" k3="1"/>
<feColorMatrix type="matrix" values="0 0 0 0 0 0 0 0 0 0 0 0 0 0 0 0 0 0 1 0"/>
<feBlend mode="normal" in2="shape" result="effect1_innerShadow_146_298"/>
<feColorMatrix in="SourceAlpha" type="matrix" values="0 0 0 0 0 0 0 0 0 0 0 0 0 0 0 0 0 0 127 0" result="hardAlpha"/>
<feOffset dx="-3.37233" dy="-3.37233"/>
<feComposite in2="hardAlpha" operator="arithmetic" k2="-1" k3="1"/>
<feColorMatrix type="matrix" values="0 0 0 0 0.862745 0 0 0 0 0.392157 0 0 0 0 0.12549 0 0 0 1 0"/>
<feBlend mode="normal" in2="effect1_innerShadow_146_298" result="effect2_innerShadow_146_298"/>
</filter>
</defs>
</svg>
