<svg width="123" height="140" viewBox="0 0 123 140" fill="none" xmlns="http://www.w3.org/2000/svg">
<path d="M33.7978 126.341C55.1974 131.197 63.5183 113.353 65.0038 103.824L20.1842 78.0991C12.3238 81.7465 6.29818 90.4396 5.58814 101.367C5.58814 107.111 12.3981 121.486 33.7978 126.341Z" fill="#ED2448" stroke="black" stroke-width="1.71749" stroke-linecap="round"/>
<path d="M45.2251 111.132C49.3612 115.268 56.7139 116.302 59.8733 116.302C56.4264 122.506 52.6488 124.115 50.4469 124.594C44.0131 123.904 39.1933 120.61 38.3316 118.599L45.2251 111.132Z" fill="white" stroke="black" stroke-width="1.71749" stroke-linecap="round"/>
<path d="M40.3421 127.217C14.7789 118.313 8.57086 93.5156 13.0962 83.1253C5.6905 90.4408 6.5613 100.79 6.44919 102.516C9.95879 119.608 28.2785 126.068 40.3421 127.217Z" fill="black" stroke="black" stroke-width="1.72307" stroke-linecap="round"/>
<path d="M17.5974 83.8771C28.7204 104.775 56.4315 111.426 74.1251 112.448C78.5673 112.705 83.3572 112.203 87.9169 110.282C103.626 103.665 116.601 85.6824 103.201 71.5316C106.004 69.9409 111.885 63.836 112.991 52.1417C114.372 37.5237 105.512 21.6352 75.6525 10.2666C51.7648 1.1716 34.3675 16.3936 28.6548 25.1415C20.6629 35.6505 6.2759 62.6069 17.5974 83.8771Z" fill="#ED2448"/>
<path d="M103.201 71.5316C106.004 69.9409 111.885 63.836 112.991 52.1417C114.372 37.5237 105.512 21.6352 75.6525 10.2666C51.7648 1.1716 34.3675 16.3936 28.6548 25.1415C20.6629 35.6505 6.2759 62.6069 17.5974 83.8771C28.7204 104.775 56.4315 111.426 74.1251 112.448C78.5673 112.705 83.3572 112.203 87.9169 110.282C103.626 103.665 116.601 85.6824 103.201 71.5316ZM103.201 71.5316C88.2969 55.7919 71.8177 68.5834 68.061 79.6839M87.917 96.4075C76.5716 98.8143 72.05 94.1313 69.5576 88.8132C68.6392 86.8537 67.1886 82.2617 68.061 79.6839M68.061 79.6839C66.3181 79.4209 33.8654 70.6812 36.9884 44.5198C36.7331 39.5392 37.993 28.0329 45.0755 21.8529" stroke="black" stroke-width="1.71749" stroke-linecap="round"/>
<path d="M91.5989 108.564C118.506 87.6679 100.759 70.493 100.473 69.6343C103.221 70.5503 106.77 77.4584 108.201 80.798C110.262 93.8509 97.9917 105.034 91.5989 108.564Z" fill="black" stroke="black" stroke-width="1.71749" stroke-linecap="round"/>
<path d="M79.0785 112.371C61.2535 109.596 25.2182 98.4154 15.5627 77.138L13.9636 72.6207C14.3632 74.1742 14.901 75.6798 15.5627 77.138L18.584 85.673L28.71 96.8103L38.4912 102.953L52.8512 107.865C57.2799 109.449 68.8755 113.028 79.0785 112.371Z" fill="black" stroke="black" stroke-width="1.6234" stroke-linecap="round"/>
<path d="M37.1185 42.8924C43.3522 62.7227 62.48 71.3376 71.0165 72.9915L68.2059 78.8824C65.7787 78.9555 57.3983 74.6894 53.5115 72.5472C39.053 63.5568 36.393 48.9149 37.1185 42.8924Z" fill="black" stroke="black" stroke-width="1.6234" stroke-linecap="round"/>
<path d="M27.2716 39.7588C30.3414 44.8895 32.7425 47.1737 36.2983 49.0829L37.1395 54.4265C31.041 52.6279 27.267 45.2494 27.2716 39.7588Z" fill="black" stroke="black" stroke-width="1.6234" stroke-linecap="round"/>
<path d="M33.1217 38.4451C34.5996 40.9332 35.2714 42.0642 36.7077 42.9672L36.9819 45.6169C34.4988 44.803 33.0462 41.1793 33.1217 38.4451Z" fill="black" stroke="black" stroke-width="1.6234" stroke-linecap="round"/>
<path d="M47.8765 105.193L52.0763 94.6158C53.351 88.1726 47.6066 86.2078 43.6715 88.6343L35.6404 99.824" stroke="black" stroke-width="1.6234" stroke-linecap="round"/>
<rect x="0.203591" y="-0.323981" width="24.0961" height="3.21913" rx="1.60956" transform="matrix(-0.974938 0.222478 0.222478 0.974938 57.9339 91.4747)" fill="white" stroke="black" stroke-width="0.541134"/>
<rect x="-0.350693" y="-0.153061" width="22.4807" height="3.21913" rx="1.60956" transform="matrix(0.365219 0.930922 0.930922 -0.365219 40.811 85.2491)" fill="white" stroke="black" stroke-width="0.541134"/>
<path fill-rule="evenodd" clip-rule="evenodd" d="M56.3639 21.6339C78.1675 24.9233 92.1235 33.407 98.7344 43.4936C100.132 45.6255 102.993 46.221 105.124 44.8238C107.256 43.4265 107.852 40.5656 106.455 38.4337C97.8886 25.3639 81.0373 16.0211 57.7409 12.5065C55.2204 12.1263 52.8689 13.8613 52.4887 16.3818C52.1084 18.9022 53.8434 21.2537 56.3639 21.6339Z" fill="white"/>
<path d="M84.156 97.1141C66.1224 101.694 63.1644 85.7596 62.9736 78.2217L68.6986 78.2217C64.3476 93.7936 77.2861 97.2095 84.156 97.1141Z" fill="black" stroke="black" stroke-width="1.71749" stroke-linecap="round"/>
</svg>
