<svg width="94" height="93" viewBox="0 0 94 93" fill="none" xmlns="http://www.w3.org/2000/svg">
<g filter="url(#filter0_ii_146_310)">
<circle cx="44.1514" cy="44.1514" r="44.1514" transform="matrix(1 0 0 -1 4.74634 88.9214)" fill="#ED2448"/>
</g>
<circle cx="44.1514" cy="44.1514" r="43.3407" transform="matrix(1 0 0 -1 4.74634 88.9214)" stroke="black" stroke-width="1.62142"/>
<path d="M76.5243 74.7019C76.3699 74.8617 76.2009 75.0169 76.0416 75.1668C75.8822 75.3167 75.6697 75.5082 75.4814 75.6739C74.9077 75.4321 74.3484 75.1699 73.8085 74.897C73.7288 74.8573 73.6578 74.8015 73.5994 74.7329C73.5411 74.6643 73.4965 74.5841 73.4684 74.4971C73.4402 74.41 73.429 74.3177 73.4354 74.2254C73.4417 74.1332 73.4655 74.0427 73.5054 73.9593C73.5452 73.8759 73.6004 73.8012 73.6677 73.7393C73.7351 73.6775 73.8132 73.6298 73.8978 73.5989C73.9823 73.568 74.0715 73.5546 74.1604 73.5594C74.2493 73.5642 74.336 73.5871 74.4157 73.6268C75.0066 73.916 75.6169 74.1945 76.2369 74.4678C76.3501 74.5201 76.4488 74.6004 76.5243 74.7019Z" fill="white"/>
<path d="M73.0759 75.0449C73.0727 75.066 73.0663 75.0865 73.0568 75.1057C72.9728 75.2673 72.832 75.3897 72.6642 75.4471C72.4965 75.5044 72.315 75.4921 72.1584 75.4128C71.5479 75.0839 70.9421 74.7398 70.363 74.3875C70.2796 74.3449 70.2059 74.2847 70.1465 74.2108C70.0871 74.137 70.0433 74.0509 70.0177 73.958C69.9921 73.8651 69.9853 73.7674 69.9978 73.6709C70.0102 73.5744 70.0417 73.4812 70.0901 73.3971C70.1386 73.313 70.203 73.2399 70.2794 73.1821C70.3558 73.1244 70.4426 73.0834 70.5342 73.0617C70.6259 73.0399 70.7206 73.0378 70.8123 73.0556C70.904 73.0734 70.9909 73.1106 71.0675 73.165C71.6271 73.5027 72.2183 73.8422 72.807 74.1641C72.9487 74.2493 73.0542 74.386 73.1038 74.5483C73.1533 74.7106 73.1434 74.8873 73.0759 75.0449Z" fill="white"/>
<path d="M69.6406 74.454C69.6362 74.494 69.624 74.5329 69.6048 74.5681C69.5574 74.6478 69.4953 74.7171 69.4221 74.7719C69.3489 74.8267 69.2661 74.8659 69.1786 74.8871C69.0911 74.9084 69.0008 74.9112 68.9129 74.8955C68.825 74.8798 68.7414 74.8459 68.6671 74.7958C68.0828 74.4083 67.5107 74.008 66.9628 73.607C66.8849 73.5562 66.8181 73.4892 66.7665 73.4102C66.715 73.3312 66.6797 73.2418 66.6629 73.1474C66.6461 73.0531 66.6481 72.9558 66.6687 72.8616C66.6894 72.7673 66.7283 72.678 66.7831 72.5992C66.8379 72.5204 66.9074 72.4537 66.9873 72.4031C67.0673 72.3526 67.1561 72.3193 67.2482 72.3053C67.3403 72.2913 67.4338 72.2969 67.523 72.3217C67.6123 72.3466 67.6953 72.3901 67.7671 72.4497C68.3005 72.846 68.8532 73.2318 69.4106 73.6023C69.5387 73.6928 69.6316 73.8271 69.6736 73.9825C69.7155 74.1378 69.7038 74.3045 69.6406 74.454Z" fill="white"/>
<path d="M66.2845 73.5361C66.2633 73.5954 66.2324 73.6507 66.1931 73.6994C66.0818 73.8469 65.9195 73.9438 65.7417 73.9686C65.564 73.9934 65.3854 73.9442 65.2451 73.8318C64.697 73.4056 64.1658 72.9514 63.6466 72.4842C63.5278 72.3586 63.4597 72.1903 63.4559 72.0128C63.4522 71.8352 63.5129 71.6614 63.6262 71.5258C63.7394 71.3902 63.8969 71.3028 64.0673 71.2808C64.2377 71.2588 64.4086 71.304 64.5461 71.4073C65.0482 71.8522 65.5591 72.2945 66.079 72.7339C66.1921 72.8254 66.2732 72.9528 66.3102 73.0972C66.3472 73.2417 66.3382 73.3956 66.2845 73.5361Z" fill="white"/>
<path d="M63.0311 72.3161C62.9988 72.3936 62.9522 72.464 62.8939 72.5233C62.8332 72.593 62.7599 72.6498 62.6784 72.6902C62.5968 72.7306 62.5087 72.754 62.419 72.7588C62.3294 72.7637 62.24 72.75 62.1562 72.7185C62.0724 72.6871 61.9957 72.6385 61.9308 72.5756C61.4333 72.0902 60.931 71.5949 60.4625 71.0937C60.3931 71.03 60.3373 70.952 60.2986 70.8644C60.2599 70.7769 60.2391 70.6817 60.2376 70.5847C60.236 70.4877 60.2537 70.391 60.2896 70.3007C60.3254 70.2103 60.3786 70.1282 60.4459 70.0595C60.5133 69.9907 60.5932 69.9368 60.6808 69.901C60.7685 69.8652 60.8619 69.8483 60.9554 69.8514C61.0488 69.8546 61.1403 69.8776 61.2241 69.919C61.3079 69.9605 61.3822 70.0196 61.4425 70.0926C61.8988 70.5815 62.3817 71.0623 62.8694 71.5278C62.9711 71.6247 63.0411 71.7523 63.07 71.8932C63.0989 72.0341 63.0854 72.1817 63.0311 72.3161Z" fill="white"/>
<path d="M59.8741 70.8407C59.8317 70.9332 59.7729 71.0167 59.7006 71.0867C59.6343 71.15 59.5567 71.1993 59.4724 71.2317C59.3881 71.264 59.2988 71.2789 59.2097 71.2753C59.1205 71.2717 59.0332 71.2498 58.9529 71.2109C58.8726 71.1719 58.8009 71.1167 58.7419 71.0483C58.2855 70.5341 57.8313 69.9872 57.3941 69.4373C57.2817 69.2904 57.231 69.102 57.2533 68.9137C57.2755 68.7253 57.3689 68.5524 57.5127 68.4329C57.6566 68.3135 57.8393 68.2573 58.0205 68.2767C58.2017 68.2962 58.3667 68.3896 58.4791 68.5365C58.9041 69.0742 59.3412 69.5989 59.7854 70.1008C59.8646 70.2024 59.9148 70.3252 59.9305 70.4558C59.9461 70.5864 59.9266 70.7196 59.8741 70.8407Z" fill="white"/>
<path d="M56.8666 69.0445C56.8158 69.1571 56.7407 69.2563 56.6473 69.3345C56.5763 69.3918 56.4954 69.4343 56.4091 69.4593C56.3229 69.4844 56.233 69.4916 56.1447 69.4805C56.0565 69.4694 55.9715 69.4403 55.8948 69.3948C55.8181 69.3493 55.7511 69.2883 55.6977 69.2153C55.2799 68.6548 54.8645 68.1118 54.4876 67.4974C54.4371 67.4215 54.4017 67.3356 54.3835 67.2447C54.3653 67.1539 54.3646 67.0599 54.3815 66.968C54.3984 66.8762 54.4325 66.7884 54.4819 66.7096C54.5313 66.6308 54.5951 66.5627 54.6694 66.5089C54.743 66.4551 54.8258 66.4167 54.9131 66.3959C55.0004 66.3752 55.0905 66.3725 55.1781 66.388C55.2657 66.4036 55.3492 66.437 55.4237 66.4865C55.4981 66.5359 55.5621 66.6004 55.6119 66.6761C55.9886 67.2402 56.3941 67.7632 56.7829 68.3396C56.8544 68.4385 56.8997 68.5554 56.9143 68.6789C56.929 68.8024 56.9126 68.9283 56.8666 69.0445Z" fill="white"/>
<path d="M54.0298 66.9832C53.9799 67.1014 53.9002 67.204 53.7993 67.2801C53.6984 67.3561 53.58 67.4027 53.4567 67.4149C53.3335 67.4271 53.21 67.4044 53.0994 67.3493C52.9889 67.2942 52.8954 67.2087 52.8289 67.1019C52.4667 66.5173 52.1044 65.9075 51.7906 65.2965C51.7124 65.1362 51.6968 64.9498 51.7472 64.7755C51.7975 64.6012 51.91 64.4523 52.0614 64.3592C52.2128 64.2661 52.3917 64.236 52.5614 64.275C52.731 64.3141 52.8786 64.4193 52.9738 64.5691C53.3142 65.1719 53.6571 65.7671 54.0241 66.3366C54.0733 66.4355 54.0994 66.5455 54.1004 66.6577C54.1014 66.7699 54.0772 66.8813 54.0298 66.9832Z" fill="white"/>
<path d="M51.348 64.7119C51.2926 64.8649 51.184 64.9917 51.0439 65.067C50.9645 65.1107 50.8779 65.1379 50.789 65.1469C50.7 65.156 50.6106 65.1467 50.5258 65.1196C50.4411 65.0925 50.3626 65.0482 50.2951 64.9892C50.2275 64.9301 50.1721 64.8576 50.1322 64.7757C49.8038 64.1599 49.4971 63.526 49.1928 62.8845C49.1459 62.801 49.1163 62.7081 49.1059 62.6115C49.0954 62.5149 49.1044 62.4167 49.1321 62.3231C49.1598 62.2295 49.2057 62.1424 49.267 62.0674C49.3283 61.9923 49.4036 61.9309 49.4882 61.8869C49.5728 61.843 49.665 61.8174 49.7588 61.8118C49.8527 61.8062 49.9463 61.8208 50.0338 61.8545C50.1212 61.8883 50.2007 61.9405 50.2672 62.008C50.3337 62.0754 50.3858 62.1566 50.4202 62.2466C50.7147 62.8682 51.0188 63.4846 51.3351 64.0881C51.3842 64.1828 51.4109 64.2886 51.4132 64.397C51.4154 64.5053 51.3931 64.6132 51.348 64.7119Z" fill="white"/>
<path d="M48.8479 62.2463C48.7952 62.3728 48.7086 62.4814 48.5986 62.5592C48.4885 62.6369 48.3598 62.6803 48.2278 62.6842C48.0958 62.6882 47.9664 62.6524 47.855 62.5812C47.7437 62.51 47.6552 62.4065 47.6003 62.2832C47.3219 61.6359 47.0507 60.991 46.7869 60.3483C46.7206 60.1761 46.7236 59.9824 46.7951 59.8097C46.8666 59.637 47.0008 59.4995 47.1681 59.4275C47.3355 59.3554 47.5223 59.3548 47.6875 59.4256C47.8526 59.4964 47.9826 59.633 48.0489 59.8052C48.3046 60.448 48.5627 61.0832 48.8258 61.7283C48.8985 61.89 48.9064 62.076 48.8479 62.2463Z" fill="white"/>
<path d="M46.5132 59.6083C46.4781 59.6969 46.4256 59.7772 46.359 59.8439C46.2924 59.9107 46.2132 59.9624 46.1267 59.9957C46.041 60.0333 45.9492 60.0525 45.8568 60.0524C45.7644 60.0522 45.6734 60.0326 45.5892 59.9948C45.5051 59.9569 45.4295 59.9016 45.3671 59.8322C45.3048 59.7627 45.2569 59.6806 45.2263 59.5908C44.9923 58.9298 44.7704 58.2558 44.5508 57.5743C44.4962 57.3967 44.5121 57.2027 44.5949 57.0345C44.6778 56.8663 44.8209 56.7378 44.9929 56.6769C45.1652 56.6169 45.3521 56.6296 45.5127 56.7123C45.6732 56.795 45.7945 56.9409 45.8498 57.1182C46.0595 57.7799 46.2425 58.4246 46.5032 59.0774C46.5389 59.1601 46.5581 59.2496 46.5599 59.3408C46.5616 59.4319 46.5457 59.5229 46.5132 59.6083Z" fill="white"/>
<path d="M44.3581 56.8085C44.3021 56.9415 44.2086 57.0545 44.0901 57.1323C43.9716 57.2101 43.8337 57.2489 43.6949 57.2437C43.5561 57.2385 43.4229 57.1895 43.3132 57.1032C43.2034 57.0168 43.1224 56.8973 43.0808 56.7605C42.8855 56.0783 42.7048 55.4008 42.5288 54.708C42.5068 54.6179 42.5022 54.5239 42.5153 54.4314C42.5285 54.3388 42.5591 54.2495 42.6053 54.1685C42.6516 54.0876 42.7127 54.0166 42.7851 53.9597C42.8574 53.9028 42.9396 53.861 43.027 53.8368C43.2024 53.7883 43.3879 53.8127 43.5436 53.9047C43.6993 53.9968 43.8128 54.1491 43.8599 54.3291C44.0333 55.0043 44.2383 55.6812 44.4019 56.3366C44.4417 56.4932 44.4262 56.6605 44.3581 56.8085Z" fill="white"/>
<path d="M42.3725 53.8781C42.3317 53.9812 42.2678 54.0731 42.1862 54.1461C42.1046 54.2192 42.0077 54.2712 41.9036 54.2979C41.7274 54.3434 41.5423 54.315 41.3889 54.2189C41.2355 54.1228 41.1263 53.9668 41.0851 53.7851C40.931 53.0993 40.7867 52.4081 40.6471 51.7018C40.6298 51.6116 40.63 51.5185 40.6476 51.4277C40.6651 51.3369 40.6998 51.2502 40.7495 51.1727C40.7991 51.0952 40.8629 51.0283 40.9371 50.9759C41.0113 50.9235 41.0945 50.8867 41.1819 50.8674C41.3585 50.829 41.5413 50.8632 41.6914 50.9628C41.8415 51.0624 41.9472 51.2195 41.9859 51.4007C42.1157 52.0872 42.2551 52.7684 42.414 53.439C42.446 53.5852 42.4314 53.7392 42.3725 53.8781Z" fill="white"/>
<path d="M40.5509 50.8325C40.5082 50.9413 40.4396 51.0376 40.3516 51.1121C40.2635 51.1866 40.159 51.2369 40.048 51.2582C39.96 51.277 39.8696 51.2775 39.7821 51.2597C39.6946 51.242 39.6118 51.2063 39.5383 51.1548C39.4648 51.1033 39.4023 51.0369 39.3542 50.9596C39.3061 50.8823 39.2736 50.7955 39.2584 50.7044C39.1383 50.0126 39.0302 49.3079 38.9222 48.6032C38.8971 48.4189 38.9434 48.2302 39.051 48.0783C39.1586 47.9265 39.3189 47.8237 39.497 47.7922C39.675 47.7608 39.8565 47.8033 40.0019 47.9105C40.1474 48.0178 40.245 48.181 40.2736 48.3648C40.3743 49.0671 40.4798 49.7542 40.5974 50.4285C40.6236 50.564 40.6073 50.7055 40.5509 50.8325Z" fill="white"/>
<path d="M38.8963 47.6884C38.8379 47.833 38.7356 47.9546 38.6052 48.0343C38.4747 48.1141 38.3234 48.1475 38.1746 48.1295C38.0258 48.1116 37.8879 48.0432 37.782 47.9349C37.6761 47.8266 37.6083 47.6845 37.5889 47.5305C37.5052 46.8252 37.4287 46.1221 37.3643 45.4062C37.3546 45.3141 37.3626 45.2206 37.388 45.131C37.4134 45.0414 37.4556 44.9576 37.5122 44.8845C37.5687 44.8114 37.6386 44.7503 37.7175 44.705C37.7965 44.6596 37.8831 44.6308 37.9723 44.6203C38.1521 44.6013 38.3305 44.6559 38.4695 44.7723C38.6085 44.8887 38.697 45.0577 38.7162 45.2433C38.7854 45.944 38.8569 46.637 38.9455 47.3271C38.9561 47.4493 38.9393 47.573 38.8963 47.6884Z" fill="white"/>
<path d="M37.3872 44.4651C37.327 44.6124 37.2212 44.7354 37.0868 44.8143C36.9524 44.8932 36.7972 44.9235 36.6461 44.9004C36.495 44.8773 36.3568 44.802 36.2536 44.6867C36.1504 44.5713 36.0883 44.4227 36.0771 44.2645C36.0249 43.5608 35.98 42.8511 35.9424 42.1353C35.9381 42.0432 35.9513 41.9507 35.9814 41.8632C36.0115 41.7757 36.0577 41.6948 36.1176 41.6253C36.1775 41.5557 36.2497 41.4988 36.3303 41.4577C36.4108 41.4167 36.498 41.3924 36.587 41.3861C36.676 41.3799 36.7649 41.3919 36.8487 41.4214C36.9325 41.4509 37.0096 41.4973 37.0756 41.558C37.1415 41.6188 37.195 41.6926 37.233 41.7754C37.271 41.8581 37.2928 41.9481 37.2971 42.0403C37.3347 42.7393 37.3796 43.4406 37.4438 44.1313C37.4511 44.2452 37.4317 44.3597 37.3872 44.4651Z" fill="white"/>
<path d="M36.0215 41.1703C35.9714 41.2948 35.8877 41.4023 35.7808 41.4796C35.6738 41.557 35.5481 41.601 35.4189 41.6062C35.238 41.616 35.0622 41.551 34.9299 41.4255C34.7977 41.3 34.7199 41.1243 34.7135 40.9369C34.693 40.2349 34.6747 39.5253 34.6759 38.8051C34.6746 38.7128 34.6908 38.6208 34.7238 38.5344C34.7567 38.4479 34.8057 38.3688 34.8679 38.3014C34.9301 38.2341 35.0042 38.1799 35.0861 38.142C35.168 38.1041 35.256 38.0832 35.345 38.0805C35.5259 38.0741 35.7005 38.1424 35.8305 38.2703C35.9604 38.3982 36.0352 38.5753 36.0383 38.7627C36.0419 39.4677 36.0552 40.1673 36.0782 40.8617C36.0819 40.9672 36.0625 41.0728 36.0215 41.1703Z" fill="white"/>
<path d="M34.7956 37.8111C34.743 37.939 34.6555 38.0486 34.544 38.1263C34.4324 38.204 34.3019 38.2462 34.1687 38.2476C33.9878 38.2506 33.8145 38.1791 33.6868 38.0488C33.5591 37.9185 33.4874 37.74 33.4875 37.5524C33.4983 36.827 33.5141 36.1114 33.5421 35.4082C33.5609 35.229 33.6447 35.0627 33.7763 34.9429C33.9079 34.8232 34.0775 34.7589 34.2508 34.7631C34.4241 34.7673 34.5881 34.8397 34.7096 34.9656C34.831 35.0916 34.9009 35.2616 34.905 35.4413C34.8745 36.127 34.8635 36.8273 34.8574 37.5376C34.8525 37.6315 34.8316 37.7241 34.7956 37.8111Z" fill="white"/>
<path d="M34.3785 6.09079C34.4034 6.17203 34.4461 6.24586 34.5034 6.30653C34.6214 6.44603 34.7889 6.53025 34.9691 6.54073C35.1493 6.55122 35.3275 6.48712 35.4648 6.36248C35.9624 5.90183 36.4844 5.46572 37.0041 5.03723L34.3785 6.09079Z" fill="white"/>
<path d="M33.7344 34.3873C33.671 34.5428 33.5569 34.6711 33.4124 34.7493C33.2679 34.8276 33.1023 34.8507 32.9451 34.8145C32.7878 34.7784 32.6491 34.6853 32.5536 34.5519C32.4581 34.4185 32.4119 34.2533 32.4234 34.0858C32.4658 33.362 32.5302 32.6452 32.5971 31.9459C32.5971 31.8469 32.6172 31.7487 32.6561 31.6574C32.6949 31.5662 32.7515 31.4841 32.8224 31.4163C32.8932 31.3485 32.9767 31.2966 33.0674 31.2639C33.1582 31.2311 33.2541 31.2184 33.3491 31.2264C33.4441 31.2344 33.5361 31.263 33.6191 31.3103C33.702 31.3576 33.7742 31.4227 33.8309 31.5012C33.8876 31.5797 33.9275 31.67 33.9482 31.7662C33.9689 31.8625 33.9697 31.9625 33.9508 32.0599C33.8814 32.7416 33.8242 33.4356 33.7842 34.1518C33.7791 34.2322 33.7623 34.3116 33.7344 34.3873Z" fill="white"/>
<path d="M35.5275 7.87143C35.4928 7.96023 35.4402 8.04058 35.3732 8.107C34.8924 8.59009 34.4288 9.0954 33.9773 9.61299C33.8556 9.75298 33.6862 9.83819 33.5064 9.84987C33.3266 9.86155 33.151 9.79874 33.0183 9.67527C32.8857 9.55179 32.8068 9.37776 32.799 9.19146C32.7912 9.00516 32.8552 8.82185 32.9768 8.68186C33.4428 8.14376 33.9306 7.61265 34.4356 7.10377C34.5477 6.98456 34.6959 6.90937 34.8543 6.8914C35.0127 6.87344 35.171 6.91387 35.3014 7.00557C35.4319 7.09727 35.526 7.23437 35.5674 7.39274C35.6087 7.55112 35.5946 7.72062 35.5275 7.87143Z" fill="white"/>
<path d="M32.8717 30.8918C32.8114 31.0556 32.6948 31.1914 32.5448 31.2728C32.3947 31.3541 32.2218 31.3752 32.0599 31.3318C31.898 31.2885 31.7586 31.1838 31.669 31.0383C31.5793 30.8928 31.5458 30.7168 31.5749 30.5447C31.666 29.8196 31.7668 29.1144 31.8823 28.4139C31.9217 28.236 32.0252 28.0793 32.1713 27.9761C32.3175 27.873 32.4953 27.8312 32.6679 27.8594C32.8405 27.8876 32.9947 27.9837 33.0988 28.1279C33.2028 28.272 33.2488 28.4531 33.2271 28.6338C33.1115 29.3092 33.0154 29.9992 32.9242 30.6991C32.9178 30.7658 32.9 30.8311 32.8717 30.8918Z" fill="white"/>
<path d="M34.2002 11.1718C34.1721 11.2343 34.1374 11.2935 34.0966 11.3482C33.6816 11.8775 33.2715 12.4419 32.8907 13.0156C32.7855 13.1709 32.626 13.2777 32.4471 13.3125C32.2683 13.3473 32.0848 13.3072 31.9371 13.2012C31.7893 13.0951 31.6894 12.9317 31.6593 12.7469C31.6292 12.5621 31.6714 12.371 31.7766 12.2157C32.1816 11.6162 32.6061 11.0312 33.0477 10.4685C33.1633 10.3226 33.3289 10.2288 33.5086 10.2077C33.6882 10.1866 33.8672 10.2399 34.0065 10.3559C34.1183 10.4514 34.1973 10.5819 34.2321 10.7285C34.2669 10.8752 34.2557 11.0303 34.2002 11.1718Z" fill="white"/>
<path d="M32.2442 27.337C32.1842 27.4886 32.0751 27.6145 31.936 27.6926C31.7969 27.7708 31.6367 27.7962 31.4833 27.7645C31.3942 27.7477 31.3094 27.7127 31.2339 27.6617C31.1584 27.6106 31.0937 27.5444 31.0434 27.4668C30.9931 27.3893 30.9583 27.3019 30.9409 27.2097C30.9235 27.1175 30.9239 27.0223 30.942 26.9296C31.0818 26.2284 31.241 25.5166 31.41 24.8247C31.4671 24.6563 31.5827 24.515 31.7339 24.4288C31.8852 24.3426 32.061 24.3177 32.2266 24.359C32.3923 24.4003 32.5358 24.5049 32.6288 24.652C32.7217 24.7992 32.7574 24.9782 32.7287 25.1537C32.5669 25.8227 32.4149 26.5116 32.275 27.1877C32.2725 27.2387 32.262 27.2891 32.2442 27.337Z" fill="white"/>
<path d="M33.2603 14.6129C33.2533 14.6496 33.242 14.6854 33.2268 14.7195C32.8751 15.3027 32.5381 15.9157 32.2181 16.5257C32.1339 16.6875 31.9928 16.8102 31.8248 16.8676C31.6568 16.925 31.4751 16.9127 31.3183 16.8333C31.1647 16.7475 31.0496 16.6036 30.9964 16.4309C30.9431 16.2583 30.9558 16.0698 31.0317 15.9038C31.3686 15.2656 31.7224 14.6245 32.091 14.0132C32.1898 13.8551 32.3434 13.742 32.5193 13.698C32.6951 13.654 32.8792 13.6826 33.0325 13.7776C33.1554 13.8687 33.2445 14.0005 33.2858 14.1518C33.3271 14.3032 33.3181 14.4655 33.2603 14.6129Z" fill="white"/>
<path d="M31.9073 23.7241C31.8381 23.8851 31.7143 24.0151 31.5598 24.0889C31.4054 24.1627 31.2311 24.1752 31.0706 24.1239C30.9102 24.0727 30.7748 23.9613 30.6906 23.8113C30.6064 23.6613 30.5793 23.4832 30.6146 23.3113C30.8322 22.6182 31.0499 21.925 31.2627 21.247C31.2924 21.1589 31.3386 21.0775 31.3986 21.0074C31.4586 20.9374 31.5312 20.8801 31.6121 20.8389C31.6931 20.7977 31.7808 20.7734 31.8702 20.7675C31.9596 20.7615 32.0489 20.774 32.133 20.8042C32.2181 20.8324 32.2964 20.8781 32.3634 20.9387C32.4304 20.9994 32.4847 21.0736 32.523 21.157C32.5613 21.2404 32.5829 21.3313 32.5864 21.4242C32.5899 21.5172 32.5753 21.6103 32.5435 21.6979C32.3378 22.353 32.1297 23.0157 31.9193 23.686L31.9073 23.7241Z" fill="white"/>
<path d="M32.7111 18.1365C32.4203 18.7559 32.1465 19.3976 31.8947 20.0463C31.8239 20.2193 31.6914 20.3583 31.5253 20.4335C31.3591 20.5088 31.1724 20.5145 31.0049 20.4493C30.9188 20.4146 30.8407 20.362 30.7755 20.2945C30.7103 20.2271 30.6593 20.1463 30.6257 20.0571C30.592 19.9679 30.5764 19.8722 30.5797 19.7758C30.5831 19.6794 30.6054 19.5843 30.6453 19.4964C30.914 18.8196 31.1949 18.1551 31.4953 17.5052C31.5762 17.3366 31.7167 17.2061 31.8871 17.1415C32.0574 17.0769 32.244 17.0834 32.4072 17.1595C32.4922 17.1985 32.5681 17.2556 32.6301 17.327C32.6922 17.3985 32.7389 17.4828 32.7675 17.5747C32.7961 17.6665 32.8058 17.7639 32.7961 17.8606C32.7864 17.9573 32.7575 18.0513 32.7111 18.1365Z" fill="white"/>
<path d="M72.9359 77.7528L71.9039 78.4856C71.2889 78.2223 70.6787 77.9437 70.0829 77.6446C70.0028 77.6057 69.9312 77.5506 69.8723 77.4825C69.8134 77.4143 69.7683 77.3344 69.7397 77.2475C69.711 77.1606 69.6994 77.0683 69.7055 76.976C69.7115 76.8837 69.7351 76.7932 69.7749 76.7097C69.8554 76.5419 69.9958 76.4124 70.1657 76.3492C70.3356 76.2861 70.5213 76.2943 70.6828 76.3722C71.2737 76.6614 71.8815 76.9475 72.4965 77.2109C72.6121 77.2486 72.7145 77.3194 72.7922 77.4152C72.8699 77.5109 72.9197 77.6279 72.9359 77.7528Z" fill="white"/>
<path d="M69.4161 77.8382C69.4134 77.8595 69.4069 77.8801 69.397 77.8991C69.313 78.0607 69.1721 78.1831 69.0044 78.2405C68.8367 78.2978 68.6552 78.2855 68.4986 78.2062C67.8954 77.8796 67.2847 77.5256 66.7006 77.1633C66.6197 77.1206 66.5483 77.0611 66.4908 76.9884C66.4333 76.9157 66.3909 76.8314 66.3662 76.7405C66.3414 76.6497 66.3349 76.5542 66.3469 76.4599C66.3589 76.3656 66.3893 76.2744 66.4361 76.1919C66.5306 76.0303 66.6824 75.9129 66.8582 75.8655C67.0339 75.8181 67.2193 75.8446 67.3736 75.9391C67.9454 76.2891 68.5221 76.6239 69.1108 76.9458C69.2604 77.0263 69.3746 77.1624 69.4311 77.3274C69.4876 77.4925 69.4822 77.6746 69.4161 77.8382Z" fill="white"/>
<path d="M65.9855 77.2074C65.9791 77.2497 65.9662 77.2908 65.9473 77.3291C65.8979 77.407 65.8343 77.4742 65.7603 77.5269C65.6862 77.5796 65.603 77.6168 65.5156 77.6364C65.4282 77.6559 65.3383 77.6574 65.251 77.6407C65.1637 77.6241 65.0808 77.5896 65.0071 77.5393C64.4374 77.1565 63.8677 76.7485 63.3099 76.3277C63.2387 76.2738 63.1788 76.2057 63.1335 76.1272C63.0882 76.0488 63.0585 75.9615 63.0461 75.8704C63.0337 75.7794 63.0388 75.6863 63.0612 75.5966C63.0835 75.5069 63.1227 75.4223 63.1763 75.3477C63.2842 75.1963 63.4445 75.0941 63.6225 75.0632C63.8004 75.0323 63.9815 75.0752 64.1265 75.1826C64.6647 75.5888 65.215 75.9822 65.7652 76.3504C65.8916 76.4436 65.9824 76.5795 66.0225 76.7355C66.0627 76.8915 66.0496 77.0581 65.9855 77.2074Z" fill="white"/>
<path d="M62.6408 76.2509C62.6267 76.3105 62.6084 76.3689 62.5859 76.4259C62.4713 76.5735 62.3061 76.6697 62.1261 76.6936C61.946 76.7174 61.7655 76.6672 61.6234 76.5536C61.0873 76.1145 60.5585 75.6526 60.0394 75.2106C59.9726 75.1503 59.9182 75.0765 59.8796 74.9936C59.8409 74.9108 59.8186 74.8204 59.8141 74.7278C59.8095 74.6353 59.8228 74.5423 59.8531 74.4544C59.8834 74.3665 59.9302 74.2854 59.9907 74.2158C60.113 74.0771 60.2817 73.9922 60.461 73.9792C60.6403 73.9662 60.8161 74.026 60.9511 74.146C61.4411 74.6038 61.9529 75.0435 62.4694 75.468C62.5718 75.5633 62.643 75.6894 62.6736 75.8293C62.7043 75.9692 62.6928 76.1163 62.6408 76.2509Z" fill="white"/>
<path d="M59.3971 74.975C59.3625 75.0531 59.318 75.1262 59.2647 75.1922C59.1376 75.3277 58.9654 75.4072 58.7849 75.4136C58.6045 75.4201 58.4301 75.3531 58.2991 75.227C57.8089 74.7439 57.3186 74.2357 56.85 73.7093C56.7886 73.6434 56.7409 73.5652 56.7095 73.4792C56.6781 73.3932 56.6638 73.3013 56.6674 73.2088C56.671 73.1163 56.6924 73.0251 56.7304 72.9407C56.7684 72.8562 56.8222 72.7802 56.8886 72.7171C57.0205 72.5882 57.1949 72.5173 57.3743 72.5198C57.5537 72.5222 57.7236 72.5979 57.8472 72.7303C58.3059 73.2369 58.7768 73.7305 59.2499 74.1913C59.3482 74.2897 59.4148 74.4173 59.4411 74.5571C59.4674 74.697 59.452 74.8427 59.3971 74.975Z" fill="white"/>
<path d="M56.2797 73.4027C56.2352 73.5144 56.1639 73.6129 56.0728 73.6888C55.9817 73.7647 55.8737 73.8154 55.7593 73.836C55.6449 73.8566 55.5278 73.8465 55.4194 73.8065C55.311 73.7666 55.2148 73.6982 55.1401 73.6079C54.6958 73.0808 54.2513 72.5286 53.8262 71.9658C53.7161 71.8202 53.6668 71.6343 53.6891 71.4485C53.7113 71.2627 53.8032 71.0922 53.9448 70.974C54.0151 70.9151 54.0956 70.871 54.1817 70.8443C54.2679 70.8176 54.358 70.8088 54.4468 70.8185C54.5356 70.8282 54.6213 70.8561 54.6989 70.9006C54.7766 70.9451 54.8446 71.0054 54.8991 71.0779C55.3144 71.6208 55.7323 72.1813 56.174 72.6656C56.2571 72.7643 56.3112 72.8858 56.3299 73.0162C56.3486 73.1467 56.3312 73.2806 56.2797 73.4027Z" fill="white"/>
<path d="M53.3115 71.5522C53.2586 71.6677 53.1801 71.7689 53.0825 71.8474C52.9354 71.9587 52.7531 72.0059 52.5752 71.9789C52.3972 71.9519 52.2382 71.8527 52.1328 71.7031C51.7319 71.1396 51.3382 70.5533 50.9565 69.9542C50.9071 69.8041 50.9083 69.6401 50.96 69.4888C51.0116 69.3375 51.1107 69.2078 51.2411 69.1206C51.3716 69.0334 51.5257 68.9938 51.6786 69.0084C51.8315 69.0229 51.9742 69.0907 52.0836 69.2006C52.4554 69.78 52.8394 70.3464 53.2208 70.8952C53.2856 70.9882 53.3277 71.0964 53.3435 71.2107C53.3592 71.325 53.3483 71.4421 53.3115 71.5522Z" fill="white"/>
<path d="M50.5054 69.4511C50.4528 69.5898 50.3567 69.7067 50.2328 69.7827C50.078 69.8813 49.8931 69.9132 49.7183 69.8715C49.5435 69.8298 49.393 69.7178 49.2996 69.5599C48.9519 68.9632 48.609 68.3512 48.2708 67.724C48.1908 67.559 48.1772 67.3666 48.2331 67.1886C48.289 67.0105 48.4098 66.8611 48.5694 66.7727C48.6487 66.7289 48.7354 66.7017 48.8243 66.6927C48.9132 66.6836 49.0027 66.6929 49.0874 66.72C49.1722 66.7471 49.2506 66.7914 49.3182 66.8505C49.3857 66.9095 49.4411 66.982 49.481 67.0639C49.8118 67.672 50.1474 68.2649 50.5218 68.8618C50.561 68.9544 50.5799 69.0552 50.577 69.1571C50.5742 69.259 50.5497 69.3593 50.5054 69.4511Z" fill="white"/>
<path d="M47.8715 67.1276C47.8123 67.2826 47.7006 67.4109 47.5578 67.4879C47.4784 67.5317 47.3917 67.5589 47.3028 67.5679C47.2139 67.5769 47.1244 67.5677 47.0397 67.5406C46.9549 67.5135 46.8765 67.4691 46.8089 67.4101C46.7413 67.3511 46.686 67.2785 46.646 67.1966C46.3297 66.568 46.0327 65.9288 45.7381 65.2819C45.6974 65.2004 45.6729 65.1111 45.6659 65.019C45.6589 64.9269 45.6696 64.834 45.6974 64.7455C45.7251 64.6571 45.7694 64.5749 45.8276 64.5036C45.8859 64.4324 45.9569 64.3736 46.0366 64.3305C46.2019 64.2507 46.3895 64.2407 46.5592 64.3027C46.7288 64.3647 46.8669 64.4938 46.9438 64.6622C47.2213 65.2868 47.5157 65.9085 47.8199 66.5249C47.8732 66.6133 47.9056 66.7139 47.9145 66.8185C47.9235 66.9231 47.9088 67.029 47.8715 67.1276Z" fill="white"/>
<path d="M45.4163 64.6183C45.3649 64.7477 45.2779 64.8591 45.1662 64.9382C45.0546 65.0174 44.9234 65.0608 44.7893 65.0629C44.6553 65.065 44.5245 65.0256 44.4135 64.9499C44.3025 64.8742 44.2164 64.7655 44.1661 64.6376C43.8958 63.9901 43.6375 63.3297 43.3889 62.664C43.351 62.5769 43.3308 62.4823 43.3295 62.386C43.3282 62.2897 43.3458 62.1938 43.3814 62.1041C43.4169 62.0144 43.4696 61.9328 43.5361 61.8643C43.6027 61.7958 43.6818 61.7418 43.7685 61.7057C43.8553 61.6695 43.9479 61.652 44.0407 61.6541C44.1335 61.6562 44.2245 61.6779 44.3083 61.7179C44.392 61.7579 44.4666 61.8154 44.5277 61.8867C44.5887 61.9581 44.6348 62.042 44.6631 62.1331C44.9068 62.7888 45.1553 63.4294 45.4182 64.0494C45.4572 64.138 45.4773 64.2347 45.4769 64.3328C45.4766 64.431 45.4559 64.5283 45.4163 64.6183Z" fill="white"/>
<path d="M43.1278 61.9357C43.073 62.067 42.9817 62.1789 42.8658 62.257C42.7499 62.335 42.6147 62.3756 42.4778 62.3734C42.3409 62.3712 42.2086 62.3263 42.0981 62.2446C41.9875 62.1629 41.9039 62.0482 41.8579 61.9153C41.6336 61.2489 41.4117 60.575 41.2067 59.8981C41.1834 59.7301 41.2193 59.5579 41.3079 59.4128C41.3966 59.2678 41.532 59.1597 41.6894 59.1084C41.8468 59.057 42.0156 59.0657 42.1651 59.133C42.3146 59.2003 42.4347 59.3216 42.5034 59.4748C42.7035 60.1418 42.8937 60.7888 43.1374 61.4446C43.1901 61.6032 43.1867 61.7772 43.1278 61.9357Z" fill="white"/>
<path d="M41.0046 59.1124C40.9663 59.2101 40.9065 59.2976 40.8301 59.3678C40.7537 59.438 40.6628 59.4889 40.5648 59.5163C40.4788 59.544 40.3888 59.5538 40.2998 59.5451C40.2109 59.5364 40.1248 59.5095 40.0467 59.4658C39.9685 59.4221 39.8998 59.3626 39.8445 59.2907C39.7892 59.2188 39.7485 59.1359 39.7247 59.0469C39.5367 58.367 39.3511 57.6795 39.197 56.9937C39.1745 56.9047 39.1693 56.8116 39.1817 56.7197C39.1941 56.6279 39.2239 56.5392 39.2693 56.4587C39.3147 56.3782 39.3749 56.3075 39.4463 56.2507C39.5177 56.194 39.599 56.1522 39.6855 56.1278C39.7753 56.0987 39.8696 56.0888 39.9625 56.099C40.0554 56.1091 40.1449 56.1389 40.2256 56.1867C40.3062 56.2344 40.3761 56.299 40.4311 56.3765C40.4861 56.454 40.5249 56.5426 40.5452 56.637C40.7113 57.3099 40.8847 57.9852 41.0629 58.6452C41.0958 58.8022 41.0752 58.9672 41.0046 59.1124Z" fill="white"/>
<path d="M39.0501 56.1584C39.0088 56.2624 38.9438 56.3547 38.8608 56.4275C38.7778 56.5003 38.6793 56.5512 38.5739 56.5759C38.4872 56.5985 38.3975 56.6031 38.3098 56.5897C38.2221 56.5762 38.1382 56.5449 38.0628 56.4974C37.9874 56.45 37.9221 56.3874 37.8706 56.3133C37.8191 56.2392 37.7824 56.155 37.7627 56.0655C37.611 55.372 37.4666 54.6809 37.3343 53.9768C37.3175 53.8857 37.3183 53.7917 37.3366 53.7001C37.3548 53.6086 37.3903 53.5213 37.4409 53.4433C37.4914 53.3653 37.5561 53.2981 37.6313 53.2456C37.7064 53.1931 37.7905 53.1563 37.8788 53.1372C37.9664 53.118 38.0565 53.1169 38.1439 53.134C38.2312 53.1512 38.3141 53.1861 38.3878 53.2369C38.4614 53.2877 38.5243 53.3533 38.5729 53.4299C38.6215 53.5066 38.6547 53.5927 38.6708 53.6834C38.7973 54.3716 38.9368 55.0528 39.0892 55.7269C39.1231 55.8703 39.1094 56.0223 39.0501 56.1584Z" fill="white"/>
<path d="M37.2482 53.1017C37.2049 53.2101 37.136 53.306 37.0481 53.3804C36.9602 53.4549 36.856 53.5054 36.7452 53.5274C36.5671 53.5623 36.3842 53.5228 36.2367 53.4175C36.0892 53.3123 35.989 53.15 35.958 52.966C35.8379 52.2742 35.7299 51.5695 35.6315 50.8596C35.608 50.675 35.655 50.4867 35.7627 50.3349C35.8703 50.1831 36.03 50.0797 36.2078 50.0468C36.2961 50.0322 36.3859 50.0359 36.4722 50.0576C36.5585 50.0793 36.6394 50.1186 36.7103 50.1732C36.7812 50.2278 36.8408 50.2966 36.8855 50.3757C36.9302 50.4548 36.9592 50.5426 36.9709 50.634C37.0732 51.3313 37.1787 52.0184 37.2874 52.6954C37.3169 52.8308 37.3032 52.9734 37.2482 53.1017Z" fill="white"/>
<path d="M35.6058 49.9456C35.5463 50.0892 35.4433 50.2095 35.3127 50.288C35.1821 50.3664 35.0311 50.3988 34.8828 50.38C34.7346 50.3611 34.5974 50.2923 34.4922 50.1839C34.3871 50.0755 34.3198 49.9336 34.3008 49.78C34.222 49.0846 34.1479 48.374 34.0811 47.6657C34.0663 47.4808 34.1222 47.2959 34.2369 47.1507C34.3515 47.0056 34.5157 46.9118 34.694 46.8897C34.7827 46.8792 34.8721 46.887 34.9572 46.9126C35.0423 46.9382 35.1213 46.981 35.1898 47.0387C35.2582 47.0964 35.3147 47.1677 35.3561 47.2487C35.3974 47.3296 35.4227 47.4186 35.4306 47.5104C35.4998 48.211 35.5713 48.9041 35.6526 49.5919C35.6659 49.7114 35.6498 49.8331 35.6058 49.9456Z" fill="white"/>
<path d="M34.1119 46.702C34.0528 46.8502 33.9477 46.9744 33.8135 47.0546C33.6793 47.1348 33.5238 47.1663 33.3721 47.144C33.2205 47.1217 33.0815 47.0469 32.9775 46.9317C32.8736 46.8165 32.8108 46.6675 32.7994 46.5089C32.7472 45.8053 32.7071 45.0887 32.6646 44.3798C32.6554 44.1924 32.7183 44.0074 32.8396 43.8655C32.961 43.7236 33.1307 43.6364 33.3116 43.623C33.4007 43.6164 33.4897 43.6281 33.5737 43.6575C33.6576 43.6869 33.7349 43.7333 33.8009 43.7941C33.8669 43.8549 33.9204 43.9289 33.9583 44.0118C33.9962 44.0947 34.0178 44.1848 34.0217 44.2771C34.0593 44.9761 34.1042 45.6774 34.1661 46.3758C34.1741 46.487 34.1555 46.599 34.1119 46.702Z" fill="white"/>
<path d="M32.7406 43.4224C32.6771 43.5668 32.5693 43.6862 32.4344 43.7615C32.2994 43.8367 32.145 43.8637 31.9954 43.8381C31.8459 43.8124 31.7099 43.7356 31.6089 43.6198C31.5078 43.5041 31.4476 43.3559 31.4376 43.1988C31.4121 42.4869 31.3939 41.7773 31.3854 41.0624C31.3867 40.8761 31.4572 40.696 31.5822 40.5596C31.7073 40.4233 31.8773 40.3411 32.0569 40.3302C32.2369 40.3265 32.4098 40.3967 32.5378 40.5254C32.6658 40.6542 32.7386 40.8311 32.7405 41.0177C32.7514 41.725 32.7647 42.4246 32.7877 43.119C32.7945 43.2221 32.7784 43.3259 32.7406 43.4224Z" fill="white"/>
<path d="M31.5119 40.0705C31.4593 40.1984 31.3718 40.308 31.2602 40.3857C31.1487 40.4634 31.0182 40.5056 30.885 40.507C30.7041 40.51 30.5308 40.4385 30.4031 40.3082C30.2754 40.1779 30.2037 39.9994 30.2037 39.8118C30.2073 39.084 30.2304 38.3708 30.2511 37.6652C30.2699 37.4861 30.3537 37.3198 30.4853 37.2C30.6169 37.0802 30.7865 37.0159 30.9598 37.0202C31.1331 37.0244 31.2971 37.0968 31.4186 37.2227C31.54 37.3487 31.6099 37.5187 31.6139 37.6984C31.5907 38.3864 31.5724 39.0844 31.5664 39.7946C31.5676 39.8892 31.549 39.9833 31.5119 40.0705Z" fill="white"/>
<path d="M33.9415 7.0051C33.8971 7.12006 33.8238 7.22106 33.7294 7.29749C33.195 7.72144 32.6558 8.16063 32.1726 8.62607C32.0475 8.74133 31.8872 8.8063 31.7214 8.80887C31.5557 8.81145 31.3958 8.75145 31.2717 8.64005C31.1475 8.52866 31.0676 8.37347 31.0467 8.2034C31.0257 8.03332 31.0653 7.85997 31.158 7.71562L33.8679 6.37014C33.9293 6.46071 33.9681 6.56592 33.981 6.6766C33.9938 6.78728 33.9803 6.90007 33.9415 7.0051Z" fill="white"/>
<path d="M30.4435 36.6436C30.3878 36.7783 30.2938 36.8929 30.1743 36.9716C30.0547 37.0504 29.9154 37.0895 29.7752 37.0837C29.6856 37.0802 29.5979 37.0582 29.5172 37.0189C29.4365 36.9797 29.3645 36.9241 29.3054 36.8553C29.2462 36.7864 29.2011 36.7058 29.1727 36.6181C29.1443 36.5304 29.1331 36.4374 29.1398 36.3445C29.1822 35.6207 29.2369 34.9091 29.3062 34.2023C29.3262 34.0166 29.416 33.8451 29.5559 33.7251C29.6958 33.6051 29.8746 33.5462 30.0536 33.5612C30.1424 33.5674 30.2288 33.592 30.3076 33.6335C30.3865 33.6751 30.4562 33.7327 30.5127 33.8031C30.5692 33.8735 30.6114 33.9551 30.6366 34.0432C30.6619 34.1314 30.6698 34.2242 30.6599 34.3162C30.5978 35.0003 30.5382 35.7018 30.4933 36.4081C30.4917 36.4889 30.4748 36.5689 30.4435 36.6436Z" fill="white"/>
<path d="M32.2346 10.1351C32.1999 10.2239 32.1473 10.3042 32.0804 10.3707C31.5972 10.8614 31.1262 11.3643 30.6844 11.8766C30.5596 12.0051 30.393 12.0802 30.2188 12.0866C30.0445 12.093 29.8758 12.0302 29.7471 11.911C29.6184 11.7917 29.5395 11.6252 29.5264 11.4453C29.5133 11.2654 29.5671 11.0858 29.6767 10.9432C30.1427 10.4051 30.6378 9.8763 31.1427 9.36742C31.2548 9.24822 31.4031 9.17302 31.5615 9.15506C31.7198 9.1371 31.8782 9.17753 32.0086 9.26923C32.139 9.36092 32.2332 9.49802 32.2745 9.6564C32.3159 9.81477 32.3017 9.98428 32.2346 10.1351Z" fill="white"/>
<path d="M29.579 33.1559C29.5128 33.3133 29.3946 33.4418 29.2461 33.5178C29.0975 33.5938 28.9285 33.6123 28.77 33.5699C28.6116 33.5274 28.4743 33.4268 28.3834 33.2866C28.2924 33.1464 28.2539 32.9759 28.2749 32.8064C28.366 32.0814 28.4668 31.3762 28.5823 30.6756C28.6179 30.4946 28.7197 30.3336 28.8663 30.2267C29.0129 30.1199 29.1927 30.0756 29.3677 30.1032C29.5427 30.1308 29.6992 30.2281 29.8041 30.3746C29.9089 30.521 29.9539 30.7052 29.9294 30.888C29.8114 31.571 29.7154 32.2609 29.6242 32.9608C29.6166 33.0273 29.6014 33.0928 29.579 33.1559Z" fill="white"/>
<path d="M30.9138 13.4381C30.8898 13.5028 30.8547 13.5625 30.8103 13.6145C30.3928 14.1514 29.9828 14.7159 29.6043 15.282C29.4991 15.4373 29.3396 15.5441 29.1607 15.5789C28.9819 15.6136 28.7984 15.5736 28.6507 15.4675C28.5029 15.3614 28.403 15.198 28.3729 15.0132C28.3428 14.8284 28.385 14.6373 28.4902 14.4821C28.8928 13.8901 29.3197 13.2976 29.7613 12.7349C29.8769 12.5889 30.0426 12.4952 30.2222 12.4741C30.4018 12.453 30.5808 12.5062 30.7202 12.6222C30.835 12.7154 30.9163 12.8458 30.9513 12.9934C30.9863 13.1409 30.9731 13.2973 30.9138 13.4381Z" fill="white"/>
<path d="M28.9439 29.5992C28.8839 29.7508 28.7748 29.8767 28.6357 29.9548C28.4966 30.033 28.3364 30.0584 28.183 30.0267C28.0939 30.0111 28.009 29.9772 27.9333 29.9271C27.8576 29.8769 27.7925 29.8114 27.7419 29.7344C27.6913 29.6574 27.6562 29.5705 27.6386 29.4786C27.621 29.3868 27.6212 29.2919 27.6393 29.1994C27.7839 28.483 27.9334 27.7765 28.1097 27.0869C28.1668 26.9185 28.2824 26.7772 28.4337 26.691C28.5849 26.6048 28.7607 26.5799 28.9264 26.6212C29.092 26.6625 29.2355 26.7671 29.3285 26.9142C29.4214 27.0614 29.4571 27.2404 29.4284 27.4159C29.2593 28.0826 29.1097 28.7639 28.9723 29.4575C28.9706 29.5059 28.961 29.5538 28.9439 29.5992Z" fill="white"/>
<path d="M29.9626 16.8674L29.9291 16.974C29.575 17.5648 29.2331 18.1679 28.9131 18.7779C28.8704 18.86 28.8128 18.9329 28.7434 18.9925C28.674 19.052 28.5942 19.097 28.5086 19.1249C28.423 19.1528 28.3333 19.1631 28.2446 19.1551C28.1558 19.1471 28.0698 19.1211 27.9914 19.0785C27.913 19.0358 27.8438 18.9774 27.7877 18.9066C27.7316 18.8358 27.6898 18.7539 27.6645 18.6657C27.6392 18.5775 27.6311 18.4847 27.6405 18.3925C27.6499 18.3003 27.6767 18.2106 27.7193 18.1285C28.0489 17.488 28.41 16.8492 28.7786 16.2379C28.8701 16.0839 29.0137 15.9704 29.1807 15.9203C29.3476 15.8703 29.5255 15.8873 29.6784 15.968C29.8313 16.0487 29.9479 16.1871 30.0047 16.3553C30.0615 16.5235 30.0542 16.709 29.9845 16.8744L29.9626 16.8674Z" fill="white"/>
<path d="M28.5686 25.9825C28.4947 26.1421 28.3668 26.2688 28.2097 26.3379C28.0526 26.407 27.8774 26.4136 27.7182 26.3565C27.559 26.2994 27.427 26.1826 27.3479 26.0288C27.2689 25.875 27.2483 25.6951 27.2902 25.524C27.5078 24.8308 27.7255 24.1377 27.9383 23.4597C28.0022 23.283 28.1298 23.1379 28.2938 23.0555C28.4579 22.9732 28.6453 22.9601 28.8159 23.0192C28.9003 23.0483 28.978 23.0946 29.0445 23.1555C29.1109 23.2163 29.1648 23.2904 29.203 23.3735C29.2411 23.4567 29.2629 23.5472 29.2669 23.6398C29.2709 23.7323 29.2571 23.8252 29.2264 23.9129C29.0207 24.568 28.8126 25.2307 28.6022 25.9011C28.5946 25.9296 28.5832 25.957 28.5686 25.9825Z" fill="white"/>
<path d="M29.4112 20.3987C29.1277 21.0204 28.8539 21.6621 28.5948 22.3084C28.5616 22.3947 28.5124 22.4737 28.45 22.5408C28.3876 22.608 28.3133 22.6619 28.2313 22.6996C28.1493 22.7372 28.0613 22.7579 27.9722 22.7603C27.8832 22.7627 27.7949 22.7469 27.7124 22.7138C27.6288 22.6807 27.5527 22.6307 27.4883 22.5666C27.424 22.5026 27.3728 22.4257 27.3376 22.3405C27.3024 22.2553 27.2839 22.1634 27.2832 22.07C27.2825 21.9767 27.2996 21.8838 27.3335 21.7966C27.6022 21.1198 27.8831 20.4553 28.1908 19.8078C28.2763 19.6542 28.4133 19.5379 28.5751 19.4816C28.7369 19.4253 28.9119 19.433 29.0662 19.5031C29.2204 19.5733 29.3429 19.7009 29.4098 19.8612C29.4767 20.0216 29.4832 20.2031 29.4281 20.3705L29.4112 20.3987Z" fill="white"/>
<path d="M19.4237 30.8043C19.4343 30.7827 19.4415 30.7596 19.4452 30.7358C19.4065 29.8107 19.4017 28.8798 19.436 27.978C19.4278 27.8029 19.3573 27.6385 19.238 27.5166C19.1188 27.3946 18.9593 27.3238 18.7904 27.3177C18.6215 27.3117 18.4552 27.371 18.3238 27.484C18.1924 27.597 18.1051 27.7558 18.0789 27.9296C18.0474 28.8741 18.0499 29.8379 18.0888 30.8133C18.0878 30.9995 18.1583 31.1771 18.2845 31.307C18.4108 31.4368 18.5827 31.5083 18.7623 31.5057C18.9419 31.5032 19.1145 31.4267 19.2422 31.2932C19.3698 31.1596 19.4421 30.98 19.4431 30.7938L19.4237 30.8043ZM20.1264 22.5045L20.1622 22.3903C20.1716 22.2246 20.1245 22.0618 20.0294 21.9304C19.9342 21.799 19.797 21.7073 19.6416 21.6713C19.475 21.6367 19.3009 21.6675 19.1526 21.7577C19.0043 21.8479 18.8923 21.9912 18.8383 22.1599L18.8215 22.2132C18.7833 22.335 18.7499 22.4415 18.7117 22.5633C18.5458 23.3477 18.3925 24.2198 18.2851 25.0479C18.2734 25.1404 18.2794 25.2341 18.3027 25.3235C18.326 25.4129 18.3662 25.4963 18.4209 25.569C18.4755 25.6416 18.5437 25.7021 18.6215 25.747C18.6992 25.7919 18.785 25.8203 18.874 25.8306C18.963 25.8409 19.0534 25.8329 19.1401 25.807C19.2267 25.7811 19.308 25.7378 19.3791 25.6797C19.4503 25.6216 19.5099 25.5497 19.5547 25.4682C19.5995 25.3866 19.6286 25.2971 19.6402 25.2046C19.7572 24.2973 19.9194 23.3961 20.1264 22.5045ZM20.0615 36.3923C20.064 36.335 20.0604 36.2778 20.0509 36.2215C19.874 35.3276 19.7454 34.3822 19.6486 33.4888C19.6436 33.392 19.6195 33.2978 19.5778 33.2119C19.5361 33.126 19.4776 33.0502 19.406 32.9893C19.3345 32.9283 19.2513 32.8835 19.1617 32.8576C19.0721 32.8317 18.978 32.8253 18.8851 32.8387C18.7923 32.8521 18.7028 32.8851 18.622 32.9357C18.5413 32.9862 18.4711 33.0531 18.4158 33.1324C18.3605 33.2117 18.3213 33.3016 18.3005 33.3966C18.2798 33.4915 18.278 33.5895 18.2953 33.6844C18.3995 34.6053 18.5135 35.5461 18.7078 36.5125C18.7383 36.6825 18.8281 36.8338 18.9602 36.9376C19.0923 37.0415 19.2576 37.0906 19.4245 37.0758C19.5915 37.061 19.7486 36.9832 19.866 36.8572C19.9835 36.7312 20.053 36.5658 20.0615 36.3923ZM21.9091 17.0282C21.9164 16.865 21.8692 16.7052 21.7753 16.576C21.6815 16.4467 21.5468 16.356 21.3942 16.319C21.2415 16.282 21.0802 16.3012 20.9376 16.3732C20.7949 16.4452 20.6797 16.5656 20.6114 16.7141C20.2227 17.5948 19.873 18.5046 19.5718 19.4133C19.5366 19.585 19.5636 19.7629 19.6477 19.9128C19.7318 20.0627 19.8669 20.1739 20.0272 20.2251C20.1875 20.2763 20.3615 20.2638 20.5157 20.1901C20.67 20.1164 20.7936 19.9866 20.8627 19.8257C21.135 18.9581 21.485 18.0985 21.852 17.2612C21.8866 17.1883 21.906 17.1089 21.9091 17.0282ZM21.3443 41.8431C21.3505 41.7605 21.341 41.6778 21.3163 41.5997C21.0592 40.6802 20.8239 39.7676 20.6061 38.9277C20.5574 38.7526 20.445 38.6052 20.2922 38.5163C20.1395 38.4275 19.9583 38.4042 19.7868 38.4512C19.6153 38.4982 19.4667 38.612 19.3723 38.7686C19.2778 38.9252 19.2448 39.1125 19.2802 39.2912C19.4936 40.1967 19.7434 41.1139 20.0225 42.0404C20.0469 42.1292 20.0883 42.2116 20.1443 42.2828C20.2003 42.3539 20.2698 42.4124 20.3486 42.4548C20.4273 42.4971 20.5138 42.5225 20.6029 42.5293C20.6919 42.5361 20.7818 42.5243 20.867 42.4945C21.0041 42.4544 21.1259 42.3698 21.2145 42.2534C21.303 42.1369 21.3537 41.9947 21.3588 41.8477L21.3443 41.8431ZM24.6657 12.1562C24.0929 12.6264 23.5566 13.1333 22.9815 13.6362C22.595 13.9984 22.2182 14.3553 21.8366 14.7275C21.8925 14.88 21.9966 15.0076 22.1322 15.0898C22.2889 15.1799 22.4746 15.2021 22.6495 15.1515C22.8244 15.1009 22.9745 14.9817 23.0677 14.8193C23.5078 14.0305 24.0014 13.2503 24.5218 12.4871C24.5968 12.3913 24.6465 12.2772 24.6657 12.1562ZM23.1577 47.1368C23.1621 47.035 23.1475 46.9337 23.1149 46.8384C22.864 46.1805 22.6179 45.5073 22.379 44.8364L22.1745 44.2352C22.1444 44.1481 22.0979 44.0683 22.0377 44.0003C21.9775 43.9324 21.9048 43.8777 21.8237 43.8394C21.6599 43.7619 21.4719 43.7557 21.301 43.8222C21.1301 43.8886 20.9903 44.0222 20.9125 44.1936C20.8346 44.3651 20.825 44.5602 20.8858 44.7362L21.1049 45.3421C21.3463 46.0305 21.59 46.7113 21.8459 47.3792C21.9121 47.5521 22.0422 47.6894 22.2077 47.7611C22.3732 47.8328 22.5606 47.833 22.7289 47.7618C22.8506 47.7112 22.956 47.625 23.0322 47.514C23.1084 47.4029 23.152 47.2718 23.1577 47.1368ZM25.315 52.2556C25.3264 52.1384 25.3048 52.0209 25.2526 51.9175C24.877 51.0941 24.5037 50.238 24.145 49.3865C24.0632 49.2341 23.9291 49.1199 23.7688 49.066C23.6084 49.012 23.4334 49.0223 23.2775 49.0947C23.1217 49.167 22.9963 49.2964 22.9257 49.4577C22.8551 49.6189 22.8443 49.8005 22.8955 49.967C23.2568 50.8361 23.635 51.7021 24.0204 52.5454C24.0866 52.684 24.1955 52.7952 24.3301 52.8617C24.4648 52.9282 24.6177 52.9464 24.7652 52.9134C24.9127 52.8804 25.0466 52.798 25.1459 52.6791C25.2453 52.5602 25.3047 52.4113 25.315 52.2556ZM27.804 57.2376C27.8092 57.104 27.7783 56.9723 27.7147 56.8574C27.2835 56.0581 26.8497 55.2413 26.4401 54.4238C26.4038 54.3345 26.3499 54.2544 26.2819 54.1884C26.2138 54.1224 26.1331 54.072 26.0447 54.0403C25.9564 54.0086 25.8623 53.9962 25.7684 54.0041C25.6745 54.0119 25.5828 54.0398 25.4991 54.0859C25.4153 54.132 25.3413 54.1954 25.2817 54.2721C25.2221 54.3487 25.1782 54.437 25.1527 54.5314C25.1272 54.6258 25.1207 54.7243 25.1336 54.8207C25.1465 54.9171 25.1785 55.0092 25.2275 55.0915C25.6469 55.9288 26.0832 56.7632 26.5339 57.5771C26.6237 57.7369 26.7713 57.8522 26.9446 57.8982C27.118 57.9442 27.3031 57.9171 27.46 57.8227C27.5599 57.7625 27.644 57.6772 27.7041 57.5749C27.7643 57.4725 27.7987 57.3565 27.804 57.2376ZM30.6633 61.9862C30.6768 61.8303 30.6374 61.6755 30.5518 61.5487C30.0553 60.8039 29.5634 60.0187 29.0885 59.2306C28.9914 59.0756 28.839 58.9672 28.6639 58.9285C28.4887 58.8897 28.3046 58.9237 28.1506 59.0231C27.9977 59.1255 27.8889 59.2857 27.848 59.4687C27.8071 59.6518 27.8374 59.8428 27.9323 60C28.4121 60.7981 28.9161 61.5955 29.4298 62.3625C29.479 62.4385 29.5425 62.5034 29.6165 62.5533C29.6905 62.6033 29.7736 62.6374 29.861 62.6536C29.9484 62.6699 30.0384 62.668 30.1257 62.648C30.2131 62.628 30.2961 62.5904 30.37 62.5373C30.454 62.4741 30.5237 62.3925 30.5741 62.2985C30.6244 62.2045 30.6541 62.1004 30.6609 61.9938L30.6633 61.9862ZM33.9191 66.4428C33.9262 66.3549 33.9163 66.2668 33.89 66.1837C33.8638 66.1005 33.8216 66.0239 33.7661 65.9585C33.1848 65.2536 32.6107 64.5259 32.1214 63.7583C32.0739 63.6704 32.0085 63.5944 31.9296 63.5356C31.8508 63.4768 31.7603 63.4366 31.6644 63.4176C31.5684 63.3986 31.4693 63.4013 31.3737 63.4256C31.2781 63.4499 31.1882 63.4951 31.1102 63.5582C31.0322 63.6214 30.9679 63.7009 30.9216 63.7914C30.8754 63.882 30.8483 63.9814 30.8422 64.083C30.8361 64.1846 30.8511 64.2859 30.8862 64.3801C30.9213 64.4742 30.9757 64.5591 31.0457 64.6288C31.6103 65.387 32.1796 66.1299 32.7561 66.85C32.8709 66.9907 33.0353 67.0779 33.2139 67.0926C33.3925 67.1074 33.5708 67.0485 33.7104 66.9288C33.8341 66.8006 33.9077 66.6299 33.9167 66.4504L33.9191 66.4428ZM37.5832 70.5442C37.5902 70.4436 37.576 70.3431 37.5416 70.2497C37.5071 70.1563 37.4533 70.0721 37.3839 70.0032C36.7763 69.382 36.1297 68.7065 35.5219 68.035C35.4623 67.9669 35.39 67.9119 35.3092 67.8734C35.2285 67.8349 35.1408 67.8136 35.0513 67.8107C34.9619 67.8078 34.8724 67.8235 34.7881 67.8567C34.7039 67.8899 34.6265 67.9401 34.5606 68.0043C34.4276 68.1339 34.3485 68.312 34.3409 68.4995C34.3332 68.687 34.3974 68.8685 34.5196 69.0044C35.108 69.6864 35.7814 70.3788 36.428 71.0292C36.5196 71.1221 36.6356 71.1852 36.7622 71.2111C36.8887 71.2369 37.0204 71.2243 37.1416 71.1748C37.2628 71.1253 37.3685 71.0409 37.4459 70.9318C37.5234 70.8227 37.5694 70.6935 37.5785 70.5594L37.5832 70.5442ZM41.653 74.2225C41.6597 74.1097 41.6397 73.9974 41.5947 73.8955C41.5498 73.7935 41.4813 73.705 41.3952 73.6377C40.6933 73.0869 40.0034 72.498 39.3329 71.8986C39.1976 71.7768 39.0203 71.7166 38.8397 71.7311C38.6591 71.7456 38.4901 71.8337 38.3697 71.9761C38.2517 72.1207 38.1922 72.3065 38.204 72.4935C38.2159 72.6805 38.2981 72.8538 38.4331 72.9761C39.1231 73.5901 39.8398 74.1959 40.5538 74.7589C40.6961 74.8719 40.8769 74.9208 41.0565 74.895C41.2361 74.8692 41.3998 74.7707 41.5119 74.6212C41.5975 74.506 41.6468 74.3666 41.653 74.2225ZM46.1422 77.3314C46.1492 77.2014 46.1215 77.0726 46.0623 76.9591C46.0031 76.8457 45.9145 76.7519 45.8064 76.6882C45.0492 76.237 44.287 75.7506 43.549 75.2385C43.4756 75.1869 43.3928 75.1511 43.3054 75.1332C43.2179 75.1153 43.1276 75.1157 43.0396 75.1344C42.9516 75.153 42.8678 75.1895 42.7929 75.2418C42.718 75.2941 42.6536 75.361 42.6034 75.4388C42.5511 75.5161 42.5143 75.6033 42.4951 75.6951C42.476 75.7869 42.4749 75.8814 42.4919 75.9729C42.5089 76.0645 42.5437 76.1511 42.5942 76.2276C42.6447 76.3041 42.7098 76.3689 42.7856 76.4181C43.5431 76.9449 44.3321 77.4481 45.1161 77.9163C45.1926 77.963 45.2776 77.9932 45.3662 78.0052C45.4548 78.0173 45.5451 78.0109 45.6319 77.9864C45.7188 77.9619 45.8004 77.9199 45.872 77.8627C45.9436 77.8055 46.0039 77.7344 46.0492 77.6534C46.1017 77.5536 46.1334 77.4439 46.1422 77.3314ZM50.9945 79.7692C50.9999 79.6238 50.9625 79.4809 50.8873 79.3597C50.8121 79.2384 50.7027 79.1445 50.5735 79.0904C49.7587 78.7464 48.9437 78.3771 48.1479 77.9722C48.0679 77.9317 47.9806 77.9082 47.8911 77.903C47.8017 77.8977 47.7117 77.9108 47.6265 77.9415C47.5412 77.9722 47.4623 78.0199 47.3942 78.0818C47.3261 78.1438 47.2702 78.2188 47.2297 78.3027C47.1892 78.3865 47.1648 78.4774 47.158 78.5703C47.1512 78.6633 47.1621 78.7563 47.19 78.8441C47.2179 78.932 47.2624 79.0129 47.3209 79.0824C47.3793 79.1518 47.4506 79.2083 47.5306 79.2487C48.3556 79.663 49.2046 80.0515 50.0511 80.3973C50.1343 80.4379 50.2249 80.4601 50.3175 80.4627C50.41 80.4652 50.5024 80.4479 50.589 80.412C50.6755 80.376 50.7543 80.3221 50.8206 80.2536C50.8868 80.1851 50.939 80.1035 50.9739 80.0138C51.0048 79.921 51.0191 79.8234 51.0161 79.7258L50.9945 79.7692ZM56.1366 81.4622C56.1466 81.2996 56.1012 81.1396 56.0082 81.0104C55.9152 80.8812 55.7806 80.7909 55.6281 80.7555C54.7727 80.5408 53.9122 80.291 53.0685 80.0131C52.8964 79.9581 52.7089 79.9767 52.5473 80.0649C52.3857 80.153 52.2632 80.3034 52.2068 80.4831C52.1505 80.6627 52.1648 80.8569 52.2467 81.0228C52.3285 81.1887 52.4713 81.3128 52.6434 81.3678C53.5186 81.6474 54.4011 81.9294 55.2929 82.1305C55.4676 82.1734 55.6528 82.1426 55.8083 82.0448C55.9637 81.947 56.0768 81.7902 56.1228 81.6085C56.1439 81.5528 56.1543 81.4935 56.1534 81.4341L56.1366 81.4622ZM61.457 82.4083C61.4574 82.3948 61.4616 82.3816 61.4689 82.3703C61.4765 82.196 61.4219 82.0261 61.3155 81.8933C61.2091 81.7604 61.0585 81.6739 60.8924 81.6502C60.0036 81.5672 59.1171 81.4515 58.2498 81.3C58.0721 81.2702 57.8888 81.315 57.7401 81.4244C57.5915 81.5339 57.4896 81.6991 57.4567 81.884C57.4386 81.9758 57.4386 82.0701 57.4566 82.1613C57.4746 82.2524 57.5103 82.3384 57.5615 82.4142C57.6126 82.49 57.6783 82.554 57.7544 82.6023C57.8306 82.6507 57.9157 82.6823 58.0046 82.6954C58.5682 82.7917 59.1365 82.8728 59.7097 82.9387C60.0546 82.9902 60.4043 83.0266 60.7467 83.0606C60.7903 83.0667 60.8348 83.0639 60.8777 83.0523C61.0406 83.0385 61.1941 82.9635 61.3093 82.8414C61.4244 82.7193 61.4934 82.5586 61.503 82.3895L61.457 82.4083Z" fill="white"/>
<path d="M60.8914 83.2279C60.9407 83.4035 60.922 83.5934 60.839 83.7575C60.7561 83.9216 60.6155 84.0471 60.4469 84.1074L59.7371 84.3495C59.3059 84.4964 58.8503 84.6187 58.4482 84.7749C58.3612 84.8021 58.2702 84.8113 58.1804 84.8021C58.0906 84.7928 58.0038 84.7653 57.9249 84.7211C57.7656 84.6317 57.6483 84.4797 57.5988 84.2984C57.5493 84.1172 57.5716 83.9216 57.6609 83.7546C57.7501 83.5876 57.899 83.463 58.0748 83.4081C58.4891 83.2894 58.8986 83.1606 59.3105 83.0243C59.5431 82.9479 59.7756 82.8715 60.0033 82.7852C60.1755 82.7251 60.3623 82.7378 60.5228 82.8205C60.6834 82.9031 60.8045 83.049 60.8598 83.2262L60.8914 83.2279Z" fill="white"/>
<path d="M57.469 83.0029C57.489 83.0923 57.4918 83.1852 57.4771 83.2764C57.4625 83.3675 57.4306 83.4552 57.3835 83.5342C57.3363 83.6132 57.2747 83.6821 57.2023 83.737C57.1299 83.7918 57.048 83.8314 56.9613 83.8537C56.2803 84.0296 55.5992 84.1803 54.9229 84.3159C54.7709 84.3085 54.6266 84.2485 54.513 84.1455C54.3994 84.0425 54.323 83.9024 54.296 83.7475C54.269 83.5926 54.2929 83.4317 54.3639 83.2905C54.4349 83.1493 54.549 83.0359 54.6879 82.9683C55.3376 82.841 56.0017 82.6932 56.6561 82.5255C56.8269 82.4783 57.0074 82.5018 57.1593 82.591C57.3111 82.6801 57.4222 82.8279 57.469 83.0029Z" fill="white"/>
<path d="M54.1018 82.4251C54.1135 82.4622 54.1203 82.501 54.1218 82.5403C54.1341 82.6315 54.1288 82.7247 54.1062 82.8145C54.0836 82.9043 54.0442 82.9889 53.9902 83.0635C53.9362 83.1381 53.8688 83.2011 53.7917 83.249C53.7146 83.2969 53.6295 83.3286 53.5412 83.3424C52.8502 83.4481 52.1567 83.5363 51.4704 83.6016C51.2952 83.6267 51.1189 83.5798 50.9791 83.471C50.8393 83.3622 50.7473 83.2002 50.7225 83.0196C50.7112 82.8337 50.7704 82.6491 50.8875 82.5052C51.0046 82.3612 51.1703 82.2693 51.3495 82.2489C52.0115 82.1842 52.688 82.099 53.345 81.9992C53.5009 81.9672 53.6617 81.9921 53.7997 82.0698C53.9378 82.1475 54.0446 82.2731 54.1018 82.4251Z" fill="white"/>
<path d="M50.7822 81.5943C50.8033 81.6508 50.8143 81.711 50.8147 81.772C50.8206 81.9592 50.7545 82.1427 50.6311 82.2821C50.5076 82.4215 50.3368 82.5055 50.1562 82.5157C49.4698 82.5559 48.7736 82.5762 48.0895 82.5836C47.9077 82.5833 47.7348 82.5085 47.6083 82.3757C47.4818 82.2428 47.4119 82.0626 47.4138 81.874C47.4176 81.6866 47.4929 81.5069 47.6232 81.3744C47.7535 81.2418 47.9282 81.1673 48.1089 81.1671C48.7664 81.1679 49.448 81.143 50.1101 81.1034C50.2603 81.0949 50.408 81.1385 50.5297 81.2275C50.6515 81.3164 50.7403 81.4455 50.7822 81.5943Z" fill="white"/>
<path d="M47.5722 80.4128C47.5984 80.4905 47.6079 80.5734 47.6001 80.656C47.5908 80.8427 47.5107 81.0195 47.3773 81.1477C47.2439 81.276 47.068 81.3453 46.888 81.3406C46.1989 81.3129 45.5073 81.2677 44.8204 81.2073C44.7318 81.1994 44.646 81.1733 44.5677 81.1308C44.4894 81.0882 44.4203 81.0298 44.3643 80.9591C44.3083 80.8884 44.2665 80.8066 44.2413 80.7186C44.2161 80.6305 44.2079 80.5378 44.2174 80.4457C44.2268 80.3537 44.2535 80.2641 44.2961 80.1821C44.3387 80.1001 44.3963 80.0273 44.4656 79.9679C44.5349 79.9084 44.6146 79.8635 44.7 79.8356C44.7855 79.8078 44.8751 79.7975 44.9637 79.8055C45.619 79.8642 46.296 79.9047 46.9632 79.9254C47.1023 79.9296 47.2358 79.9788 47.345 80.0662C47.4542 80.1536 47.5337 80.2748 47.5722 80.4128Z" fill="white"/>
<path d="M44.4799 78.9336C44.5062 79.0337 44.5142 79.1384 44.5033 79.2423C44.4743 79.4235 44.3781 79.5872 44.2353 79.698C44.0926 79.8089 43.9147 79.858 43.7398 79.835C43.0602 79.7518 42.3732 79.6412 41.6909 79.5153C41.6021 79.5022 41.517 79.4706 41.4409 79.4223C41.3648 79.3741 41.2992 79.3101 41.2481 79.2344C41.197 79.1587 41.1613 79.0727 41.1433 78.9816C41.1253 78.8906 41.1254 78.7963 41.1434 78.7046C41.1599 78.6126 41.1937 78.5245 41.2429 78.4455C41.2921 78.3664 41.3557 78.2979 41.4301 78.2439C41.5044 78.1899 41.588 78.1514 41.6761 78.1308C41.7642 78.1101 41.855 78.1076 41.9433 78.1235C42.6037 78.2424 43.2689 78.346 43.9243 78.4299C44.055 78.448 44.1772 78.5053 44.2758 78.5947C44.3745 78.6841 44.4454 78.8019 44.4799 78.9336Z" fill="white"/>
<path d="M41.5232 77.1783C41.5592 77.295 41.5616 77.4207 41.5299 77.5401C41.5148 77.6348 41.481 77.7256 41.4306 77.8068C41.3802 77.888 41.3143 77.9577 41.2371 78.0117C41.1599 78.0656 41.073 78.1026 40.9819 78.1203C40.8909 78.1379 40.7977 78.1358 40.7082 78.1142C40.0477 77.9702 39.3702 77.804 38.6974 77.6226C38.5257 77.5724 38.3809 77.4545 38.2936 77.294C38.2064 77.1334 38.1834 76.9427 38.2297 76.7622C38.2537 76.6721 38.2945 76.5874 38.3498 76.513C38.4051 76.4386 38.4738 76.376 38.5519 76.3287C38.6301 76.2814 38.7162 76.2504 38.8053 76.2374C38.8944 76.2244 38.9847 76.2297 39.0712 76.253C39.7126 76.4578 40.3754 76.5943 41.014 76.7313C41.1295 76.7537 41.2369 76.8066 41.3261 76.8849C41.4152 76.9631 41.4831 77.0641 41.5232 77.1783Z" fill="white"/>
<path d="M38.7184 75.1697C38.76 75.3047 38.759 75.4508 38.7157 75.587C38.6889 75.6758 38.6454 75.7585 38.5879 75.8304C38.5303 75.9023 38.4598 75.9619 38.3804 76.0057C38.301 76.0496 38.2143 76.0769 38.1253 76.086C38.0363 76.0951 37.9468 76.0858 37.8619 76.0587C37.206 75.8493 36.5428 75.6375 35.8942 75.4303C35.742 75.3563 35.6229 75.2257 35.56 75.0639C35.4971 74.9022 35.495 74.7208 35.5541 74.555C35.6131 74.3892 35.7291 74.251 35.8794 74.1671C36.0298 74.0832 36.2038 74.0597 36.3676 74.1011C36.9944 74.3013 37.6357 74.5061 38.2698 74.7086C38.3771 74.7384 38.4748 74.7964 38.5533 74.8772C38.6319 74.9579 38.6887 75.0586 38.7184 75.1697Z" fill="white"/>
<path d="M36.0898 72.9322C36.1284 73.0583 36.1312 73.1938 36.0981 73.3229C36.0649 73.4521 35.9971 73.5694 35.9027 73.6613C35.8082 73.7531 35.6909 73.8157 35.5646 73.8416C35.4384 73.8674 35.3083 73.8556 35.1896 73.8075C34.548 73.5524 33.9184 73.2844 33.2863 72.9988C33.1955 72.9696 33.112 72.9207 33.0412 72.8554C32.9704 72.7901 32.914 72.7098 32.8755 72.6198C32.8371 72.5298 32.8174 72.432 32.8179 72.3329C32.8184 72.2337 32.839 72.1353 32.8783 72.0442C32.9177 71.953 32.9749 71.8711 33.0464 71.8037C33.1178 71.7363 33.2018 71.6849 33.2929 71.6529C33.384 71.6209 33.4803 71.6091 33.5753 71.618C33.6704 71.627 33.7622 71.6566 33.8448 71.705C34.4623 71.9859 35.0797 72.2416 35.6995 72.4897C35.7927 72.5283 35.876 72.588 35.9435 72.6645C36.011 72.7411 36.061 72.8325 36.0898 72.9322Z" fill="white"/>
<path d="M33.6287 70.4956C33.6754 70.6652 33.6608 70.8479 33.5876 71.0096C33.5084 71.1794 33.3682 71.311 33.1976 71.3757C33.027 71.4404 32.8399 71.4328 32.6773 71.3547C32.0572 71.0562 31.4419 70.7426 30.8411 70.4084C30.7627 70.3664 30.6933 70.3085 30.637 70.2382C30.5806 70.1679 30.5384 70.0865 30.5128 69.9987C30.4871 69.9109 30.4784 69.8183 30.4873 69.7263C30.4962 69.6343 30.5225 69.5447 30.5646 69.4626C30.6067 69.3804 30.6638 69.3074 30.7327 69.2476C30.8016 69.1878 30.881 69.1425 30.9662 69.1141C31.0514 69.0858 31.1409 69.0751 31.2294 69.0825C31.318 69.0899 31.4039 69.1154 31.4824 69.1575C32.0783 69.4817 32.6741 69.7808 33.2723 70.0722C33.3561 70.1145 33.4308 70.1736 33.4919 70.2463C33.553 70.3189 33.5995 70.4036 33.6287 70.4956Z" fill="white"/>
<path d="M31.3245 67.8907C31.3522 67.9809 31.3612 68.0764 31.3508 68.1712C31.3404 68.2659 31.3109 68.3577 31.2642 68.4405C31.1778 68.5982 31.0367 68.7166 30.8703 68.7709C30.7039 68.8253 30.5249 68.8115 30.3706 68.7324C29.7721 68.3906 29.1856 68.0359 28.5943 67.6713C28.5119 67.6267 28.4398 67.5645 28.3824 67.4889C28.3251 67.4132 28.2838 67.3257 28.2612 67.2319C28.2386 67.1381 28.2351 67.0401 28.2511 66.944C28.267 66.848 28.302 66.7561 28.3538 66.6741C28.4484 66.5125 28.6002 66.3951 28.7759 66.3477C28.9517 66.3003 29.1371 66.3268 29.2914 66.4213C29.8658 66.7889 30.44 67.1313 31.019 67.4585C31.0957 67.505 31.1623 67.5673 31.2148 67.6415C31.2673 67.7158 31.3046 67.8006 31.3245 67.8907Z" fill="white"/>
<path d="M29.1906 65.1236C29.2356 65.2654 29.2356 65.4193 29.1906 65.563C29.1457 65.7067 29.058 65.8327 28.9405 65.9228C28.8229 66.0129 28.6814 66.0624 28.5365 66.0642C28.3917 66.066 28.2509 66.0199 28.1346 65.9327L26.4329 64.7615C26.2949 64.6524 26.2036 64.4917 26.178 64.3126C26.1524 64.1335 26.1943 63.9498 26.2951 63.7993C26.3959 63.6488 26.5478 63.5431 26.7196 63.504C26.8913 63.465 27.0696 63.4956 27.2177 63.5896C27.7753 63.9853 28.328 64.371 28.8854 64.7415C29.0324 64.8214 29.142 64.9586 29.1906 65.1236Z" fill="white"/>
<path d="M27.2239 62.233C27.2522 62.3382 27.2572 62.4492 27.2384 62.5577C27.2196 62.6661 27.1776 62.7693 27.1155 62.8595C27.0628 62.9353 26.9962 62.9998 26.9197 63.0492C26.8432 63.0986 26.7583 63.1319 26.6699 63.1473C26.5815 63.1626 26.4914 63.1597 26.4048 63.1387C26.3182 63.1176 26.2368 63.0788 26.1653 63.0246C25.6125 62.6137 25.0693 62.1975 24.5261 61.7561C24.3859 61.6436 24.2957 61.4771 24.2752 61.2932C24.2547 61.1093 24.3056 60.9231 24.4167 60.7755C24.5287 60.6261 24.6924 60.5277 24.8719 60.5019C25.0514 60.476 25.2321 60.5249 25.3743 60.6378C25.8981 61.0646 26.4364 61.4709 26.9746 61.8771C27.0929 61.9642 27.1803 62.089 27.2239 62.233Z" fill="white"/>
<path d="M25.4065 59.2296C25.4377 59.3415 25.4424 59.4601 25.4201 59.5753C25.3979 59.6906 25.3495 59.7991 25.2789 59.8919C25.1634 60.0377 24.9979 60.1313 24.8185 60.1524C24.6391 60.1735 24.4603 60.1203 24.3211 60.0044C23.7915 59.5619 23.266 59.115 22.7444 58.6638C22.6687 58.6069 22.6055 58.5341 22.5587 58.45C22.512 58.3659 22.4828 58.2723 22.4729 58.1752C22.4631 58.078 22.4728 57.9794 22.5015 57.8856C22.5302 57.7918 22.5772 57.7048 22.6396 57.6301C22.702 57.5554 22.7784 57.4946 22.864 57.4516C22.9496 57.4086 23.0425 57.3843 23.1369 57.3802C23.2313 57.3762 23.3251 57.3925 23.4123 57.428C23.4996 57.4636 23.5785 57.5177 23.6439 57.5869C24.1533 58.0342 24.6627 58.4815 25.1841 58.9159C25.2857 58.996 25.3628 59.1048 25.4065 59.2296Z" fill="white"/>
<path d="M23.7374 56.132C23.7723 56.2478 23.7769 56.3718 23.7506 56.4913C23.7244 56.6108 23.6683 56.7216 23.588 56.8125C23.5285 56.883 23.4563 56.9408 23.3756 56.9825C23.2949 57.0242 23.2073 57.0491 23.1179 57.0556C23.0286 57.0621 22.9392 57.0501 22.855 57.0203C22.7708 56.9906 22.6934 56.9437 22.6275 56.8823C22.1285 56.4104 21.6286 55.9326 21.1279 55.449C20.9986 55.3222 20.9241 55.1464 20.9209 54.9601C20.9176 54.7738 20.9859 54.5925 21.1107 54.4558C21.2355 54.3192 21.4066 54.2385 21.5863 54.2316C21.766 54.2246 21.9396 54.292 22.0689 54.4188C22.5615 54.8942 23.0492 55.3597 23.5465 55.8199C23.6365 55.9036 23.7024 56.0114 23.7374 56.132Z" fill="white"/>
<path d="M22.207 52.9774C22.2493 53.1269 22.2423 53.2878 22.1871 53.4348C22.1319 53.5817 22.0315 53.7065 21.9018 53.7895C21.7721 53.8725 21.6203 53.9091 21.4703 53.8934C21.3202 53.8778 21.1804 53.8109 21.0727 53.7032C20.5921 53.2149 20.114 52.7189 19.6406 52.2078C19.5776 52.1428 19.5281 52.0651 19.4951 51.9792C19.4621 51.8934 19.4462 51.8012 19.4484 51.7081C19.4507 51.6151 19.471 51.5231 19.5081 51.4377C19.5453 51.3522 19.5985 51.2751 19.6647 51.2109C19.7957 51.0803 19.9701 51.0076 20.1501 51.0086C20.33 51.0097 20.5009 51.0844 20.6256 51.2166C21.094 51.7178 21.5649 52.2114 22.0405 52.6898C22.1155 52.7718 22.1722 52.8699 22.207 52.9774Z" fill="white"/>
<path d="M20.8357 49.6978C20.8689 49.8254 20.8653 49.961 20.8254 50.088C20.7856 50.215 20.7112 50.3279 20.6113 50.413C20.5461 50.477 20.4695 50.5272 20.3861 50.5608C20.3027 50.5944 20.214 50.6107 20.1252 50.6087C20.0363 50.6068 19.9491 50.5867 19.8684 50.5495C19.7877 50.5123 19.7152 50.4589 19.6551 50.3922C19.1914 49.8757 18.735 49.3615 18.276 48.8298C18.1588 48.6898 18.1 48.5067 18.1122 48.3197C18.1244 48.1327 18.2066 47.9567 18.3413 47.8294C18.4092 47.761 18.4897 47.7076 18.5778 47.6724C18.6659 47.6373 18.7596 47.6213 18.8532 47.6252C18.9468 47.6292 19.0382 47.6532 19.1217 47.6956C19.2053 47.738 19.2792 47.798 19.3389 47.8718C19.7864 48.3887 20.2355 48.9005 20.6862 49.4073C20.7583 49.4896 20.8096 49.5893 20.8357 49.6978Z" fill="white"/>
<path d="M19.5885 46.3816C19.6263 46.5172 19.6238 46.6622 19.5812 46.7978C19.5386 46.9335 19.458 47.0536 19.3497 47.1425C19.2124 47.2637 19.0355 47.3246 18.8576 47.3117C18.6797 47.2988 18.5153 47.2132 18.4005 47.0737L18.171 46.8078C17.7998 46.3543 17.4383 45.8956 17.0914 45.4415C17.0367 45.3691 16.9965 45.2859 16.9731 45.1967C16.9497 45.1075 16.9436 45.0141 16.955 44.9217C16.9665 44.8294 16.9954 44.7399 17.04 44.6585C17.0846 44.577 17.144 44.5052 17.2149 44.447C17.2859 44.3889 17.3669 44.3456 17.4533 44.3196C17.5398 44.2936 17.63 44.2854 17.7189 44.2955C17.8077 44.3056 17.8934 44.3338 17.9711 44.3785C18.0488 44.4232 18.1169 44.4835 18.1716 44.5559C18.5137 45.0001 18.8653 45.4389 19.2316 45.8825L19.4514 46.1536C19.5095 46.2207 19.5559 46.2978 19.5885 46.3816Z" fill="white"/>
<path d="M18.5113 43.0107C18.5481 43.1464 18.545 43.2911 18.5025 43.4265C18.46 43.562 18.3799 43.6821 18.2725 43.7717C18.1262 43.8845 17.9439 43.9334 17.7654 43.9078C17.587 43.8822 17.427 43.7841 17.3204 43.635C16.9 43.0569 16.5039 42.4782 16.1248 41.8966C16.0653 41.821 16.022 41.7331 15.9976 41.6385C15.9731 41.5438 15.968 41.4446 15.9827 41.347C15.9973 41.2495 16.0314 41.1558 16.0826 41.0719C16.1339 40.988 16.2012 40.9158 16.2804 40.8598C16.3595 40.8039 16.4488 40.7655 16.5423 40.747C16.6359 40.7285 16.7318 40.7304 16.8239 40.7526C16.9159 40.7747 17.0022 40.8166 17.0771 40.8756C17.152 40.9346 17.2139 41.0093 17.2589 41.0951C17.6209 41.6545 18.0265 42.1776 18.4155 42.7791C18.4592 42.8503 18.4916 42.9284 18.5113 43.0107Z" fill="white"/>
<path d="M18.9731 19.9273C19.0003 20.0161 19.009 20.1103 18.9988 20.2036C18.9367 20.8876 18.8965 21.5786 18.883 22.2614C18.8766 22.4494 18.7993 22.6286 18.6678 22.7606C18.5362 22.8925 18.361 22.9666 18.1797 22.9668C18.0902 22.9664 18.002 22.9476 17.9202 22.9114C17.8384 22.8752 17.7647 22.8224 17.7033 22.7561C17.642 22.6897 17.5942 22.6111 17.5627 22.5248C17.5313 22.4385 17.5168 22.3463 17.5201 22.2534C17.5359 21.5379 17.5735 20.8041 17.6451 20.0897C17.6552 19.9234 17.7219 19.7651 17.8333 19.6431C17.9448 19.5212 18.0937 19.4435 18.2534 19.4239C18.4131 19.4044 18.5733 19.4443 18.7051 19.5366C18.837 19.6288 18.932 19.7673 18.9731 19.9273Z" fill="white"/>
<path d="M17.688 39.5698C17.736 39.7156 17.7369 39.8745 17.6903 40.0227C17.6438 40.1709 17.5525 40.3004 17.4301 40.3917C17.2759 40.4918 17.0911 40.5253 16.9158 40.485C16.7406 40.4447 16.5891 40.3338 16.4945 40.1766C16.1249 39.5644 15.7722 38.9493 15.4657 38.3406C15.4229 38.2604 15.3959 38.1719 15.3863 38.0803C15.3766 37.9886 15.3846 37.8955 15.4096 37.8063C15.4346 37.7171 15.4762 37.6335 15.532 37.5603C15.5879 37.4872 15.6569 37.4259 15.735 37.3799C15.8132 37.334 15.8991 37.3043 15.9877 37.2925C16.0763 37.2808 16.1659 37.2872 16.2515 37.3114C16.337 37.3356 16.4168 37.3772 16.4863 37.4337C16.5557 37.4902 16.6135 37.5606 16.6563 37.6408C16.97 38.2267 17.3105 38.8295 17.663 39.4194C17.6749 39.4688 17.6833 39.519 17.688 39.5698Z" fill="white"/>
<path d="M17.6671 23.336C17.6832 23.3954 17.6909 23.4571 17.6899 23.5192C17.7153 24.2059 17.7553 24.8973 17.8462 25.5798C17.8545 25.7601 17.796 25.9383 17.6827 26.0778C17.5693 26.2173 17.4097 26.3077 17.2364 26.3304C17.0631 26.3532 16.8893 26.3066 16.7505 26.2002C16.6116 26.0938 16.5182 25.9356 16.4894 25.758C16.4177 25.0398 16.3654 24.3109 16.3642 23.5984C16.3635 23.4298 16.4208 23.2654 16.5258 23.1346C16.6309 23.0037 16.7767 22.9151 16.9371 22.8847C17.0976 22.8542 17.2622 22.8838 17.4013 22.9682C17.5405 23.0527 17.645 23.1864 17.6963 23.3453L17.6671 23.336Z" fill="white"/>
<path d="M17.1601 36.0552C17.2034 36.2222 17.1857 36.401 17.1104 36.5577C17.0351 36.7145 16.9074 36.8381 16.7516 36.9052C16.5957 36.9723 16.4227 36.9781 16.2653 36.9215C16.108 36.8649 15.9773 36.7499 15.8981 36.5984C15.5865 35.9545 15.2943 35.3 15.0337 34.6472C14.9827 34.4799 14.9941 34.2976 15.0658 34.1361C15.1375 33.9745 15.2642 33.8454 15.4212 33.774C15.5782 33.7026 15.7541 33.6941 15.9145 33.75C16.0748 33.806 16.2081 33.9224 16.2882 34.0766C16.5414 34.7018 16.8116 35.3241 17.1134 35.9481C17.1339 35.9812 17.1496 36.0173 17.1601 36.0552Z" fill="white"/>
<path d="M16.7687 26.9245C16.7799 26.9545 16.789 26.9854 16.7959 27.0169C16.8989 27.6864 17.0238 28.363 17.1777 29.0237C17.2032 29.1985 17.1643 29.3782 17.0687 29.5273C16.9731 29.6763 16.8278 29.7838 16.6615 29.8285C16.4951 29.8733 16.3199 29.852 16.1703 29.7689C16.0207 29.6858 15.9078 29.5469 15.8537 29.3797C15.6947 28.6839 15.5575 27.97 15.4495 27.2653C15.4093 27.0847 15.4402 26.8936 15.5355 26.7339C15.6308 26.5743 15.7826 26.4592 15.9575 26.414C16.1324 26.3688 16.3162 26.3972 16.4683 26.4929C16.6205 26.5886 16.7285 26.7439 16.7687 26.9245Z" fill="white"/>
<path d="M16.9781 32.5083C17.0181 32.6805 16.9939 32.8633 16.9102 33.0203C16.8266 33.1773 16.6896 33.297 16.5266 33.3558C16.3636 33.4145 16.1864 33.4078 16.0303 33.3372C15.8742 33.2665 15.7505 33.137 15.684 32.9744C15.4722 32.3958 15.2531 31.7897 15.1117 31.2169L15.0326 30.932C15.0031 30.7606 15.0359 30.5827 15.1247 30.4325C15.2135 30.2823 15.352 30.1704 15.5137 30.1182C15.6754 30.066 15.8489 30.0772 16.0008 30.1497C16.1526 30.2222 16.2722 30.3509 16.3366 30.511L16.4132 30.7784C16.5739 31.3406 16.7565 31.9099 16.9511 32.4662L16.9781 32.5083Z" fill="white"/>
<path d="M53.0188 84.2864C53.0149 84.3129 53.0068 84.3386 52.9949 84.3625C53.0113 84.4533 53.0101 84.547 52.9913 84.638C52.9725 84.729 52.9365 84.8156 52.8854 84.8928C52.8343 84.9699 52.7692 85.036 52.6937 85.0873C52.6183 85.1386 52.5341 85.1741 52.446 85.1916C51.7624 85.3248 51.0763 85.4404 50.395 85.5409C50.2968 85.5732 50.1933 85.5823 50.0921 85.5675C49.991 85.5527 49.8947 85.5145 49.8106 85.4555C49.7265 85.3966 49.6565 85.3186 49.606 85.2272C49.5555 85.1358 49.5257 85.0333 49.5188 84.9275C49.512 84.8216 49.5282 84.7151 49.5663 84.6157C49.6043 84.5163 49.6634 84.4267 49.7389 84.3534C49.8144 84.2802 49.9046 84.2251 50.0027 84.1925C50.1007 84.1598 50.2042 84.1503 50.3055 84.1646C50.9601 84.0724 51.6292 83.9597 52.2885 83.8271C52.4443 83.804 52.6019 83.837 52.7349 83.9207C52.8679 84.0043 52.9681 84.1335 53.0188 84.2864Z" fill="white"/>
<path d="M49.6916 83.5793C49.709 83.6246 49.7183 83.6729 49.719 83.722C49.727 83.8141 49.7173 83.9072 49.6904 83.996C49.6635 84.0849 49.62 84.1676 49.5624 84.2395C49.5048 84.3114 49.4342 84.371 49.3547 84.4149C49.2752 84.4587 49.1885 84.4859 49.0994 84.495C48.4108 84.5679 47.7196 84.6233 47.0235 84.6687C46.8519 84.6633 46.6898 84.5909 46.5697 84.466C46.4495 84.3411 46.38 84.1728 46.3751 83.9949C46.3703 83.8169 46.4303 83.6423 46.5433 83.5058C46.6563 83.3694 46.8139 83.2811 46.9847 83.2586C47.6518 83.229 48.326 83.1766 48.9808 83.1095C49.135 83.0888 49.2904 83.1244 49.4202 83.2101C49.5499 83.2959 49.6459 83.4264 49.6916 83.5793Z" fill="white"/>
<path d="M46.4149 82.536C46.4351 82.604 46.4453 82.6749 46.4451 82.7465C46.4434 82.8409 46.4233 82.9345 46.386 83.0214C46.3486 83.1083 46.2948 83.1869 46.2278 83.2523C46.1608 83.3177 46.082 83.3686 45.9962 83.4019C45.9103 83.4353 45.8191 83.4504 45.7282 83.4463C45.0441 83.4537 44.3429 83.439 43.6562 83.4037C43.5638 83.4036 43.4728 83.3838 43.3888 83.3456C43.3048 83.3073 43.2296 83.2515 43.1679 83.1814C43.1061 83.1114 43.0592 83.0287 43.0299 82.9384C43.0006 82.8482 42.9896 82.7523 42.9976 82.6567C43.0056 82.5611 43.0324 82.4678 43.0764 82.3827C43.1203 82.2975 43.1805 82.2223 43.2532 82.1617C43.3259 82.1011 43.4095 82.0563 43.4989 82.0302C43.5882 82.0041 43.6815 81.9973 43.7728 82.01C44.4376 82.0383 45.1146 82.0537 45.7744 82.0469C45.9189 82.0455 46.0592 82.0923 46.1745 82.1803C46.2898 82.2684 46.3741 82.3931 46.4149 82.536Z" fill="white"/>
<path d="M43.2725 81.191C43.2956 81.2797 43.3019 81.3727 43.2909 81.4646C43.2732 81.6508 43.1853 81.8237 43.0464 81.9455C42.9075 82.0672 42.7289 82.1281 42.5495 82.1147C41.87 82.0566 41.1734 81.9763 40.4912 81.8756C40.3247 81.8376 40.1792 81.7357 40.0837 81.5903C39.9882 81.4448 39.9496 81.2664 39.9756 81.0904C40.0015 80.9144 40.0902 80.7537 40.2239 80.6401C40.3576 80.5266 40.5267 80.4684 40.6975 80.4773C41.3578 80.571 42.0302 80.6519 42.6878 80.703C42.821 80.7174 42.9468 80.7709 43.0503 80.8573C43.1539 80.9438 43.231 81.0595 43.2725 81.191Z" fill="white"/>
<path d="M40.246 79.5565C40.2805 79.6628 40.2861 79.7774 40.2623 79.888C40.2294 80.0727 40.1276 80.2377 39.979 80.3471C39.8305 80.4564 39.6473 80.5011 39.4697 80.4714C38.7947 80.3479 38.11 80.2045 37.4373 80.0482C37.3462 80.0331 37.2594 79.9987 37.1823 79.947C37.1053 79.8954 37.0396 79.8277 36.9894 79.7481C36.9391 79.6685 36.9054 79.5787 36.8904 79.4844C36.8753 79.39 36.8792 79.293 36.9018 79.1995C36.9193 79.1047 36.9553 79.0141 37.0074 78.9335C37.0596 78.8528 37.1269 78.7837 37.2052 78.7304C37.2834 78.6771 37.3711 78.6407 37.4627 78.6235C37.5544 78.6062 37.6481 78.6085 37.7381 78.6301C38.3865 78.787 39.0494 78.9234 39.6952 79.0376C39.8278 79.0557 39.9512 79.1149 40.0494 79.2075C40.1477 79.3 40.2162 79.4217 40.246 79.5565Z" fill="white"/>
<path d="M37.3761 77.6526C37.4141 77.7802 37.4157 77.9172 37.3806 78.0471C37.3566 78.1372 37.3158 78.2219 37.2605 78.2963C37.2052 78.3706 37.1365 78.4333 37.0584 78.4805C36.9802 78.5278 36.8942 78.5589 36.8051 78.5718C36.716 78.5848 36.6256 78.5795 36.5392 78.5562C35.8979 78.3514 35.2347 78.1396 34.5715 77.9279C34.4779 77.909 34.3895 77.8699 34.3122 77.813C34.2348 77.7562 34.1702 77.6828 34.1224 77.5978C34.0747 77.5127 34.045 77.4179 34.0352 77.3194C34.0253 77.2209 34.0357 77.121 34.0654 77.0261C34.0952 76.9312 34.1438 76.8435 34.2081 76.7687C34.2723 76.6938 34.3507 76.6335 34.4383 76.5917C34.5259 76.5499 34.6206 76.5274 34.7163 76.5258C34.812 76.5242 34.9066 76.5435 34.9939 76.5825C35.6279 76.7849 36.2765 76.992 36.9033 77.1922C37.0148 77.2188 37.1171 77.2753 37.2 77.356C37.2829 77.4368 37.3437 77.539 37.3761 77.6526Z" fill="white"/>
<path d="M34.6676 75.5153C34.7121 75.6608 34.7078 75.8185 34.6553 75.9631C34.6246 76.051 34.5776 76.1322 34.5169 76.2019C34.4563 76.2716 34.3832 76.3285 34.3019 76.3694C34.2205 76.4102 34.1325 76.4342 34.0429 76.4399C33.9533 76.4456 33.8638 76.433 33.7796 76.4027C33.1309 76.1956 32.4964 75.9177 31.8572 75.655C31.703 75.5776 31.5839 75.442 31.5239 75.2753C31.464 75.1087 31.4676 74.9235 31.5341 74.757C31.6006 74.5905 31.7251 74.4551 31.8823 74.3781C32.0396 74.3011 32.218 74.2881 32.3816 74.3419C32.999 74.5976 33.6285 74.8405 34.2554 75.0658C34.354 75.1011 34.4427 75.1602 34.5143 75.2383C34.586 75.3164 34.6385 75.4113 34.6676 75.5153Z" fill="white"/>
<path d="M32.1388 73.166C32.1877 73.3298 32.1748 73.508 32.1025 73.6647C32.0646 73.7507 32.0108 73.8283 31.9441 73.8931C31.8774 73.9579 31.7992 74.0085 31.7141 74.0421C31.6289 74.0756 31.5385 74.0913 31.4481 74.0884C31.3577 74.0855 31.2691 74.0639 31.1875 74.025C30.5676 73.7517 29.9402 73.451 29.3225 73.1449C29.1665 73.0608 29.0494 72.9164 28.9959 72.7422C28.9425 72.5681 28.9568 72.3779 29.036 72.2119C29.1152 72.0459 29.253 71.9171 29.4203 71.8528C29.5875 71.7885 29.7711 71.7936 29.9321 71.8672C30.5352 72.1686 31.1407 72.4624 31.7533 72.7333C31.8443 72.772 31.9258 72.8306 31.9923 72.9053C32.0588 72.9799 32.1087 73.0688 32.1388 73.166Z" fill="white"/>
<path d="M29.735 70.6232C29.7763 70.756 29.7779 70.8994 29.7396 71.0347C29.7013 71.1701 29.6248 71.2912 29.5202 71.3822C29.4155 71.4733 29.2874 71.5301 29.1526 71.5454C29.0178 71.5606 28.8825 71.5336 28.7642 71.4678C28.1609 71.1412 27.56 70.807 26.9639 70.4577C26.8164 70.3629 26.7107 70.2123 26.6687 70.0369C26.6268 69.8616 26.6517 69.6749 26.7384 69.5155C26.7827 69.4346 26.8421 69.3634 26.9129 69.306C26.9838 69.2487 27.0647 69.2065 27.1509 69.1818C27.2371 69.1571 27.3269 69.1504 27.415 69.1622C27.503 69.174 27.5876 69.204 27.6637 69.2504C28.2476 69.5875 28.8339 69.917 29.4249 70.2313C29.5721 70.3169 29.6825 70.4565 29.735 70.6232Z" fill="white"/>
<path d="M27.5532 67.9323C27.5968 68.0694 27.598 68.2179 27.5565 68.3574C27.5151 68.4969 27.4331 68.6204 27.3219 68.7108C27.2107 68.8012 27.0758 68.8541 26.9358 68.8621C26.7959 68.8701 26.6579 68.8328 26.5409 68.7554C25.9641 68.3954 25.3848 68.0179 24.8103 67.6252C24.7365 67.5752 24.6731 67.5105 24.6239 67.4347C24.5746 67.3588 24.5405 67.2734 24.5233 67.1832C24.5062 67.093 24.5064 66.9999 24.524 66.9091C24.5416 66.8184 24.5762 66.7317 24.6258 66.6542C24.6754 66.5766 24.7391 66.5097 24.8132 66.4571C24.8873 66.4046 24.9704 66.3675 25.0577 66.348C25.145 66.3285 25.2348 66.3269 25.322 66.3434C25.4093 66.3599 25.4922 66.3941 25.566 66.444C26.1259 66.8237 26.693 67.189 27.2673 67.5398C27.4036 67.6322 27.5044 67.7707 27.5532 67.9323Z" fill="white"/>
<path d="M25.515 65.0938C25.5442 65.1961 25.5507 65.3044 25.534 65.4106C25.5174 65.5168 25.4779 65.6182 25.4187 65.7074C25.3672 65.7842 25.3017 65.8499 25.2261 65.9007C25.1504 65.9515 25.066 65.9864 24.9779 66.0034C24.8897 66.0204 24.7995 66.0191 24.7125 65.9997C24.6255 65.9802 24.5434 65.943 24.471 65.8901C23.9134 65.4944 23.3606 65.0834 22.8029 64.6626C22.7317 64.6087 22.6717 64.5406 22.6264 64.4622C22.5812 64.3837 22.5515 64.2964 22.5391 64.2053C22.5266 64.1143 22.5318 64.0212 22.5541 63.9315C22.5765 63.8418 22.6156 63.7572 22.6693 63.6826C22.722 63.6048 22.7888 63.5383 22.8659 63.4869C22.9429 63.4355 23.0287 63.4001 23.1183 63.3829C23.2079 63.3656 23.2996 63.3668 23.3881 63.3864C23.4766 63.406 23.5601 63.4436 23.6339 63.497C24.1698 63.9108 24.7177 64.3118 25.2607 64.7029C25.3885 64.7965 25.4787 64.9352 25.515 65.0938Z" fill="white"/>
<path d="M23.6333 62.138C23.6657 62.2456 23.6716 62.3603 23.6506 62.4719C23.6296 62.5835 23.5822 62.6885 23.5128 62.7774C23.4583 62.8514 23.3903 62.9137 23.3129 62.9608C23.2356 63.0079 23.1502 63.0388 23.0619 63.0519C22.9736 63.0649 22.884 63.0597 22.7983 63.0366C22.7126 63.0135 22.6324 62.973 22.5625 62.9174C22.0241 62.486 21.4881 62.0469 20.9713 61.5722C20.833 61.4586 20.7446 61.292 20.7255 61.1087C20.7064 60.9254 20.758 60.7404 20.8692 60.5938C20.9857 60.4499 21.1512 60.3582 21.33 60.3385C21.5088 60.3189 21.6865 60.3729 21.8246 60.4889C22.3437 60.9309 22.8651 61.3653 23.3794 61.8225C23.4921 61.8995 23.5803 62.009 23.6333 62.138Z" fill="white"/>
<path d="M21.9067 59.0712C21.9398 59.1858 21.9443 59.3077 21.9199 59.4257C21.8954 59.5437 21.8429 59.654 21.767 59.7464C21.6481 59.8887 21.4809 59.9776 21.3015 59.9939C21.1222 60.0103 20.9452 59.9528 20.8091 59.8338C20.2948 59.3766 19.7852 58.9041 19.2757 58.4316C19.1442 58.3059 19.0665 58.1307 19.0592 57.9438C19.0519 57.7568 19.1156 57.5729 19.2366 57.4315C19.2974 57.3618 19.3706 57.305 19.4521 57.2643C19.5335 57.2236 19.6216 57.1998 19.7112 57.1942C19.8009 57.1887 19.8904 57.2015 19.9746 57.2319C20.0588 57.2623 20.1361 57.3098 20.202 57.3716C20.6993 57.8318 21.204 58.2943 21.7061 58.7393C21.802 58.8276 21.8716 58.9427 21.9067 59.0712Z" fill="white"/>
<path d="M20.3253 55.9264C20.3619 56.045 20.3662 56.1723 20.3377 56.2946C20.3092 56.4169 20.2491 56.5294 20.1639 56.6198C20.1022 56.6877 20.0285 56.7426 19.9469 56.7813C19.8653 56.82 19.7774 56.8417 19.6883 56.8451C19.5992 56.8486 19.5107 56.8337 19.4279 56.8014C19.345 56.7691 19.2695 56.7199 19.2056 56.6568C18.7162 56.1713 18.2284 55.6806 17.7422 55.1849C17.616 55.0547 17.5459 54.8768 17.5472 54.6904C17.5485 54.504 17.6212 54.3244 17.7492 54.191C17.8773 54.0576 18.0502 53.9814 18.2299 53.9792C18.4096 53.977 18.5815 54.0489 18.7076 54.1791C19.1881 54.6674 19.6614 55.1534 20.1466 55.6265C20.2328 55.7063 20.2948 55.8103 20.3253 55.9264Z" fill="white"/>
<path d="M18.8892 52.7011C18.9172 52.8262 18.9115 52.9576 18.8728 53.0809C18.8341 53.2043 18.7638 53.315 18.6696 53.4011C18.6057 53.4677 18.5298 53.5206 18.4464 53.5565C18.3629 53.5924 18.2737 53.6106 18.184 53.6101C18.0943 53.6096 18.006 53.5903 17.9243 53.5534C17.8426 53.5165 17.7693 53.4628 17.7086 53.3954C17.2402 52.8942 16.7668 52.383 16.3055 51.859C16.2364 51.7934 16.1815 51.7135 16.1442 51.6242C16.1069 51.5349 16.0881 51.4382 16.0888 51.3402C16.0896 51.2422 16.11 51.145 16.1487 51.0548C16.1874 50.9646 16.2435 50.8834 16.3136 50.8163C16.3837 50.7491 16.4662 50.6975 16.5559 50.6648C16.6456 50.632 16.7405 50.6188 16.8346 50.6259C16.9287 50.6331 17.02 50.6604 17.1026 50.7063C17.1853 50.7521 17.2576 50.8154 17.3148 50.8922C17.7712 51.4064 18.23 51.9129 18.6936 52.4042C18.7819 52.4843 18.8491 52.5864 18.8892 52.7011Z" fill="white"/>
<path d="M17.5861 49.409C17.6331 49.5626 17.627 49.7293 17.5688 49.8809C17.5106 50.0324 17.4039 50.1593 17.2669 50.2399C17.1299 50.3206 16.9711 50.35 16.8175 50.3232C16.664 50.2964 16.5252 50.215 16.4248 50.0929C16.0343 49.65 15.6558 49.1942 15.2506 48.7215L15.065 48.4948C14.9963 48.427 14.9425 48.3447 14.9069 48.2533C14.8714 48.1618 14.8549 48.0633 14.8586 47.9641C14.8622 47.8648 14.886 47.7671 14.9282 47.6772C14.9705 47.5873 15.0303 47.5073 15.1039 47.4423C15.1774 47.3773 15.263 47.3288 15.3551 47.2999C15.4472 47.271 15.5438 47.2625 15.6385 47.2748C15.7332 47.287 15.824 47.3199 15.905 47.3712C15.986 47.4224 16.0553 47.491 16.1086 47.5725L16.2942 47.7992C16.6653 48.2526 17.0462 48.7008 17.4221 49.139C17.4965 49.2142 17.5526 49.3066 17.5861 49.409Z" fill="white"/>
<path d="M17.1672 23.0423C17.1904 23.1312 17.1967 23.2243 17.1857 23.3164C17.1188 24.0156 17.0689 24.7119 17.0408 25.39C17.0334 25.5765 16.9548 25.7538 16.8225 25.8828C16.6901 26.0118 16.5147 26.0819 16.3349 26.0779C16.1552 26.0738 15.9857 25.9958 15.8638 25.861C15.7419 25.7262 15.6776 25.5457 15.6851 25.3592C15.7058 24.6535 15.7579 23.9245 15.8343 23.1948C15.8612 23.0173 15.9524 22.856 16.0891 22.7438C16.2259 22.6317 16.3979 22.5773 16.5698 22.5917C16.7016 22.5989 16.8279 22.6452 16.9338 22.7251C17.0397 22.8049 17.1207 22.915 17.1672 23.0423Z" fill="white"/>
<path d="M16.4234 46.1034C16.4612 46.239 16.4587 46.384 16.4161 46.5197C16.3735 46.6554 16.2929 46.7754 16.1846 46.8644C16.0398 46.9798 15.8581 47.0326 15.6787 47.0113C15.4993 46.99 15.3365 46.8963 15.2254 46.7505C14.8002 46.1877 14.3849 45.6447 14.008 45.0303C13.9197 44.8774 13.8914 44.6944 13.9289 44.5182C13.9663 44.342 14.0667 44.1858 14.2097 44.0814C14.3526 43.9769 14.5275 43.932 14.6988 43.9557C14.8701 43.9794 15.0251 44.0699 15.1323 44.209C15.504 44.7631 15.9072 45.2938 16.313 45.8672C16.3655 45.9367 16.4031 46.0172 16.4234 46.1034Z" fill="white"/>
<path d="M15.5682 42.6354C15.6186 42.7795 15.6208 42.9379 15.5746 43.0854C15.5283 43.2329 15.4361 43.3612 15.3126 43.4497C15.2342 43.5087 15.145 43.55 15.0508 43.5711C14.9566 43.5922 14.8596 43.5926 14.7661 43.5722C14.6725 43.5518 14.5846 43.511 14.5079 43.4527C14.4313 43.3943 14.3677 43.3196 14.3212 43.2335C13.9516 42.6213 13.594 41.9963 13.2948 41.3899C13.2083 41.2279 13.1882 41.0357 13.2387 40.8556C13.2892 40.6754 13.4063 40.5221 13.5641 40.4293C13.722 40.3364 13.9078 40.3118 14.0806 40.3607C14.2533 40.4096 14.3989 40.5281 14.4854 40.6901C14.804 41.2859 15.1395 41.8788 15.5309 42.4728C15.5498 42.525 15.5623 42.5797 15.5682 42.6354Z" fill="white"/>
<path d="M15.8031 26.4324C15.8232 26.4955 15.8349 26.5612 15.8381 26.6279C15.8392 27.3152 15.8695 28.0119 15.9239 28.6828C15.9202 28.8578 15.8542 29.0264 15.7386 29.1562C15.6231 29.2861 15.4661 29.3679 15.2979 29.3859C15.1298 29.404 14.9623 29.357 14.8278 29.254C14.6933 29.151 14.6012 28.9994 14.5694 28.8282C14.5099 28.1222 14.4819 27.3927 14.4466 26.6609C14.4402 26.4891 14.495 26.3197 14.6007 26.1848C14.7063 26.05 14.8553 25.9593 15.0193 25.9299C15.1834 25.9005 15.3509 25.9345 15.4901 26.0254C15.6292 26.1164 15.7303 26.2579 15.7739 26.4231L15.8031 26.4324Z" fill="white"/>
<path d="M15.0454 39.1311C15.0941 39.29 15.0852 39.4629 15.0203 39.6177C14.9555 39.7726 14.8392 39.8989 14.6929 39.9732C14.6135 40.0169 14.5268 40.0441 14.4379 40.0532C14.3489 40.0622 14.2595 40.0529 14.1747 40.0258C14.09 39.9987 14.0115 39.9544 13.944 39.8954C13.8764 39.8363 13.821 39.7638 13.7811 39.6819C13.4792 39.0327 13.1893 38.3706 12.9312 37.7354C12.8646 37.5628 12.867 37.3686 12.938 37.1952C13.009 37.0217 13.1427 36.8831 13.31 36.8096C13.3923 36.7726 13.4805 36.753 13.5695 36.7518C13.6585 36.7506 13.7466 36.7679 13.8284 36.8026C13.9102 36.8373 13.9842 36.8888 14.046 36.954C14.1078 37.0192 14.1562 37.0968 14.1882 37.1823C14.4415 37.8075 14.7093 38.4375 14.9965 39.0568C15.0171 39.0781 15.0337 39.1033 15.0454 39.1311Z" fill="white"/>
<path d="M14.8461 29.9525C14.8567 29.9876 14.8642 30.0236 14.8685 30.0602C14.9594 30.7427 15.0746 31.4245 15.2115 32.0881C15.2335 32.1813 15.2368 32.2785 15.2212 32.3738C15.2057 32.4691 15.1716 32.5604 15.1211 32.6423C15.0706 32.7242 15.0048 32.7949 14.9276 32.85C14.8503 32.9051 14.7634 32.9435 14.6721 32.9629C14.5848 32.9846 14.4945 32.9881 14.4066 32.9733C14.3186 32.9585 14.2347 32.9257 14.1597 32.8769C14.0847 32.828 14.0201 32.7639 13.9696 32.6885C13.9191 32.613 13.8838 32.5276 13.8656 32.4372C13.7236 31.7385 13.6034 31.0215 13.5123 30.3139C13.4966 30.1422 13.542 29.9692 13.64 29.8275C13.7381 29.6858 13.882 29.5851 14.0447 29.5445C14.2075 29.5038 14.3778 29.5259 14.5236 29.6067C14.6694 29.6875 14.7807 29.8213 14.8365 29.983L14.8461 29.9525Z" fill="white"/>
<path d="M14.9203 35.56C14.939 35.7251 14.9009 35.8929 14.8126 36.0339C14.7243 36.1749 14.5914 36.2801 14.4375 36.3309C14.2835 36.3817 14.1182 36.375 13.9707 36.3118C13.8232 36.2487 13.7029 36.1332 13.6309 35.9856C13.404 35.3017 13.2038 34.6096 13.0255 33.9244C12.9922 33.7529 13.0224 33.5735 13.1102 33.4216C13.198 33.2697 13.337 33.1565 13.4996 33.1043C13.6731 33.0548 13.8571 33.0777 14.012 33.1679C14.1668 33.2581 14.2801 33.4084 14.3275 33.5866C14.4984 34.2442 14.7155 34.9082 14.9154 35.5501C14.9057 35.5553 14.913 35.5577 14.9203 35.56Z" fill="white"/>
<path d="M68.4121 80.7826C68.4121 80.7826 45.174 75.3347 33.6665 55.7491C22.159 36.1635 26.1164 11.2528 28.1948 9.51369C30.2732 7.77455 24.9476 11.9345 24.9476 11.9345C24.9476 11.9345 18.2736 35.7595 31.0009 56.5722C43.7282 77.3848 65.5657 82.3351 65.5657 82.3351L68.4121 80.7826Z" fill="white"/>
<path opacity="0.1" d="M57.023 50.2646L56.7464 50.1764C56.8892 50.1552 56.9984 50.19 57.023 50.2646Z" fill="white"/>
<defs>
<filter id="filter0_ii_146_310" x="4.74634" y="0.618408" width="88.303" height="88.303" filterUnits="userSpaceOnUse" color-interpolation-filters="sRGB">
<feFlood flood-opacity="0" result="BackgroundImageFix"/>
<feBlend mode="normal" in="SourceGraphic" in2="BackgroundImageFix" result="shape"/>
<feColorMatrix in="SourceAlpha" type="matrix" values="0 0 0 0 0 0 0 0 0 0 0 0 0 0 0 0 0 0 127 0" result="hardAlpha"/>
<feOffset dx="-12.9409" dy="-15.9859"/>
<feComposite in2="hardAlpha" operator="arithmetic" k2="-1" k3="1"/>
<feColorMatrix type="matrix" values="0 0 0 0 0 0 0 0 0 0 0 0 0 0 0 0 0 0 1 0"/>
<feBlend mode="normal" in2="shape" result="effect1_innerShadow_146_310"/>
<feColorMatrix in="SourceAlpha" type="matrix" values="0 0 0 0 0 0 0 0 0 0 0 0 0 0 0 0 0 0 127 0" result="hardAlpha"/>
<feOffset dx="-4.56739" dy="-4.56739"/>
<feComposite in2="hardAlpha" operator="arithmetic" k2="-1" k3="1"/>
<feColorMatrix type="matrix" values="0 0 0 0 0.929412 0 0 0 0 0.141176 0 0 0 0 0.282353 0 0 0 1 0"/>
<feBlend mode="normal" in2="effect1_innerShadow_146_310" result="effect2_innerShadow_146_310"/>
</filter>
</defs>
</svg>
