<svg width="49" height="49" viewBox="0 0 49 49" fill="none" xmlns="http://www.w3.org/2000/svg">
<g clip-path="url(#clip0_90_4006)">
<path d="M37.0004 0.25H11.5004C5.28722 0.25 0.250427 5.2868 0.250427 11.5V37C0.250427 43.2132 5.28722 48.25 11.5004 48.25H37.0004C43.2136 48.25 48.2504 43.2132 48.2504 37V11.5C48.2504 5.2868 43.2136 0.25 37.0004 0.25Z" fill="#5865F2"/>
<mask id="mask0_90_4006" style="mask-type:luminance" maskUnits="userSpaceOnUse" x="5" y="9" width="39" height="30">
<path d="M5.50043 9.8125H43.0004V38.8619H5.50043V9.8125Z" fill="white"/>
</mask>
<g mask="url(#mask0_90_4006)">
<path d="M37.2455 12.3988C34.8143 11.2828 32.2486 10.4869 29.6126 10.0312C29.5886 10.0268 29.5639 10.03 29.5419 10.0405C29.5199 10.0509 29.5017 10.068 29.49 10.0894C29.1604 10.6755 28.7951 11.4405 28.5395 12.0416C25.6571 11.61 22.7897 11.61 19.9665 12.0416C19.7107 11.427 19.3324 10.6755 19.0012 10.0894C18.989 10.0684 18.9707 10.0517 18.9488 10.0413C18.9269 10.031 18.9024 10.0275 18.8784 10.0312C16.2422 10.486 13.6763 11.2819 11.2455 12.3988C11.2247 12.4076 11.2071 12.4227 11.1952 12.4419C6.33375 19.7049 5.00213 26.7894 5.65538 33.7862C5.65719 33.8033 5.66245 33.8199 5.67082 33.835C5.6792 33.8501 5.69052 33.8633 5.70413 33.8739C8.9115 36.2295 12.0186 37.6595 15.0679 38.6073C15.0916 38.6144 15.1169 38.6141 15.1404 38.6064C15.1639 38.5987 15.1846 38.584 15.1995 38.5642C15.9208 37.5791 16.5637 36.5405 17.1152 35.4483C17.1228 35.4334 17.1271 35.417 17.1279 35.4002C17.1287 35.3835 17.1259 35.3667 17.1198 35.3511C17.1136 35.3355 17.1042 35.3214 17.0922 35.3097C17.0802 35.298 17.0659 35.2889 17.0501 35.2832C16.0301 34.8962 15.0591 34.4246 14.1249 33.8889C14.1079 33.8789 14.0936 33.8648 14.0833 33.848C14.073 33.8311 14.067 33.812 14.0659 33.7923C14.0647 33.7726 14.0684 33.7529 14.0766 33.7349C14.0849 33.717 14.0974 33.7014 14.1131 33.6894C14.3102 33.5421 14.5038 33.3903 14.694 33.2342C14.7106 33.2204 14.7308 33.2115 14.7522 33.2086C14.7736 33.2057 14.7954 33.2088 14.8151 33.2177C20.9524 36.0196 27.5964 36.0196 33.6611 33.2177C33.6809 33.2083 33.7029 33.2047 33.7247 33.2074C33.7464 33.21 33.767 33.2188 33.7839 33.2327C33.9742 33.3897 34.1684 33.542 34.3663 33.6894C34.3821 33.7012 34.3947 33.7168 34.4031 33.7347C34.4114 33.7525 34.4153 33.7722 34.4142 33.7919C34.4132 33.8116 34.4074 33.8308 34.3972 33.8477C34.3871 33.8646 34.3729 33.8787 34.356 33.8889C33.4213 34.4346 32.4423 34.9005 31.4293 35.2817C31.4136 35.2877 31.3993 35.2969 31.3874 35.3088C31.3755 35.3207 31.3662 35.335 31.3602 35.3508C31.3542 35.3665 31.3516 35.3833 31.3526 35.4001C31.3535 35.417 31.358 35.4334 31.3657 35.4483C31.9267 36.5319 32.5664 37.5728 33.2797 38.5627C33.2942 38.583 33.3148 38.5982 33.3384 38.6062C33.362 38.6142 33.3875 38.6146 33.4113 38.6073C36.4755 37.6595 39.5825 36.2295 42.7901 33.8739C42.8038 33.8638 42.8153 33.8509 42.8237 33.836C42.8321 33.8211 42.8373 33.8047 42.8388 33.7877C43.6207 25.6987 41.5292 18.6722 37.2943 12.4434C37.2839 12.4232 37.2666 12.4073 37.2455 12.3988ZM18.0317 29.526C16.1839 29.526 14.6614 27.8297 14.6614 25.7463C14.6614 23.663 16.1544 21.9667 18.0317 21.9667C19.9235 21.9667 21.4312 23.678 21.4016 25.7463C21.4016 27.8297 19.9089 29.526 18.0317 29.526ZM30.4922 29.526C28.6444 29.526 27.122 27.8297 27.122 25.7463C27.122 23.663 28.6149 21.9667 30.4922 21.9667C32.384 21.9667 33.8917 23.678 33.8623 25.7463C33.8623 27.8297 32.384 29.526 30.4922 29.526Z" fill="white"/>
</g>
</g>
<defs>
<clipPath id="clip0_90_4006">
<rect x="0.250427" y="0.25" width="48" height="48" rx="21" fill="white"/>
</clipPath>
</defs>
</svg>
