<svg width="701" height="239" viewBox="0 0 701 239" fill="none" xmlns="http://www.w3.org/2000/svg">
<path d="M654.39 136.687L648.371 147.31L658.994 153.329L665.014 142.706L654.39 136.687Z" fill="white"/>
<path d="M662.249 165.092L656.229 175.715L666.853 181.734L672.872 171.111L662.249 165.092Z" fill="white"/>
<path d="M665.926 162.216C667.586 159.287 666.557 155.567 663.627 153.907C660.698 152.247 656.978 153.276 655.319 156.205C653.659 159.134 654.688 162.854 657.617 164.514C660.546 166.174 664.266 165.145 665.926 162.216Z" fill="white"/>
<path d="M654.163 165.469C655.823 162.54 654.794 158.82 651.865 157.161C648.936 155.501 645.216 156.53 643.556 159.459C641.896 162.388 642.925 166.108 645.854 167.768C648.784 169.428 652.504 168.399 654.163 165.469Z" fill="white"/>
<path d="M677.688 158.962C679.347 156.033 678.318 152.313 675.389 150.653C672.46 148.993 668.74 150.022 667.08 152.951C665.421 155.88 666.45 159.6 669.379 161.26C672.308 162.92 676.028 161.891 677.688 158.962Z" fill="white"/>
<path d="M700.216 234.12L699.526 231.168L696.574 231.858L697.264 234.81L700.216 234.12Z" fill="white"/>
<path d="M694.001 230.258L693.312 227.306L690.359 227.996L691.049 230.948L694.001 230.258Z" fill="white"/>
<path d="M693.814 231.402C694.004 232.216 694.818 232.722 695.632 232.532C696.446 232.342 696.951 231.528 696.761 230.714C696.571 229.9 695.757 229.394 694.943 229.584C694.129 229.774 693.623 230.588 693.814 231.402Z" fill="white"/>
<path d="M695.413 228.828C695.603 229.642 696.417 230.148 697.231 229.958C698.045 229.768 698.551 228.954 698.361 228.14C698.171 227.326 697.357 226.82 696.543 227.01C695.729 227.2 695.223 228.014 695.413 228.828Z" fill="white"/>
<path d="M692.215 233.976C692.405 234.79 693.219 235.296 694.033 235.106C694.847 234.916 695.353 234.102 695.163 233.288C694.973 232.474 694.158 231.968 693.344 232.158C692.53 232.348 692.025 233.162 692.215 233.976Z" fill="white"/>
<path d="M211.973 154.33L213.688 160.513L219.872 158.797L218.156 152.614L211.973 154.33Z" fill="white"/>
<path d="M225.455 161.954L227.171 168.138L233.354 166.422L231.638 160.239L225.455 161.954Z" fill="white"/>
<path d="M225.75 159.52C225.277 157.815 223.511 156.816 221.806 157.289C220.102 157.762 219.103 159.528 219.576 161.233C220.049 162.938 221.815 163.936 223.52 163.463C225.225 162.99 226.223 161.225 225.75 159.52Z" fill="white"/>
<path d="M222.593 165.102C222.12 163.398 220.354 162.399 218.649 162.872C216.944 163.345 215.946 165.111 216.419 166.816C216.892 168.521 218.658 169.519 220.362 169.046C222.067 168.573 223.066 166.807 222.593 165.102Z" fill="white"/>
<path d="M228.908 153.936C228.435 152.231 226.67 151.233 224.965 151.706C223.26 152.179 222.261 153.945 222.734 155.65C223.207 157.355 224.973 158.353 226.678 157.88C228.383 157.407 229.381 155.641 228.908 153.936Z" fill="white"/>
<path d="M563.337 253.16L549.083 236.801L532.723 251.054L546.977 267.414L563.337 253.16Z" fill="white"/>
<path d="M565.987 261.021C569.917 265.531 576.76 266.002 581.271 262.072C585.781 258.142 586.252 251.299 582.322 246.788C578.392 242.278 571.549 241.807 567.038 245.737C562.528 249.667 562.057 256.51 565.987 261.021Z" fill="white"/>
<path d="M567.475 239.384C571.405 243.895 578.248 244.366 582.759 240.436C587.27 236.505 587.741 229.663 583.81 225.152C579.88 220.641 573.038 220.17 568.527 224.1C564.016 228.031 563.545 234.873 567.475 239.384Z" fill="white"/>
<path d="M430.618 151.843L433.054 142.109L423.319 139.673L420.883 149.408L430.618 151.843Z" fill="white"/>
<path d="M418.161 131.071L420.597 121.336L410.862 118.901L408.426 128.636L418.161 131.071Z" fill="white"/>
<path d="M415.881 134.157C415.21 136.841 416.841 139.561 419.525 140.233C422.21 140.905 424.93 139.273 425.601 136.589C426.273 133.905 424.641 131.184 421.957 130.513C419.273 129.841 416.553 131.473 415.881 134.157Z" fill="white"/>
<path d="M424.483 129C423.811 131.684 425.443 134.404 428.127 135.076C430.811 135.747 433.531 134.116 434.203 131.432C434.875 128.748 433.243 126.027 430.559 125.356C427.875 124.684 425.154 126.316 424.483 129Z" fill="white"/>
<path d="M407.279 139.316C406.607 142 408.239 144.721 410.923 145.392C413.607 146.064 416.327 144.432 416.999 141.748C417.67 139.064 416.039 136.344 413.355 135.672C410.671 135.001 407.95 136.632 407.279 139.316Z" fill="white"/>
<path d="M480.853 63.2331L476.191 59.2359L472.194 63.8971L476.855 67.8943L480.853 63.2331Z" fill="white"/>
<path d="M466.075 64.3664L461.414 60.3692L457.417 65.0305L462.078 69.0277L466.075 64.3664Z" fill="white"/>
<path d="M467.14 66.4591C468.425 67.5612 470.36 67.4128 471.462 66.1275C472.564 64.8423 472.416 62.9069 471.131 61.8048C469.846 60.7027 467.91 60.8511 466.808 62.1364C465.706 63.4216 465.854 65.3569 467.14 66.4591Z" fill="white"/>
<path d="M466.67 60.3395C467.955 61.4416 469.89 61.2931 470.993 60.0079C472.095 58.7227 471.946 56.7873 470.661 55.6852C469.376 54.5831 467.441 54.7315 466.338 56.0167C465.236 57.302 465.385 59.2373 466.67 60.3395Z" fill="white"/>
<path d="M467.608 72.5786C468.894 73.6807 470.829 73.5323 471.931 72.2471C473.033 70.9618 472.885 69.0265 471.6 67.9243C470.314 66.8222 468.379 66.9707 467.277 68.2559C466.175 69.5411 466.323 71.4765 467.608 72.5786Z" fill="white"/>
<path d="M0.094057 180.153L0.21582 177.514L2.85513 177.635L2.73336 180.275L0.094057 180.153Z" fill="white"/>
<path d="M4.80695 175.856L4.92871 173.216L7.56802 173.338L7.44625 175.978L4.80695 175.856Z" fill="white"/>
<path d="M5.14781 176.806C5.11423 177.534 4.49707 178.096 3.76934 178.063C3.04161 178.029 2.47888 177.412 2.51245 176.684C2.54603 175.957 3.16319 175.394 3.89092 175.428C4.61865 175.461 5.18138 176.078 5.14781 176.806Z" fill="white"/>
<path d="M3.36949 174.855C3.33591 175.582 2.71875 176.145 1.99102 176.112C1.26329 176.078 0.700558 175.461 0.734132 174.733C0.767705 174.005 1.38487 173.443 2.1126 173.476C2.84033 173.51 3.40306 174.127 3.36949 174.855Z" fill="white"/>
<path d="M6.92808 178.757C6.89451 179.485 6.27734 180.048 5.54961 180.014C4.82188 179.981 4.25915 179.364 4.29273 178.636C4.3263 177.908 4.94346 177.345 5.67119 177.379C6.39892 177.413 6.96165 178.03 6.92808 178.757Z" fill="white"/>
<path d="M305.375 138.002H292.867V150.51H305.375V138.002Z" fill="white"/>
<path d="M284.027 159.35H271.52V171.858H284.027V159.35Z" fill="white"/>
<path d="M288.448 161.175C291.896 161.175 294.692 158.379 294.692 154.93C294.692 151.481 291.896 148.686 288.448 148.686C284.999 148.686 282.203 151.481 282.203 154.93C282.203 158.379 284.999 161.175 288.448 161.175Z" fill="white"/>
<path d="M279.607 152.334C283.055 152.334 285.851 149.538 285.851 146.09C285.851 142.641 283.055 139.845 279.607 139.845C276.158 139.845 273.362 142.641 273.362 146.09C273.362 149.538 276.158 152.334 279.607 152.334Z" fill="white"/>
<path d="M297.287 170.014C300.736 170.014 303.532 167.219 303.532 163.77C303.532 160.321 300.736 157.526 297.287 157.526C293.839 157.526 291.043 160.321 291.043 163.77C291.043 167.219 293.839 170.014 297.287 170.014Z" fill="white"/>
<path d="M614.641 68.9199H599.146V53.4244H614.641V68.9199Z" fill="white"/>
<path d="M588.193 42.4718H572.697V26.9763H588.193V42.4718Z" fill="white"/>
<path d="M593.669 40.2124C597.941 40.2124 601.405 43.676 601.405 47.9485C601.405 52.2211 597.941 55.6847 593.669 55.6847C589.396 55.6847 585.933 52.2211 585.933 47.9485C585.933 43.676 589.396 40.2124 593.669 40.2124Z" fill="white"/>
<path d="M582.718 51.164C586.99 51.164 590.454 54.6276 590.454 58.9001C590.454 63.1726 586.99 66.6362 582.718 66.6362C578.445 66.6362 574.981 63.1726 574.981 58.9001C574.981 54.6276 578.445 51.164 582.718 51.164Z" fill="white"/>
<path d="M604.62 29.2614C608.892 29.2614 612.356 32.7251 612.356 36.9976C612.356 41.2701 608.892 44.7337 604.62 44.7337C600.347 44.7337 596.884 41.2701 596.884 36.9976C596.884 32.7251 600.347 29.2614 604.62 29.2614Z" fill="white"/>
<path d="M508.904 4.27295H494.538V18.639H508.904V4.27295Z" fill="white"/>
<path d="M484.386 28.7923H470.02V43.1584H484.386V28.7923Z" fill="white"/>
<path d="M489.462 30.8878C493.423 30.8878 496.634 27.6767 496.634 23.7156C496.634 19.7545 493.423 16.5433 489.462 16.5433C485.501 16.5433 482.29 19.7545 482.29 23.7156C482.29 27.6767 485.501 30.8878 489.462 30.8878Z" fill="white"/>
<path d="M479.309 20.7349C483.27 20.7349 486.481 17.5238 486.481 13.5627C486.481 9.60155 483.27 6.3904 479.309 6.3904C475.348 6.3904 472.137 9.60155 472.137 13.5627C472.137 17.5238 475.348 20.7349 479.309 20.7349Z" fill="white"/>
<path d="M499.615 41.0415C503.576 41.0415 506.787 37.8303 506.787 33.8692C506.787 29.9081 503.576 26.6969 499.615 26.6969C495.653 26.6969 492.442 29.9081 492.442 33.8692C492.442 37.8303 495.653 41.0415 499.615 41.0415Z" fill="white"/>
<path d="M301.648 209.809H295.117V216.339H301.648V209.809Z" fill="white"/>
<path d="M290.501 220.955H283.971V227.486H290.501V220.955Z" fill="white"/>
<path d="M292.806 221.905C294.607 221.905 296.066 220.445 296.066 218.644C296.066 216.844 294.607 215.384 292.806 215.384C291.006 215.384 289.546 216.844 289.546 218.644C289.546 220.445 291.006 221.905 292.806 221.905Z" fill="white"/>
<path d="M288.193 217.291C289.993 217.291 291.453 215.832 291.453 214.031C291.453 212.231 289.993 210.771 288.193 210.771C286.392 210.771 284.933 212.231 284.933 214.031C284.933 215.832 286.392 217.291 288.193 217.291Z" fill="white"/>
<path d="M297.424 226.522C299.225 226.522 300.685 225.062 300.685 223.262C300.685 221.461 299.225 220.002 297.424 220.002C295.624 220.002 294.164 221.461 294.164 223.262C294.164 225.062 295.624 226.522 297.424 226.522Z" fill="white"/>
<path d="M267.124 0.740314L264.162 8.44148L271.863 11.4032L274.825 3.70201L267.124 0.740314Z" fill="white"/>
<path d="M275.214 18.9396L272.252 26.6408L279.953 29.6025L282.915 21.9013L275.214 18.9396Z" fill="white"/>
<path d="M277.383 16.6502C278.2 14.5268 277.14 12.1434 275.017 11.3268C272.893 10.5101 270.51 11.5695 269.693 13.6929C268.877 15.8163 269.936 18.1997 272.06 19.0163C274.183 19.833 276.566 18.7736 277.383 16.6502Z" fill="white"/>
<path d="M269.847 20C270.664 17.8766 269.604 15.4932 267.481 14.6766C265.357 13.8599 262.974 14.9193 262.157 17.0427C261.341 19.1661 262.4 21.5495 264.524 22.3661C266.647 23.1827 269.03 22.1234 269.847 20Z" fill="white"/>
<path d="M284.919 13.3003C285.736 11.1769 284.676 8.79351 282.553 7.97689C280.43 7.16027 278.046 8.21963 277.23 10.343C276.413 12.4665 277.472 14.8498 279.596 15.6665C281.719 16.4831 284.103 15.4237 284.919 13.3003Z" fill="white"/>
<path d="M503.88 181.336H494.024V191.192H503.88V181.336Z" fill="white"/>
<path d="M487.059 198.157H477.203V208.013H487.059V198.157Z" fill="white"/>
<path d="M490.542 199.595C493.259 199.595 495.462 197.392 495.462 194.674C495.462 191.957 493.259 189.754 490.542 189.754C487.824 189.754 485.621 191.957 485.621 194.674C485.621 197.392 487.824 199.595 490.542 199.595Z" fill="white"/>
<path d="M483.575 192.63C486.292 192.63 488.495 190.427 488.495 187.709C488.495 184.992 486.292 182.788 483.575 182.788C480.857 182.788 478.654 184.992 478.654 187.709C478.654 190.427 480.857 192.63 483.575 192.63Z" fill="white"/>
<path d="M497.508 206.561C500.226 206.561 502.429 204.358 502.429 201.641C502.429 198.923 500.226 196.72 497.508 196.72C494.791 196.72 492.588 198.923 492.588 201.641C492.588 204.358 494.791 206.561 497.508 206.561Z" fill="white"/>
<path d="M10.4946 175.386H8.18457V177.696H10.4946V175.386Z" fill="white"/>
<path d="M6.55226 179.328H4.24219V181.639H6.55226V179.328Z" fill="white"/>
<path d="M7.36912 179.666C8.00607 179.666 8.52241 179.149 8.52241 178.512C8.52241 177.875 8.00607 177.359 7.36912 177.359C6.73217 177.359 6.21582 177.875 6.21582 178.512C6.21582 179.149 6.73217 179.666 7.36912 179.666Z" fill="white"/>
<path d="M5.7363 178.033C6.37325 178.033 6.8896 177.516 6.8896 176.88C6.8896 176.243 6.37325 175.726 5.7363 175.726C5.09936 175.726 4.58301 176.243 4.58301 176.88C4.58301 177.516 5.09936 178.033 5.7363 178.033Z" fill="white"/>
<path d="M9.00095 181.298C9.6379 181.298 10.1542 180.782 10.1542 180.145C10.1542 179.508 9.6379 178.992 9.00095 178.992C8.364 178.992 7.84766 179.508 7.84766 180.145C7.84766 180.782 8.364 181.298 9.00095 181.298Z" fill="white"/>
</svg>
