<svg width="25" height="25" viewBox="0 0 25 25" fill="none" xmlns="http://www.w3.org/2000/svg">
<g opacity="0.5">
<g clip-path="url(#clip0_201_1354)">
<mask id="mask0_201_1354" style="mask-type:luminance" maskUnits="userSpaceOnUse" x="1" y="1" width="23" height="24">
<path d="M23.8498 1.35742H1.05859V24.1486H23.8498V1.35742Z" fill="white"/>
</mask>
<g mask="url(#mask0_201_1354)">
<path d="M12.4542 3.40951C15.4989 3.40951 15.8595 3.42287 17.0569 3.47628C18.1697 3.52525 18.7707 3.71221 19.1713 3.86801C19.701 4.07277 20.0838 4.32205 20.48 4.71822C20.8806 5.11885 21.1255 5.49722 21.3303 6.02694C21.486 6.42756 21.673 7.03294 21.722 8.14134C21.7754 9.34322 21.7887 9.70377 21.7887 12.7441C21.7887 15.7888 21.7754 16.1493 21.722 17.3468C21.673 18.4597 21.486 19.0605 21.3303 19.4612C21.1255 19.991 20.8762 20.3737 20.48 20.77C20.0794 21.1705 19.701 21.4154 19.1713 21.6202C18.7707 21.7759 18.1653 21.9629 17.0569 22.0119C15.855 22.0653 15.4945 22.0786 12.4542 22.0786C9.4094 22.0786 9.04884 22.0653 7.85142 22.0119C6.73857 21.9629 6.13763 21.7759 5.73701 21.6202C5.20729 21.4154 4.82447 21.1661 4.4283 20.77C4.02767 20.3693 3.78284 19.991 3.57808 19.4612C3.42228 19.0605 3.23532 18.4552 3.18635 17.3468C3.13295 16.1449 3.11958 15.7844 3.11958 12.7441C3.11958 9.69933 3.13295 9.33876 3.18635 8.14134C3.23532 7.02849 3.42228 6.42756 3.57808 6.02694C3.78284 5.49722 4.03212 5.11439 4.4283 4.71822C4.82892 4.31759 5.20729 4.07277 5.73701 3.86801C6.13763 3.71221 6.74303 3.52525 7.85142 3.47628C9.04884 3.42287 9.4094 3.40951 12.4542 3.40951ZM12.4542 1.35742C9.36044 1.35742 8.97317 1.37078 7.75794 1.42419C6.54716 1.47761 5.71475 1.67348 4.99363 1.95391C4.24134 2.24769 3.60479 2.63497 2.97269 3.27152C2.33615 3.90362 1.94887 4.54016 1.65508 5.288C1.37464 6.01357 1.17878 6.84153 1.12536 8.05231C1.07195 9.27199 1.05859 9.65926 1.05859 12.753C1.05859 15.8467 1.07195 16.234 1.12536 17.4493C1.17878 18.66 1.37464 19.4924 1.65508 20.2136C1.94887 20.9658 2.33615 21.6024 2.97269 22.2345C3.60479 22.8666 4.24134 23.2583 4.98917 23.5477C5.71475 23.8281 6.5427 24.0239 7.75349 24.0773C8.96871 24.1307 9.35598 24.1441 12.4497 24.1441C15.5434 24.1441 15.9306 24.1307 17.1459 24.0773C18.3567 24.0239 19.1891 23.8281 19.9102 23.5477C20.658 23.2583 21.2946 22.8666 21.9267 22.2345C22.5588 21.6024 22.9505 20.9658 23.2399 20.218C23.5203 19.4924 23.7161 18.6644 23.7695 17.4537C23.823 16.2384 23.8364 15.8511 23.8364 12.7574C23.8364 9.66372 23.823 9.27645 23.7695 8.06121C23.7161 6.85044 23.5203 6.01803 23.2399 5.29691C22.9595 4.54016 22.5722 3.90362 21.9356 3.27152C21.3035 2.63942 20.667 2.24769 19.9192 1.95836C19.1935 1.67792 18.3656 1.48206 17.1548 1.42865C15.9352 1.37078 15.5479 1.35742 12.4542 1.35742Z" fill="white"/>
<path d="M12.4542 6.90039C9.22246 6.90039 6.60059 9.52226 6.60059 12.754C6.60059 15.9857 9.22246 18.6075 12.4542 18.6075C15.6859 18.6075 18.3078 15.9857 18.3078 12.754C18.3078 9.52226 15.6859 6.90039 12.4542 6.90039ZM12.4542 16.5511C10.3576 16.5511 8.65713 14.8506 8.65713 12.754C8.65713 10.6574 10.3576 8.95694 12.4542 8.95694C14.5508 8.95694 16.2513 10.6574 16.2513 12.754C16.2513 14.8506 14.5508 16.5511 12.4542 16.5511Z" fill="white"/>
<path d="M19.9059 6.66737C19.9059 7.4241 19.2917 8.03394 18.5393 8.03394C17.7826 8.03394 17.1729 7.41965 17.1729 6.66737C17.1729 5.91062 17.7871 5.30078 18.5393 5.30078C19.2917 5.30078 19.9059 5.91508 19.9059 6.66737Z" fill="white"/>
</g>
</g>
</g>
<defs>
<clipPath id="clip0_201_1354">
<rect width="24" height="24" fill="white" transform="translate(0.5 0.226562)"/>
</clipPath>
</defs>
</svg>
