<svg width="25" height="25" viewBox="0 0 25 25" fill="none" xmlns="http://www.w3.org/2000/svg">
<g opacity="0.5">
<g clip-path="url(#clip0_201_1377)">
<path d="M23.8395 8.6145C23.8395 8.6145 23.6169 7.04316 22.9314 6.35318C22.0633 5.4451 21.093 5.44065 20.6479 5.38724C17.4607 5.15576 12.6754 5.15576 12.6754 5.15576H12.6665C12.6665 5.15576 7.88125 5.15576 4.69405 5.38724C4.24891 5.44065 3.27852 5.4451 2.41049 6.35318C1.72498 7.04316 1.50686 8.6145 1.50686 8.6145C1.50686 8.6145 1.27539 10.4618 1.27539 12.3047V14.0318C1.27539 15.8747 1.50241 17.722 1.50241 17.722C1.50241 17.722 1.72498 19.2934 2.40604 19.9833C3.27406 20.8914 4.41362 20.8603 4.92108 20.9582C6.74615 21.1318 12.6709 21.1852 12.6709 21.1852C12.6709 21.1852 17.4607 21.1763 20.6479 20.9494C21.093 20.8959 22.0633 20.8914 22.9314 19.9833C23.6169 19.2934 23.8395 17.722 23.8395 17.722C23.8395 17.722 24.0665 15.8792 24.0665 14.0318V12.3047C24.0665 10.4618 23.8395 8.6145 23.8395 8.6145ZM10.3162 16.1284V9.7229L16.4725 12.9368L10.3162 16.1284Z" fill="white"/>
</g>
</g>
<defs>
<clipPath id="clip0_201_1377">
<rect width="24" height="24" fill="white" transform="translate(0.5 0.226562)"/>
</clipPath>
</defs>
</svg>
