<svg width="25" height="25" viewBox="0 0 25 25" fill="none" xmlns="http://www.w3.org/2000/svg">
<g opacity="0.5">
<g clip-path="url(#clip0_201_1370)">
<mask id="mask0_201_1370" style="mask-type:luminance" maskUnits="userSpaceOnUse" x="1" y="1" width="23" height="24">
<path d="M23.9581 1.35742H1.16699V24.1486H23.9581V1.35742Z" fill="white"/>
</mask>
<g mask="url(#mask0_201_1370)">
<path d="M22.271 1.35742H2.84962C1.91928 1.35742 1.16699 2.0919 1.16699 2.99998V22.5015C1.16699 23.4096 1.91928 24.1485 2.84962 24.1485H22.271C23.2014 24.1485 23.9581 23.4096 23.9581 22.5059V2.99998C23.9581 2.0919 23.2014 1.35742 22.271 1.35742ZM7.92865 20.7788H4.5456V9.89964H7.92865V20.7788ZM6.23713 8.41732C5.15099 8.41732 4.27407 7.5404 4.27407 6.45871C4.27407 5.37703 5.15099 4.50011 6.23713 4.50011C7.31881 4.50011 8.19574 5.37703 8.19574 6.45871C8.19574 7.53596 7.31881 8.41732 6.23713 8.41732ZM20.5884 20.7788H17.2098V15.4906C17.2098 14.2309 17.1876 12.6061 15.4515 12.6061C13.6932 12.6061 13.4262 13.9815 13.4262 15.4016V20.7788H10.052V9.89964H13.2926V11.3864H13.3371C13.7867 10.5317 14.8907 9.62811 16.5331 9.62811C19.9563 9.62811 20.5884 11.8805 20.5884 14.8095V20.7788Z" fill="white"/>
</g>
</g>
</g>
<defs>
<clipPath id="clip0_201_1370">
<rect width="24" height="24" fill="white" transform="translate(0.5 0.226562)"/>
</clipPath>
</defs>
</svg>
