<svg width="131" height="133" viewBox="0 0 131 133" fill="none" xmlns="http://www.w3.org/2000/svg">
<circle cx="63.1822" cy="63.1822" r="64.3241" transform="matrix(1 0 0 -1 2.30566 129.6)" fill="#D9D9D9" stroke="black" stroke-width="2.28369"/>
<g filter="url(#filter0_iii_146_435)">
<path d="M65.7928 132.081C100.94 132.081 129.432 103.429 129.432 68.0853C129.432 32.7417 100.94 4.09009 65.7928 4.09009C30.6459 4.09009 2.15381 32.7417 2.15381 68.0853C2.15381 103.429 30.6459 132.081 65.7928 132.081Z" fill="white"/>
</g>
<path d="M65.7928 132.081C100.94 132.081 129.432 103.429 129.432 68.0853C129.432 32.7417 100.94 4.09009 65.7928 4.09009C30.6459 4.09009 2.15381 32.7417 2.15381 68.0853C2.15381 103.429 30.6459 132.081 65.7928 132.081Z" stroke="black" stroke-width="0.64128"/>
<path d="M22.2953 22.2975C28.8038 18.1766 35.6337 14.1365 45.2224 10.8774C48.999 14.0287 51.9988 19.1462 55.1861 24.129C47.4723 31.5358 40.1335 38.7811 35.7944 44.4911C28.4556 43.8177 24.813 44.4372 15.9742 42.875C16.0546 36.3031 18.2241 29.435 22.2953 22.2975ZM100.076 21.2201C107.335 27.8997 114.459 34.6332 119.468 42.4441C117.995 49.5008 116.656 57.3386 114.647 61.4056C108.379 60.463 100.29 58.0389 92.6838 56.0188C88.9876 46.4034 86.4967 39.1851 83.5772 31.1318C89.2019 26.9301 94.7462 23.1594 100.076 21.2201ZM12.4119 102.911C5.25522 91.7705 1.71736 78.6693 2.28755 65.4188L3.86781 65.2303C5.31415 74.4417 7.18903 83.3838 12.1977 90.225C11.2334 95.0462 12.1441 98.9247 13.5636 102.561L12.4119 102.911ZM44.4725 72.6102C54.2487 74.2262 63.6767 75.8423 72.8636 77.4583C75.7027 86.4273 76.0777 95.4233 77.0419 104.392C69.9977 110.264 60.3019 112.122 51.7577 115.705C41.7941 109.24 37.7497 102.022 32.0447 95.0193C35.3123 87.4508 38.9282 79.9093 44.4725 72.6102Z" fill="black"/>
<path d="M21.786 21.8664L25.9375 26.122M11.2063 89.794C17.3934 96.0157 25.6161 95.0461 33.33 95.2346M19.2951 40.2892C6.14412 49.7431 2.95681 68.947 3.43893 68.8393M36.0084 41.6898C34.6424 51.7362 38.2582 62.7791 45.7578 74.5493M42.8919 12.8974C47.097 8.66872 55.3482 5.09374 66.2493 3.42383M52.1324 114.789C50.7932 118.344 51.3556 121.416 52.1324 126.668M53.5787 23.9403C61.1318 24.8022 74.7917 25.9334 85.6125 32.1013M74.7917 103.315C83.0948 107.974 92.1746 109.968 103.183 108.163M94.0762 54.0795C87.5945 63.0754 79.7735 71.4519 70.7205 79.2897M100.424 22.2165C97.451 16.6412 92.2401 11.5337 86.8029 7.2512M117.753 42.3362C120.432 42.417 119.176 43.6788 121.667 46.2914M113.789 59.4663C118.021 67.4657 118.637 78.8049 119.253 90.171" stroke="black" stroke-width="1.52246"/>
<defs>
<filter id="filter0_iii_146_435" x="1.83325" y="3.76953" width="127.919" height="128.632" filterUnits="userSpaceOnUse" color-interpolation-filters="sRGB">
<feFlood flood-opacity="0" result="BackgroundImageFix"/>
<feBlend mode="normal" in="SourceGraphic" in2="BackgroundImageFix" result="shape"/>
<feColorMatrix in="SourceAlpha" type="matrix" values="0 0 0 0 0 0 0 0 0 0 0 0 0 0 0 0 0 0 127 0" result="hardAlpha"/>
<feOffset dx="-4.56739" dy="-3.80616"/>
<feComposite in2="hardAlpha" operator="arithmetic" k2="-1" k3="1"/>
<feColorMatrix type="matrix" values="0 0 0 0 0 0 0 0 0 0 0 0 0 0 0 0 0 0 1 0"/>
<feBlend mode="normal" in2="shape" result="effect1_innerShadow_146_435"/>
<feColorMatrix in="SourceAlpha" type="matrix" values="0 0 0 0 0 0 0 0 0 0 0 0 0 0 0 0 0 0 127 0" result="hardAlpha"/>
<feOffset dx="-9.89601" dy="-9.89601"/>
<feComposite in2="hardAlpha" operator="arithmetic" k2="-1" k3="1"/>
<feColorMatrix type="matrix" values="0 0 0 0 0 0 0 0 0 0 0 0 0 0 0 0 0 0 1 0"/>
<feBlend mode="normal" in2="effect1_innerShadow_146_435" result="effect2_innerShadow_146_435"/>
<feColorMatrix in="SourceAlpha" type="matrix" values="0 0 0 0 0 0 0 0 0 0 0 0 0 0 0 0 0 0 127 0" result="hardAlpha"/>
<feOffset dx="-2.28369" dy="-2.28369"/>
<feComposite in2="hardAlpha" operator="arithmetic" k2="-1" k3="1"/>
<feColorMatrix type="matrix" values="0 0 0 0 1 0 0 0 0 1 0 0 0 0 1 0 0 0 1 0"/>
<feBlend mode="normal" in2="effect2_innerShadow_146_435" result="effect3_innerShadow_146_435"/>
</filter>
</defs>
</svg>
