<svg width="58" height="58" viewBox="0 0 58 58" fill="none" xmlns="http://www.w3.org/2000/svg">
<path d="M55.778 27.206H37.3912C35.5944 27.206 34.6937 25.03 35.9661 23.758L48.9668 10.7393C49.5443 10.161 49.5443 9.22136 48.9668 8.64522C48.3892 8.06685 47.451 8.06685 46.8734 8.64522L33.8728 21.6639C32.6026 22.9359 30.4295 22.0362 30.4295 20.2346V1.8223C30.4295 1.0024 29.7679 0.339844 28.9491 0.339844C28.1303 0.339844 27.4687 1.0024 27.4687 1.8223V20.2346C27.4687 22.034 25.2956 22.9359 24.0255 21.6639L11.0248 8.64522C10.4472 8.06685 9.509 8.06685 8.93144 8.64522C8.35388 9.22358 8.35388 10.161 8.93144 10.7393L21.9321 23.758C23.2023 25.03 22.3038 27.206 20.507 27.206H2.1202C1.30365 27.206 0.639771 27.8686 0.639771 28.6885C0.639771 29.5084 1.30143 30.171 2.1202 30.171H20.507C22.3038 30.171 23.2045 32.3471 21.9321 33.619L8.93144 46.6377C8.35388 47.2161 8.35388 48.1534 8.93144 48.7318C9.509 49.3101 10.445 49.3101 11.0248 48.7318L24.0255 35.7131C25.2956 34.4411 27.4687 35.3408 27.4687 37.1401V55.5525C27.4687 56.3702 28.1303 57.0349 28.9491 57.0349C29.7679 57.0349 30.4295 56.3702 30.4295 55.5525V37.1401C30.4295 35.3408 32.6026 34.4389 33.8728 35.7109L46.8734 48.7296C47.451 49.3079 48.387 49.3079 48.9668 48.7296C49.5443 48.1512 49.5443 47.2116 48.9668 46.6355L35.9661 33.6168C34.6959 32.3448 35.5944 30.1688 37.3912 30.1688H55.778C56.5946 30.1688 57.2584 29.5062 57.2584 28.6863C57.2584 27.8664 56.5968 27.2038 55.778 27.2038V27.206Z" fill="white"/>
</svg>
