<svg width="55" height="20" viewBox="0 0 55 20" fill="none" xmlns="http://www.w3.org/2000/svg">
<path d="M54.0254 13.0997L46.283 7.05669C46.2431 7.02553 46.2057 6.9896 46.1725 6.95139C43.9057 4.34552 41.6471 4.34552 40.5137 4.34552L3.1922 1.68121C1.39964 1.68122 0.261879 5.79715 1.35566 7.72207C1.37448 7.75518 1.39645 7.78581 1.42071 7.81517L8.61597 16.5252C10.1173 18.4283 11.2803 19.1895 13.1834 19.1895H51.171C55.548 19.1895 54.7865 13.8609 54.0254 13.0997Z" fill="black" stroke="black" stroke-width="0.761232"/>
<path d="M53.2645 11.958L46.794 3.96509C44.5103 1.30078 42.2266 1.30078 41.0847 1.30078H4.80986C1.38431 1.30078 0.623081 3.58448 2.14555 5.48756L8.23539 12.7193C10.1385 15.003 11.6609 16.1448 13.564 16.1448L51.742 15.7642C55.5481 15.7642 54.0256 12.7193 53.2645 11.958Z" fill="white" stroke="black" stroke-width="0.761232"/>
</svg>
