<svg width="39" height="12" viewBox="0 0 39 12" fill="none" xmlns="http://www.w3.org/2000/svg">
<path d="M1.91595 5.74811C1.03701 4.98688 1.1545 1.56134 1.91596 1.56134L27.5351 4.22565C29.0233 4.22565 30.1478 4.58927 30.9085 4.9611C30.9435 4.97817 30.9793 4.99285 31.0163 5.00472L37.8212 7.1893C37.9852 7.24192 38.1304 7.3467 38.2071 7.50085C38.8003 8.69304 38.5248 10.6961 37.8118 10.6961H10.788C9.87457 10.6961 8.50435 10.3155 7.3625 9.55427L1.91595 5.74811Z" fill="black" stroke="black" stroke-width="0.761232"/>
<path d="M2.2967 3.4646C0.77419 2.32276 1.53525 1.18091 2.2967 1.18091L27.4172 1.56152C28.9398 1.56152 30.0816 1.94214 30.8428 2.32276L37.6939 6.50953C38.8358 7.27076 38.4552 8.03199 37.6939 8.03199H10.6701C9.75666 8.03199 8.38645 7.65138 7.2446 6.89015L2.2967 3.4646Z" fill="white" stroke="black" stroke-width="0.761232"/>
</svg>
