<svg width="171" height="59" viewBox="0 0 171 59" fill="none" xmlns="http://www.w3.org/2000/svg">
<path d="M34.4237 4.94511L30.3095 2.70098C29.4677 2.24179 28.4503 2.89194 28.5134 3.8488L31.9555 56.0544C31.9917 56.603 32.3913 57.0667 32.9375 57.1293C37.2911 57.6276 40.191 55.271 41.1392 53.9435L43.7124 49.8264C43.9913 49.3801 44.5256 49.1639 45.0364 49.2904L78.1984 57.5076C78.4221 57.563 78.657 57.5537 78.8756 57.4809L85.9248 55.1311C86.4188 54.9665 86.7532 54.5169 86.7564 53.9961C86.8572 37.5148 86.9901 6.00798 86.751 5.29086C86.5243 4.61069 82.0539 2.82117 79.3955 1.84243C79.0476 1.71432 78.6612 1.7555 78.3458 1.95042L52.6266 17.8443C52.135 18.1481 51.4975 18.064 51.1015 17.6432L47.2961 13.6C47.055 13.3439 46.715 13.2047 46.3636 13.2182L39.7169 13.4738C39.2803 13.4906 38.8862 13.7404 38.6846 14.1281L37.3531 16.6886C36.7657 17.8181 35.0576 17.4005 35.0576 16.1275V6.01291C35.0576 5.5678 34.8145 5.15825 34.4237 4.94511Z" fill="#000F60" stroke="#000F60" stroke-width="1.82447" stroke-linecap="round"/>
<path d="M132.307 5.29086C132.109 4.69512 128.654 3.24832 126.014 2.24069C125.229 1.94135 124.396 2.52293 124.392 3.36254L124.106 55.8952C124.102 56.7282 124.917 57.3191 125.707 57.0557L131.481 55.1311C131.975 54.9665 132.309 54.5169 132.312 53.9961C132.413 37.5148 132.546 6.00797 132.307 5.29086Z" fill="#000F60" stroke="#000F60" stroke-width="1.82447" stroke-linecap="round"/>
<path d="M169.004 5.29086C168.805 4.69512 165.351 3.24832 162.71 2.24069C161.926 1.94135 161.093 2.52293 161.088 3.36254L160.803 55.8952C160.798 56.7282 161.614 57.3191 162.404 57.0557L168.178 55.1311C168.672 54.9665 169.006 54.5169 169.009 53.9961C169.11 37.5148 169.243 6.00797 169.004 5.29086Z" fill="#000F60" stroke="#000F60" stroke-width="1.82447" stroke-linecap="round"/>
<path d="M1.30476 2.85814V56.376C1.30476 57.0478 1.84933 57.5923 2.52108 57.5923H30.7151C31.1449 57.5923 31.5429 57.3655 31.7618 56.9955L39.1801 44.4611C39.6511 43.6653 40.8026 43.6653 41.2736 44.4611L48.6919 56.9955C48.9109 57.3655 49.3088 57.5923 49.7387 57.5923H78.2367C78.9085 57.5923 79.453 57.0478 79.453 56.376V2.85814C79.453 2.18639 78.9085 1.64182 78.2367 1.64182H50.2615C49.5897 1.64182 49.0452 2.18639 49.0452 2.85814V23.3354C49.0452 24.5238 47.5162 25.0069 46.8334 24.0344L39.9912 14.2894C39.511 13.6055 38.5001 13.5984 38.0103 14.2755L30.8737 24.1408C30.1823 25.0965 28.6719 24.6074 28.6719 23.4279V2.85814C28.6719 2.18639 28.1273 1.64182 27.4556 1.64182H2.52108C1.84933 1.64182 1.30476 2.18639 1.30476 2.85814Z" fill="white" stroke="#000F60" stroke-width="1.82447" stroke-linecap="round"/>
<path d="M124.283 57.5189H98.4462C97.7752 57.5189 97.2313 56.9779 97.2313 56.3069V25.2598C97.2313 24.5888 96.6873 24.0454 96.0163 24.0454H92.9913C92.3203 24.0454 91.7763 23.5014 91.7763 22.8304V7.15988C91.7763 6.48888 92.33 5.95884 92.9764 5.77875C94.7603 5.28174 96.1233 3.77037 96.8577 2.6277C97.1066 2.24058 97.5219 1.97769 97.9821 1.97769H124.283C124.954 1.97769 125.498 2.52165 125.498 3.19265V56.3039C125.498 56.9749 124.954 57.5189 124.283 57.5189Z" fill="white" stroke="#000F60" stroke-width="1.82492"/>
<path d="M160.98 57.5189H135.143C134.472 57.5189 133.928 56.9779 133.928 56.3069V25.2598C133.928 24.5888 133.384 24.0454 132.713 24.0454H129.688C129.017 24.0454 128.473 23.5014 128.473 22.8304V7.15988C128.473 6.48888 129.027 5.95884 129.673 5.77875C131.457 5.28174 132.82 3.77037 133.555 2.6277C133.803 2.24058 134.219 1.97769 134.679 1.97769H160.98C161.651 1.97769 162.195 2.52165 162.195 3.19265V56.3039C162.195 56.9749 161.651 57.5189 160.98 57.5189Z" fill="white" stroke="#000F60" stroke-width="1.82492"/>
</svg>
