<svg width="18" height="9" viewBox="0 0 18 9" fill="none" xmlns="http://www.w3.org/2000/svg">
<path d="M3.67796 7.77784L1.35701 4.13062C1.27928 4.00848 1.238 3.86671 1.238 3.72194V2.16455C1.238 1.69871 1.65267 1.34213 2.11327 1.41191L13.6182 3.15508C13.7366 3.17302 13.8491 3.21866 13.9466 3.28828L16.1439 4.85776C16.3439 5.00065 16.4626 5.23136 16.4626 5.4772V7.36915C16.4626 7.78957 16.1218 8.13038 15.7014 8.13038H4.32018C4.05992 8.13038 3.81769 7.99741 3.67796 7.77784Z" fill="black" stroke="black" stroke-width="0.761232"/>
<path d="M3.6752 5.51851L1.30367 2.09297C0.954141 1.5881 1.31549 0.898438 1.92955 0.898438H13.3994C13.6492 0.898438 13.8831 1.02099 14.0253 1.22637L16.3968 4.65191C16.7463 5.15678 16.385 5.84644 15.7709 5.84644H4.30108C4.05128 5.84644 3.81738 5.72389 3.6752 5.51851Z" fill="white" stroke="black" stroke-width="0.761232"/>
</svg>
