<svg width="38" height="17" viewBox="0 0 38 17" fill="none" xmlns="http://www.w3.org/2000/svg">
<path d="M26.4074 3.51245C18.4144 3.38558 4.06647 3.51244 2.42859 3.51245C2.01449 3.51245 1.51684 1.45551 1.28644 1.55298C0.473866 1.89674 0.425123 3.52204 0.906088 4.97853C1.16619 5.76621 1.82244 6.59953 2.04809 6.93802L7.37645 14.1698C8.89888 16.0728 10.8019 16.0728 11.5633 16.0728H11.5634H35.5421C37.3607 16.0728 37.7892 13.9356 37.4914 12.4173C37.4646 12.2809 37.3932 12.1585 37.2945 12.0606L30.2135 5.03493C29.0716 3.89313 27.5491 3.51248 26.4074 3.51245Z" fill="black" stroke="black" stroke-width="0.761232"/>
<path d="M26.4074 0.791802C18.4145 0.66493 4.06651 0.791792 2.42863 0.791802C-0.235537 0.791802 1.28666 3.07513 2.04794 4.21708L2.04814 4.21738L7.37649 11.4491C8.89892 13.3521 10.802 13.3521 11.5633 13.3521H11.5634H35.5422C37.4451 13.3522 38.2064 12.2103 36.684 10.3072L30.2136 2.31429C29.0716 1.17248 27.5491 0.791834 26.4074 0.791802Z" fill="white" stroke="black" stroke-width="0.761232"/>
</svg>
