<svg width="36" height="10" viewBox="0 0 36 10" fill="none" xmlns="http://www.w3.org/2000/svg">
<path d="M29.9546 9.36622H2.49512C2.0747 9.36622 1.73389 9.02541 1.73389 8.60499V6.11972C1.73389 5.78676 1.95027 5.49245 2.26806 5.39314L7.04755 3.89954C7.56203 3.73877 8.09793 3.65699 8.63694 3.65699H21.6505C21.6942 3.65699 21.7379 3.65322 21.7809 3.64573L34.8475 1.37329V4.13937C34.8475 4.31942 34.7836 4.49364 34.6673 4.63108L31.1168 8.82718C30.8275 9.16905 30.4024 9.36622 29.9546 9.36622Z" fill="black" stroke="black" stroke-width="0.761232"/>
<path d="M29.9993 6.32154H2.4953C1.76375 6.32154 1.45332 5.39025 2.03857 4.95132L6.40296 1.67803C7.32532 0.986256 8.44718 0.612305 9.60013 0.612305H34.2377C34.9033 0.612305 35.2484 1.40634 34.7942 1.89294L31.1123 5.83788C30.8244 6.14639 30.4213 6.32154 29.9993 6.32154Z" fill="#D9D9D9" stroke="black" stroke-width="0.761232"/>
</svg>
