<svg width="16" height="14" viewBox="0 0 16 14" fill="none" xmlns="http://www.w3.org/2000/svg">
<path d="M0.921032 11.034V5.32477C0.921032 4.90435 1.26185 4.56354 1.68226 4.56354H13.3133C13.641 4.56354 13.9319 4.7732 14.0355 5.08405L14.9648 7.87189C14.9906 7.94951 15.0038 8.03079 15.0038 8.11261V11.034C15.0038 12.5565 14.2426 13.3177 12.7201 13.3177H3.96596C1.53002 13.3177 0.921032 11.7952 0.921032 11.034Z" fill="black" stroke="black" stroke-width="0.761232"/>
<path d="M0.921021 7.60816V1.89893C0.921021 1.47851 1.26183 1.1377 1.68225 1.1377H13.2302C13.5965 1.1377 13.9109 1.3986 13.9784 1.75864L15.0038 7.22755C15.3844 9.13063 14.6232 9.89186 12.7201 9.89186H3.96595C1.53001 9.89186 0.921021 8.3694 0.921021 7.60816Z" fill="#D9D9D9" stroke="black" stroke-width="0.761232"/>
</svg>
