<svg width="52" height="20" viewBox="0 0 52 20" fill="none" xmlns="http://www.w3.org/2000/svg">
<path d="M1.5926 13.1444L9.33499 7.10143C9.37491 7.07027 9.41225 7.03434 9.44549 6.99613C11.7123 4.39026 13.9708 4.39026 15.1043 4.39026L49.1693 1.72595C51.453 1.72595 51.6434 6.29334 50.8822 8.57704L47.8372 15.8087C47.076 17.7118 45.5535 19.2343 43.6504 19.2343H4.44697C0.0699215 19.2343 0.831474 13.9057 1.5926 13.1444Z" fill="black" stroke="black" stroke-width="0.761232"/>
<path d="M2.3537 12.0027L8.82417 4.00976C11.1079 1.34546 13.3916 1.34546 14.5334 1.34546H48.4082C50.6919 1.34546 51.0725 3.24854 50.3113 5.53223L47.2664 12.7639C46.5051 14.667 44.9827 15.8089 43.0796 15.8089H3.87616C0.0700345 15.8089 1.59258 12.7639 2.3537 12.0027Z" fill="white" stroke="black" stroke-width="0.761232"/>
</svg>
