<svg width="75" height="38" viewBox="0 0 75 38" fill="none" xmlns="http://www.w3.org/2000/svg">
<path d="M56.1599 4.96057H4.01535C1.8839 4.96057 0.590127 6.86364 0.589966 8.38611L0.970582 33.8874C0.970582 36.9323 3.25428 37.3129 5.15736 37.3129H69.862C75.1907 37.3129 74.8101 31.6037 74.0488 29.7006L63.7722 9.14734C62.2497 5.7218 58.8242 4.96057 56.1599 4.96057Z" fill="black" stroke="black" stroke-width="0.761232"/>
<path d="M56.1599 0.393555H4.01535C1.8839 0.393555 0.590127 2.29663 0.589966 3.81909L0.970582 29.3204C0.970582 32.3653 3.25428 32.7459 5.15736 32.7459H69.862C74.8101 32.7459 74.0488 29.3204 73.2876 27.4173L63.7722 4.58033C62.2497 1.15478 58.8242 0.393555 56.1599 0.393555Z" fill="white" stroke="black" stroke-width="0.761232"/>
</svg>
