<svg width="406" height="365" viewBox="0 0 406 365" fill="none" xmlns="http://www.w3.org/2000/svg">
<path d="M80.3132 93.8317H64.625V109.52H80.3132V93.8317Z" fill="white"/>
<path d="M80.3138 109.52C84.646 109.52 88.158 106.008 88.158 101.676C88.158 97.3437 84.646 93.8317 80.3138 93.8317C75.9817 93.8317 72.4697 97.3437 72.4697 101.676C72.4697 106.008 75.9817 109.52 80.3138 109.52Z" fill="white"/>
<path d="M72.4691 101.676C76.8013 101.676 80.3132 98.1639 80.3132 93.8317C80.3132 89.4995 76.8013 85.9876 72.4691 85.9876C68.1369 85.9876 64.625 89.4995 64.625 93.8317C64.625 98.1639 68.1369 101.676 72.4691 101.676Z" fill="white"/>
<path d="M72.4691 117.364C76.8013 117.364 80.3132 113.852 80.3132 109.52C80.3132 105.188 76.8013 101.676 72.4691 101.676C68.1369 101.676 64.625 105.188 64.625 109.52C64.625 113.852 68.1369 117.364 72.4691 117.364Z" fill="white"/>
<path d="M64.6254 109.52C68.9576 109.52 72.4695 106.008 72.4695 101.676C72.4695 97.3437 68.9576 93.8317 64.6254 93.8317C60.2932 93.8317 56.7812 97.3437 56.7812 101.676C56.7812 106.008 60.2932 109.52 64.6254 109.52Z" fill="white"/>
<path d="M381.633 223.058H372.523V232.167H381.633V223.058Z" fill="white"/>
<path d="M381.633 232.167C384.148 232.167 386.188 230.128 386.188 227.613C386.188 225.097 384.148 223.058 381.633 223.058C379.117 223.058 377.078 225.097 377.078 227.613C377.078 230.128 379.117 232.167 381.633 232.167Z" fill="white"/>
<path d="M377.078 227.613C379.594 227.613 381.633 225.573 381.633 223.058C381.633 220.542 379.594 218.503 377.078 218.503C374.563 218.503 372.523 220.542 372.523 223.058C372.523 225.573 374.563 227.613 377.078 227.613Z" fill="white"/>
<path d="M377.078 236.722C379.594 236.722 381.633 234.683 381.633 232.167C381.633 229.652 379.594 227.613 377.078 227.613C374.563 227.613 372.523 229.652 372.523 232.167C372.523 234.683 374.563 236.722 377.078 236.722Z" fill="white"/>
<path d="M372.523 232.167C375.039 232.167 377.078 230.128 377.078 227.613C377.078 225.097 375.039 223.058 372.523 223.058C370.008 223.058 367.969 225.097 367.969 227.613C367.969 230.128 370.008 232.167 372.523 232.167Z" fill="white"/>
<path d="M23.8711 276.473H14.7617V285.583H23.8711V276.473Z" fill="white"/>
<path d="M23.8711 285.583C26.3866 285.583 28.4258 283.544 28.4258 281.028C28.4258 278.513 26.3866 276.473 23.8711 276.473C21.3556 276.473 19.3164 278.513 19.3164 281.028C19.3164 283.544 21.3556 285.583 23.8711 285.583Z" fill="white"/>
<path d="M19.3164 281.028C21.8319 281.028 23.8711 278.989 23.8711 276.473C23.8711 273.958 21.8319 271.919 19.3164 271.919C16.8009 271.919 14.7617 273.958 14.7617 276.473C14.7617 278.989 16.8009 281.028 19.3164 281.028Z" fill="white"/>
<path d="M19.3164 290.138C21.8319 290.138 23.8711 288.098 23.8711 285.583C23.8711 283.067 21.8319 281.028 19.3164 281.028C16.8009 281.028 14.7617 283.067 14.7617 285.583C14.7617 288.098 16.8009 290.138 19.3164 290.138Z" fill="white"/>
<path d="M14.7617 285.583C17.2772 285.583 19.3164 283.544 19.3164 281.028C19.3164 278.513 17.2772 276.473 14.7617 276.473C12.2462 276.473 10.207 278.513 10.207 281.028C10.207 283.544 12.2462 285.583 14.7617 285.583Z" fill="white"/>
<path d="M368.944 9.53766H363.16V15.3218H368.944V9.53766Z" fill="white"/>
<path d="M368.944 15.3218C370.541 15.3218 371.836 14.027 371.836 12.4297C371.836 10.8325 370.541 9.53766 368.944 9.53766C367.347 9.53766 366.052 10.8325 366.052 12.4297C366.052 14.027 367.347 15.3218 368.944 15.3218Z" fill="white"/>
<path d="M366.052 12.4297C367.65 12.4297 368.944 11.1349 368.944 9.53766C368.944 7.9404 367.65 6.64557 366.052 6.64557C364.455 6.64557 363.16 7.9404 363.16 9.53766C363.16 11.1349 364.455 12.4297 366.052 12.4297Z" fill="white"/>
<path d="M366.052 18.2139C367.65 18.2139 368.944 16.9191 368.944 15.3218C368.944 13.7246 367.65 12.4297 366.052 12.4297C364.455 12.4297 363.16 13.7246 363.16 15.3218C363.16 16.9191 364.455 18.2139 366.052 18.2139Z" fill="white"/>
<path d="M363.16 15.3218C364.757 15.3218 366.052 14.027 366.052 12.4297C366.052 10.8325 364.757 9.53766 363.16 9.53766C361.562 9.53766 360.268 10.8325 360.268 12.4297C360.268 14.027 361.562 15.3218 363.16 15.3218Z" fill="white"/>
<path d="M47.0898 137.215H37.9805V146.324H47.0898V137.215Z" fill="white"/>
<path d="M47.0898 146.324C49.6053 146.324 51.6445 144.285 51.6445 141.77C51.6445 139.254 49.6053 137.215 47.0898 137.215C44.5744 137.215 42.5352 139.254 42.5352 141.77C42.5352 144.285 44.5744 146.324 47.0898 146.324Z" fill="white"/>
<path d="M42.5352 141.77C45.0506 141.77 47.0898 139.731 47.0898 137.215C47.0898 134.7 45.0506 132.66 42.5352 132.66C40.0197 132.66 37.9805 134.7 37.9805 137.215C37.9805 139.731 40.0197 141.77 42.5352 141.77Z" fill="white"/>
<path d="M42.5352 150.879C45.0506 150.879 47.0898 148.84 47.0898 146.324C47.0898 143.809 45.0506 141.77 42.5352 141.77C40.0197 141.77 37.9805 143.809 37.9805 146.324C37.9805 148.84 40.0197 150.879 42.5352 150.879Z" fill="white"/>
<path d="M37.9805 146.324C40.496 146.324 42.5352 144.285 42.5352 141.77C42.5352 139.254 40.496 137.215 37.9805 137.215C35.465 137.215 33.4258 139.254 33.4258 141.77C33.4258 144.285 35.465 146.324 37.9805 146.324Z" fill="white"/>
<path d="M323.498 52.6636H314.389V61.7729H323.498V52.6636Z" fill="white"/>
<path d="M323.498 61.7729C326.014 61.7729 328.053 59.7337 328.053 57.2182C328.053 54.7028 326.014 52.6636 323.498 52.6636C320.983 52.6636 318.943 54.7028 318.943 57.2182C318.943 59.7337 320.983 61.7729 323.498 61.7729Z" fill="white"/>
<path d="M318.943 57.2182C321.459 57.2182 323.498 55.179 323.498 52.6636C323.498 50.1481 321.459 48.1089 318.943 48.1089C316.428 48.1089 314.389 50.1481 314.389 52.6636C314.389 55.179 316.428 57.2182 318.943 57.2182Z" fill="white"/>
<path d="M318.943 66.3276C321.459 66.3276 323.498 64.2884 323.498 61.7729C323.498 59.2574 321.459 57.2182 318.943 57.2182C316.428 57.2182 314.389 59.2574 314.389 61.7729C314.389 64.2884 316.428 66.3276 318.943 66.3276Z" fill="white"/>
<path d="M314.389 61.7729C316.904 61.7729 318.943 59.7337 318.943 57.2182C318.943 54.7028 316.904 52.6636 314.389 52.6636C311.873 52.6636 309.834 54.7028 309.834 57.2182C309.834 59.7337 311.873 61.7729 314.389 61.7729Z" fill="white"/>
<path d="M294.766 320.642H279.811V335.597H294.766V320.642Z" fill="white"/>
<path d="M294.767 335.597C298.897 335.597 302.245 332.25 302.245 328.12C302.245 323.99 298.897 320.642 294.767 320.642C290.637 320.642 287.289 323.99 287.289 328.12C287.289 332.25 290.637 335.597 294.767 335.597Z" fill="white"/>
<path d="M287.288 328.12C291.418 328.12 294.766 324.772 294.766 320.642C294.766 316.512 291.418 313.164 287.288 313.164C283.158 313.164 279.811 316.512 279.811 320.642C279.811 324.772 283.158 328.12 287.288 328.12Z" fill="white"/>
<path d="M287.288 343.075C291.418 343.075 294.766 339.727 294.766 335.597C294.766 331.468 291.418 328.12 287.288 328.12C283.158 328.12 279.811 331.468 279.811 335.597C279.811 339.727 283.158 343.075 287.288 343.075Z" fill="white"/>
<path d="M279.811 335.597C283.941 335.597 287.289 332.25 287.289 328.12C287.289 323.99 283.941 320.642 279.811 320.642C275.681 320.642 272.333 323.99 272.333 328.12C272.333 332.25 275.681 335.597 279.811 335.597Z" fill="white"/>
<path d="M69.667 4.85156H60.5576V13.9609H69.667V4.85156Z" fill="white"/>
<path d="M69.667 13.9609C72.1825 13.9609 74.2217 11.9217 74.2217 9.40625C74.2217 6.89077 72.1825 4.85156 69.667 4.85156C67.1515 4.85156 65.1123 6.89077 65.1123 9.40625C65.1123 11.9217 67.1515 13.9609 69.667 13.9609Z" fill="white"/>
<path d="M65.1123 9.40625C67.6278 9.40625 69.667 7.36705 69.667 4.85156C69.667 2.33608 67.6278 0.296875 65.1123 0.296875C62.5968 0.296875 60.5576 2.33608 60.5576 4.85156C60.5576 7.36705 62.5968 9.40625 65.1123 9.40625Z" fill="white"/>
<path d="M65.1123 18.5156C67.6278 18.5156 69.667 16.4764 69.667 13.9609C69.667 11.4455 67.6278 9.40625 65.1123 9.40625C62.5968 9.40625 60.5576 11.4455 60.5576 13.9609C60.5576 16.4764 62.5968 18.5156 65.1123 18.5156Z" fill="white"/>
<path d="M60.5576 13.9609C63.0731 13.9609 65.1123 11.9217 65.1123 9.40625C65.1123 6.89077 63.0731 4.85156 60.5576 4.85156C58.0421 4.85156 56.0029 6.89077 56.0029 9.40625C56.0029 11.9217 58.0421 13.9609 60.5576 13.9609Z" fill="white"/>
</svg>
