<svg width="403" height="335" viewBox="0 0 403 335" fill="none" xmlns="http://www.w3.org/2000/svg">
<g filter="url(#filter0_d_201_2063)">
<g clip-path="url(#clip0_201_2063)">
<rect x="45.7588" y="266.447" width="338" height="76" rx="12" transform="rotate(-2.06 45.7588 266.447)" fill="url(#paint0_linear_201_2063)"/>
<path d="M82.1382 288.722C82.2023 287.375 84.1676 287.305 84.3283 288.644C84.4682 289.81 86.0933 289.974 86.4635 288.859C86.8886 287.58 88.8 288.042 88.5935 289.374C88.4137 290.535 89.9342 291.131 90.5914 290.158C91.346 289.04 93.0619 290.001 92.5035 291.229C92.0172 292.297 93.3205 293.282 94.2158 292.522C95.244 291.65 96.637 293.038 95.7682 294.069C95.0116 294.967 96.0008 296.267 97.068 295.777C98.2934 295.214 99.2604 296.926 98.1455 297.685C97.1746 298.346 97.7766 299.864 98.9364 299.68C100.268 299.469 100.737 301.378 99.4591 301.808C98.346 302.182 98.5159 303.807 99.6824 303.942C101.022 304.098 100.958 306.064 99.6115 306.133C98.4387 306.193 98.1641 307.803 99.2507 308.248C100.498 308.76 99.907 310.635 98.5916 310.338C97.446 310.08 96.7472 311.556 97.6734 312.278C98.7369 313.107 97.6613 314.753 96.4748 314.112C95.4415 313.554 94.3703 314.787 95.0673 315.733C95.8677 316.818 94.3878 318.113 93.4182 317.176C92.5738 316.36 91.2097 317.258 91.6258 318.356C92.1037 319.617 90.3293 320.465 89.6485 319.301C89.0556 318.287 87.4997 318.784 87.6042 319.954C87.7241 321.297 85.7868 321.634 85.4453 320.33C85.1479 319.194 83.5156 319.253 83.3006 320.407C83.0537 321.733 81.0971 321.535 81.1203 320.187C81.1404 319.013 79.5528 318.629 79.0343 319.683C78.4389 320.892 76.6082 320.174 76.9942 318.882C77.3304 317.757 75.9053 316.959 75.1217 317.834C74.2219 318.838 72.6528 317.653 73.3732 316.513C74.0005 315.52 72.8434 314.367 71.8529 314.998C70.7155 315.723 69.5245 314.158 70.5257 313.254C71.3975 312.468 70.5944 311.045 69.4705 311.386C68.1798 311.776 67.4551 309.948 68.6629 309.348C69.7147 308.826 69.3251 307.24 68.151 307.264C66.8028 307.292 66.5981 305.336 67.9229 305.085C69.0767 304.866 69.1295 303.233 67.9923 302.94C66.6865 302.603 67.0172 300.665 68.3608 300.78C69.5308 300.88 70.0221 299.322 69.0063 298.733C67.8398 298.056 68.6812 296.279 69.9439 296.752C71.0435 297.164 71.9369 295.797 71.1177 294.956C70.177 293.989 71.4667 292.505 72.5549 293.301C73.5025 293.995 74.7317 292.919 74.1699 291.888C73.5247 290.704 75.1672 289.622 76.0001 290.683C76.7255 291.606 78.1993 290.902 77.9365 289.758C77.6348 288.443 79.5081 287.845 80.0241 289.091C80.4734 290.176 82.0825 289.895 82.1382 288.722Z" fill="white"/>
<path d="M78.6795 308.698L78.6134 306.86L82.9608 299.433L84.5455 299.376L84.6371 301.921L83.6992 301.954L80.9592 306.657L80.9623 306.743L87.5114 306.507L87.5787 308.378L78.6795 308.698ZM84.0478 310.448L83.9579 307.947L83.9717 307.131L83.6939 299.407L85.8823 299.328L86.2794 310.367L84.0478 310.448Z" fill="black"/>
<path d="M124.914 310.565C123.767 310.606 122.741 310.487 121.835 310.206C120.929 309.93 120.157 309.502 119.517 308.924C118.877 308.35 118.38 307.638 118.026 306.787C117.672 305.936 117.474 304.961 117.435 303.861C117.396 302.776 117.522 301.786 117.814 300.89C118.109 299.994 118.558 299.219 119.16 298.564C119.763 297.905 120.509 297.389 121.398 297.015C122.292 296.641 123.317 296.433 124.474 296.392C125.545 296.353 126.506 296.475 127.358 296.758C128.214 297.04 128.945 297.46 129.552 298.017C130.162 298.571 130.634 299.239 130.968 300.022C131.305 300.802 131.489 301.671 131.52 302.631C131.548 303.292 131.512 303.901 131.413 304.459C131.315 305.017 131.145 305.507 130.905 305.929C130.668 306.348 130.349 306.685 129.948 306.94C129.547 307.192 129.056 307.345 128.475 307.398C128.06 307.446 127.721 307.427 127.459 307.343C127.197 307.259 126.994 307.128 126.851 306.949C126.711 306.767 126.617 306.553 126.569 306.307L126.504 306.309C126.425 306.528 126.264 306.73 126.018 306.915C125.773 307.096 125.471 307.242 125.111 307.352C124.755 307.458 124.374 307.506 123.967 307.496C123.542 307.486 123.136 307.402 122.749 307.243C122.365 307.084 122.02 306.846 121.714 306.53C121.411 306.213 121.166 305.817 120.98 305.342C120.798 304.866 120.693 304.312 120.667 303.68C120.648 303.055 120.716 302.507 120.872 302.037C121.031 301.567 121.249 301.169 121.525 300.843C121.805 300.516 122.119 300.256 122.469 300.064C122.818 299.871 123.171 299.744 123.529 299.68C123.933 299.605 124.317 299.591 124.682 299.639C125.048 299.687 125.357 299.775 125.609 299.902C125.866 300.03 126.028 300.171 126.094 300.327L126.17 300.325L126.148 299.721L127.835 299.66L128.025 304.921C128.037 305.169 128.1 305.359 128.212 305.492C128.325 305.624 128.473 305.687 128.656 305.681C128.904 305.672 129.107 305.555 129.264 305.33C129.425 305.104 129.539 304.764 129.605 304.308C129.675 303.852 129.698 303.274 129.673 302.573C129.648 301.898 129.537 301.308 129.339 300.804C129.144 300.297 128.881 299.869 128.548 299.521C128.219 299.17 127.84 298.888 127.411 298.677C126.983 298.466 126.52 298.317 126.024 298.23C125.532 298.144 125.027 298.11 124.509 298.128C123.615 298.161 122.838 298.325 122.179 298.622C121.521 298.916 120.977 299.315 120.549 299.82C120.121 300.325 119.808 300.91 119.609 301.575C119.413 302.237 119.327 302.955 119.351 303.727C119.386 304.579 119.531 305.329 119.789 305.978C120.049 306.624 120.418 307.161 120.894 307.59C121.37 308.019 121.95 308.337 122.634 308.542C123.317 308.748 124.098 308.835 124.975 308.803C125.388 308.789 125.791 308.743 126.184 308.668C126.577 308.596 126.932 308.512 127.249 308.414C127.566 308.32 127.82 308.23 128.011 308.144L128.601 309.688C128.379 309.825 128.076 309.957 127.692 310.082C127.312 310.211 126.88 310.318 126.398 310.404C125.919 310.493 125.424 310.547 124.914 310.565ZM124.49 305.701C124.929 305.686 125.274 305.589 125.527 305.41C125.783 305.232 125.961 304.976 126.061 304.641C126.164 304.303 126.203 303.889 126.178 303.401C126.159 302.97 126.09 302.607 125.971 302.313C125.856 302.014 125.667 301.793 125.402 301.648C125.142 301.499 124.783 301.432 124.327 301.449C123.928 301.463 123.591 301.56 123.317 301.739C123.046 301.918 122.843 302.162 122.707 302.473C122.574 302.78 122.513 303.139 122.524 303.548C122.541 303.929 122.615 304.288 122.746 304.625C122.877 304.959 123.083 305.227 123.363 305.429C123.644 305.627 124.02 305.718 124.49 305.701ZM135.576 307.154C135.048 307.173 134.574 307.098 134.154 306.929C133.734 306.757 133.397 306.494 133.143 306.14C132.893 305.782 132.758 305.33 132.738 304.784C132.721 304.324 132.792 303.934 132.95 303.616C133.107 303.297 133.328 303.037 133.612 302.836C133.897 302.635 134.222 302.48 134.589 302.369C134.959 302.259 135.348 302.177 135.756 302.122C136.236 302.055 136.623 301.994 136.916 301.94C137.209 301.883 137.42 301.807 137.55 301.712C137.679 301.618 137.741 301.482 137.735 301.306L137.734 301.274C137.721 300.933 137.604 300.672 137.382 300.493C137.163 300.314 136.858 300.231 136.466 300.246C136.053 300.26 135.727 300.364 135.49 300.556C135.252 300.744 135.098 300.977 135.029 301.253L132.899 301.156C132.989 300.65 133.185 300.207 133.488 299.829C133.791 299.448 134.189 299.149 134.681 298.933C135.177 298.714 135.755 298.593 136.416 298.569C136.876 298.552 137.319 298.59 137.743 298.683C138.171 298.775 138.552 298.929 138.887 299.144C139.226 299.358 139.497 299.64 139.701 299.989C139.904 300.334 140.014 300.753 140.032 301.245L140.233 306.829L138.055 306.908L138.014 305.76L137.949 305.762C137.825 306.026 137.656 306.26 137.44 306.466C137.224 306.668 136.962 306.83 136.653 306.953C136.345 307.072 135.986 307.139 135.576 307.154ZM136.176 305.545C136.514 305.533 136.81 305.456 137.064 305.313C137.318 305.168 137.514 304.977 137.653 304.742C137.792 304.506 137.857 304.243 137.846 303.952L137.815 303.074C137.744 303.123 137.647 303.17 137.523 303.214C137.402 303.254 137.265 303.293 137.111 303.331C136.958 303.365 136.804 303.398 136.651 303.429C136.497 303.456 136.358 303.481 136.232 303.503C135.964 303.552 135.731 303.624 135.533 303.717C135.335 303.811 135.183 303.933 135.077 304.084C134.971 304.232 134.921 304.414 134.929 304.629C134.94 304.942 135.062 305.177 135.295 305.334C135.53 305.487 135.824 305.558 136.176 305.545ZM141.716 298.486L144.012 298.403L144.325 307.092C144.348 307.732 144.241 308.254 144.004 308.658C143.766 309.063 143.416 309.365 142.952 309.565C142.491 309.765 141.936 309.877 141.285 309.9C141.206 309.903 141.131 309.904 141.059 309.903C140.983 309.906 140.904 309.907 140.821 309.906L140.757 308.111C140.818 308.113 140.872 308.113 140.918 308.111C140.962 308.113 141.008 308.113 141.059 308.111C141.429 308.098 141.685 308.009 141.826 307.846C141.972 307.686 142.039 307.45 142.028 307.137L141.716 298.486ZM142.821 297.378C142.483 297.39 142.188 297.287 141.935 297.069C141.682 296.848 141.55 296.578 141.539 296.258C141.527 295.942 141.64 295.666 141.876 295.431C142.112 295.192 142.399 295.067 142.737 295.054C143.082 295.042 143.379 295.146 143.628 295.368C143.88 295.585 144.012 295.852 144.024 296.168C144.035 296.488 143.923 296.768 143.687 297.006C143.454 297.241 143.165 297.365 142.821 297.378ZM148.516 306.688C147.988 306.707 147.514 306.632 147.094 306.464C146.674 306.292 146.337 306.029 146.084 305.674C145.833 305.316 145.698 304.864 145.679 304.318C145.662 303.858 145.732 303.469 145.89 303.15C146.048 302.831 146.269 302.571 146.553 302.371C146.837 302.17 147.163 302.014 147.529 301.904C147.899 301.793 148.289 301.711 148.697 301.657C149.177 301.589 149.563 301.528 149.856 301.474C150.149 301.417 150.36 301.341 150.49 301.247C150.62 301.152 150.682 301.017 150.675 300.84L150.674 300.808C150.662 300.467 150.544 300.207 150.322 300.027C150.103 299.848 149.798 299.766 149.407 299.78C148.993 299.795 148.668 299.898 148.43 300.09C148.192 300.279 148.039 300.511 147.969 300.787L145.839 300.691C145.929 300.184 146.125 299.741 146.428 299.363C146.731 298.982 147.129 298.683 147.621 298.468C148.117 298.248 148.696 298.127 149.357 298.103C149.817 298.086 150.259 298.125 150.683 298.217C151.111 298.31 151.493 298.463 151.828 298.678C152.167 298.892 152.438 299.174 152.641 299.523C152.844 299.868 152.955 300.287 152.972 300.779L153.173 306.364L150.996 306.442L150.954 305.294L150.89 305.296C150.766 305.56 150.596 305.794 150.381 306C150.165 306.202 149.903 306.364 149.594 306.487C149.285 306.606 148.926 306.673 148.516 306.688ZM149.117 305.079C149.455 305.067 149.751 304.99 150.005 304.848C150.258 304.702 150.455 304.511 150.594 304.276C150.733 304.041 150.797 303.778 150.787 303.486L150.755 302.608C150.685 302.657 150.588 302.704 150.463 302.748C150.342 302.788 150.205 302.827 150.052 302.865C149.898 302.9 149.745 302.932 149.591 302.963C149.438 302.99 149.298 303.015 149.173 303.037C148.905 303.086 148.672 303.158 148.474 303.251C148.275 303.345 148.123 303.467 148.017 303.619C147.911 303.766 147.862 303.948 147.87 304.164C147.881 304.476 148.003 304.711 148.235 304.868C148.471 305.022 148.765 305.092 149.117 305.079ZM156.188 309.364C155.897 309.374 155.623 309.361 155.366 309.323C155.113 309.289 154.902 309.241 154.734 309.179L155.19 307.446C155.463 307.519 155.707 307.555 155.923 307.555C156.142 307.554 156.329 307.497 156.483 307.383C156.641 307.27 156.766 307.082 156.857 306.819L156.979 306.464L153.703 298.055L156.117 297.968L158.05 303.986L158.137 303.983L159.648 297.841L162.079 297.753L159.191 307.043C159.053 307.494 158.857 307.89 158.602 308.23C158.352 308.574 158.029 308.842 157.633 309.037C157.237 309.234 156.755 309.343 156.188 309.364Z" fill="black"/>
<path d="M324.323 300.022C323.725 300.04 323.144 299.96 322.581 299.784C322.021 299.607 321.513 299.305 321.058 298.878C320.603 298.45 320.234 297.876 319.95 297.155C319.67 296.433 319.511 295.541 319.473 294.477C319.442 293.5 319.522 292.624 319.714 291.848C319.909 291.067 320.204 290.401 320.597 289.849C320.994 289.296 321.477 288.869 322.046 288.568C322.615 288.264 323.259 288.098 323.978 288.072C324.754 288.044 325.445 288.171 326.05 288.453C326.655 288.73 327.147 289.12 327.525 289.622C327.907 290.124 328.147 290.693 328.246 291.33L325.822 291.417C325.712 291.016 325.502 290.705 325.191 290.485C324.88 290.265 324.501 290.163 324.054 290.179C323.297 290.206 322.734 290.556 322.364 291.229C321.997 291.902 321.831 292.804 321.864 293.936L321.944 293.933C322.105 293.583 322.33 293.281 322.616 293.028C322.906 292.771 323.238 292.572 323.612 292.429C323.99 292.283 324.391 292.202 324.815 292.187C325.503 292.162 326.123 292.303 326.672 292.609C327.221 292.912 327.661 293.339 327.992 293.892C328.322 294.445 328.501 295.085 328.527 295.811C328.555 296.599 328.397 297.306 328.052 297.932C327.71 298.559 327.218 299.058 326.576 299.429C325.937 299.797 325.187 299.995 324.323 300.022ZM324.242 298.092C324.621 298.078 324.957 297.975 325.249 297.783C325.542 297.59 325.767 297.336 325.927 297.019C326.086 296.703 326.158 296.352 326.144 295.965C326.131 295.579 326.033 295.236 325.852 294.936C325.674 294.635 325.434 294.399 325.132 294.228C324.831 294.057 324.49 293.978 324.112 293.992C323.828 294.002 323.567 294.065 323.328 294.179C323.094 294.294 322.889 294.449 322.714 294.645C322.543 294.841 322.411 295.065 322.318 295.319C322.224 295.568 322.183 295.833 322.193 296.113C322.206 296.488 322.304 296.828 322.485 297.132C322.67 297.436 322.914 297.676 323.216 297.85C323.522 298.025 323.864 298.106 324.242 298.092ZM334.193 287.705C334.792 287.683 335.371 287.763 335.93 287.944C336.494 288.124 337.002 288.426 337.453 288.85C337.908 289.273 338.275 289.843 338.555 290.561C338.838 291.275 339.001 292.158 339.042 293.21C339.078 294.198 338.998 295.084 338.803 295.868C338.611 296.648 338.318 297.316 337.925 297.872C337.532 298.429 337.049 298.859 336.476 299.164C335.904 299.465 335.257 299.629 334.538 299.655C333.762 299.683 333.072 299.558 332.467 299.28C331.861 298.999 331.368 298.605 330.986 298.1C330.607 297.59 330.369 297.011 330.269 296.363L332.694 296.276C332.804 296.696 333.014 297.018 333.326 297.242C333.637 297.462 334.016 297.564 334.462 297.548C335.22 297.521 335.783 297.171 336.153 296.498C336.523 295.821 336.689 294.907 336.651 293.757L336.572 293.759C336.41 294.106 336.186 294.408 335.899 294.665C335.613 294.918 335.281 295.117 334.903 295.264C334.53 295.41 334.129 295.49 333.701 295.506C333.016 295.531 332.399 295.392 331.85 295.089C331.3 294.787 330.861 294.359 330.53 293.806C330.199 293.253 330.021 292.616 329.995 291.893C329.963 291.113 330.118 290.412 330.459 289.789C330.801 289.167 331.291 288.671 331.929 288.304C332.572 287.932 333.326 287.732 334.193 287.705ZM334.28 289.635C333.898 289.648 333.56 289.752 333.268 289.944C332.979 290.136 332.753 290.389 332.59 290.702C332.431 291.015 332.36 291.36 332.377 291.739C332.391 292.121 332.487 292.462 332.664 292.763C332.845 293.06 333.085 293.294 333.383 293.465C333.685 293.632 334.025 293.709 334.403 293.695C334.687 293.685 334.948 293.623 335.187 293.508C335.425 293.393 335.63 293.24 335.801 293.048C335.976 292.852 336.11 292.629 336.204 292.38C336.297 292.13 336.339 291.867 336.329 291.591C336.312 291.224 336.213 290.89 336.031 290.589C335.85 290.289 335.606 290.051 335.301 289.876C334.995 289.702 334.655 289.621 334.28 289.635ZM344.807 302.401L344.375 290.408L346.76 290.323L346.813 291.788L346.921 291.784C347.018 291.545 347.163 291.301 347.355 291.052C347.551 290.798 347.808 290.584 348.128 290.41C348.451 290.231 348.857 290.133 349.345 290.116C349.981 290.093 350.574 290.238 351.124 290.552C351.673 290.862 352.121 291.344 352.466 291.999C352.812 292.65 353.003 293.475 353.039 294.474C353.074 295.447 352.946 296.274 352.656 296.956C352.37 297.633 351.964 298.154 351.439 298.518C350.917 298.877 350.325 299.069 349.663 299.093C349.193 299.11 348.791 299.047 348.456 298.903C348.125 298.76 347.851 298.575 347.635 298.347C347.418 298.116 347.25 297.882 347.132 297.643L347.058 297.646L347.226 302.314L344.807 302.401ZM346.9 294.684C346.919 295.203 347.007 295.652 347.165 296.033C347.323 296.414 347.542 296.708 347.822 296.914C348.102 297.116 348.437 297.21 348.827 297.196C349.221 297.182 349.55 297.062 349.815 296.836C350.079 296.607 350.275 296.297 350.401 295.905C350.531 295.51 350.586 295.059 350.568 294.552C350.55 294.048 350.464 293.608 350.31 293.231C350.156 292.854 349.939 292.562 349.659 292.356C349.379 292.15 349.04 292.054 348.642 292.068C348.249 292.083 347.919 292.199 347.654 292.417C347.393 292.635 347.197 292.937 347.067 293.325C346.937 293.712 346.881 294.165 346.9 294.684ZM359.133 289.877L359.198 291.694L353.946 291.883L353.881 290.066L359.133 289.877ZM354.998 287.934L357.417 287.847L357.709 295.978C357.717 296.201 357.758 296.374 357.83 296.497C357.903 296.615 358.001 296.697 358.123 296.742C358.25 296.787 358.395 296.806 358.558 296.8C358.671 296.796 358.784 296.782 358.897 296.759C359.01 296.733 359.097 296.712 359.157 296.699L359.602 298.485C359.482 298.527 359.313 298.577 359.096 298.634C358.878 298.695 358.612 298.737 358.298 298.76C357.716 298.803 357.202 298.744 356.757 298.582C356.315 298.42 355.966 298.156 355.711 297.79C355.455 297.423 355.319 296.955 355.302 296.383L354.998 287.934ZM367.945 292.05L365.736 292.266C365.691 292.078 365.604 291.911 365.473 291.764C365.343 291.613 365.174 291.496 364.966 291.413C364.762 291.325 364.52 291.287 364.24 291.297C363.865 291.31 363.552 291.401 363.3 291.569C363.048 291.734 362.927 291.947 362.937 292.208C362.944 292.416 363.034 292.589 363.205 292.727C363.377 292.865 363.667 292.97 364.075 293.042L365.665 293.304C366.519 293.447 367.162 293.705 367.592 294.076C368.022 294.447 368.249 294.947 368.271 295.575C368.292 296.147 368.141 296.654 367.82 297.098C367.503 297.541 367.057 297.895 366.482 298.158C365.912 298.417 365.248 298.561 364.491 298.588C363.336 298.629 362.408 298.422 361.705 297.966C361.007 297.506 360.583 296.862 360.436 296.033L362.811 295.823C362.895 296.172 363.079 296.435 363.362 296.61C363.645 296.782 364.002 296.86 364.434 296.844C364.858 296.829 365.196 296.736 365.447 296.564C365.702 296.388 365.827 296.169 365.821 295.908C365.81 295.688 365.711 295.512 365.524 295.378C365.337 295.241 365.053 295.141 364.672 295.079L363.15 294.833C362.293 294.693 361.648 294.42 361.216 294.015C360.789 293.61 360.563 293.082 360.54 292.431C360.519 291.87 360.653 291.382 360.942 290.966C361.234 290.55 361.652 290.222 362.197 289.983C362.745 289.743 363.393 289.61 364.138 289.583C365.24 289.544 366.115 289.745 366.764 290.188C367.417 290.631 367.811 291.252 367.945 292.05Z" fill="black"/>
<rect x="303.411" y="205.708" width="17.0971" height="142.153" transform="rotate(31.5612 303.411 205.708)" fill="white" fill-opacity="0.6"/>
<rect x="328.677" y="213.329" width="17.0971" height="142.153" transform="rotate(31.5612 328.677 213.329)" fill="white" fill-opacity="0.6"/>
</g>
<rect x="47.4564" y="268.026" width="334.721" height="72.7206" rx="10.3603" transform="rotate(-2.06 47.4564 268.026)" stroke="url(#paint1_linear_201_2063)" stroke-width="3.27936"/>
</g>
<g filter="url(#filter1_d_201_2063)">
<g clip-path="url(#clip1_201_2063)">
<rect x="10.2041" y="169.231" width="338" height="76" rx="12" transform="rotate(3.55 10.2041 169.231)" fill="url(#paint2_linear_201_2063)"/>
<rect x="145.66" y="147.631" width="17.0971" height="142.153" transform="rotate(-4.14856 145.66 147.631)" fill="white" fill-opacity="0.6"/>
<rect x="170.625" y="139.072" width="17.0971" height="142.153" transform="rotate(-4.14856 170.625 139.072)" fill="white" fill-opacity="0.6"/>
<path d="M44.7363 194.712C44.9317 193.378 46.8945 193.499 46.9235 194.848C46.9488 196.022 48.55 196.344 49.0274 195.271C49.5756 194.039 51.4327 194.686 51.0969 195.992C50.8045 197.129 52.2594 197.871 53.0086 196.967C53.8688 195.929 55.4826 197.052 54.8069 198.219C54.2185 199.236 55.4192 200.343 56.3846 199.674C57.4931 198.906 58.7438 200.424 57.7783 201.365C56.9375 202.185 57.795 203.575 58.9049 203.192C60.1795 202.752 60.9744 204.55 59.7907 205.196C58.7599 205.759 59.2105 207.329 60.3828 207.259C61.7289 207.179 62.0091 209.125 60.695 209.428C59.5506 209.692 59.5609 211.325 60.7086 211.574C62.0264 211.86 61.771 213.81 60.4239 213.747C59.2509 213.692 58.8202 215.268 59.858 215.817C61.0498 216.448 60.2778 218.257 58.9977 217.833C57.883 217.463 57.0432 218.864 57.8943 219.673C58.8717 220.602 57.6403 222.136 56.5221 221.382C55.5484 220.726 54.3617 221.848 54.963 222.857C55.6535 224.015 54.0541 225.159 53.1807 224.132C52.4202 223.237 50.9747 223.998 51.2816 225.131C51.6339 226.433 49.7851 227.103 49.2213 225.878C48.7304 224.811 47.1334 225.154 47.123 226.328C47.1111 227.676 45.15 227.823 44.9377 226.491C44.7527 225.332 43.1225 225.231 42.7957 226.358C42.4204 227.654 40.4925 227.266 40.6473 225.926C40.7822 224.76 39.2397 224.222 38.6207 225.22C37.9098 226.366 36.1581 225.473 36.6686 224.225C37.1132 223.138 35.7728 222.204 34.9075 222.998C33.9139 223.91 32.4682 222.577 33.2965 221.512C34.0178 220.586 32.979 219.325 31.9316 219.856C30.7289 220.466 29.6964 218.792 30.7812 217.991C31.7258 217.294 31.0656 215.8 29.9137 216.028C28.591 216.291 28.0485 214.401 29.3091 213.922C30.4069 213.505 30.1743 211.888 29.0034 211.798C27.6589 211.694 27.6465 209.727 28.9895 209.606C30.1591 209.501 30.3713 207.882 29.2683 207.478C28.0017 207.016 28.5202 205.119 29.8461 205.365C31.0008 205.579 31.642 204.077 30.6886 203.391C29.5939 202.603 30.605 200.917 31.8154 201.511C32.8695 202.029 33.8922 200.755 33.1592 199.838C32.3174 198.784 33.7461 197.433 34.7512 198.332C35.6265 199.115 36.9549 198.165 36.4966 197.083C35.9703 195.842 37.7106 194.926 38.4359 196.063C39.0675 197.053 40.6031 196.496 40.4535 195.331C40.2817 193.994 42.2045 193.582 42.5962 194.872C42.9373 195.996 44.5661 195.874 44.7363 194.712Z" fill="white"/>
<path d="M45.4447 216.801C44.6408 216.751 43.9334 216.568 43.3225 216.253C42.7154 215.934 42.2457 215.52 41.9136 215.009C41.5852 214.495 41.4355 213.917 41.4646 213.274L43.8117 213.419C43.8094 213.689 43.8826 213.932 44.0314 214.146C44.184 214.357 44.3933 214.527 44.6591 214.655C44.925 214.783 45.2284 214.858 45.5693 214.879C45.9246 214.901 46.2426 214.858 46.5231 214.749C46.8037 214.641 47.028 214.48 47.1961 214.267C47.3642 214.054 47.4573 213.802 47.4754 213.511C47.4936 213.217 47.4272 212.952 47.2761 212.715C47.1289 212.476 46.9068 212.282 46.6097 212.134C46.3163 211.986 45.9614 211.899 45.5451 211.873L44.5169 211.809L44.6231 210.097L45.6513 210.161C46.003 210.183 46.3172 210.141 46.5939 210.036C46.8743 209.931 47.0965 209.775 47.2606 209.569C47.4249 209.36 47.5161 209.11 47.5341 208.819C47.5512 208.543 47.4999 208.296 47.38 208.08C47.2639 207.86 47.0911 207.684 46.8616 207.551C46.6357 207.418 46.3666 207.341 46.0544 207.322C45.7386 207.303 45.4461 207.342 45.177 207.441C44.9081 207.536 44.6882 207.682 44.5174 207.881C44.3466 208.079 44.2471 208.318 44.219 208.597L41.9849 208.458C42.0351 207.824 42.251 207.275 42.6328 206.813C43.0146 206.35 43.5118 206.001 44.1245 205.765C44.741 205.526 45.426 205.43 46.1797 205.476C46.9405 205.524 47.5977 205.703 48.1512 206.015C48.7047 206.326 49.1248 206.727 49.4114 207.217C49.7019 207.703 49.8273 208.237 49.7876 208.818C49.7529 209.436 49.529 209.939 49.1158 210.328C48.7061 210.716 48.1892 210.947 47.5651 211.02L47.5597 211.106C48.3643 211.261 48.9641 211.581 49.3591 212.067C49.7579 212.549 49.9343 213.133 49.8882 213.818C49.8528 214.446 49.6369 214.993 49.2406 215.458C48.8478 215.924 48.3234 216.277 47.6672 216.517C47.011 216.757 46.2702 216.852 45.4447 216.801Z" fill="black"/>
<path d="M85.1719 220.631C84.027 220.56 83.0175 220.341 82.1432 219.973C81.2687 219.609 80.5414 219.108 79.9613 218.47C79.3809 217.836 78.956 217.079 78.6864 216.197C78.4168 215.316 78.3161 214.326 78.3842 213.228C78.4514 212.144 78.6739 211.171 79.0516 210.308C79.433 209.445 79.9554 208.718 80.6191 208.125C81.2829 207.528 82.0759 207.087 82.9978 206.802C83.9233 206.517 84.9639 206.411 86.1195 206.482C87.189 206.549 88.134 206.764 88.9544 207.128C89.7785 207.493 90.465 207.982 91.0142 208.596C91.5672 209.207 91.9716 209.918 92.2275 210.73C92.4871 211.539 92.5855 212.423 92.5225 213.381C92.4851 214.041 92.3901 214.644 92.2374 215.189C92.0846 215.735 91.8681 216.206 91.5877 216.603C91.3111 216.996 90.9608 217.301 90.5367 217.516C90.1129 217.727 89.6093 217.831 89.0259 217.827C88.6076 217.834 88.2721 217.782 88.0195 217.673C87.7669 217.564 87.5781 217.413 87.453 217.222C87.3318 217.027 87.2592 216.805 87.235 216.554L87.1704 216.55C87.0709 216.76 86.8901 216.946 86.628 217.106C86.3661 217.263 86.0509 217.378 85.6824 217.453C85.3177 217.524 84.9334 217.534 84.5294 217.484C84.1075 217.432 83.7117 217.309 83.3419 217.113C82.9758 216.917 82.6557 216.647 82.3817 216.302C82.1112 215.957 81.9066 215.54 81.7677 215.048C81.6324 214.557 81.5826 213.995 81.6182 213.364C81.6605 212.739 81.7821 212.201 81.9831 211.749C82.1877 211.297 82.4433 210.922 82.75 210.624C83.0603 210.326 83.3987 210.098 83.7651 209.941C84.1315 209.783 84.4957 209.691 84.8577 209.663C85.2671 209.627 85.6511 209.651 86.0098 209.734C86.3685 209.818 86.6674 209.935 86.9066 210.087C87.1493 210.239 87.2963 210.396 87.3475 210.558L87.4229 210.562L87.4603 209.959L89.1453 210.064L88.8194 215.318C88.8077 215.566 88.8514 215.761 88.9506 215.904C89.0498 216.047 89.1909 216.125 89.374 216.136C89.6216 216.151 89.8347 216.055 90.0134 215.846C90.1957 215.637 90.3421 215.31 90.4527 214.863C90.5669 214.416 90.6456 213.842 90.689 213.143C90.7309 212.468 90.6779 211.87 90.53 211.349C90.386 210.825 90.1654 210.374 89.8683 209.995C89.5749 209.613 89.2253 209.296 88.8194 209.044C88.4136 208.792 87.968 208.598 87.4828 208.464C87.0012 208.329 86.5019 208.246 85.9851 208.214C85.0915 208.159 84.3025 208.247 83.618 208.478C82.9338 208.706 82.354 209.05 81.8787 209.51C81.4035 209.971 81.0342 210.523 80.7709 211.166C80.5115 211.805 80.3561 212.511 80.3046 213.282C80.2555 214.133 80.3272 214.894 80.5197 215.565C80.7161 216.233 81.0302 216.804 81.4619 217.277C81.8937 217.751 82.4398 218.123 83.1003 218.395C83.7608 218.666 84.5289 218.829 85.4045 218.884C85.8173 218.909 86.2229 218.904 86.6215 218.867C87.0198 218.834 87.3813 218.785 87.7061 218.718C88.0306 218.656 88.2922 218.591 88.4909 218.524L88.9271 220.118C88.693 220.233 88.3787 220.334 87.9842 220.422C87.593 220.513 87.1531 220.577 86.6644 220.615C86.179 220.657 85.6815 220.662 85.1719 220.631ZM85.2261 215.749C85.6639 215.776 86.0172 215.713 86.2861 215.561C86.5586 215.408 86.7606 215.17 86.8924 214.847C87.0279 214.521 87.1072 214.113 87.1303 213.624C87.1534 213.193 87.1204 212.826 87.0312 212.521C86.9458 212.213 86.7787 211.974 86.5299 211.804C86.2849 211.63 85.9345 211.529 85.4787 211.501C85.0803 211.476 84.7359 211.539 84.4455 211.691C84.1587 211.842 83.9323 212.066 83.7662 212.362C83.604 212.655 83.5084 213.005 83.4794 213.414C83.4594 213.795 83.4981 214.159 83.5954 214.508C83.6929 214.852 83.8714 215.139 84.1311 215.368C84.3909 215.593 84.7559 215.72 85.2261 215.749ZM98.6792 209.98L98.5723 211.702L93.5927 211.393L93.6996 209.671L98.6792 209.98ZM94.9529 207.76L97.2462 207.902L96.7682 215.611C96.755 215.823 96.7771 215.99 96.8343 216.112C96.8918 216.231 96.9765 216.317 97.0885 216.371C97.204 216.425 97.339 216.457 97.4933 216.466C97.601 216.473 97.7092 216.471 97.818 216.46C97.927 216.445 98.0105 216.434 98.0686 216.426L98.3234 218.155C98.2064 218.184 98.0423 218.215 97.8313 218.249C97.62 218.286 97.3651 218.301 97.0665 218.294C96.5125 218.281 96.0326 218.177 95.6267 217.983C95.2245 217.788 94.9195 217.507 94.7119 217.137C94.5042 216.767 94.419 216.312 94.4562 215.77L94.9529 207.76ZM105.181 215.149L105.476 210.401L107.769 210.543L107.256 218.812L105.054 218.675L105.147 217.174L105.061 217.168C104.845 217.641 104.51 218.011 104.058 218.279C103.609 218.546 103.074 218.661 102.453 218.622C101.9 218.588 101.422 218.432 101.017 218.155C100.613 217.878 100.307 217.5 100.099 217.023C99.8941 216.545 99.8101 215.983 99.8465 215.337L100.173 210.072L102.466 210.214L102.165 215.07C102.139 215.558 102.246 215.952 102.486 216.252C102.727 216.551 103.065 216.715 103.499 216.742C103.775 216.759 104.038 216.712 104.286 216.601C104.534 216.487 104.74 216.309 104.903 216.067C105.069 215.825 105.162 215.519 105.181 215.149ZM109.09 218.926L109.603 210.657L111.789 210.793L111.698 212.251L111.795 212.257C111.998 211.784 112.308 211.419 112.728 211.164C113.147 210.909 113.637 210.799 114.197 210.834C114.764 210.869 115.237 211.041 115.618 211.349C115.999 211.653 116.241 212.05 116.344 212.54L116.43 212.545C116.628 212.082 116.957 211.722 117.416 211.466C117.879 211.206 118.413 211.095 119.02 211.133C119.792 211.181 120.403 211.465 120.853 211.987C121.307 212.505 121.507 213.213 121.451 214.11L121.106 219.671L118.818 219.529L119.135 214.42C119.163 213.961 119.063 213.609 118.833 213.364C118.603 213.119 118.305 212.985 117.939 212.963C117.523 212.937 117.19 213.049 116.94 213.301C116.691 213.548 116.552 213.887 116.526 214.318L116.213 219.367L113.989 219.23L114.309 214.072C114.334 213.667 114.238 213.337 114.019 213.082C113.805 212.827 113.509 212.688 113.132 212.665C112.877 212.649 112.643 212.699 112.431 212.816C112.222 212.929 112.051 213.097 111.919 213.319C111.786 213.538 111.711 213.8 111.692 214.105L111.384 219.068L109.09 218.926ZM122.918 219.783L123.43 211.514L125.724 211.657L125.211 219.925L122.918 219.783ZM124.648 210.52C124.308 210.499 124.022 210.368 123.792 210.126C123.566 209.882 123.463 209.6 123.482 209.28C123.502 208.965 123.639 208.701 123.894 208.49C124.152 208.275 124.451 208.179 124.792 208.2C125.133 208.221 125.417 208.354 125.643 208.598C125.873 208.84 125.978 209.118 125.959 209.434C125.939 209.753 125.8 210.02 125.542 210.235C125.287 210.446 124.989 210.541 124.648 210.52ZM129.638 215.401L129.341 220.182L127.048 220.039L127.561 211.771L129.746 211.906L129.656 213.365L129.753 213.371C129.966 212.901 130.296 212.54 130.744 212.287C131.192 212.03 131.723 211.921 132.337 211.959C132.911 211.994 133.404 212.151 133.816 212.429C134.227 212.706 134.537 213.086 134.745 213.567C134.953 214.045 135.037 214.605 134.997 215.247L134.671 220.512L132.377 220.37L132.679 215.514C132.714 215.008 132.609 214.606 132.364 214.306C132.12 214.002 131.768 213.836 131.309 213.808C131 213.789 130.724 213.838 130.478 213.956C130.237 214.075 130.042 214.257 129.893 214.504C129.748 214.747 129.663 215.046 129.638 215.401ZM136.435 220.622L136.52 219.254L140.879 214.493L140.883 214.434L136.974 214.192L137.088 212.361L143.758 212.775L143.665 214.266L139.562 218.919L139.558 218.978L143.498 219.222L143.385 221.053L136.435 220.622ZM148.66 221.542C147.809 221.489 147.088 221.271 146.496 220.889C145.907 220.503 145.468 219.982 145.177 219.326C144.886 218.667 144.768 217.901 144.822 217.029C144.875 216.179 145.086 215.442 145.456 214.82C145.826 214.198 146.322 213.727 146.944 213.405C147.569 213.083 148.287 212.948 149.098 212.998C149.644 213.032 150.146 213.151 150.605 213.356C151.068 213.558 151.465 213.844 151.795 214.214C152.129 214.584 152.378 215.039 152.542 215.579C152.707 216.115 152.768 216.735 152.724 217.438L152.685 218.068L145.703 217.635L145.791 216.214L150.615 216.513C150.635 216.183 150.582 215.886 150.454 215.622C150.326 215.358 150.139 215.147 149.893 214.988C149.651 214.825 149.363 214.733 149.03 214.712C148.681 214.691 148.368 214.752 148.089 214.897C147.813 215.039 147.592 215.239 147.424 215.499C147.257 215.755 147.162 216.047 147.138 216.373L147.054 217.724C147.029 218.133 147.082 218.492 147.214 218.799C147.35 219.106 147.553 219.349 147.823 219.528C148.093 219.707 148.42 219.808 148.804 219.832C149.059 219.848 149.294 219.827 149.51 219.768C149.727 219.709 149.914 219.613 150.074 219.479C150.234 219.344 150.36 219.176 150.451 218.972L152.564 219.244C152.424 219.747 152.176 220.178 151.819 220.538C151.465 220.894 151.02 221.162 150.483 221.341C149.95 221.517 149.342 221.584 148.66 221.542ZM157.72 222.104C156.87 222.051 156.148 221.833 155.556 221.451C154.967 221.065 154.528 220.544 154.237 219.888C153.946 219.229 153.828 218.463 153.882 217.591C153.935 216.74 154.146 216.004 154.516 215.382C154.886 214.76 155.382 214.289 156.004 213.967C156.629 213.645 157.347 213.51 158.158 213.56C158.704 213.594 159.206 213.713 159.665 213.918C160.128 214.12 160.525 214.406 160.855 214.776C161.189 215.146 161.438 215.601 161.603 216.141C161.767 216.677 161.828 217.297 161.784 218L161.745 218.63L154.763 218.197L154.851 216.776L159.675 217.075C159.695 216.745 159.642 216.448 159.514 216.184C159.386 215.92 159.199 215.709 158.953 215.549C158.711 215.387 158.423 215.295 158.09 215.274C157.742 215.253 157.428 215.314 157.149 215.459C156.873 215.601 156.652 215.801 156.485 216.061C156.317 216.317 156.222 216.608 156.198 216.935L156.114 218.286C156.089 218.695 156.142 219.053 156.274 219.361C156.41 219.668 156.613 219.911 156.883 220.09C157.153 220.269 157.48 220.37 157.864 220.394C158.119 220.41 158.354 220.388 158.571 220.33C158.787 220.271 158.975 220.175 159.134 220.041C159.294 219.906 159.42 219.738 159.512 219.534L161.624 219.806C161.485 220.309 161.236 220.74 160.879 221.1C160.525 221.456 160.08 221.724 159.543 221.903C159.01 222.079 158.402 222.146 157.72 222.104Z" fill="black"/>
<path d="M269.278 228.519L269.387 226.75L273.759 223.178C274.131 222.86 274.445 222.572 274.7 222.315C274.959 222.057 275.159 221.802 275.3 221.549C275.441 221.292 275.521 221.011 275.54 220.704C275.561 220.364 275.502 220.066 275.362 219.811C275.223 219.552 275.023 219.348 274.763 219.199C274.503 219.046 274.203 218.959 273.862 218.938C273.507 218.916 273.193 218.969 272.919 219.096C272.645 219.223 272.428 219.416 272.268 219.676C272.108 219.936 272.016 220.251 271.993 220.621L269.662 220.476C269.71 219.717 269.923 219.068 270.301 218.529C270.68 217.991 271.189 217.588 271.828 217.32C272.467 217.053 273.191 216.944 274 216.994C274.832 217.046 275.547 217.238 276.145 217.571C276.747 217.901 277.203 218.335 277.515 218.874C277.827 219.414 277.962 220.018 277.921 220.687C277.894 221.125 277.78 221.553 277.58 221.969C277.383 222.386 277.049 222.842 276.578 223.336C276.108 223.827 275.451 224.41 274.608 225.087L272.81 226.643L272.805 226.723L277.682 227.025L277.557 229.033L269.278 228.519ZM279.038 227.075L279.158 225.141L284.48 217.803L286.147 217.907L285.981 220.583L284.994 220.522L281.638 225.17L281.632 225.261L288.522 225.688L288.4 227.656L279.038 227.075ZM284.486 229.462L284.649 226.831L284.747 225.978L285.251 217.851L287.554 217.994L286.833 229.608L284.486 229.462ZM294.448 230.336C293.473 230.272 292.648 229.98 291.975 229.46C291.305 228.94 290.809 228.217 290.487 227.29C290.168 226.363 290.051 225.265 290.133 223.995C290.212 222.728 290.466 221.66 290.895 220.791C291.329 219.923 291.91 219.277 292.638 218.856C293.37 218.43 294.222 218.248 295.194 218.308C296.165 218.369 296.986 218.655 297.657 219.167C298.331 219.679 298.829 220.393 299.152 221.309C299.475 222.221 299.595 223.31 299.513 224.576C299.434 225.85 299.177 226.927 298.743 227.808C298.313 228.688 297.733 229.345 297.004 229.778C296.275 230.211 295.423 230.397 294.448 230.336ZM294.574 228.3C295.239 228.342 295.791 228.04 296.23 227.396C296.668 226.751 296.927 225.759 297.006 224.421C297.061 223.54 297.016 222.801 296.871 222.204C296.729 221.607 296.503 221.15 296.193 220.835C295.886 220.52 295.511 220.349 295.069 220.321C294.407 220.28 293.857 220.578 293.419 221.215C292.981 221.852 292.72 222.83 292.634 224.15C292.579 225.042 292.621 225.792 292.762 226.401C292.907 227.005 293.134 227.467 293.445 227.786C293.755 228.102 294.132 228.273 294.574 228.3ZM304.42 233.978L305.163 222.001L307.545 222.148L307.454 223.611L307.562 223.618C307.682 223.39 307.85 223.162 308.066 222.932C308.285 222.699 308.562 222.511 308.898 222.369C309.237 222.223 309.65 222.165 310.138 222.195C310.773 222.235 311.349 222.437 311.865 222.803C312.381 223.166 312.78 223.689 313.06 224.375C313.34 225.056 313.449 225.896 313.387 226.894C313.327 227.866 313.119 228.676 312.764 229.326C312.413 229.972 311.958 230.451 311.4 230.761C310.846 231.069 310.238 231.202 309.576 231.161C309.108 231.132 308.713 231.029 308.394 230.854C308.079 230.679 307.824 230.468 307.631 230.22C307.438 229.969 307.294 229.719 307.199 229.47L307.125 229.466L306.836 234.127L304.42 233.978ZM307.258 226.503C307.226 227.02 307.27 227.477 307.389 227.871C307.509 228.266 307.698 228.579 307.957 228.812C308.216 229.04 308.541 229.167 308.93 229.191C309.323 229.215 309.663 229.128 309.948 228.929C310.234 228.727 310.459 228.437 310.622 228.06C310.79 227.68 310.89 227.236 310.921 226.73C310.953 226.227 310.91 225.78 310.794 225.39C310.678 224.999 310.49 224.688 310.231 224.455C309.972 224.223 309.644 224.094 309.248 224.07C308.854 224.045 308.515 224.129 308.23 224.32C307.949 224.511 307.724 224.793 307.557 225.166C307.39 225.539 307.29 225.985 307.258 226.503ZM319.902 222.915L319.789 224.729L314.544 224.404L314.656 222.589L319.902 222.915ZM315.977 220.576L318.392 220.726L317.889 228.847C317.875 229.07 317.898 229.246 317.959 229.375C318.019 229.5 318.108 229.591 318.226 229.648C318.348 229.705 318.49 229.738 318.653 229.748C318.766 229.755 318.88 229.753 318.995 229.741C319.11 229.725 319.198 229.714 319.259 229.706L319.527 231.527C319.404 231.558 319.231 231.59 319.009 231.626C318.786 231.665 318.518 231.681 318.203 231.673C317.62 231.659 317.114 231.55 316.686 231.345C316.263 231.141 315.941 230.844 315.723 230.454C315.504 230.065 315.414 229.585 315.453 229.015L315.977 220.576ZM328.46 225.939L326.24 225.938C326.214 225.746 326.143 225.571 326.028 225.412C325.912 225.249 325.756 225.116 325.557 225.013C325.363 224.906 325.125 224.844 324.846 224.827C324.471 224.803 324.151 224.863 323.884 225.006C323.617 225.145 323.476 225.345 323.46 225.606C323.447 225.814 323.519 225.995 323.676 226.149C323.834 226.303 324.112 226.436 324.511 226.548L326.068 226.963C326.904 227.19 327.518 227.508 327.91 227.92C328.302 228.331 328.479 228.851 328.44 229.478C328.404 230.049 328.205 230.54 327.842 230.95C327.482 231.36 327.004 231.668 326.407 231.874C325.814 232.077 325.139 232.154 324.383 232.107C323.23 232.036 322.326 231.739 321.671 231.216C321.021 230.69 320.663 230.008 320.597 229.169L322.981 229.191C323.031 229.547 323.188 229.826 323.453 230.029C323.718 230.227 324.065 230.34 324.496 230.367C324.92 230.393 325.265 230.333 325.532 230.186C325.803 230.036 325.949 229.831 325.969 229.57C325.979 229.35 325.897 229.165 325.725 229.014C325.552 228.859 325.279 228.732 324.906 228.633L323.416 228.239C322.576 228.016 321.961 227.682 321.571 227.236C321.185 226.791 321.012 226.243 321.052 225.593C321.087 225.034 321.268 224.561 321.596 224.175C321.927 223.79 322.375 223.504 322.941 223.319C323.51 223.135 324.167 223.065 324.912 223.111C326.012 223.18 326.864 223.466 327.466 223.97C328.072 224.474 328.404 225.131 328.46 225.939Z" fill="black"/>
</g>
<rect x="11.7391" y="170.969" width="334.721" height="72.7206" rx="10.3603" transform="rotate(3.55 11.7391 170.969)" stroke="url(#paint3_linear_201_2063)" stroke-width="3.27936"/>
</g>
<g filter="url(#filter2_d_201_2063)">
<g clip-path="url(#clip2_201_2063)">
<rect x="55.1074" y="113.285" width="338" height="76" rx="12" transform="rotate(-5.38 55.1074 113.285)" fill="url(#paint4_linear_201_2063)"/>
<rect x="31.7578" y="113.375" width="17.0971" height="142.153" transform="rotate(-38.4709 31.7578 113.375)" fill="white" fill-opacity="0.6"/>
<rect x="47.5498" y="92.23" width="17.0971" height="142.153" transform="rotate(-38.4709 47.5498 92.23)" fill="white" fill-opacity="0.6"/>
<path d="M92.8131 133.483C92.7991 132.135 94.7569 131.95 94.9949 133.278C95.2021 134.434 96.8339 134.503 97.139 133.369C97.4893 132.067 99.4243 132.418 99.2953 133.76C99.183 134.929 100.735 135.436 101.335 134.427C102.024 133.267 103.792 134.127 103.306 135.385C102.883 136.48 104.241 137.388 105.09 136.577C106.066 135.646 107.537 136.951 106.73 138.031C106.026 138.972 107.089 140.212 108.126 139.661C109.317 139.028 110.382 140.682 109.313 141.503C108.382 142.219 109.07 143.7 110.218 143.449C111.535 143.161 112.114 145.041 110.863 145.544C109.773 145.982 110.037 147.594 111.209 147.662C112.556 147.74 112.606 149.705 111.265 149.852C110.098 149.98 109.917 151.603 111.028 151.985C112.303 152.423 111.821 154.33 110.491 154.11C109.332 153.918 108.72 155.432 109.686 156.099C110.796 156.866 109.818 158.571 108.596 158C107.532 157.503 106.534 158.796 107.285 159.699C108.147 160.736 106.744 162.115 105.722 161.235C104.832 160.47 103.522 161.445 104.001 162.518C104.551 163.749 102.829 164.698 102.082 163.575C101.431 162.598 99.9065 163.184 100.079 164.345C100.276 165.679 98.3615 166.129 97.9451 164.846C97.5824 163.729 95.9562 163.882 95.8085 165.047C95.6388 166.385 93.674 166.301 93.619 164.954C93.5711 163.78 91.964 163.489 91.5074 164.571C90.983 165.813 89.1138 165.203 89.4244 163.89C89.6948 162.747 88.2258 162.033 87.4943 162.952C86.6542 164.007 85.0191 162.914 85.6722 161.735C86.2409 160.707 85.0191 159.623 84.0668 160.31C82.9732 161.099 81.6935 159.606 82.6407 158.646C83.4656 157.811 82.5815 156.437 81.4791 156.842C80.2132 157.307 79.3838 155.524 80.5548 154.855C81.5746 154.273 81.0938 152.712 79.9231 152.804C78.5788 152.91 78.2612 150.969 79.5692 150.641C80.7083 150.356 80.6665 148.723 79.5143 148.496C78.1912 148.235 78.409 146.281 79.757 146.318C80.9309 146.35 81.3312 144.767 80.2829 144.237C79.0792 143.629 79.8162 141.806 81.1043 142.206C82.2259 142.553 83.0386 141.137 82.172 140.344C81.1769 139.434 82.3785 137.877 83.511 138.609C84.4972 139.247 85.662 138.102 85.0414 137.105C84.3288 135.96 85.9058 134.785 86.7988 135.796C87.5765 136.676 89.007 135.887 88.6784 134.76C88.301 133.465 90.1366 132.759 90.7238 133.973C91.2352 135.031 92.8253 134.657 92.8131 133.483Z" fill="white"/>
<path d="M92.8623 155.427L92.7045 153.751L96.2778 149.758C96.5804 149.404 96.8323 149.088 97.0336 148.809C97.2384 148.53 97.3883 148.261 97.4831 148.003C97.5777 147.741 97.6113 147.465 97.584 147.175C97.5536 146.853 97.4541 146.583 97.2854 146.364C97.1164 146.141 96.8989 145.979 96.6329 145.878C96.3666 145.773 96.0724 145.736 95.7502 145.766C95.4137 145.798 95.1265 145.893 94.8887 146.053C94.6509 146.213 94.476 146.426 94.3639 146.693C94.2518 146.96 94.2123 147.269 94.2453 147.62L92.0383 147.828C91.9705 147.108 92.0746 146.468 92.3504 145.907C92.6263 145.347 93.0442 144.894 93.604 144.549C94.1638 144.204 94.8267 143.995 95.5928 143.923C96.3804 143.849 97.0791 143.924 97.6889 144.148C98.302 144.368 98.7945 144.708 99.1665 145.168C99.5385 145.628 99.7543 146.175 99.8139 146.808C99.8531 147.223 99.8093 147.641 99.6827 148.061C99.5597 148.481 99.3139 148.957 98.9451 149.49C98.576 150.02 98.0462 150.664 97.3555 151.422L95.8981 153.147L95.9052 153.222L100.523 152.787L100.702 154.688L92.8623 155.427Z" fill="black"/>
<path d="M136.781 152.811C135.639 152.919 134.608 152.859 133.687 152.631C132.767 152.407 131.97 152.025 131.298 151.485C130.627 150.949 130.089 150.267 129.686 149.438C129.283 148.609 129.03 147.647 128.926 146.551C128.825 145.47 128.893 144.474 129.133 143.563C129.375 142.652 129.779 141.852 130.342 141.163C130.905 140.471 131.62 139.912 132.487 139.487C133.357 139.062 134.368 138.795 135.521 138.687C136.588 138.586 137.555 138.652 138.422 138.885C139.292 139.117 140.047 139.494 140.684 140.015C141.326 140.533 141.835 141.173 142.214 141.935C142.596 142.694 142.831 143.551 142.917 144.508C142.983 145.166 142.982 145.776 142.916 146.339C142.85 146.901 142.709 147.4 142.494 147.836C142.282 148.268 141.983 148.623 141.597 148.901C141.211 149.176 140.73 149.356 140.153 149.443C139.741 149.515 139.402 149.516 139.135 149.447C138.868 149.378 138.659 149.259 138.505 149.089C138.355 148.916 138.249 148.707 138.186 148.464L138.122 148.47C138.056 148.693 137.906 148.904 137.672 149.103C137.438 149.298 137.144 149.461 136.792 149.592C136.443 149.719 136.065 149.789 135.658 149.802C135.233 149.816 134.823 149.756 134.427 149.62C134.035 149.483 133.677 149.266 133.353 148.968C133.032 148.669 132.765 148.288 132.552 147.824C132.342 147.36 132.205 146.813 132.142 146.183C132.087 145.56 132.124 145.01 132.252 144.532C132.384 144.053 132.578 143.643 132.835 143.301C133.095 142.959 133.394 142.681 133.732 142.469C134.069 142.257 134.415 142.108 134.768 142.025C135.167 141.926 135.55 141.89 135.917 141.916C136.285 141.943 136.598 142.013 136.858 142.126C137.121 142.238 137.291 142.37 137.367 142.522L137.442 142.515L137.385 141.914L139.066 141.755L139.56 146.996C139.587 147.243 139.66 147.429 139.78 147.555C139.9 147.681 140.052 147.735 140.234 147.718C140.481 147.695 140.677 147.566 140.821 147.332C140.969 147.098 141.063 146.752 141.102 146.293C141.146 145.834 141.135 145.255 141.069 144.557C141.006 143.884 140.86 143.302 140.634 142.81C140.41 142.315 140.122 141.903 139.77 141.575C139.42 141.243 139.026 140.984 138.586 140.798C138.146 140.612 137.675 140.49 137.175 140.433C136.679 140.375 136.173 140.37 135.657 140.419C134.766 140.503 134 140.712 133.36 141.047C132.719 141.378 132.2 141.808 131.802 142.337C131.404 142.865 131.124 143.468 130.964 144.144C130.807 144.816 130.763 145.537 130.832 146.307C130.916 147.155 131.105 147.896 131.399 148.529C131.697 149.158 132.095 149.673 132.595 150.074C133.096 150.475 133.693 150.758 134.387 150.924C135.082 151.089 135.866 151.131 136.74 151.049C137.151 151.01 137.551 150.942 137.939 150.844C138.328 150.749 138.677 150.644 138.988 150.528C139.299 150.416 139.547 150.311 139.733 150.214L140.411 151.721C140.198 151.871 139.903 152.02 139.527 152.168C139.154 152.318 138.73 152.45 138.253 152.564C137.78 152.681 137.289 152.763 136.781 152.811ZM136.077 147.98C136.513 147.939 136.853 147.822 137.095 147.629C137.34 147.436 137.503 147.17 137.583 146.83C137.666 146.487 137.681 146.072 137.628 145.585C137.584 145.156 137.494 144.798 137.359 144.511C137.227 144.22 137.025 144.01 136.752 143.88C136.483 143.747 136.122 143.701 135.667 143.744C135.27 143.781 134.939 143.897 134.676 144.092C134.416 144.286 134.227 144.542 134.109 144.86C133.994 145.175 133.954 145.536 133.989 145.944C134.028 146.324 134.123 146.678 134.273 147.007C134.423 147.332 134.644 147.587 134.936 147.773C135.227 147.955 135.608 148.024 136.077 147.98ZM148.635 148.66C147.787 148.74 147.04 148.637 146.396 148.351C145.754 148.061 145.239 147.615 144.85 147.013C144.461 146.406 144.225 145.668 144.143 144.798C144.063 143.95 144.158 143.19 144.427 142.518C144.696 141.846 145.112 141.303 145.676 140.889C146.244 140.474 146.932 140.229 147.742 140.152C148.286 140.101 148.8 140.141 149.286 140.272C149.775 140.4 150.211 140.62 150.594 140.935C150.982 141.249 151.298 141.659 151.545 142.167C151.791 142.671 151.947 143.274 152.013 143.976L152.072 144.604L145.108 145.26L144.974 143.842L149.785 143.389C149.754 143.06 149.655 142.775 149.488 142.534C149.321 142.293 149.104 142.113 148.836 141.994C148.572 141.871 148.273 141.825 147.94 141.856C147.593 141.889 147.292 141.999 147.039 142.185C146.789 142.368 146.601 142.6 146.476 142.883C146.351 143.162 146.302 143.465 146.329 143.791L146.456 145.138C146.494 145.547 146.603 145.892 146.781 146.175C146.963 146.458 147.201 146.666 147.496 146.801C147.79 146.936 148.129 146.985 148.512 146.949C148.766 146.925 148.995 146.868 149.2 146.776C149.404 146.685 149.575 146.56 149.712 146.403C149.849 146.245 149.947 146.059 150.006 145.844L152.135 145.785C152.075 146.303 151.897 146.768 151.6 147.179C151.306 147.585 150.907 147.919 150.405 148.18C149.905 148.436 149.315 148.596 148.635 148.66ZM155.15 136.789L156.186 147.787L153.899 148.002L152.863 137.005L155.15 136.789ZM164.931 138.641L162.825 147.161L160.247 147.404L156.586 139.428L159.003 139.2L161.272 144.94L161.358 144.932L162.509 138.87L164.931 138.641ZM166.879 146.779L166.102 138.531L168.389 138.316L169.166 146.564L166.879 146.779ZM167.151 137.36C166.811 137.392 166.508 137.306 166.244 137.104C165.982 136.897 165.837 136.635 165.807 136.316C165.777 136.001 165.871 135.72 166.09 135.471C166.312 135.219 166.593 135.077 166.933 135.045C167.273 135.013 167.574 135.101 167.835 135.307C168.1 135.51 168.247 135.768 168.277 136.083C168.307 136.402 168.211 136.687 167.989 136.939C167.77 137.188 167.491 137.328 167.151 137.36ZM170.999 146.391L170.222 138.143L172.44 137.934L172.575 139.373L172.661 139.365C172.763 138.839 172.979 138.429 173.309 138.134C173.639 137.836 174.034 137.665 174.496 137.621C174.611 137.611 174.735 137.606 174.869 137.608C175.002 137.61 175.121 137.618 175.223 137.634L175.414 139.664C175.304 139.642 175.153 139.627 174.961 139.62C174.768 139.613 174.594 139.617 174.436 139.631C174.1 139.663 173.806 139.765 173.555 139.937C173.307 140.104 173.118 140.324 172.989 140.597C172.862 140.869 172.815 141.173 172.847 141.509L173.287 146.176L170.999 146.391ZM177.186 145.808L176.409 137.56L178.697 137.345L179.474 145.593L177.186 145.808ZM177.458 136.389C177.118 136.421 176.816 136.336 176.551 136.133C176.29 135.926 176.144 135.664 176.114 135.345C176.084 135.03 176.179 134.749 176.397 134.5C176.619 134.248 176.9 134.106 177.24 134.074C177.581 134.042 177.881 134.13 178.143 134.336C178.407 134.539 178.555 134.797 178.584 135.113C178.614 135.431 178.518 135.716 178.296 135.969C178.078 136.217 177.799 136.357 177.458 136.389ZM185.048 145.23C184.203 145.31 183.46 145.199 182.818 144.899C182.179 144.594 181.666 144.137 181.28 143.527C180.897 142.916 180.667 142.194 180.588 141.36C180.508 140.515 180.602 139.759 180.867 139.091C181.136 138.419 181.556 137.875 182.128 137.46C182.699 137.042 183.401 136.793 184.235 136.715C184.955 136.647 185.597 136.718 186.162 136.929C186.728 137.139 187.19 137.466 187.55 137.909C187.909 138.351 188.135 138.89 188.227 139.524L186.069 139.728C185.969 139.322 185.777 139.006 185.492 138.78C185.21 138.55 184.86 138.455 184.441 138.494C184.086 138.527 183.786 138.653 183.539 138.871C183.296 139.086 183.118 139.382 183.005 139.761C182.893 140.14 182.861 140.589 182.91 141.109C182.96 141.635 183.074 142.076 183.251 142.431C183.433 142.786 183.665 143.047 183.948 143.216C184.232 143.384 184.55 143.452 184.905 143.418C185.166 143.394 185.395 143.318 185.593 143.191C185.794 143.064 185.953 142.891 186.07 142.675C186.19 142.454 186.258 142.196 186.273 141.902L188.432 141.699C188.456 142.332 188.336 142.904 188.073 143.412C187.814 143.917 187.428 144.329 186.917 144.648C186.405 144.967 185.782 145.161 185.048 145.23Z" fill="black"/>
<path d="M324.177 131.781C323.332 131.86 322.566 131.786 321.879 131.558C321.195 131.325 320.639 130.971 320.209 130.494C319.784 130.013 319.533 129.435 319.458 128.761L321.925 128.529C321.966 128.81 322.082 129.05 322.272 129.249C322.466 129.444 322.711 129.586 323.009 129.676C323.306 129.766 323.634 129.794 323.992 129.761C324.366 129.725 324.69 129.628 324.964 129.469C325.238 129.31 325.445 129.106 325.585 128.857C325.725 128.608 325.781 128.331 325.752 128.025C325.723 127.716 325.611 127.451 325.415 127.23C325.222 127.004 324.959 126.839 324.626 126.733C324.297 126.627 323.913 126.595 323.476 126.636L322.395 126.738L322.226 124.939L323.306 124.837C323.676 124.803 323.996 124.708 324.267 124.553C324.541 124.398 324.747 124.199 324.884 123.958C325.021 123.713 325.075 123.438 325.046 123.133C325.019 122.842 324.925 122.594 324.765 122.389C324.608 122.179 324.399 122.024 324.139 121.923C323.882 121.821 323.589 121.786 323.261 121.817C322.929 121.848 322.632 121.937 322.368 122.084C322.103 122.227 321.899 122.415 321.753 122.65C321.608 122.884 321.543 123.149 321.56 123.444L319.212 123.665C319.161 122.996 319.296 122.39 319.617 121.846C319.939 121.302 320.399 120.858 320.998 120.512C321.601 120.162 322.298 119.95 323.09 119.876C323.889 119.8 324.603 119.88 325.23 120.113C325.857 120.347 326.359 120.696 326.738 121.158C327.119 121.617 327.337 122.152 327.391 122.763C327.456 123.412 327.305 123.972 326.939 124.444C326.576 124.916 326.076 125.24 325.438 125.418L325.447 125.509C326.309 125.538 326.986 125.773 327.476 126.214C327.97 126.65 328.249 127.229 328.313 127.95C328.379 128.609 328.244 129.214 327.908 129.763C327.575 130.312 327.087 130.765 326.443 131.122C325.8 131.479 325.044 131.699 324.177 131.781ZM334.842 130.776C334.245 130.828 333.661 130.783 333.088 130.639C332.519 130.495 331.995 130.222 331.516 129.822C331.037 129.422 330.635 128.87 330.31 128.167C329.989 127.463 329.778 126.581 329.678 125.521C329.59 124.548 329.62 123.668 329.766 122.882C329.916 122.092 330.172 121.409 330.532 120.835C330.897 120.261 331.354 119.807 331.905 119.473C332.455 119.136 333.089 118.934 333.805 118.866C334.578 118.793 335.275 118.88 335.896 119.126C336.516 119.368 337.029 119.729 337.436 120.208C337.846 120.687 338.119 121.241 338.254 121.871L335.839 122.099C335.707 121.704 335.479 121.406 335.155 121.204C334.832 121.003 334.448 120.923 334.003 120.965C333.249 121.036 332.706 121.418 332.376 122.111C332.049 122.804 331.935 123.714 332.034 124.843L332.113 124.835C332.254 124.476 332.461 124.161 332.732 123.892C333.007 123.619 333.327 123.401 333.692 123.237C334.06 123.069 334.456 122.965 334.878 122.925C335.564 122.861 336.191 122.965 336.757 123.239C337.322 123.509 337.786 123.911 338.149 124.444C338.511 124.976 338.726 125.605 338.794 126.329C338.868 127.113 338.751 127.828 338.443 128.474C338.138 129.119 337.676 129.645 337.056 130.054C336.44 130.458 335.702 130.699 334.842 130.776ZM334.649 128.854C335.026 128.818 335.355 128.696 335.636 128.487C335.917 128.278 336.128 128.011 336.268 127.685C336.409 127.36 336.461 127.005 336.425 126.621C336.388 126.236 336.271 125.899 336.073 125.609C335.878 125.32 335.625 125.098 335.314 124.945C335.003 124.791 334.658 124.732 334.281 124.768C333.998 124.795 333.741 124.872 333.51 125C333.282 125.128 333.087 125.295 332.924 125.501C332.764 125.706 332.645 125.938 332.567 126.196C332.488 126.451 332.462 126.718 332.488 126.997C332.523 127.37 332.64 127.704 332.839 127.997C333.042 128.29 333.299 128.515 333.61 128.672C333.926 128.829 334.272 128.889 334.649 128.854ZM345.233 129.797C344.362 129.879 343.574 129.811 342.868 129.592C342.166 129.369 341.599 129.028 341.168 128.571C340.737 128.113 340.492 127.571 340.433 126.945C340.388 126.462 340.455 126.009 340.636 125.585C340.82 125.156 341.09 124.791 341.446 124.487C341.801 124.18 342.211 123.966 342.675 123.846L342.668 123.767C342.037 123.701 341.508 123.448 341.078 123.009C340.648 122.566 340.404 122.028 340.344 121.395C340.287 120.795 340.413 120.245 340.719 119.744C341.025 119.24 341.472 118.825 342.057 118.5C342.646 118.17 343.331 117.969 344.112 117.895C344.892 117.822 345.601 117.892 346.238 118.106C346.878 118.32 347.396 118.646 347.791 119.084C348.185 119.519 348.413 120.034 348.473 120.629C348.529 121.267 348.385 121.841 348.042 122.353C347.698 122.865 347.228 123.212 346.633 123.393L346.64 123.473C347.111 123.504 347.548 123.638 347.951 123.874C348.357 124.106 348.69 124.415 348.951 124.801C349.216 125.184 349.372 125.616 349.422 126.098C349.477 126.725 349.335 127.303 348.997 127.833C348.659 128.363 348.164 128.804 347.512 129.154C346.864 129.501 346.104 129.715 345.233 129.797ZM345.064 127.998C345.452 127.962 345.785 127.86 346.062 127.693C346.339 127.522 346.547 127.305 346.685 127.041C346.828 126.773 346.883 126.474 346.852 126.146C346.821 125.811 346.708 125.523 346.514 125.282C346.32 125.038 346.071 124.856 345.766 124.736C345.462 124.613 345.121 124.569 344.744 124.604C344.37 124.639 344.044 124.746 343.764 124.925C343.484 125.1 343.271 125.325 343.126 125.601C342.984 125.873 342.929 126.177 342.96 126.513C342.991 126.841 343.1 127.124 343.286 127.361C343.471 127.595 343.718 127.769 344.026 127.885C344.333 127.997 344.679 128.035 345.064 127.998ZM344.576 122.822C344.9 122.792 345.183 122.699 345.423 122.543C345.663 122.387 345.844 122.185 345.965 121.938C346.086 121.691 346.133 121.414 346.104 121.109C346.075 120.807 345.979 120.55 345.814 120.337C345.649 120.121 345.436 119.96 345.175 119.855C344.914 119.747 344.617 119.708 344.286 119.739C343.957 119.77 343.673 119.864 343.433 120.019C343.192 120.171 343.011 120.369 342.89 120.613C342.772 120.852 342.727 121.123 342.755 121.424C342.784 121.73 342.881 121.993 343.046 122.213C343.212 122.433 343.427 122.598 343.692 122.706C343.957 122.814 344.252 122.853 344.576 122.822ZM355.444 131.963L354.319 120.016L356.695 119.792L356.832 121.251L356.94 121.241C357.023 120.997 357.153 120.745 357.331 120.485C357.511 120.221 357.756 119.992 358.065 119.8C358.377 119.603 358.777 119.481 359.263 119.436C359.897 119.376 360.497 119.487 361.064 119.768C361.63 120.046 362.105 120.501 362.488 121.135C362.871 121.765 363.109 122.577 363.203 123.573C363.294 124.542 363.215 125.375 362.965 126.072C362.718 126.765 362.343 127.308 361.84 127.702C361.34 128.092 360.76 128.317 360.1 128.38C359.633 128.424 359.227 128.384 358.885 128.26C358.546 128.136 358.262 127.967 358.032 127.753C357.803 127.534 357.622 127.31 357.489 127.079L357.416 127.086L357.854 131.736L355.444 131.963ZM357.087 124.138C357.136 124.654 357.25 125.098 357.429 125.469C357.609 125.841 357.844 126.121 358.136 126.31C358.428 126.496 358.768 126.57 359.156 126.534C359.548 126.497 359.87 126.358 360.121 126.118C360.372 125.873 360.549 125.552 360.652 125.154C360.759 124.753 360.789 124.299 360.741 123.794C360.694 123.292 360.583 122.857 360.407 122.49C360.232 122.122 359.998 121.843 359.706 121.654C359.415 121.465 359.071 121.388 358.675 121.426C358.283 121.463 357.96 121.598 357.708 121.831C357.46 122.063 357.282 122.377 357.175 122.771C357.068 123.166 357.038 123.621 357.087 124.138ZM369.021 118.631L369.191 120.441L363.959 120.934L363.788 119.124L369.021 118.631ZM364.78 116.93L367.19 116.703L367.953 124.803C367.974 125.026 368.024 125.196 368.104 125.314C368.183 125.429 368.285 125.505 368.411 125.542C368.54 125.58 368.685 125.591 368.847 125.575C368.961 125.565 369.073 125.545 369.184 125.515C369.295 125.482 369.38 125.457 369.44 125.44L369.987 127.197C369.87 127.246 369.705 127.305 369.491 127.375C369.277 127.449 369.014 127.506 368.702 127.546C368.123 127.624 367.607 127.594 367.153 127.458C366.703 127.322 366.339 127.078 366.063 126.728C365.786 126.377 365.623 125.917 365.573 125.347L364.78 116.93ZM377.944 120.29L375.751 120.633C375.696 120.448 375.598 120.286 375.46 120.147C375.321 120.004 375.145 119.897 374.933 119.826C374.724 119.75 374.48 119.726 374.201 119.752C373.828 119.787 373.52 119.896 373.279 120.079C373.037 120.257 372.928 120.477 372.953 120.737C372.972 120.944 373.072 121.112 373.251 121.24C373.431 121.367 373.726 121.456 374.138 121.504L375.74 121.673C376.602 121.767 377.258 121.987 377.709 122.332C378.16 122.678 378.415 123.164 378.474 123.79C378.527 124.359 378.407 124.875 378.112 125.336C377.82 125.797 377.395 126.176 376.837 126.472C376.283 126.764 375.628 126.945 374.874 127.016C373.724 127.125 372.785 126.972 372.057 126.557C371.333 126.138 370.873 125.519 370.678 124.701L373.037 124.353C373.141 124.697 373.34 124.948 373.633 125.107C373.925 125.262 374.286 125.32 374.716 125.279C375.139 125.239 375.47 125.126 375.712 124.94C375.956 124.75 376.068 124.524 376.047 124.264C376.023 124.045 375.914 123.875 375.719 123.752C375.525 123.626 375.236 123.543 374.851 123.503L373.318 123.345C372.454 123.255 371.795 123.021 371.34 122.641C370.89 122.261 370.634 121.747 370.573 121.098C370.52 120.54 370.626 120.045 370.89 119.613C371.157 119.181 371.556 118.829 372.086 118.559C372.619 118.288 373.258 118.117 374.001 118.047C375.098 117.944 375.984 118.095 376.657 118.499C377.334 118.903 377.763 119.5 377.944 120.29Z" fill="black"/>
</g>
<rect x="56.8936" y="114.763" width="334.721" height="72.7206" rx="10.3603" transform="rotate(-5.38 56.8936 114.763)" stroke="url(#paint5_linear_201_2063)" stroke-width="3.27936"/>
</g>
<g filter="url(#filter3_d_201_2063)">
<g clip-path="url(#clip3_201_2063)">
<rect x="34.0508" y="4.03662" width="338" height="76" rx="12" transform="rotate(4.18 34.0508 4.03662)" fill="url(#paint6_linear_201_2063)"/>
<path d="M67.9714 30.2412C68.1815 28.9092 70.1428 29.0525 70.157 30.401C70.1694 31.5752 71.767 31.915 72.2561 30.8474C72.8178 29.6214 74.6677 30.2886 74.3176 31.5909C74.0127 32.7249 75.4594 33.4831 76.2184 32.587C77.09 31.5581 78.6913 32.6996 78.0028 33.8591C77.4033 34.8689 78.5918 35.9893 79.5644 35.3312C80.6813 34.5756 81.9153 36.1068 80.9395 37.0376C80.0897 37.8481 80.9318 39.2476 82.046 38.8764C83.3253 38.4501 84.1004 40.2575 82.9097 40.8904C81.8727 41.4416 82.3061 43.0165 83.479 42.9596C84.8259 42.8943 85.0846 44.8437 83.7673 45.132C82.6201 45.383 82.6125 47.0163 83.7573 47.278C85.0719 47.5785 84.7951 49.5255 83.4488 49.4476C82.2764 49.3798 81.8284 50.9505 82.8602 51.5114C84.0449 52.1554 83.2531 53.9555 81.9777 53.5173C80.8671 53.1357 80.012 54.5273 80.8542 55.3457C81.8212 56.2855 80.5731 57.8052 79.4633 57.0391C78.4968 56.3721 77.2979 57.4813 77.888 58.4966C78.5657 59.6625 76.9538 60.7891 76.0918 59.752C75.3412 58.8489 73.8875 59.5936 74.1818 60.7305C74.5198 62.0359 72.6637 62.6858 72.1135 61.4547C71.6343 60.3826 70.0336 60.7074 70.0103 61.8815C69.9836 63.2298 68.021 63.3548 67.8233 62.0209C67.6512 60.8592 66.0222 60.7402 65.683 61.8645C65.2935 63.1555 63.3699 62.7464 63.5395 61.4086C63.6871 60.2436 62.1507 59.6894 61.5207 60.6805C60.7973 61.8186 59.0555 60.9057 59.5797 59.6633C60.0362 58.5813 58.7062 57.6332 57.8322 58.4175C56.8286 59.3182 55.3976 57.9693 56.2376 56.9143C56.9691 55.9956 55.9442 54.7238 54.891 55.2433C53.6816 55.8398 52.6677 54.1548 53.7611 53.3656C54.7134 52.6783 54.0696 51.1772 52.9153 51.3933C51.5898 51.6414 51.0681 49.7453 52.3339 49.2804C53.4363 48.8755 53.2214 47.2563 52.0516 47.153C50.7083 47.0343 50.7175 45.0677 52.0618 44.9615C53.2325 44.8691 53.4625 43.252 52.3639 42.8369C51.1025 42.3602 51.6419 40.469 52.965 40.7295C54.1173 40.9563 54.7749 39.4612 53.8292 38.7651C52.7431 37.9657 53.7727 36.2902 54.9765 36.898C56.0248 37.4273 57.0615 36.1651 56.3386 35.2396C55.5085 34.1769 56.952 32.8413 57.9471 33.7513C58.8138 34.5438 60.1525 33.6081 59.7061 32.5219C59.1935 31.2746 60.9438 30.378 61.6566 31.5228C62.2773 32.5197 63.8188 31.9799 63.682 30.8136C63.525 29.4742 65.4522 29.0831 65.8297 30.3777C66.1584 31.5051 67.7884 31.4012 67.9714 30.2412Z" fill="white"/>
<path d="M69.9739 41.2216L69.1688 52.2384L66.8395 52.0682L67.4831 43.2623L67.4185 43.2575L64.7801 44.6547L64.931 42.589L67.7845 41.0616L69.9739 41.2216Z" fill="black"/>
<path d="M108.12 56.6023C106.976 56.5187 105.969 56.2883 105.098 55.9111C104.228 55.5374 103.506 55.0286 102.933 54.3846C102.36 53.7442 101.943 52.9819 101.683 52.0976C101.423 51.2134 101.334 50.2225 101.414 49.1252C101.493 48.0421 101.726 47.0713 102.113 46.2127C102.504 45.3543 103.035 44.6323 103.705 44.0467C104.375 43.4576 105.173 43.0255 106.098 42.7506C107.026 42.4759 108.068 42.3808 109.223 42.4651C110.292 42.5432 111.234 42.7689 112.05 43.1422C112.87 43.5158 113.552 44.0126 114.094 44.6327C114.64 45.2495 115.037 45.9653 115.284 46.7801C115.534 47.5916 115.623 48.476 115.55 49.4332C115.505 50.0934 115.403 50.6953 115.245 51.2389C115.086 51.7825 114.864 52.2512 114.579 52.645C114.298 53.0355 113.945 53.336 113.518 53.5464C113.092 53.7532 112.588 53.8515 112.004 53.8414C111.586 53.8433 111.251 53.7881 111 53.676C110.748 53.5639 110.561 53.4114 110.438 53.2186C110.319 53.0224 110.249 52.7992 110.228 52.5488L110.163 52.5441C110.061 52.753 109.878 52.9361 109.614 53.0935C109.351 53.2473 109.034 53.3594 108.665 53.4298C108.3 53.4968 107.915 53.503 107.512 53.4483C107.091 53.3922 106.696 53.2643 106.329 53.0644C105.965 52.8647 105.647 52.591 105.377 52.2431C105.111 51.8956 104.911 51.4754 104.777 50.9825C104.647 50.4899 104.604 49.9279 104.646 49.2964C104.695 48.6727 104.823 48.1358 105.029 47.6857C105.238 47.236 105.498 46.8637 105.808 46.5691C106.122 46.2748 106.462 46.0509 106.831 45.8975C107.199 45.7441 107.564 45.6555 107.926 45.6315C108.336 45.6001 108.72 45.6281 109.077 45.7156C109.435 45.803 109.733 45.9239 109.97 46.0782C110.211 46.2329 110.357 46.3913 110.406 46.5535L110.481 46.559L110.525 45.9565L112.209 46.0796L111.825 51.3298C111.811 51.5775 111.853 51.7734 111.95 51.9176C112.048 52.0617 112.188 52.1404 112.371 52.1538C112.618 52.1719 112.833 52.0776 113.014 51.8709C113.198 51.6644 113.348 51.3383 113.464 50.8924C113.583 50.4469 113.668 49.8744 113.719 49.1751C113.768 48.5009 113.722 47.9026 113.58 47.3803C113.441 46.8546 113.226 46.4008 112.933 46.0189C112.644 45.6336 112.298 45.3127 111.894 45.0561C111.491 44.7995 111.048 44.6013 110.564 44.4614C110.084 44.3217 109.586 44.233 109.069 44.1953C108.176 44.1301 107.386 44.2094 106.7 44.4332C106.013 44.6534 105.429 44.9912 104.949 45.4464C104.469 45.9016 104.093 46.4493 103.823 47.0893C103.557 47.726 103.393 48.4297 103.334 49.2005C103.275 50.0507 103.338 50.8125 103.524 51.4858C103.713 52.1558 104.02 52.7299 104.447 53.2081C104.873 53.6863 105.415 54.0648 106.073 54.3436C106.73 54.6224 107.497 54.7937 108.372 54.8577C108.784 54.8878 109.19 54.8868 109.589 54.8546C109.987 54.8261 110.349 54.7804 110.675 54.7177C111 54.6585 111.262 54.5966 111.462 54.5318L111.88 56.1307C111.645 56.2433 111.33 56.3411 110.934 56.4239C110.542 56.5107 110.101 56.5704 109.612 56.6032C109.126 56.6398 108.629 56.6395 108.12 56.6023ZM108.228 51.7213C108.665 51.7533 109.019 51.6944 109.29 51.5447C109.564 51.3953 109.768 51.1597 109.904 50.8379C110.043 50.5127 110.127 50.106 110.155 49.6178C110.183 49.1872 110.154 48.8191 110.068 48.5136C109.986 48.2048 109.822 47.9638 109.575 47.7907C109.332 47.6143 108.982 47.5095 108.527 47.4762C108.129 47.4471 107.784 47.5067 107.492 47.6548C107.203 47.8031 106.974 48.0244 106.805 48.3185C106.64 48.6092 106.54 48.9589 106.507 49.3675C106.483 49.7479 106.517 50.1127 106.611 50.4621C106.704 50.8078 106.88 51.0964 107.137 51.3279C107.394 51.5559 107.758 51.687 108.228 51.7213ZM121.978 57.5391L122.301 53.1173L122.231 53.1122C122.107 53.3338 121.938 53.5504 121.724 53.7619C121.514 53.9701 121.248 54.1364 120.925 54.2606C120.606 54.3851 120.224 54.4311 119.78 54.3986C119.152 54.3528 118.595 54.1499 118.11 53.7899C117.628 53.4266 117.261 52.9185 117.01 52.2656C116.762 51.6093 116.672 50.8204 116.739 49.8987C116.808 48.952 117.018 48.1759 117.369 47.5706C117.72 46.9617 118.16 46.5197 118.688 46.2447C119.22 45.9663 119.789 45.8492 120.396 45.8935C120.858 45.9273 121.238 46.0344 121.535 46.2147C121.836 46.3917 122.072 46.6037 122.245 46.8507C122.422 47.0944 122.553 47.331 122.637 47.5607L122.734 47.5678L122.835 46.1799L125.095 46.345L124.265 57.7061L121.978 57.5391ZM120.639 52.6281C121.008 52.6551 121.328 52.5775 121.597 52.3952C121.87 52.2097 122.088 51.939 122.251 51.5831C122.418 51.2276 122.519 50.8041 122.555 50.3128C122.591 49.8215 122.554 49.3898 122.444 49.0176C122.334 48.6454 122.157 48.3513 121.914 48.1352C121.67 47.9191 121.363 47.7975 120.994 47.7705C120.617 47.743 120.292 47.8221 120.019 48.0076C119.746 48.1932 119.53 48.4622 119.371 48.8147C119.212 49.1672 119.115 49.582 119.08 50.0589C119.045 50.5395 119.08 50.9693 119.186 51.3484C119.295 51.7241 119.47 52.0253 119.709 52.2519C119.953 52.4752 120.262 52.6006 120.639 52.6281ZM126.331 54.742L126.934 46.4794L129.226 46.6468L128.622 54.9095L126.331 54.742ZM128.163 45.4984C127.823 45.4735 127.539 45.3392 127.311 45.0954C127.088 44.8484 126.988 44.5652 127.011 44.2461C127.034 43.9305 127.174 43.6685 127.431 43.4601C127.691 43.2484 127.992 43.155 128.333 43.1799C128.673 43.2048 128.955 43.3408 129.179 43.5878C129.406 43.8316 129.509 44.1113 129.485 44.4268C129.462 44.746 129.32 45.0115 129.06 45.2232C128.803 45.4315 128.504 45.5233 128.163 45.4984ZM130.458 55.0436L131.062 46.7809L133.246 46.9405L133.139 48.3983L133.236 48.4054C133.443 47.9338 133.758 47.5728 134.18 47.3225C134.602 47.0721 135.093 46.9673 135.653 47.0082C136.219 47.0496 136.691 47.2265 137.069 47.5389C137.446 47.8477 137.684 48.2472 137.781 48.7375L137.868 48.7438C138.071 48.2827 138.403 47.9266 138.865 47.6755C139.331 47.4211 139.866 47.3161 140.473 47.3603C141.244 47.4167 141.851 47.708 142.296 48.2345C142.745 48.7576 142.936 49.4674 142.871 50.3639L142.465 55.9208L140.178 55.7538L140.551 50.6488C140.585 50.1897 140.488 49.8366 140.261 49.5892C140.034 49.3419 139.737 49.2049 139.372 49.1781C138.956 49.1477 138.621 49.2567 138.369 49.5051C138.117 49.7498 137.975 50.0874 137.943 50.5177L137.575 55.5635L135.353 55.4012L135.73 50.2478C135.759 49.8426 135.666 49.5113 135.451 49.254C135.239 48.997 134.945 48.8547 134.568 48.8272C134.313 48.8086 134.079 48.8564 133.865 48.9705C133.655 49.0814 133.483 49.2472 133.348 49.4681C133.213 49.6854 133.134 49.9464 133.112 50.2513L132.75 55.211L130.458 55.0436ZM147.996 56.4872C147.15 56.4253 146.435 56.1928 145.852 55.7897C145.272 55.3832 144.842 54.8471 144.563 54.1813C144.287 53.5158 144.18 52.7652 144.241 51.9296C144.303 51.0833 144.52 50.3529 144.893 49.7384C145.27 49.1205 145.774 48.6544 146.407 48.3401C147.039 48.0222 147.773 47.8937 148.609 47.9548C149.33 48.0074 149.951 48.1845 150.474 48.4858C150.996 48.7872 151.398 49.1861 151.679 49.6825C151.96 50.1789 152.093 50.7475 152.079 51.3882L149.916 51.2302C149.885 50.8134 149.748 50.4698 149.505 50.1997C149.265 49.9262 148.936 49.7741 148.516 49.7435C148.161 49.7175 147.844 49.7917 147.564 49.966C147.288 50.1369 147.064 50.3999 146.89 50.7549C146.716 51.11 146.61 51.5475 146.572 52.0675C146.534 52.5947 146.573 53.0482 146.689 53.4281C146.809 53.8082 146.995 54.1048 147.246 54.3178C147.497 54.5309 147.801 54.6504 148.156 54.6763C148.417 54.6954 148.656 54.6588 148.872 54.5664C149.091 54.4743 149.277 54.331 149.428 54.1365C149.583 53.9388 149.693 53.6962 149.757 53.4089L151.919 53.5668C151.838 54.1954 151.625 54.7387 151.281 55.1967C150.942 55.6514 150.493 55.9936 149.935 56.2233C149.378 56.4529 148.731 56.5409 147.996 56.4872ZM155.806 52.0932L155.457 56.87L153.165 56.7026L153.97 45.6857L156.197 45.8484L155.89 50.0605L155.986 50.0675C156.209 49.5934 156.538 49.2335 156.974 48.9878C157.41 48.7384 157.942 48.6367 158.57 48.6825C159.144 48.7245 159.635 48.8865 160.043 49.1687C160.456 49.4476 160.763 49.8288 160.966 50.3123C161.172 50.7925 161.25 51.3552 161.199 52.0005L160.815 57.2615L158.523 57.094L158.878 52.2419C158.919 51.7329 158.818 51.3272 158.577 51.0248C158.34 50.7226 157.988 50.5545 157.522 50.5204C157.21 50.4976 156.929 50.5438 156.679 50.6589C156.432 50.7743 156.232 50.9543 156.077 51.199C155.926 51.4404 155.836 51.7384 155.806 52.0932ZM162.618 57.3932L163.222 49.1306L165.514 49.298L164.91 57.5607L162.618 57.3932ZM164.451 48.1496C164.11 48.1247 163.826 47.9904 163.599 47.7466C163.375 47.4995 163.275 47.2164 163.299 46.8973C163.322 46.5817 163.462 46.3197 163.718 46.1113C163.979 45.8996 164.28 45.8062 164.62 45.8311C164.961 45.856 165.243 45.992 165.467 46.239C165.694 46.4828 165.796 46.7625 165.773 47.078C165.75 47.3972 165.608 47.6626 165.347 47.8744C165.09 48.0827 164.792 48.1745 164.451 48.1496Z" fill="black"/>
<path d="M292.1 64.4616L292.242 62.5293L297.644 55.2502L299.31 55.3719L299.115 58.0466L298.129 57.9745L294.721 62.5851L294.715 62.6758L301.6 63.1788L301.456 65.1451L292.1 64.4616ZM297.522 66.9086L297.714 64.2792L297.822 63.4269L298.415 55.3065L300.716 55.4746L299.868 67.08L297.522 66.9086ZM302.942 67.3046L303.071 65.5366L307.482 62.0134C307.858 61.699 308.175 61.4146 308.433 61.1599C308.694 60.9056 308.897 60.6527 309.041 60.4011C309.185 60.1458 309.268 59.8651 309.29 59.5591C309.315 59.2191 309.259 58.9206 309.122 58.6638C308.985 58.4031 308.788 58.1969 308.529 58.0451C308.271 57.8895 307.972 57.7992 307.632 57.7744C307.277 57.7485 306.962 57.7976 306.687 57.9218C306.412 58.0461 306.193 58.2371 306.03 58.4948C305.866 58.7525 305.771 59.0665 305.744 59.4367L303.415 59.2666C303.471 58.5072 303.691 57.8606 304.075 57.3266C304.46 56.7926 304.973 56.3952 305.615 56.1345C306.257 55.8737 306.982 55.7729 307.791 55.832C308.622 55.8927 309.335 56.0929 309.929 56.4325C310.527 56.7687 310.979 57.2081 311.285 57.7508C311.591 58.2935 311.72 58.8991 311.671 59.5678C311.639 60.006 311.52 60.4322 311.315 60.8464C311.114 61.2609 310.775 61.7128 310.299 62.2021C309.823 62.6877 309.16 63.264 308.31 63.9311L306.494 65.4677L306.488 65.547L311.362 65.903L311.215 67.9091L302.942 67.3046ZM317.525 68.6264C316.551 68.5514 315.729 68.2503 315.062 67.7229C314.397 67.1958 313.909 66.4671 313.598 65.5366C313.29 64.6063 313.184 63.5067 313.28 62.2376C313.373 60.9721 313.639 59.9072 314.078 59.0429C314.521 58.179 315.109 57.5402 315.841 57.1266C316.578 56.7095 317.432 56.5364 318.403 56.6073C319.374 56.6782 320.192 56.9735 320.856 57.493C321.525 58.0128 322.015 58.7322 322.328 59.6514C322.641 60.5668 322.749 61.6571 322.653 62.9224C322.56 64.1955 322.292 65.2697 321.848 66.145C321.408 67.0206 320.821 67.6709 320.087 68.0958C319.354 68.5208 318.5 68.6976 317.525 68.6264ZM317.674 66.5921C318.339 66.6406 318.894 66.3451 319.339 65.7054C319.785 65.0657 320.054 64.077 320.148 62.7394C320.213 61.8592 320.176 61.1197 320.037 60.5209C319.902 59.9223 319.681 59.4637 319.374 59.145C319.071 58.8266 318.698 58.6513 318.256 58.619C317.595 58.5707 317.042 58.8626 316.597 59.4947C316.152 60.1269 315.879 61.102 315.779 62.4202C315.714 63.3118 315.749 64.0625 315.883 64.6724C316.021 65.2787 316.243 65.7431 316.55 66.0656C316.857 66.3843 317.232 66.5598 317.674 66.5921ZM327.457 72.3771L328.331 60.409L330.711 60.5829L330.605 62.0449L330.712 62.0528C330.835 61.8263 331.006 61.5995 331.223 61.3723C331.445 61.1417 331.725 60.957 332.062 60.8183C332.402 60.6761 332.816 60.6228 333.304 60.6584C333.938 60.7047 334.512 60.9138 335.024 61.2854C335.536 61.6533 335.929 62.1814 336.201 62.8697C336.474 63.5543 336.574 64.3953 336.501 65.3926C336.43 66.3635 336.214 67.1718 335.851 67.8176C335.493 68.4598 335.033 68.9333 334.471 69.2379C333.914 69.5389 333.305 69.6653 332.644 69.617C332.175 69.5828 331.782 69.4762 331.465 69.2973C331.151 69.1187 330.899 68.9047 330.708 68.6553C330.518 68.4021 330.377 68.1506 330.285 67.9008L330.211 67.8955L329.871 72.5535L327.457 72.3771ZM330.377 64.9337C330.339 65.4513 330.377 65.908 330.493 66.3038C330.608 66.6996 330.794 67.0151 331.05 67.2503C331.307 67.4818 331.63 67.6117 332.019 67.6401C332.412 67.6688 332.752 67.5855 333.04 67.39C333.328 67.1908 333.556 66.9036 333.724 66.5284C333.896 66.1498 334 65.7074 334.037 65.2012C334.074 64.6987 334.036 64.2516 333.924 63.8598C333.813 63.4681 333.628 63.1546 333.372 62.9194C333.116 62.6842 332.789 62.5521 332.393 62.5231C332 62.4944 331.66 62.574 331.373 62.7619C331.089 62.9501 330.862 63.2297 330.69 63.6008C330.519 63.9718 330.414 64.4162 330.377 64.9337ZM343.059 61.4851L342.927 63.2984L337.685 62.9154L337.818 61.1021L343.059 61.4851ZM339.16 59.1037L341.574 59.2801L340.981 67.3948C340.965 67.6177 340.986 67.7939 341.045 67.9236C341.104 68.0494 341.192 68.1413 341.31 68.1993C341.431 68.2575 341.573 68.2925 341.735 68.3044C341.848 68.3127 341.962 68.3115 342.077 68.3009C342.192 68.2865 342.28 68.2759 342.341 68.269L342.59 70.0931C342.466 70.122 342.293 70.153 342.07 70.1861C341.847 70.223 341.579 70.2357 341.264 70.2241C340.681 70.2042 340.176 70.0895 339.751 69.88C339.33 69.6707 339.012 69.3702 338.797 68.9785C338.583 68.5868 338.498 68.1059 338.544 67.5358L339.16 59.1037ZM351.583 64.6031L349.363 64.5776C349.339 64.386 349.271 64.2101 349.157 64.0498C349.044 63.8858 348.888 63.751 348.691 63.6455C348.498 63.5364 348.261 63.4717 347.982 63.4512C347.608 63.4239 347.286 63.4802 347.018 63.6201C346.75 63.7562 346.606 63.9546 346.587 64.2153C346.572 64.4231 346.642 64.6048 346.798 64.7605C346.954 64.9162 347.23 65.0523 347.628 65.1687L349.18 65.6011C350.014 65.8367 350.624 66.1624 351.012 66.5781C351.399 66.9938 351.57 67.5152 351.524 68.1423C351.483 68.7127 351.278 69.201 350.91 69.6071C350.546 70.0135 350.065 70.3163 349.465 70.5156C348.87 70.7114 348.194 70.7817 347.439 70.7265C346.286 70.6423 345.386 70.3353 344.737 69.8056C344.093 69.2723 343.742 68.5859 343.686 67.7462L346.069 67.795C346.115 68.1516 346.269 68.4325 346.532 68.6378C346.794 68.8393 347.141 68.9557 347.571 68.9872C347.995 69.0181 348.341 68.9617 348.609 68.818C348.882 68.6709 349.03 68.4671 349.053 68.2067C349.065 67.9873 348.986 67.8011 348.814 67.6481C348.644 67.4913 348.372 67.3613 348 67.2581L346.514 66.8477C345.677 66.6156 345.065 66.2747 344.681 65.825C344.299 65.3755 344.133 64.8259 344.18 64.1762C344.221 63.617 344.407 63.1464 344.739 62.7643C345.074 62.3824 345.526 62.102 346.094 61.9232C346.665 61.7447 347.323 61.6826 348.067 61.737C349.166 61.8173 350.014 62.1128 350.611 62.6236C351.212 63.1346 351.536 63.7945 351.583 64.6031Z" fill="black"/>
<rect x="265.378" y="-5.22461" width="17.0971" height="142.153" transform="rotate(32.9539 265.378 -5.22461)" fill="white" fill-opacity="0.6"/>
<rect x="290.451" y="3.00879" width="17.0971" height="142.153" transform="rotate(32.9539 290.451 3.00879)" fill="white" fill-opacity="0.6"/>
</g>
<rect x="35.5666" y="5.79146" width="334.721" height="72.7206" rx="10.3603" transform="rotate(4.18 35.5666 5.79146)" stroke="url(#paint7_linear_201_2063)" stroke-width="3.27936"/>
</g>
<defs>
<filter id="filter0_d_201_2063" x="45.7588" y="254.297" width="340.514" height="92.1006" filterUnits="userSpaceOnUse" color-interpolation-filters="sRGB">
<feFlood flood-opacity="0" result="BackgroundImageFix"/>
<feColorMatrix in="SourceAlpha" type="matrix" values="0 0 0 0 0 0 0 0 0 0 0 0 0 0 0 0 0 0 127 0" result="hardAlpha"/>
<feOffset dy="4"/>
<feComposite in2="hardAlpha" operator="out"/>
<feColorMatrix type="matrix" values="0 0 0 0 0.941176 0 0 0 0 0.941176 0 0 0 0 0.941176 0 0 0 1 0"/>
<feBlend mode="normal" in2="BackgroundImageFix" result="effect1_dropShadow_201_2063"/>
<feBlend mode="normal" in="SourceGraphic" in2="effect1_dropShadow_201_2063" result="shape"/>
</filter>
<filter id="filter1_d_201_2063" x="5.49805" y="169.231" width="342.058" height="100.783" filterUnits="userSpaceOnUse" color-interpolation-filters="sRGB">
<feFlood flood-opacity="0" result="BackgroundImageFix"/>
<feColorMatrix in="SourceAlpha" type="matrix" values="0 0 0 0 0 0 0 0 0 0 0 0 0 0 0 0 0 0 127 0" result="hardAlpha"/>
<feOffset dy="4"/>
<feComposite in2="hardAlpha" operator="out"/>
<feColorMatrix type="matrix" values="0 0 0 0 0.741176 0 0 0 0 0.411765 0 0 0 0 0.0509804 0 0 0 1 0"/>
<feBlend mode="normal" in2="BackgroundImageFix" result="effect1_dropShadow_201_2063"/>
<feBlend mode="normal" in="SourceGraphic" in2="effect1_dropShadow_201_2063" result="shape"/>
</filter>
<filter id="filter2_d_201_2063" x="55.1074" y="81.5935" width="343.637" height="111.356" filterUnits="userSpaceOnUse" color-interpolation-filters="sRGB">
<feFlood flood-opacity="0" result="BackgroundImageFix"/>
<feColorMatrix in="SourceAlpha" type="matrix" values="0 0 0 0 0 0 0 0 0 0 0 0 0 0 0 0 0 0 127 0" result="hardAlpha"/>
<feOffset dy="4"/>
<feComposite in2="hardAlpha" operator="out"/>
<feColorMatrix type="matrix" values="0 0 0 0 0.533333 0 0 0 0 0.588235 0 0 0 0 0.721569 0 0 0 1 0"/>
<feBlend mode="normal" in2="BackgroundImageFix" result="effect1_dropShadow_201_2063"/>
<feBlend mode="normal" in="SourceGraphic" in2="effect1_dropShadow_201_2063" result="shape"/>
</filter>
<filter id="filter3_d_201_2063" x="28.5107" y="4.03662" width="342.641" height="104.435" filterUnits="userSpaceOnUse" color-interpolation-filters="sRGB">
<feFlood flood-opacity="0" result="BackgroundImageFix"/>
<feColorMatrix in="SourceAlpha" type="matrix" values="0 0 0 0 0 0 0 0 0 0 0 0 0 0 0 0 0 0 127 0" result="hardAlpha"/>
<feOffset dy="4"/>
<feComposite in2="hardAlpha" operator="out"/>
<feColorMatrix type="matrix" values="0 0 0 0 0.845882 0 0 0 0 0.623281 0 0 0 0 0 0 0 0 1 0"/>
<feBlend mode="normal" in2="BackgroundImageFix" result="effect1_dropShadow_201_2063"/>
<feBlend mode="normal" in="SourceGraphic" in2="effect1_dropShadow_201_2063" result="shape"/>
</filter>
<linearGradient id="paint0_linear_201_2063" x1="214.759" y1="266.447" x2="214.759" y2="342.447" gradientUnits="userSpaceOnUse">
<stop stop-color="white"/>
<stop offset="0.451993" stop-color="#E9E9E9"/>
<stop offset="1" stop-color="#F7F7F7"/>
</linearGradient>
<linearGradient id="paint1_linear_201_2063" x1="214.759" y1="268.052" x2="214.759" y2="316.756" gradientUnits="userSpaceOnUse">
<stop stop-opacity="0.1"/>
<stop offset="1" stop-color="#D78328" stop-opacity="0"/>
</linearGradient>
<linearGradient id="paint2_linear_201_2063" x1="179.204" y1="169.231" x2="179.204" y2="245.231" gradientUnits="userSpaceOnUse">
<stop stop-color="#B65F00"/>
<stop offset="0.451993" stop-color="#D89143"/>
<stop offset="1" stop-color="#D89143"/>
</linearGradient>
<linearGradient id="paint3_linear_201_2063" x1="179.204" y1="170.837" x2="179.204" y2="219.541" gradientUnits="userSpaceOnUse">
<stop stop-color="#D78328"/>
<stop offset="1" stop-color="#D78328" stop-opacity="0"/>
</linearGradient>
<linearGradient id="paint4_linear_201_2063" x1="224.107" y1="113.285" x2="224.107" y2="189.285" gradientUnits="userSpaceOnUse">
<stop stop-color="#8190B4"/>
<stop offset="0.427686" stop-color="#A7B1C9"/>
<stop offset="1" stop-color="#A7B1C9"/>
</linearGradient>
<linearGradient id="paint5_linear_201_2063" x1="224.107" y1="113.285" x2="224.107" y2="162.524" gradientUnits="userSpaceOnUse">
<stop stop-color="#97A3C0"/>
<stop offset="1" stop-color="#97A3C0" stop-opacity="0"/>
</linearGradient>
<linearGradient id="paint6_linear_201_2063" x1="203.051" y1="4.03662" x2="203.051" y2="80.0366" gradientUnits="userSpaceOnUse">
<stop stop-color="#FDBB12"/>
<stop offset="0.572282" stop-color="#FFE245"/>
<stop offset="1" stop-color="#FFE245"/>
</linearGradient>
<linearGradient id="paint7_linear_201_2063" x1="203.051" y1="4.03662" x2="203.051" y2="63.6042" gradientUnits="userSpaceOnUse">
<stop stop-color="#FED215"/>
<stop offset="1" stop-color="#FED215" stop-opacity="0"/>
</linearGradient>
<clipPath id="clip0_201_2063">
<rect x="45.7588" y="266.447" width="338" height="76" rx="12" transform="rotate(-2.06 45.7588 266.447)" fill="white"/>
</clipPath>
<clipPath id="clip1_201_2063">
<rect x="10.2041" y="169.231" width="338" height="76" rx="12" transform="rotate(3.55 10.2041 169.231)" fill="white"/>
</clipPath>
<clipPath id="clip2_201_2063">
<rect x="55.1074" y="113.285" width="338" height="76" rx="12" transform="rotate(-5.38 55.1074 113.285)" fill="white"/>
</clipPath>
<clipPath id="clip3_201_2063">
<rect x="34.0508" y="4.03662" width="338" height="76" rx="12" transform="rotate(4.18 34.0508 4.03662)" fill="white"/>
</clipPath>
</defs>
</svg>
