<svg width="143" height="49" viewBox="0 0 143 49" fill="none" xmlns="http://www.w3.org/2000/svg">
<path d="M40.9544 26.1084L38.9474 20.5831H35.1385L33.123 26.1084L30.2931 20.5831H26.4842L31.1143 29.2883H35.1384L37.042 24.9538L38.9473 29.2883H42.9697L47.6 20.5831H43.7911L40.9544 26.1084Z" fill="white"/>
<path d="M48.5872 27.7082H52.9365L53.6195 29.2883H57.4301L52.7722 20.5831H48.7481L44.0931 29.2949H47.902L48.5872 27.7082ZM50.7634 23.0304L51.951 25.5927H49.5677L50.7634 23.0304Z" fill="white"/>
<path d="M62.8224 23.0436C63.2766 23.0388 63.7297 23.0912 64.1708 23.1996C64.5387 23.2785 64.8661 23.4865 65.0939 23.786H68.691C68.3099 21.1153 65.8298 20.4599 62.8224 20.4599C59.5538 20.4599 56.8815 21.2434 56.8946 24.5284V25.1607C56.8815 28.4375 59.5538 29.441 62.8224 29.4525C64.3006 29.4525 65.8248 29.037 66.8317 28.0433L66.9959 29.2883H68.6877V24.4183H62.7912V25.8966H65.516C65.0052 26.5536 64.1528 26.6324 62.8174 26.6324C61.4279 26.6127 60.2535 26.368 60.2732 24.9423V24.7288C60.2584 23.3211 61.4328 23.0715 62.8224 23.0436Z" fill="white"/>
<path d="M84.8073 29.2883V20.5831H80.5779L77.1878 24.8437L73.8059 20.5831H69.5699V29.2883H72.9534V24.553L76.3419 29.2883H78.0336L81.4237 24.553V29.2883H84.8073Z" fill="white"/>
<path d="M89.0662 20.5831H85.6827L85.6827 29.2883H89.0662V20.5831Z" fill="white"/>
<path d="M96.7102 29.2883V20.0822H91.9224V22.9861H93.1296V29.2883H96.7102Z" fill="white"/>
<path d="M103.244 29.2883V20.0822H98.4562V22.9861H99.6634V29.2883H103.244Z" fill="white"/>
<path d="M118.071 29.7531C117.803 29.7742 117.553 29.8954 117.37 30.0926C117.187 30.2899 117.086 30.5487 117.085 30.8175V35.0042C117.085 35.3091 116.964 35.6015 116.749 35.8171C116.533 36.0328 116.241 36.1539 115.936 36.1539H25.0223C24.456 36.1539 23.9129 35.9289 23.5125 35.5285C23.1121 35.1281 22.8871 34.585 22.8871 34.0187V14.8837C22.8871 14.3174 23.1121 13.7743 23.5125 13.3739C23.9129 12.9734 24.456 12.7485 25.0223 12.7485H99.9197C100.225 12.7485 100.517 12.6273 100.733 12.4117C100.948 12.1961 101.069 11.9037 101.069 11.5987C101.069 11.2938 100.948 11.0014 100.733 10.7857C100.517 10.5701 100.225 10.449 99.9197 10.449H21.7127C21.15 10.4488 20.6098 10.6707 20.2098 11.0666L12.8449 18.3625C12.6442 18.561 12.4848 18.7973 12.3759 19.0578C12.2671 19.3183 12.211 19.5978 12.2109 19.8801V46.0909C12.2109 46.6572 12.4359 47.2003 12.8363 47.6008C13.2368 48.0012 13.7799 48.2262 14.3462 48.2262H106.197C106.654 48.2261 107.099 48.0793 107.467 47.8073L118.355 39.7493C118.623 39.5506 118.841 39.2919 118.991 38.9938C119.141 38.6957 119.219 38.3666 119.219 38.0329V30.8175C119.219 30.6705 119.188 30.5251 119.13 30.3904C119.071 30.2558 118.985 30.1347 118.877 30.0348C118.769 29.9349 118.642 29.8583 118.503 29.8098C118.365 29.7613 118.217 29.742 118.071 29.7531Z" fill="white"/>
<path d="M106.082 15.9823C106.138 16.0771 106.196 16.1693 106.254 16.2534C106.264 16.2683 106.274 16.2825 106.283 16.2967C106.293 16.3108 106.303 16.3253 106.312 16.3401L106.34 16.3805C106.371 16.427 106.403 16.4739 106.436 16.519L106.508 16.6166C106.521 16.6335 106.533 16.6508 106.546 16.6678L106.547 16.6685C106.573 16.7031 106.598 16.7377 106.626 16.7711L106.706 16.8687C106.744 16.9162 106.783 16.9636 106.822 17.0043L106.909 17.1005C106.948 17.1439 106.988 17.1859 107.028 17.2279L107.118 17.3188C107.158 17.3594 107.199 17.3987 107.241 17.4367L107.26 17.4537L107.286 17.4783L107.287 17.4791C107.303 17.4941 107.317 17.5071 107.334 17.5221L107.341 17.5282C107.373 17.5557 107.422 17.5978 107.461 17.6305L107.557 17.7105L107.692 17.8094L107.79 17.8813C107.836 17.9123 107.882 17.9438 107.925 17.9734L108.022 18.0358C108.06 18.0594 108.1 18.0821 108.14 18.1046L108.172 18.1226L108.201 18.1392L108.216 18.1479C108.233 18.1578 108.244 18.1642 108.263 18.1741C108.306 18.1963 108.349 18.2171 108.392 18.2381L108.445 18.2635L108.508 18.2933C108.591 18.3313 108.675 18.3652 108.76 18.3964L108.831 18.4208C108.849 18.4266 108.866 18.4325 108.884 18.4384C108.928 18.4531 108.972 18.4678 109.017 18.4804C109.037 18.4869 109.057 18.492 109.078 18.497C109.091 18.5004 109.105 18.5037 109.118 18.5075L109.278 18.5468L109.391 18.5685C109.406 18.5712 109.422 18.574 109.437 18.5767C109.477 18.5838 109.516 18.5907 109.555 18.5956L109.614 18.6037C109.697 18.6132 109.78 18.6227 109.864 18.6268L110.163 18.6431L110.07 18.5956L110.032 18.5749C109.978 18.5452 109.923 18.515 109.872 18.4831L109.685 18.3625L109.61 18.315C109.585 18.2979 109.561 18.2794 109.536 18.2608L109.536 18.2603C109.518 18.2468 109.5 18.2332 109.482 18.2201L109.469 18.2108C109.433 18.1854 109.412 18.17 109.383 18.1469C109.319 18.0985 109.256 18.0454 109.193 17.9929C109.174 17.9764 109.154 17.9599 109.135 17.9436L109.097 17.9125C109.003 17.8284 108.912 17.7417 108.826 17.6508C108.809 17.6339 108.792 17.6163 108.776 17.5985L108.76 17.5823L108.75 17.5709C108.687 17.5045 108.624 17.4353 108.563 17.3676C108.543 17.345 108.523 17.3213 108.503 17.2976L108.473 17.2618C108.439 17.2207 108.405 17.1786 108.371 17.1368L108.37 17.1357C108.35 17.1102 108.33 17.0849 108.309 17.0599L108.222 16.946C108.167 16.8714 108.113 16.7955 108.06 16.7169C108.05 16.7031 108.04 16.6893 108.031 16.6756C108.017 16.656 108.003 16.6359 107.989 16.6153C107.915 16.5028 107.841 16.3875 107.771 16.2683C107.649 16.0622 107.535 15.8467 107.428 15.6244C107.381 15.5268 107.336 15.4265 107.292 15.3262C106.63 13.8298 106.296 11.9917 106.406 10.0168V10.006C106.542 7.60136 107.326 5.45293 108.483 3.92395C108.55 3.83449 108.618 3.74909 108.689 3.66506L108.731 3.61219L108.761 3.57638C108.819 3.50747 108.877 3.43944 108.939 3.37363L108.973 3.33703C109.002 3.30688 109.031 3.27772 109.059 3.24859C109.098 3.20971 109.137 3.17067 109.174 3.12964L109.209 3.0944C109.248 3.05627 109.287 3.02039 109.327 2.9842C109.362 2.95228 109.397 2.91993 109.433 2.88566L109.48 2.84228C109.636 2.70673 109.796 2.57932 109.96 2.46275L110.01 2.42615C110.092 2.37058 110.172 2.31636 110.254 2.26485L110.295 2.24181C110.361 2.20024 110.428 2.16176 110.495 2.12279L110.524 2.10626L110.552 2.08999H110.565C110.646 2.04662 110.729 2.00595 110.811 1.968L110.833 1.95716L110.864 1.9436C110.955 1.90294 111.045 1.86498 111.135 1.82974L110.836 1.81348H110.527L110.357 1.82432L110.245 1.83245C110.205 1.83245 110.167 1.83927 110.128 1.84613C110.112 1.84895 110.095 1.85178 110.079 1.85414L109.978 1.86905C109.927 1.87766 109.877 1.88882 109.827 1.89984L109.788 1.90836L109.712 1.92463C109.625 1.94631 109.537 1.97071 109.452 1.99918L109.385 2.02222C109.32 2.04391 109.257 2.06695 109.193 2.09135L109.094 2.13337L109.071 2.143C109.027 2.16153 108.982 2.18035 108.938 2.20114L108.831 2.25401L108.686 2.32856L108.577 2.39091L108.442 2.47359C108.405 2.49657 108.369 2.51974 108.333 2.54408L108.198 2.63489L108.091 2.71216L107.955 2.81111L107.85 2.8965C107.806 2.93174 107.764 2.96834 107.722 3.00494L107.621 3.09576C107.577 3.13506 107.535 3.17573 107.493 3.21639L107.397 3.30992C107.365 3.34211 107.333 3.37579 107.301 3.40985L107.268 3.44547L107.25 3.46448L107.239 3.47655C107.215 3.50126 107.201 3.5164 107.18 3.54035L107.164 3.55889L107.163 3.55959C107.131 3.59629 107.08 3.65373 107.044 3.69759L106.971 3.78298C106.903 3.86521 106.837 3.94925 106.772 4.0351C105.773 5.35533 105.129 6.99817 104.857 8.71691C104.751 9.37938 104.701 10.0495 104.706 10.7203C104.706 10.8559 104.706 10.9914 104.716 11.1269C104.794 12.8579 105.243 14.559 106.082 15.9823Z" fill="white"/>
<path d="M111.936 8.25198L111.909 8.25447L111.935 8.25198H111.936Z" fill="white"/>
<path d="M111.619 8.2855L111.609 8.28673C111.562 8.29174 111.52 8.29581 111.484 8.29806L111.619 9.90972C111.715 9.90295 112.361 9.85822 112.518 9.85279C112.991 9.77418 113.45 9.56137 113.46 8.96496C113.35 8.29806 112.702 8.21267 112.149 8.23707L111.989 8.25333L111.592 8.28858L111.609 8.28673C111.636 8.2838 111.665 8.28054 111.695 8.27713L111.759 8.2699C111.71 8.27532 111.663 8.28063 111.619 8.2855Z" fill="white"/>
<path d="M127.95 14.0304C127.958 14.0886 127.958 14.1591 127.958 14.2242L127.955 14.3719V14.7189C127.954 14.7486 127.952 14.7784 127.95 14.8084C127.947 14.8511 127.943 14.8942 127.943 14.9372C127.943 14.9481 127.942 14.9591 127.941 14.9701C127.94 14.9757 127.94 14.9814 127.939 14.987C127.936 15.0152 127.934 15.0438 127.934 15.0727C127.927 15.1527 127.917 15.234 127.908 15.3153C127.907 15.3214 127.907 15.3276 127.906 15.3337C127.905 15.3408 127.904 15.3479 127.903 15.355C127.899 15.3805 127.896 15.4059 127.896 15.4319C127.88 15.5498 127.862 15.6691 127.84 15.7898C127.808 16.0039 127.76 16.2208 127.705 16.439C127.29 17.9945 126.56 19.4482 125.56 20.7101C124.959 21.4855 124.277 22.1951 123.527 22.8274C123.176 23.1226 122.809 23.3995 122.429 23.6569C122.181 23.8259 121.93 23.9827 121.678 24.1273C120.735 24.6801 119.711 25.0809 118.643 25.3147C118.521 25.3391 118.399 25.3621 118.277 25.3811C118.269 25.3826 118.261 25.3842 118.253 25.3858C118.223 25.3916 118.193 25.3974 118.162 25.3974C118.081 25.4096 117.998 25.4218 117.917 25.4313L117.896 25.4338C117.858 25.4386 117.819 25.4435 117.781 25.4435C117.77 25.4445 117.759 25.4456 117.748 25.4468L117.714 25.4507C117.663 25.4565 117.611 25.4624 117.562 25.4624C117.513 25.4692 117.465 25.4692 117.418 25.4692L117.211 25.4773H117.064C117.044 25.4773 117.022 25.4782 116.999 25.4791C116.951 25.4809 116.901 25.4828 116.868 25.4773C116.837 25.4724 116.813 25.472 116.784 25.4715C116.766 25.4711 116.746 25.4708 116.721 25.4692C116.658 25.4651 116.579 25.4597 116.53 25.4557C116.501 25.4532 116.477 25.4503 116.449 25.4469C116.431 25.4446 116.41 25.4421 116.385 25.4394C116.323 25.4326 116.262 25.4258 116.201 25.4163L116.057 25.392L116.038 25.3885C115.982 25.3783 115.917 25.3666 115.88 25.3581C115.838 25.3486 115.791 25.3377 115.744 25.3255L115.572 25.2835L115.436 25.2415C115.381 25.2252 115.325 25.2076 115.271 25.1886L115.135 25.1398C115.114 25.1315 115.091 25.1221 115.069 25.1129C115.037 25.0997 115.005 25.0865 114.975 25.0761C114.937 25.0627 114.904 25.0476 114.871 25.0328L114.84 25.0192L114.687 24.946C114.646 24.9251 114.614 24.9079 114.567 24.8824L114.562 24.8796C114.529 24.8615 114.492 24.8405 114.46 24.8216L114.435 24.8075L114.414 24.7955L114.395 24.7845C114.361 24.766 114.33 24.7484 114.295 24.7223C114.253 24.6912 114.197 24.6532 114.159 24.6275C114.137 24.6125 114.119 24.5988 114.098 24.5834C114.083 24.5723 114.067 24.5603 114.047 24.5461C113.999 24.5122 113.948 24.4716 113.911 24.4418C113.875 24.4119 113.838 24.3821 113.803 24.3509C113.741 24.2967 113.678 24.2425 113.619 24.1842L113.122 23.7206L113.146 23.7301L113.16 23.7383L113.183 23.7505L113.223 23.7708L113.242 23.7816L113.305 23.8155L113.376 23.8535L113.414 23.8738L113.434 23.8847L113.476 23.9063L113.503 23.9185C113.577 23.946 113.653 23.97 113.728 23.9937L113.747 23.9999L113.774 24.0094L113.876 24.0392H113.887C113.998 24.0717 114.109 24.0988 114.222 24.1246L114.277 24.1381C114.389 24.1625 114.501 24.1842 114.615 24.2032L114.672 24.2113C114.788 24.229 114.905 24.2452 115.024 24.2574H115.059L115.087 24.2599L115.119 24.2629C115.218 24.2724 115.318 24.2818 115.419 24.2818H115.871C115.992 24.2791 116.111 24.2723 116.233 24.2628H116.301C116.423 24.252 116.546 24.2371 116.67 24.2195L116.724 24.2113C116.854 24.1924 116.987 24.1693 117.117 24.1422C117.247 24.1151 117.379 24.0839 117.509 24.0514C117.639 24.0189 117.766 23.9823 117.902 23.9429C119.325 23.4981 120.652 22.792 121.817 21.8609C122.324 21.4618 122.803 21.0289 123.252 20.5651C125.102 18.6485 126.261 16.3957 126.63 14.2947C126.651 14.17 126.669 14.0466 126.685 13.9233L126.687 13.9126L126.689 13.9024C126.693 13.8849 126.696 13.8675 126.696 13.8501C126.71 13.7308 126.722 13.6115 126.731 13.4936V13.4272L126.734 13.3872C126.742 13.2878 126.749 13.1875 126.749 13.0883V12.6315C126.745 12.5163 126.738 12.4024 126.729 12.2886V12.2398C126.719 12.1327 126.707 12.027 126.692 11.9212V11.8765C126.675 11.7654 126.656 11.6556 126.634 11.5471C126.632 11.541 126.631 11.535 126.629 11.529C126.625 11.5128 126.62 11.4965 126.62 11.4807C126.596 11.3723 126.57 11.2638 126.542 11.1568C126.54 11.1493 126.538 11.1419 126.536 11.1345C126.534 11.1297 126.533 11.1249 126.531 11.1202C126.512 11.051 126.492 10.9833 126.468 10.9155L126.46 10.8857C126.455 10.8747 126.451 10.8633 126.448 10.8518C126.412 10.746 126.374 10.6403 126.332 10.5373L126.569 10.7799C126.646 10.8572 126.726 10.9412 126.792 11.0171C126.859 11.093 126.924 11.1717 126.985 11.253L127.009 11.2869C127.061 11.3574 127.112 11.4292 127.161 11.5024C127.173 11.5207 127.184 11.5395 127.195 11.5585C127.202 11.5705 127.209 11.5825 127.217 11.5946C127.252 11.6501 127.286 11.7071 127.318 11.764L127.323 11.773C127.341 11.8041 127.352 11.8242 127.377 11.8738C127.388 11.8959 127.4 11.9208 127.413 11.9451C127.431 11.9804 127.448 12.0146 127.459 12.0378C127.47 12.0593 127.477 12.0772 127.486 12.0979L127.486 12.0987C127.493 12.1155 127.501 12.1343 127.512 12.1584C127.537 12.2125 127.56 12.2666 127.582 12.3206L127.63 12.4499C127.639 12.4745 127.647 12.4988 127.656 12.5232L127.656 12.524C127.667 12.5545 127.678 12.5851 127.688 12.6166L127.729 12.7521C127.739 12.7862 127.75 12.8252 127.759 12.8603L127.768 12.8909L127.777 12.9229C127.789 12.9663 127.797 13.0002 127.81 13.0585C127.818 13.0901 127.825 13.1272 127.832 13.1611C127.837 13.1898 127.843 13.2161 127.847 13.2347C127.856 13.2754 127.865 13.3106 127.874 13.3702C127.884 13.4299 127.894 13.5017 127.901 13.5505L127.906 13.5811L127.906 13.5821C127.911 13.6161 127.915 13.6476 127.92 13.6956C127.923 13.7186 127.924 13.7436 127.925 13.7683C127.928 13.8103 127.93 13.8519 127.938 13.8826C127.945 13.9099 127.945 13.9346 127.946 13.9613C127.946 13.9823 127.946 14.0046 127.95 14.0304Z" fill="white"/>
<path d="M116.178 12.826L118.806 13.199L116.723 18.7391L115.59 13.3832L115.587 13.3725C115.546 13.2032 115.546 13.1561 115.557 13.1165C115.577 13.0474 115.619 12.9815 115.677 12.9278C115.735 12.8741 115.806 12.8352 115.881 12.816C115.935 12.8021 116.005 12.8015 116.178 12.826Z" fill="white"/>
<path d="M117.687 18.9017L119.779 13.3372L122.456 13.7172C122.574 13.734 122.643 13.7595 122.703 13.8017C122.717 13.8118 122.727 13.8217 122.737 13.8394C122.749 13.86 122.761 13.8894 122.779 13.9442C122.79 14.0127 122.782 14.0765 122.755 14.1474C122.722 14.2349 122.667 14.3172 122.61 14.3715L117.687 18.9017Z" fill="white"/>
<path fill-rule="evenodd" clip-rule="evenodd" d="M117.294 9.03141C117.397 8.97719 117.5 8.92432 117.603 8.87417L117.673 8.84571C117.746 8.81033 117.82 8.77687 117.893 8.74372L117.894 8.7434L117.934 8.72507L118.002 8.69525L118.098 8.65323L118.304 8.56783L118.55 8.47159L118.716 8.4106L118.968 8.3252L119.127 8.27505C119.215 8.24659 119.306 8.22083 119.398 8.19643C119.416 8.19167 119.434 8.18671 119.452 8.18178C119.479 8.17407 119.506 8.16645 119.534 8.15984C119.669 8.12459 119.805 8.09342 119.94 8.06495C120.419 7.96372 120.906 7.90879 121.395 7.90094C121.478 7.89551 121.561 7.89733 121.643 7.89914C121.684 7.90004 121.724 7.90094 121.765 7.90094C122.074 7.91414 122.381 7.95222 122.684 8.0148C122.811 8.04055 122.956 8.07715 123.061 8.10562C123.165 8.13408 123.267 8.16797 123.368 8.20321C123.667 8.30894 123.953 8.44521 124.224 8.60985C124.492 8.77497 124.742 8.96956 124.968 9.19C124.985 9.20689 125.001 9.22437 125.017 9.24205L125.027 9.25231L125.044 9.26997C125.069 9.30095 125.099 9.33247 125.128 9.36454L125.152 9.39026C125.156 9.39461 125.16 9.39896 125.164 9.40333C125.169 9.40901 125.174 9.41471 125.179 9.42043C126.224 10.6065 126.566 12.3239 126.234 14.212C126.212 14.3381 126.188 14.4628 126.159 14.5902C126.131 14.7176 126.096 14.8627 126.066 14.9738L126.06 14.995C126.032 15.0991 126.004 15.2048 125.971 15.31C125.936 15.4225 125.9 15.535 125.861 15.6488C125.811 15.7939 125.757 15.9389 125.7 16.0839C125.624 16.2791 125.542 16.473 125.453 16.6668C125.349 16.8891 125.237 17.115 125.116 17.3445C124.994 17.5741 124.865 17.8 124.726 18.0223C124.221 18.8345 123.63 19.5906 122.964 20.2778C121.912 21.3791 120.673 22.2859 119.305 22.9562C119.05 23.0782 118.796 23.1893 118.541 23.2883L118.491 23.3065C118.381 23.3465 118.271 23.3862 118.161 23.4238C117.907 23.5124 117.655 23.5883 117.404 23.6516C117.278 23.6827 117.139 23.7166 117.029 23.7383C116.919 23.76 116.808 23.7803 116.698 23.798L116.611 23.8129C116.516 23.8278 116.421 23.84 116.327 23.8508H116.281C116.174 23.863 116.068 23.8711 115.962 23.8793L115.881 23.8793C115.794 23.8888 115.707 23.8888 115.622 23.8888H115.179C115.096 23.8847 115.013 23.8793 114.932 23.8711L114.856 23.8644C114.758 23.8549 114.659 23.8427 114.563 23.8278L114.512 23.8183C114.433 23.8068 114.358 23.7916 114.281 23.7762L114.268 23.7736L114.192 23.7573C114.097 23.7356 114.003 23.7126 113.911 23.6868H113.892C113.807 23.661 113.721 23.6339 113.637 23.6041L113.566 23.5784C113.484 23.5485 113.404 23.5174 113.326 23.4835L113.3 23.474C113.244 23.4496 113.195 23.4266 113.137 23.3954C113.108 23.3798 113.076 23.3635 113.042 23.347C113.009 23.3303 112.975 23.3134 112.943 23.2964C112.904 23.2747 112.865 23.2531 112.827 23.23C112.764 23.1939 112.703 23.1559 112.644 23.1161L112.534 23.043C112.47 23.0023 112.409 22.9548 112.348 22.9074L112.259 22.8383L112.215 22.802C112.138 22.7388 112.056 22.6714 112.001 22.6078C111.965 22.565 111.926 22.526 111.888 22.4872C111.858 22.4574 111.829 22.4277 111.801 22.3964L111.742 22.3286C111.699 22.2771 111.656 22.2242 111.615 22.1714L111.554 22.0914C111.513 22.0372 111.475 21.9816 111.437 21.926L111.424 21.9062C111.412 21.8883 111.399 21.8703 111.389 21.8515C111.338 21.7729 111.29 21.6943 111.245 21.6116C111.245 21.6089 111.245 21.6061 111.245 21.6034C111.195 21.5194 111.15 21.4326 111.109 21.3445C111.1 21.3265 111.093 21.3084 111.085 21.2903C111.081 21.2813 111.077 21.2722 111.073 21.2632C111.044 21.2009 111.017 21.1372 110.991 21.0734L110.955 20.9772C110.936 20.9311 110.918 20.8775 110.901 20.8249L110.887 20.7834L110.857 20.6926C110.832 20.6058 110.806 20.5177 110.784 20.4282C110.781 20.4199 110.779 20.4113 110.777 20.4025C110.753 20.3049 110.733 20.2059 110.714 20.1056C110.712 20.0963 110.71 20.0867 110.707 20.077C110.702 20.0556 110.697 20.0335 110.697 20.0121C110.685 19.9416 110.674 19.8698 110.665 19.7979C110.663 19.789 110.662 19.78 110.66 19.7711C110.656 19.7434 110.651 19.7155 110.651 19.6868C110.649 19.6633 110.646 19.6408 110.643 19.6192C110.637 19.5699 110.631 19.5239 110.631 19.474C110.621 19.4387 110.621 19.4035 110.621 19.3683C110.611 19.2762 110.611 19.1838 110.611 19.0904V18.7231C110.611 18.7109 110.61 18.7005 110.608 18.6901C110.606 18.6693 110.604 18.6485 110.611 18.6133C110.62 18.5604 110.62 18.5062 110.62 18.452V18.3991C110.627 18.3123 110.635 18.2202 110.646 18.128C110.647 18.116 110.649 18.1042 110.65 18.0926C110.653 18.0739 110.655 18.0555 110.655 18.0372L110.668 17.9464C110.682 17.8284 110.699 17.7119 110.72 17.5926C110.739 17.4832 110.761 17.3735 110.785 17.2632C110.79 17.2401 110.795 17.2221 110.799 17.2024C110.805 17.1782 110.812 17.1512 110.821 17.1087C110.835 17.0394 110.854 16.9658 110.868 16.9132L110.872 16.8959C110.878 16.8723 110.884 16.8525 110.89 16.8314C110.897 16.8054 110.905 16.777 110.916 16.7359C110.934 16.6617 110.959 16.5805 110.975 16.5262C110.982 16.5021 110.989 16.4811 110.996 16.4591C111.005 16.4318 111.015 16.4024 111.027 16.3618C111.046 16.2967 111.066 16.238 111.088 16.1761L111.153 15.9891C111.17 15.9403 111.19 15.8886 111.208 15.8435L111.218 15.818C111.223 15.8039 111.228 15.7908 111.233 15.779C111.253 15.7247 111.268 15.6854 111.296 15.615C111.325 15.5445 111.363 15.4536 111.386 15.4008C111.394 15.3832 111.401 15.3656 111.409 15.348C111.424 15.3127 111.439 15.2774 111.455 15.2422C111.488 15.1676 111.523 15.0931 111.558 15.0199C111.581 14.9697 111.604 14.9196 111.629 14.8694C111.669 14.7868 111.711 14.7054 111.755 14.6227C111.762 14.6092 111.768 14.5956 111.775 14.5821L111.776 14.5807C111.79 14.5527 111.804 14.5247 111.82 14.4967C111.846 14.4493 111.872 14.4021 111.898 14.3549L111.898 14.3542C111.939 14.279 111.98 14.2035 112.024 14.128L112.05 14.0846C112.105 13.9856 112.166 13.8877 112.228 13.7888L112.245 13.7607C112.269 13.7164 112.294 13.6784 112.319 13.6403L112.329 13.6251C112.379 13.5465 112.43 13.4679 112.482 13.3893C112.504 13.3567 112.527 13.3242 112.55 13.2916C112.561 13.2754 112.573 13.2591 112.584 13.2429C112.634 13.171 112.699 13.0789 112.736 13.0273C112.753 13.0035 112.768 12.9842 112.783 12.9635C112.802 12.9395 112.822 12.9134 112.848 12.8755C112.899 12.805 112.951 12.7373 113.004 12.6695L113.12 12.5204C113.142 12.4938 113.166 12.4635 113.189 12.4336C113.222 12.3921 113.254 12.3511 113.282 12.3211C113.309 12.2931 113.33 12.2682 113.353 12.2415C113.372 12.2193 113.392 12.1957 113.418 12.168C113.446 12.1371 113.478 12.0998 113.509 12.0642L113.509 12.0634C113.539 12.029 113.567 11.996 113.59 11.9714C113.636 11.9213 113.681 11.8725 113.725 11.8223C113.756 11.7902 113.785 11.759 113.814 11.728L113.815 11.727C113.873 11.6654 113.93 11.6041 113.997 11.535C114.097 11.4306 114.199 11.3303 114.302 11.23L114.329 11.2042L114.409 11.127C114.428 11.1089 114.448 11.0906 114.468 11.0722C114.519 11.0262 114.57 10.9798 114.613 10.9372C114.662 10.8892 114.718 10.8412 114.771 10.7946L114.81 10.761L114.966 10.62L115.168 10.4533C115.186 10.4383 115.204 10.424 115.221 10.4098L115.222 10.4092C115.255 10.3815 115.289 10.3534 115.336 10.3178L115.404 10.2653C115.454 10.2269 115.504 10.1889 115.542 10.1592L115.569 10.1381C115.611 10.1047 115.648 10.0757 115.711 10.0317C115.756 10.0004 115.803 9.96668 115.845 9.93622L115.845 9.93571C115.874 9.91499 115.9 9.89581 115.923 9.87993C115.935 9.87127 115.947 9.86253 115.959 9.85378C115.966 9.8493 115.972 9.84482 115.978 9.84033C116.015 9.81382 116.052 9.78731 116.089 9.76201L116.31 9.61697C116.327 9.60618 116.344 9.59524 116.36 9.5843C116.394 9.56231 116.427 9.54016 116.461 9.51938L116.493 9.49905C116.517 9.48388 116.54 9.46933 116.561 9.45525C116.611 9.42288 116.658 9.39273 116.708 9.3635L116.867 9.2659C116.954 9.21576 117.041 9.1683 117.128 9.12087L117.219 9.07071L117.294 9.03141ZM122.802 12.797L116.524 11.9059C116.356 11.882 116.089 11.8451 115.783 11.9239C115.497 11.9974 115.226 12.1454 115.008 12.3475C114.789 12.5496 114.633 12.7963 114.559 13.0542C114.479 13.3346 114.536 13.5688 114.573 13.7203L114.574 13.726L116.051 20.7061C116.083 20.861 116.211 20.972 116.384 20.9972C116.558 21.0225 116.752 20.9582 116.892 20.8286L123.281 14.9505L123.287 14.9449C123.495 14.7488 123.644 14.5111 123.729 14.2856C123.818 14.0482 123.838 13.8186 123.794 13.597C123.791 13.5843 123.788 13.5718 123.784 13.5595C123.735 13.4021 123.66 13.188 123.428 13.026C123.234 12.8909 123.024 12.8285 122.802 12.797Z" fill="white"/>
<path d="M108.796 4.15031C108.658 4.33104 108.525 4.52351 108.397 4.72774C107.682 5.89555 107.197 7.18933 106.969 8.53933C106.805 9.45911 106.742 10.3941 106.783 11.3275C106.811 12.0116 106.899 12.6919 107.046 13.3608C107.103 13.6165 107.168 13.8668 107.241 14.1117C107.314 14.3566 107.395 14.5938 107.484 14.8233C107.653 15.2674 107.859 15.6967 108.099 16.1069L108.116 16.1356C108.179 16.2409 108.241 16.3437 108.311 16.4431L108.384 16.5488C108.433 16.6211 108.483 16.6916 108.534 16.7603C108.552 16.7842 108.57 16.8072 108.588 16.8301C108.6 16.8459 108.613 16.8622 108.625 16.8782C108.672 16.9392 108.721 16.9989 108.77 17.0571C108.819 17.1154 108.836 17.1358 108.87 17.1737C108.904 17.2117 108.968 17.2821 109.018 17.3337C109.036 17.3522 109.05 17.3671 109.063 17.3801C109.085 17.4031 109.102 17.4211 109.125 17.4434L109.153 17.4708C109.19 17.5063 109.238 17.553 109.278 17.5898L109.388 17.6901L109.551 17.8257L109.661 17.9124C109.687 17.9322 109.713 17.9512 109.739 17.9702C109.774 17.9955 109.809 18.0209 109.844 18.048L109.943 18.1158C110.037 18.1781 110.134 18.2364 110.233 18.2893C110.241 18.1862 110.252 18.0832 110.265 17.9789V17.949C110.283 17.8135 110.303 17.6779 110.326 17.5424C110.348 17.4164 110.369 17.3162 110.393 17.2058L110.398 17.1805L110.431 17.0449C110.448 16.9717 110.466 16.8985 110.485 16.8254L110.49 16.8032C110.506 16.7421 110.518 16.6985 110.532 16.6451L110.581 16.4743C110.603 16.4024 110.624 16.332 110.647 16.2601C110.654 16.2377 110.662 16.2158 110.669 16.194C110.675 16.1776 110.68 16.1611 110.685 16.1449C110.829 15.7161 110.997 15.2961 111.19 14.887H111.15L111.05 13.5451L110.702 13.5709H110.694L109.636 13.6495L109.421 13.6644L109.509 12.6871L110.017 12.6424L110.132 12.6356C110.2 12.625 110.262 12.5905 110.307 12.5384C110.352 12.4862 110.377 12.4198 110.378 12.3509L110.1 8.71961C110.084 8.65495 110.054 8.59442 110.013 8.54204C109.962 8.4868 109.898 8.44538 109.827 8.42166C109.756 8.39795 109.68 8.39273 109.606 8.4065C109.555 8.40225 109.502 8.40225 109.451 8.4065L109.053 8.44174H109.02L108.956 7.5783L109.469 7.51866L109.646 7.50646H109.674L110.589 7.43733L110.49 6.11574H110.58L111.207 6.0683H111.297L111.393 7.38176L111.504 7.37227L111.819 7.35194H111.817L111.504 7.37227L112.012 7.32754H112.037L111.942 6.01951L112.659 5.96529H112.747L112.847 7.29094C113.895 7.30314 114.695 7.6271 114.909 8.51087C115.032 9.20487 114.748 9.66844 114.3 9.9409C114.497 10.0007 114.68 10.0966 114.842 10.2236C114.774 10.2801 114.706 10.3374 114.639 10.3953C114.38 10.6172 114.126 10.8525 113.878 11.1012C113.587 10.6796 112.85 10.6579 112.271 10.6945L111.751 10.7406L111.656 10.7501L111.805 12.5271L112.313 12.4811C112.366 12.4811 112.429 12.4781 112.5 12.4748C112.556 12.4722 112.617 12.4693 112.682 12.4675C112.744 12.3862 112.809 12.3062 112.874 12.2263C112.902 12.191 112.93 12.1557 112.958 12.1219C113.014 12.0541 113.071 11.9863 113.128 11.9199L113.273 11.7532C113.279 11.746 113.286 11.7389 113.292 11.7317C113.298 11.7246 113.305 11.7174 113.311 11.7103C113.343 11.674 113.375 11.6377 113.409 11.6027C113.506 11.4943 113.606 11.3858 113.709 11.2801C114.005 10.9697 114.315 10.6745 114.639 10.3953C114.706 10.3374 114.774 10.2803 114.843 10.2242L114.842 10.2236C115.76 9.4623 116.78 8.82767 117.873 8.33872C117.771 7.53938 117.578 6.75413 117.3 5.99782C117.176 5.65859 117.031 5.32724 116.866 5.00561C116.796 4.87006 116.723 4.73452 116.647 4.60575C115.716 3.02797 114.378 2.03034 112.864 1.95037H112.582C112.488 1.95037 112.405 1.95037 112.317 1.96393C112.054 1.98204 111.794 2.02654 111.539 2.09676C110.521 2.39903 109.575 3.11879 108.796 4.15031Z" fill="white"/>
</svg>
