<svg width="116" height="48" viewBox="0 0 116 48" fill="none" xmlns="http://www.w3.org/2000/svg">
<path d="M28.7435 25.1319L26.7364 19.6066H22.9275L20.9121 25.1319L18.0822 19.6066H14.2733L18.9033 28.3117H22.9274L24.8311 23.9772L26.7364 28.3117H30.7588L35.3891 19.6066H31.5801L28.7435 25.1319Z" fill="white"/>
<path d="M36.3762 26.7317H40.7255L41.4086 28.3117H45.2192L40.5613 19.6066H36.5372L31.8822 28.3183H35.6911L36.3762 26.7317ZM38.5525 22.0539L39.74 24.6161H37.3568L38.5525 22.0539Z" fill="white"/>
<path d="M50.6114 22.067C51.0657 22.0622 51.5187 22.1146 51.9599 22.223C52.3277 22.302 52.6552 22.51 52.883 22.8094H56.48C56.099 20.1387 53.6188 19.4834 50.6114 19.4834C47.3429 19.4834 44.6705 20.2668 44.6837 23.5518V24.1842C44.6705 27.4609 47.3429 28.4645 50.6114 28.476C52.0897 28.476 53.6139 28.0604 54.6207 27.0667L54.785 28.3117H56.4767V23.4418H50.5802V24.92H53.3051C52.7943 25.577 51.9418 25.6558 50.6065 25.6558C49.2169 25.6361 48.0426 25.3914 48.0623 23.9657V23.7522C48.0475 22.3446 49.2219 22.0949 50.6114 22.067Z" fill="white"/>
<path d="M72.5963 28.3117V19.6065H68.3669L64.9768 23.8672L61.5949 19.6065H57.359V28.3117H60.7425V23.5765L64.1309 28.3117H65.8227L69.2128 23.5765V28.3117H72.5963Z" fill="white"/>
<path d="M76.8553 19.6066H73.4718L73.4718 28.3117H76.8553V19.6066Z" fill="white"/>
<path d="M84.4993 28.3117V19.1056H79.7114V22.0095H80.9186V28.3117H84.4993Z" fill="white"/>
<path d="M91.0331 28.3117V19.1056H86.2453V22.0095H87.4525V28.3117H91.0331Z" fill="white"/>
<path d="M105.86 28.7766C105.592 28.7976 105.342 28.9188 105.159 29.1161C104.976 29.3133 104.875 29.5721 104.874 29.8409V34.0276C104.874 34.3325 104.753 34.625 104.538 34.8406C104.322 35.0562 104.03 35.1773 103.725 35.1773H12.8114C12.2451 35.1773 11.702 34.9524 11.3016 34.5519C10.9011 34.1515 10.6762 33.6084 10.6762 33.0421V13.9071C10.6762 13.3408 10.9011 12.7977 11.3016 12.3973C11.702 11.9969 12.2451 11.7719 12.8114 11.7719H87.7088C88.0137 11.7719 88.3061 11.6508 88.5218 11.4352C88.7374 11.2195 88.8585 10.9271 88.8585 10.6222C88.8585 10.3172 88.7374 10.0248 88.5218 9.80918C88.3061 9.59356 88.0137 9.47243 87.7088 9.47243H9.50178C8.93901 9.47219 8.39891 9.69414 7.99891 10.09L0.634 17.3859C0.433237 17.5844 0.273832 17.8208 0.165006 18.0813C0.0561813 18.3418 9.72964e-05 18.6213 0 18.9036V45.1144C0 45.6807 0.224962 46.2238 0.625395 46.6242C1.02583 47.0246 1.56893 47.2496 2.13523 47.2496H93.9864C94.4435 47.2495 94.8885 47.1027 95.256 46.8308L106.144 38.7727C106.412 38.5741 106.63 38.3153 106.78 38.0172C106.93 37.7191 107.008 37.39 107.008 37.0563V29.8409C107.008 29.6939 106.978 29.5486 106.919 29.4139C106.86 29.2792 106.774 29.1581 106.666 29.0582C106.558 28.9583 106.431 28.8817 106.292 28.8332C106.154 28.7848 106.006 28.7655 105.86 28.7766Z" fill="white"/>
<path d="M93.8711 15.0057C93.9267 15.1006 93.985 15.1928 94.0433 15.2768C94.0527 15.2917 94.0626 15.3059 94.0724 15.3202C94.0821 15.3343 94.0921 15.3488 94.1015 15.3635L94.129 15.4039C94.1605 15.4504 94.1924 15.4973 94.2249 15.5425L94.2967 15.6401C94.3096 15.657 94.3225 15.6742 94.3353 15.6913L94.3358 15.6919C94.3617 15.7265 94.3876 15.7612 94.4146 15.7946L94.4946 15.8922C94.5326 15.9396 94.5719 15.9871 94.6112 16.0277L94.698 16.124C94.7373 16.1673 94.7766 16.2094 94.8172 16.2514L94.9067 16.3422C94.9474 16.3829 94.988 16.4222 95.03 16.4601L95.0487 16.4771L95.0753 16.5017L95.0762 16.5026C95.0924 16.5176 95.1063 16.5305 95.1236 16.5455L95.1306 16.5516C95.1622 16.5791 95.2106 16.6212 95.2496 16.654L95.3459 16.7339L95.4814 16.8329L95.579 16.9047C95.6249 16.9358 95.6714 16.9672 95.7146 16.9969L95.8108 17.0592C95.8493 17.0828 95.8896 17.1055 95.9295 17.128L95.9613 17.146L95.9903 17.1627L96.0052 17.1713C96.0222 17.1812 96.0331 17.1876 96.0521 17.1975C96.0946 17.2197 96.1378 17.2406 96.1812 17.2615L96.2337 17.287L96.2974 17.3168C96.3801 17.3547 96.4641 17.3886 96.5495 17.4198L96.62 17.4442C96.6378 17.45 96.6555 17.4559 96.6732 17.4618C96.7173 17.4766 96.7612 17.4913 96.8057 17.5038C96.826 17.5103 96.8465 17.5154 96.8668 17.5205C96.8803 17.5238 96.8939 17.5272 96.9074 17.5309L97.0673 17.5703L97.1798 17.5919C97.1955 17.5946 97.2111 17.5974 97.2265 17.6002C97.2659 17.6072 97.3049 17.6142 97.3438 17.619L97.4035 17.6272C97.4861 17.6367 97.5688 17.6462 97.6529 17.6502L97.9524 17.6665L97.8589 17.619L97.8212 17.5984C97.7667 17.5686 97.7116 17.5385 97.661 17.5065L97.474 17.3859L97.3994 17.3385C97.3745 17.3213 97.3499 17.3028 97.3254 17.2842L97.3248 17.2838C97.3068 17.2702 97.2888 17.2567 97.2706 17.2436L97.2576 17.2342C97.2223 17.2089 97.2008 17.1934 97.1717 17.1704C97.1078 17.122 97.0447 17.0688 96.9824 17.0164C96.9627 16.9998 96.9432 16.9833 96.9236 16.9671L96.8857 16.9359C96.7922 16.8519 96.7013 16.7651 96.6146 16.6743C96.5976 16.6573 96.5812 16.6397 96.5646 16.622L96.5495 16.6058L96.5387 16.5943C96.4763 16.5279 96.4126 16.4588 96.3516 16.391C96.3318 16.3685 96.312 16.3448 96.2922 16.3211L96.2622 16.2853C96.2278 16.2442 96.1939 16.2021 96.1603 16.1602L96.1595 16.1592C96.139 16.1337 96.1186 16.1083 96.0982 16.0833L96.0114 15.9694C95.9558 15.8949 95.9016 15.819 95.8487 15.7404C95.8393 15.7265 95.8296 15.7127 95.8199 15.699C95.806 15.6794 95.7918 15.6593 95.7783 15.6387C95.7037 15.5262 95.6305 15.411 95.56 15.2917C95.438 15.0857 95.3242 14.8701 95.2171 14.6478C95.1697 14.5503 95.1249 14.4499 95.0816 14.3496C94.4187 12.8532 94.0853 11.0152 94.1951 9.04025V9.0294C94.3306 6.62479 95.1154 4.47636 96.2717 2.94739C96.3394 2.85793 96.4072 2.77253 96.4777 2.68849L96.5197 2.63563L96.5501 2.59981C96.6084 2.53091 96.6661 2.46287 96.7285 2.39707L96.7623 2.36047C96.7908 2.33031 96.8197 2.30115 96.8485 2.27203C96.8871 2.23315 96.9258 2.19411 96.9629 2.15308L96.9982 2.11784C97.037 2.07971 97.0763 2.04382 97.1159 2.00764C97.1509 1.97572 97.1863 1.94337 97.2218 1.90909L97.2693 1.86572C97.4252 1.73017 97.5851 1.60276 97.7491 1.48619L97.7993 1.44959C97.8806 1.39401 97.9606 1.3398 98.0433 1.28829L98.0839 1.26524C98.1504 1.22368 98.217 1.1852 98.2844 1.14623L98.313 1.1297L98.3415 1.11343H98.3537C98.435 1.07006 98.5177 1.02939 98.6004 0.991438L98.622 0.980594L98.6532 0.96704C98.7436 0.926375 98.8339 0.888422 98.9243 0.85318L98.6248 0.836914H98.3157L98.1463 0.847758L98.0338 0.855891C97.9944 0.855891 97.9556 0.862707 97.9166 0.869572C97.9006 0.872388 97.8846 0.875213 97.8684 0.877578L97.7667 0.892489C97.7162 0.901093 97.6656 0.912262 97.6157 0.923278L97.577 0.931797L97.5011 0.948063C97.4143 0.969751 97.3262 0.994149 97.2408 1.02261L97.1744 1.04566C97.1093 1.06734 97.0456 1.09039 96.9819 1.11479L96.883 1.15681L96.86 1.16643C96.8159 1.18497 96.771 1.20379 96.7271 1.22458L96.62 1.27744L96.475 1.35199L96.3665 1.41435L96.231 1.49703C96.1945 1.52001 96.1577 1.54318 96.1225 1.56752L95.987 1.65833L95.8799 1.73559L95.7444 1.83454L95.6387 1.91994C95.5953 1.95518 95.5533 1.99178 95.5112 2.02837L95.4096 2.11919C95.3662 2.1585 95.3242 2.19917 95.2822 2.23983L95.1859 2.33336C95.1537 2.36555 95.1223 2.39923 95.0905 2.43329L95.0571 2.46891L95.0392 2.48791L95.0278 2.49999C95.0043 2.5247 94.99 2.53984 94.969 2.56379L94.9528 2.58233L94.9521 2.58303C94.9199 2.61973 94.8695 2.67717 94.8335 2.72102L94.7603 2.80642C94.6925 2.88865 94.6261 2.97269 94.561 3.05854C93.5621 4.37877 92.9182 6.02161 92.6458 7.74035C92.5401 8.40282 92.4898 9.07293 92.4953 9.74374C92.4953 9.87929 92.4953 10.0148 92.5048 10.1504C92.5834 11.8813 93.0321 13.5824 93.8711 15.0057Z" fill="white"/>
<path d="M99.7255 7.27542L99.6981 7.27791L99.7241 7.27542H99.7255Z" fill="white"/>
<path d="M99.4084 7.30894L99.3976 7.31016C99.3509 7.31518 99.3089 7.31924 99.2728 7.3215L99.4083 8.93316C99.5045 8.92638 100.15 8.88165 100.307 8.87623C100.78 8.79761 101.24 8.5848 101.249 7.98839C101.139 7.3215 100.491 7.23611 99.9383 7.2605L99.7783 7.27677L99.3812 7.31201L99.3976 7.31016C99.4249 7.30723 99.4538 7.30397 99.4841 7.30056L99.5486 7.29334C99.4986 7.29876 99.4516 7.30407 99.4084 7.30894Z" fill="white"/>
<path d="M115.739 13.0538C115.747 13.1121 115.747 13.1826 115.747 13.2476L115.745 13.3954V13.7424C115.743 13.772 115.741 13.8019 115.739 13.8318C115.736 13.8745 115.732 13.9176 115.732 13.9606C115.732 13.9716 115.731 13.9826 115.73 13.9936C115.729 13.9992 115.729 14.0048 115.728 14.0104C115.726 14.0386 115.723 14.0672 115.723 14.0962C115.716 14.1761 115.707 14.2575 115.697 14.3388C115.696 14.3449 115.696 14.351 115.695 14.3571C115.694 14.3642 115.693 14.3714 115.692 14.3784C115.688 14.404 115.685 14.4294 115.685 14.4554C115.669 14.5733 115.651 14.6926 115.629 14.8132C115.597 15.0274 115.549 15.2442 115.494 15.4625C115.079 17.0179 114.349 18.4717 113.349 19.7336C112.748 20.5089 112.067 21.2186 111.316 21.8508C110.965 22.1461 110.598 22.4229 110.218 22.6804C109.97 22.8494 109.719 23.0061 109.467 23.1507C108.524 23.7036 107.5 24.1043 106.432 24.3381C106.31 24.3625 106.188 24.3856 106.066 24.4045C106.058 24.406 106.05 24.4076 106.042 24.4092C106.012 24.415 105.982 24.4208 105.951 24.4208C105.87 24.433 105.787 24.4452 105.706 24.4547L105.685 24.4572C105.647 24.462 105.608 24.4669 105.57 24.4669C105.559 24.4679 105.548 24.469 105.537 24.4702L105.503 24.4741C105.452 24.48 105.4 24.4859 105.351 24.4859C105.302 24.4926 105.255 24.4926 105.207 24.4926L105 24.5008H104.853C104.833 24.5008 104.811 24.5016 104.788 24.5025C104.74 24.5044 104.691 24.5063 104.657 24.5008C104.626 24.4958 104.602 24.4954 104.573 24.4949C104.555 24.4946 104.535 24.4942 104.51 24.4926C104.447 24.4886 104.368 24.4832 104.319 24.4791C104.29 24.4767 104.266 24.4737 104.238 24.4703C104.22 24.468 104.199 24.4655 104.174 24.4628C104.112 24.4561 104.051 24.4493 103.99 24.4398L103.846 24.4154L103.827 24.4119C103.771 24.4018 103.706 24.39 103.669 24.3815C103.627 24.372 103.58 24.3612 103.533 24.349L103.361 24.3069L103.225 24.2649C103.17 24.2487 103.114 24.231 103.06 24.2121L102.924 24.1633C102.903 24.1549 102.88 24.1456 102.858 24.1363C102.826 24.1231 102.794 24.1099 102.764 24.0996C102.726 24.0861 102.693 24.0711 102.66 24.0563L102.629 24.0426L102.476 23.9694C102.435 23.9485 102.404 23.9314 102.356 23.9058L102.351 23.903C102.318 23.885 102.281 23.8639 102.249 23.8451L102.224 23.831L102.203 23.819L102.184 23.8079C102.151 23.7894 102.119 23.7719 102.084 23.7458C102.042 23.7146 101.986 23.6767 101.948 23.6509C101.926 23.6359 101.908 23.6223 101.887 23.6068C101.872 23.5957 101.856 23.5837 101.836 23.5696C101.789 23.5357 101.737 23.495 101.7 23.4652C101.664 23.4354 101.627 23.4055 101.592 23.3743C101.53 23.3201 101.467 23.2659 101.408 23.2077L100.912 22.7441L100.935 22.7536L100.95 22.7617L100.973 22.7739L101.012 22.7942L101.031 22.8051L101.095 22.839L101.165 22.8769L101.203 22.8973L101.223 22.9081L101.265 22.9298L101.292 22.942C101.366 22.9694 101.442 22.9934 101.517 23.0171L101.536 23.0233L101.564 23.0328L101.665 23.0626H101.676C101.787 23.0952 101.898 23.1223 102.011 23.148L102.066 23.1616C102.178 23.186 102.29 23.2077 102.404 23.2266L102.461 23.2348C102.577 23.2524 102.694 23.2687 102.813 23.2809H102.849L102.876 23.2834L102.908 23.2864C103.007 23.2958 103.107 23.3053 103.208 23.3053H103.66C103.781 23.3025 103.9 23.2958 104.022 23.2863H104.09C104.212 23.2754 104.335 23.2605 104.459 23.2429L104.513 23.2348C104.643 23.2158 104.776 23.1927 104.906 23.1656C105.036 23.1385 105.168 23.1074 105.298 23.0748C105.428 23.0423 105.555 23.0057 105.691 22.9664C107.114 22.5215 108.441 21.8155 109.606 20.8844C110.113 20.4852 110.592 20.0523 111.041 19.5885C112.891 17.6719 114.05 15.4191 114.419 13.3181C114.441 13.1934 114.458 13.0701 114.474 12.9467L114.476 12.9361L114.478 12.9258C114.482 12.9084 114.485 12.8909 114.485 12.8735C114.499 12.7542 114.511 12.635 114.521 12.517V12.4506L114.523 12.4107C114.531 12.3112 114.538 12.211 114.538 12.1117V11.6549C114.534 11.5397 114.527 11.4259 114.518 11.312V11.2632C114.508 11.1561 114.496 11.0504 114.481 10.9447V10.8999C114.464 10.7888 114.445 10.679 114.423 10.5706C114.421 10.5644 114.42 10.5584 114.418 10.5525C114.414 10.5362 114.409 10.5199 114.409 10.5041C114.385 10.3957 114.359 10.2873 114.331 10.1802C114.329 10.1727 114.327 10.1653 114.325 10.158C114.323 10.1531 114.322 10.1484 114.32 10.1436C114.301 10.0745 114.281 10.0067 114.258 9.93891L114.249 9.90909C114.245 9.89811 114.24 9.88678 114.237 9.87521C114.201 9.76948 114.163 9.66375 114.121 9.56074L114.358 9.80337C114.435 9.88063 114.515 9.96467 114.582 10.0406C114.648 10.1165 114.713 10.1951 114.774 10.2764L114.798 10.3103C114.85 10.3808 114.901 10.4526 114.95 10.5258C114.962 10.5441 114.973 10.563 114.984 10.582C114.991 10.5939 114.998 10.606 115.006 10.618C115.041 10.6736 115.075 10.7305 115.107 10.7874L115.112 10.7965C115.13 10.8275 115.141 10.8477 115.166 10.8972C115.177 10.9194 115.189 10.9442 115.202 10.9685C115.22 11.0038 115.237 11.038 115.248 11.0612C115.259 11.0828 115.266 11.1006 115.275 11.1213L115.275 11.1221C115.283 11.139 115.29 11.1578 115.301 11.1819C115.326 11.2359 115.349 11.29 115.372 11.344L115.419 11.4733C115.428 11.4979 115.436 11.5222 115.445 11.5466L115.445 11.5474C115.456 11.5779 115.467 11.6086 115.477 11.64L115.518 11.7756C115.528 11.8097 115.539 11.8486 115.548 11.8837L115.557 11.9143L115.566 11.9464C115.578 11.9897 115.586 12.0236 115.599 12.0819C115.607 12.1135 115.614 12.1507 115.621 12.1846C115.627 12.2132 115.632 12.2395 115.636 12.2581C115.646 12.2988 115.654 12.334 115.663 12.3937C115.673 12.4533 115.684 12.5252 115.69 12.574L115.695 12.6045L115.695 12.6055C115.7 12.6395 115.704 12.671 115.709 12.719C115.712 12.7421 115.713 12.7671 115.715 12.7918C115.717 12.8338 115.719 12.8754 115.727 12.906C115.734 12.9333 115.734 12.958 115.735 12.9847C115.735 13.0058 115.735 13.0281 115.739 13.0538Z" fill="white"/>
<path d="M103.967 11.8494L106.595 12.2225L104.512 17.7626L103.379 12.4066L103.376 12.3959C103.335 12.2267 103.335 12.1795 103.346 12.1399C103.366 12.0708 103.408 12.005 103.466 11.9512C103.524 11.8975 103.596 11.8586 103.67 11.8395C103.724 11.8256 103.794 11.8249 103.967 11.8494Z" fill="white"/>
<path d="M105.476 17.9251L107.568 12.3606L110.245 12.7406C110.363 12.7574 110.432 12.783 110.492 12.8251C110.506 12.8352 110.516 12.8452 110.526 12.8628C110.538 12.8834 110.55 12.9129 110.568 12.9677C110.579 13.0361 110.571 13.0999 110.544 13.1708C110.512 13.2583 110.456 13.3406 110.399 13.395L105.476 17.9251Z" fill="white"/>
<path fill-rule="evenodd" clip-rule="evenodd" d="M105.083 8.05484C105.186 8.00063 105.29 7.94776 105.393 7.89761L105.462 7.86914C105.535 7.83377 105.609 7.80031 105.682 7.76716L105.683 7.76684L105.723 7.74851L105.791 7.71869L105.887 7.67667L106.093 7.59127L106.339 7.49503L106.505 7.43404L106.757 7.34864L106.916 7.29849C107.004 7.27002 107.095 7.24427 107.187 7.21987C107.205 7.21511 107.223 7.21015 107.241 7.20522C107.268 7.19751 107.295 7.18989 107.323 7.18327C107.458 7.14803 107.594 7.11686 107.729 7.08839C108.208 6.98716 108.695 6.93223 109.184 6.92438C109.267 6.91895 109.35 6.92077 109.432 6.92258C109.473 6.92348 109.513 6.92438 109.554 6.92438C109.863 6.93758 110.17 6.97565 110.473 7.03824C110.6 7.06399 110.745 7.10059 110.85 7.12905C110.954 7.15752 111.056 7.19141 111.157 7.22665C111.456 7.33238 111.742 7.46865 112.013 7.63329C112.282 7.79841 112.531 7.99299 112.757 8.21344C112.774 8.23033 112.79 8.24781 112.807 8.26548L112.816 8.27574L112.833 8.29341C112.859 8.32438 112.888 8.35591 112.917 8.38798L112.941 8.4137C112.945 8.41804 112.949 8.4224 112.953 8.42676C112.958 8.43245 112.963 8.43815 112.968 8.44386C114.013 9.62991 114.355 11.3473 114.023 13.2355C114.001 13.3615 113.977 13.4862 113.948 13.6136C113.92 13.7411 113.885 13.8861 113.855 13.9972L113.849 14.0185C113.821 14.1226 113.793 14.2282 113.76 14.3334C113.725 14.4459 113.689 14.5584 113.65 14.6723C113.6 14.8173 113.546 14.9623 113.489 15.1074C113.413 15.3026 113.332 15.4964 113.242 15.6902C113.138 15.9125 113.026 16.1384 112.905 16.368C112.783 16.5975 112.654 16.8234 112.516 17.0457C112.01 17.858 111.419 18.6141 110.753 19.3012C109.701 20.4026 108.462 21.3093 107.094 21.9796C106.839 22.1016 106.585 22.2128 106.331 22.3117L106.28 22.3299C106.17 22.3699 106.06 22.4096 105.95 22.4473C105.696 22.5358 105.444 22.6117 105.193 22.675C105.067 22.7062 104.928 22.7401 104.818 22.7617C104.708 22.7834 104.597 22.8038 104.487 22.8214L104.4 22.8363C104.305 22.8512 104.211 22.8634 104.116 22.8743H104.07C103.963 22.8864 103.857 22.8946 103.751 22.9027L103.67 22.9027C103.583 22.9122 103.496 22.9122 103.411 22.9122H102.968C102.885 22.9081 102.802 22.9027 102.721 22.8946L102.645 22.8878C102.547 22.8783 102.448 22.8661 102.352 22.8512L102.301 22.8417C102.223 22.8302 102.147 22.815 102.07 22.7997L102.057 22.797L101.981 22.7807C101.886 22.759 101.792 22.736 101.7 22.7102H101.681C101.596 22.6845 101.51 22.6574 101.426 22.6276L101.355 22.6018C101.273 22.572 101.193 22.5408 101.115 22.5069L101.089 22.4974C101.033 22.473 100.985 22.45 100.926 22.4188C100.897 22.4032 100.865 22.387 100.831 22.3704C100.798 22.3538 100.764 22.3368 100.732 22.3199C100.693 22.2982 100.654 22.2765 100.616 22.2534C100.553 22.2173 100.493 22.1793 100.433 22.1396L100.323 22.0664C100.259 22.0257 100.198 21.9783 100.137 21.9308L100.048 21.8617L100.004 21.8254C99.9269 21.7622 99.8448 21.6948 99.7904 21.6313C99.7536 21.5884 99.7151 21.5494 99.6769 21.5107C99.6474 21.4808 99.6181 21.4511 99.5898 21.4198L99.5315 21.3521C99.4881 21.3005 99.4447 21.2477 99.404 21.1948L99.343 21.1148C99.3024 21.0606 99.2644 21.0051 99.2265 20.9495L99.2131 20.9296C99.2009 20.9118 99.1886 20.8937 99.1777 20.8749C99.1275 20.7963 99.0787 20.7177 99.034 20.635C99.0336 20.6323 99.0336 20.6296 99.034 20.6269C98.9838 20.5428 98.9391 20.4561 98.8985 20.368C98.8894 20.3499 98.8816 20.3318 98.8737 20.3137C98.8698 20.3047 98.8659 20.2957 98.8619 20.2866C98.8334 20.2243 98.8063 20.1606 98.7805 20.0969L98.7439 20.0006C98.7246 19.9546 98.7071 19.9009 98.6898 19.8483L98.6762 19.8068L98.6463 19.716C98.6206 19.6292 98.5948 19.5411 98.5731 19.4517C98.5701 19.4433 98.5678 19.4347 98.5664 19.4259C98.542 19.3283 98.5216 19.2294 98.5027 19.1291C98.501 19.1197 98.4987 19.1101 98.4965 19.1004C98.4915 19.079 98.4864 19.057 98.4864 19.0355C98.4742 18.9651 98.4633 18.8932 98.4539 18.8214C98.4525 18.8124 98.451 18.8035 98.4496 18.7945C98.4449 18.7668 98.4403 18.7389 98.4403 18.7102C98.4378 18.6867 98.435 18.6643 98.4322 18.6426C98.4259 18.5933 98.42 18.5473 98.42 18.4974C98.4105 18.4622 98.4105 18.4269 98.4105 18.3917C98.3996 18.2996 98.3996 18.2073 98.3996 18.1138V17.7465C98.3996 17.7343 98.3986 17.7239 98.3975 17.7135C98.3954 17.6927 98.3933 17.6719 98.3996 17.6367C98.4091 17.5838 98.4091 17.5296 98.4091 17.4754V17.4225C98.4159 17.3358 98.424 17.2436 98.4349 17.1514C98.4359 17.1394 98.4376 17.1277 98.4392 17.116C98.4418 17.0974 98.4444 17.0789 98.4444 17.0606L98.4566 16.9698C98.4715 16.8519 98.4877 16.7353 98.5094 16.616C98.5284 16.5067 98.5501 16.3969 98.5745 16.2866C98.5794 16.2635 98.5837 16.2456 98.5885 16.2258C98.5943 16.2016 98.6008 16.1747 98.6097 16.1321C98.6243 16.0629 98.6433 15.9892 98.6568 15.9366L98.6612 15.9193C98.6673 15.8957 98.6729 15.8759 98.6788 15.8549C98.6861 15.8289 98.6942 15.8004 98.7046 15.7594C98.7235 15.6851 98.7479 15.6039 98.7641 15.5497C98.7714 15.5255 98.7782 15.5045 98.7853 15.4826C98.7942 15.4552 98.8037 15.4259 98.8158 15.3853C98.8351 15.3201 98.8555 15.2614 98.8769 15.1996L98.9418 15.0125C98.9587 14.9638 98.979 14.912 98.9967 14.867L99.0068 14.8415C99.0123 14.8274 99.0174 14.8142 99.0218 14.8024C99.0421 14.7482 99.057 14.7089 99.0855 14.6384C99.114 14.5679 99.1519 14.4771 99.175 14.4242C99.1826 14.4066 99.1902 14.389 99.1977 14.3714C99.2127 14.3362 99.2278 14.3009 99.2441 14.2656C99.2766 14.1911 99.3119 14.1165 99.3471 14.0433C99.3702 13.9932 99.3932 13.943 99.4176 13.8929C99.4583 13.8102 99.5003 13.7289 99.5437 13.6462C99.5507 13.6326 99.5575 13.6191 99.5644 13.6055L99.5651 13.6041C99.5792 13.5761 99.5934 13.5481 99.6087 13.5201C99.6353 13.4727 99.6611 13.4255 99.6868 13.3784L99.6872 13.3776C99.7282 13.3025 99.7694 13.227 99.8134 13.1514L99.8392 13.1081C99.8936 13.009 99.9549 12.9111 100.017 12.8123L100.034 12.7841C100.058 12.7398 100.083 12.7018 100.108 12.6637L100.118 12.6486C100.169 12.5699 100.219 12.4913 100.272 12.4127C100.293 12.3801 100.316 12.3476 100.339 12.315C100.351 12.2988 100.362 12.2826 100.373 12.2663C100.423 12.1945 100.488 12.1023 100.525 12.0508C100.542 12.0269 100.557 12.0077 100.572 11.9869C100.591 11.9629 100.611 11.9368 100.638 11.899C100.688 11.8285 100.741 11.7607 100.793 11.6929L100.909 11.5438C100.931 11.5172 100.955 11.4869 100.978 11.4571C101.011 11.4155 101.043 11.3745 101.071 11.3446C101.098 11.3165 101.119 11.2916 101.142 11.265C101.161 11.2427 101.182 11.2192 101.207 11.1914C101.235 11.1606 101.267 11.1233 101.298 11.0877L101.298 11.0868C101.328 11.0524 101.356 11.0194 101.379 10.9949C101.425 10.9447 101.47 10.8959 101.515 10.8458C101.545 10.8136 101.574 10.7825 101.603 10.7514L101.604 10.7504C101.662 10.6889 101.719 10.6275 101.786 10.5584C101.886 10.454 101.988 10.3537 102.091 10.2534L102.118 10.2277L102.198 10.1504C102.217 10.1323 102.237 10.114 102.257 10.0957C102.308 10.0496 102.359 10.0032 102.402 9.96064C102.451 9.91264 102.507 9.86465 102.56 9.81806L102.599 9.78443L102.755 9.64346L102.957 9.47674C102.975 9.4617 102.993 9.44741 103.01 9.43323L103.011 9.43264C103.044 9.4049 103.078 9.37684 103.125 9.34119L103.193 9.28869C103.243 9.25029 103.293 9.21231 103.331 9.1826L103.358 9.16153C103.4 9.12809 103.437 9.09913 103.5 9.05519C103.545 9.02384 103.592 8.99012 103.634 8.95966L103.634 8.95915C103.663 8.93843 103.689 8.91924 103.712 8.90337C103.724 8.8947 103.736 8.88597 103.749 8.87722C103.755 8.87274 103.761 8.86825 103.767 8.86377C103.804 8.83726 103.841 8.81075 103.878 8.78545L104.099 8.64041C104.116 8.62962 104.133 8.61868 104.149 8.60774C104.183 8.58575 104.216 8.5636 104.25 8.54282L104.282 8.52248C104.306 8.50731 104.329 8.49277 104.35 8.47869C104.4 8.44631 104.447 8.41617 104.497 8.38694L104.657 8.28934C104.743 8.2392 104.83 8.19174 104.917 8.14431L105.008 8.09415L105.083 8.05484ZM110.591 11.8204L104.313 10.9293C104.145 10.9054 103.878 10.8685 103.572 10.9473C103.286 11.0208 103.015 11.1688 102.797 11.371C102.578 11.5731 102.422 11.8197 102.348 12.0776C102.268 12.3581 102.325 12.5923 102.362 12.7437L102.363 12.7495L103.84 19.7295C103.872 19.8844 104 19.9954 104.173 20.0207C104.347 20.0459 104.541 19.9817 104.682 19.852L111.07 13.9739L111.076 13.9683C111.284 13.7722 111.433 13.5346 111.518 13.309C111.607 13.0716 111.627 12.8421 111.583 12.6205C111.58 12.6078 111.577 12.5952 111.573 12.583C111.524 12.4255 111.449 12.2115 111.217 12.0495C111.023 11.9143 110.813 11.852 110.591 11.8204Z" fill="white"/>
<path d="M96.5849 3.17374C96.4466 3.35447 96.3138 3.54695 96.1864 3.75118C95.4715 4.91898 94.9865 6.21276 94.7577 7.56277C94.5937 8.48254 94.5314 9.41758 94.572 10.351C94.6005 11.0351 94.6885 11.7154 94.835 12.3842C94.8919 12.6399 94.957 12.8902 95.0302 13.1351C95.1034 13.38 95.1842 13.6172 95.2728 13.8468C95.4423 14.2908 95.6481 14.7202 95.8882 15.1304L95.9054 15.1591C95.9684 15.2643 96.03 15.3671 96.0996 15.4665L96.1728 15.5723C96.2216 15.6446 96.2718 15.715 96.3233 15.7837C96.3408 15.8076 96.3588 15.8306 96.3768 15.8535C96.3892 15.8694 96.4019 15.8856 96.4141 15.9017C96.4615 15.9626 96.5103 16.0223 96.5591 16.0806C96.6079 16.1389 96.6256 16.1592 96.6594 16.1971C96.6933 16.2351 96.757 16.3056 96.8072 16.3571C96.8253 16.3756 96.8394 16.3905 96.8519 16.4036C96.8739 16.4265 96.891 16.4445 96.9143 16.4669L96.9426 16.4942C96.9792 16.5297 97.0274 16.5764 97.0674 16.6133L97.1772 16.7136L97.3399 16.8491L97.4497 16.9359C97.4758 16.9556 97.5019 16.9746 97.528 16.9936C97.5629 17.0189 97.5978 17.0443 97.6327 17.0714L97.7316 17.1392C97.8265 17.2016 97.9227 17.2598 98.0217 17.3127C98.0298 17.2097 98.0407 17.1067 98.0542 17.0023V16.9725C98.0719 16.8369 98.0922 16.7014 98.1152 16.5658C98.1366 16.4398 98.1581 16.3396 98.1817 16.2292L98.1871 16.2039L98.2196 16.0684C98.2372 15.9952 98.2548 15.922 98.2738 15.8488L98.2795 15.8267C98.2954 15.7656 98.3067 15.7219 98.3213 15.6685L98.3701 15.4977C98.3917 15.4259 98.4134 15.3554 98.4365 15.2836C98.4434 15.2612 98.4508 15.2392 98.4582 15.2174C98.4637 15.2011 98.4692 15.1846 98.4744 15.1683C98.6178 14.7396 98.7862 14.3196 98.9787 13.9105H98.9394L98.8391 12.5685L98.4907 12.5943H98.4826L97.4253 12.6729L97.2098 12.6878L97.2979 11.7105L97.8062 11.6658L97.9214 11.659C97.9894 11.6484 98.0515 11.6139 98.0964 11.5618C98.1413 11.5096 98.1663 11.4432 98.1667 11.3744L97.8889 7.74305C97.8728 7.67839 97.8433 7.61786 97.8021 7.56548C97.7514 7.51024 97.6875 7.46881 97.6163 7.4451C97.5452 7.42139 97.4692 7.41617 97.3955 7.42993C97.3436 7.42569 97.2915 7.42569 97.2396 7.42993L96.8424 7.46518H96.8086L96.7449 6.60174L97.2586 6.5421L97.4348 6.5299H97.4632L98.3782 6.46077L98.2792 5.13918H98.3687L98.9963 5.09174H99.0858L99.182 6.4052L99.2931 6.39571L99.6076 6.37538H99.6062L99.2931 6.39571L99.8014 6.35098H99.8258L99.731 5.04294L100.448 4.98872H100.536L100.636 6.31438C101.684 6.32658 102.484 6.65054 102.698 7.53431C102.821 8.22831 102.537 8.69188 102.089 8.96433C102.286 9.02418 102.469 9.12004 102.631 9.247C102.563 9.30356 102.495 9.36079 102.428 9.41874C102.169 9.64068 101.915 9.87597 101.667 10.1246C101.376 9.70307 100.639 9.68138 100.06 9.71798L99.5398 9.76406L99.4449 9.77355L99.5941 11.5506L100.102 11.5045C100.155 11.5045 100.218 11.5015 100.289 11.4982C100.345 11.4956 100.406 11.4927 100.471 11.4909C100.533 11.4096 100.598 11.3297 100.663 11.2497C100.691 11.2145 100.719 11.1792 100.748 11.1453C100.803 11.0775 100.86 11.0097 100.917 10.9433L101.062 10.7766C101.068 10.7695 101.075 10.7623 101.081 10.7551C101.087 10.748 101.094 10.7409 101.1 10.7338C101.132 10.6975 101.164 10.6611 101.198 10.6261C101.295 10.5177 101.395 10.4093 101.498 10.3035C101.794 9.99315 102.104 9.69792 102.428 9.41874C102.495 9.36079 102.563 9.30375 102.632 9.24763L102.631 9.247C103.549 8.48574 104.569 7.85111 105.663 7.36216C105.56 6.56281 105.368 5.77757 105.089 5.02126C104.965 4.68203 104.82 4.35068 104.655 4.02905C104.585 3.8935 104.512 3.75795 104.436 3.62918C103.505 2.05141 102.167 1.05378 100.653 0.973808H100.371C100.277 0.973808 100.195 0.973808 100.106 0.987363C99.8433 1.00548 99.5826 1.04998 99.3284 1.1202C98.3104 1.42247 97.3643 2.14223 96.5849 3.17374Z" fill="white"/>
</svg>
