<svg width="187" height="405" viewBox="0 0 187 405" fill="none" xmlns="http://www.w3.org/2000/svg">
<g clip-path="url(#clip0_90_3625)">
<rect x="0.691559" y="0.968506" width="186.224" height="403.723" rx="27.4043" fill="#000F60"/>
<path d="M94.366 350.374C89.418 303.558 187.236 224.771 194.087 220.203C198.02 261.563 204.668 345.197 199.796 348.851C193.707 353.419 133.189 397.189 125.196 373.591C117.203 349.993 99.314 397.189 94.366 350.374Z" fill="#FFB800"/>
<path d="M224.355 318.402C159.803 315.661 129.962 392.622 123.111 431.445L36.7114 437.915C47.2417 435.758 61.9843 408.836 36.7114 318.402C11.4385 227.968 -32.4338 294.423 -51.2109 338.955L-18.0973 -12.3532L211.034 -31.7646L282.97 217.158C185.532 168.439 104.842 276.915 87.7141 309.648C70.5864 342.381 75.5344 431.445 104.842 386.532C128.288 350.602 185.405 298.483 211.034 276.915L224.355 318.402Z" fill="#5973FE"/>
<path d="M77.4987 301.468C75.9762 263.102 103.254 226.613 117.083 213.165C142.964 191.47 155.144 221.919 124.695 245.517C100.336 264.396 90.4398 292.206 88.5367 303.752L77.4987 301.468Z" fill="#000F60"/>
<path d="M72.7299 221.842C45.3172 194.688 51.028 137.89 55.9394 111.188C59.1402 70.1174 38.8934 104.4 35.1243 135.288C31.7954 162.568 55.6838 221.502 64.2504 230.328C73.1527 239.498 78.5551 228.97 72.7299 221.842Z" fill="#FFB800"/>
<path d="M74.3926 96.5026C115.88 76.8209 112.074 20.7601 101.156 -5.61255H137.44C138.624 -6.07111 139.933 -6.09523 141.381 -5.61255H137.44C124.623 -0.647144 126.537 55.2573 126.537 70.2402C126.537 86.6066 115.88 109.554 101.156 99.5476C93.7799 94.5349 43.5627 111.128 74.3926 96.5026Z" fill="#000F60"/>
<path d="M14.7172 120.757C19.8935 97.6158 1.9031 68.2323 -7.73917 56.4332C-11.9259 37.4024 -10.4796 1.24387 28.8 8.85619C77.8994 18.3716 43.644 99.4428 44.7858 66.7098C45.9277 33.9768 10.1498 5.81128 28.8 56.4332C47.4501 107.055 8.2467 149.684 14.7172 120.757Z" fill="#000F60"/>
<path d="M51.1933 321.882C52.7898 286.899 11.501 233.976 -9.34296 211.887L-3.35586 134.184C94.4334 262.68 49.1976 365.611 51.1933 321.882Z" fill="#000F60"/>
<path d="M147.673 205.023C131.962 202.321 175.571 186.589 177.631 186.007C183.216 183.978 186.062 184.371 182.669 191.871C185.718 189.523 192.887 186.012 195.826 185.926C210.095 185.508 203.748 234.094 176.829 239.018C149.911 243.942 160.972 314.568 137.347 285.553C113.723 256.538 177.325 228.024 186.999 214.885C196.672 201.745 190.777 188.541 184.466 199.393C178.154 210.245 170.298 224.06 156.91 222.785C143.522 221.51 169.966 210.624 175.389 197.644C180.812 184.663 163.383 207.724 147.673 205.023Z" fill="#FFB800"/>
<path d="M92.1444 107.921C61.0861 104.876 55.4436 165.788 62.8369 190.896C68.6648 210.688 77.8634 223.861 84.5621 199.806C92.9355 169.737 133.281 226.449 133.281 180.394C133.281 134.34 247.846 57.0748 196.083 70.3964C164.432 78.5418 148.886 121.78 182 45.2758C215.113 -31.228 132.139 -50.6394 133.281 45.2758C134.423 141.191 84.5621 168.595 76.1887 154.132C67.8153 139.668 130.967 111.727 92.1444 107.921Z" fill="#FFB800"/>
<path d="M75.4076 65.6889C79.0755 31.3826 48.3473 4.46617 32.5247 -4.70375C52.5726 -6.86138 94.125 -7.56261 99.9506 6.8935C107.233 24.9636 100.49 34.1336 95.6353 30.8971C90.7807 27.6607 89.7018 24.1545 92.6686 44.652C95.6353 65.1495 70.8226 108.572 75.4076 65.6889Z" fill="#FFB800"/>
<path d="M133.605 325.243C126.417 338.501 120.199 334.579 117.988 330.961C109.697 308.317 134.718 282.33 156.505 271.696C178.291 261.062 187.914 275.25 176.982 279.252C166.05 283.255 142.591 308.67 133.605 325.243Z" fill="#FFB800"/>
<path d="M90.928 174.989C81.1308 192.083 74.9733 210.959 81.9476 217.369C91.9407 226.555 101.388 213.312 125.845 179.031L126.442 178.194C151.343 143.292 165.63 207.041 177.876 167.866C190.123 128.69 248.496 92.0073 209.717 72.7756C170.937 53.5439 184.816 107.678 170.529 130.471C156.241 153.264 137.464 137.237 145.22 121.211C152.976 105.185 137.464 84.8844 134.198 104.116C130.932 123.348 107.781 145.582 90.928 174.989Z" fill="#000F60"/>
<path d="M32.5246 348.471C27.5766 281.102 -13.5299 285.288 -16.9554 284.146V385.01C1.18727 395.286 36.483 402.366 32.5246 348.471Z" fill="#FFB800"/>
<path d="M25.4578 345.458C21.9777 297.986 -6.93368 300.937 -9.34296 300.132V371.205C3.4173 378.446 28.2418 383.435 25.4578 345.458Z" fill="#000F60"/>
</g>
<defs>
<clipPath id="clip0_90_3625">
<rect x="0.691559" y="0.968506" width="186.224" height="403.723" rx="27.4043" fill="white"/>
</clipPath>
</defs>
</svg>
