<svg width="171" height="58" viewBox="0 0 171 58" fill="none" xmlns="http://www.w3.org/2000/svg">
<path d="M34.6258 4.266L30.5115 2.02187C29.6697 1.56268 28.6523 2.21284 28.7154 3.1697L32.1576 55.3753C32.1937 55.9239 32.5933 56.3876 33.1396 56.4502C37.4931 56.9485 40.393 54.5919 41.3412 53.2644L43.9144 49.1473C44.1933 48.701 44.7276 48.4847 45.2384 48.6113L78.4005 56.8285C78.6242 56.8839 78.859 56.8746 79.0777 56.8018L86.1269 54.452C86.6209 54.2874 86.9552 53.8378 86.9584 53.317C87.0592 36.8357 87.1921 5.32887 86.9531 4.61175C86.7263 3.93159 82.2559 2.14206 79.5976 1.16333C79.2496 1.03522 78.8632 1.07639 78.5478 1.27132L52.8286 17.1652C52.337 17.469 51.6996 17.3849 51.3035 16.9641L47.4981 12.9209C47.2571 12.6648 46.917 12.5256 46.5656 12.5391L39.919 12.7947C39.4823 12.8115 39.0882 13.0613 38.8866 13.449L37.5551 16.0095C36.9678 17.139 35.2597 16.7214 35.2597 15.4484V5.3338C35.2597 4.88869 35.0165 4.47914 34.6258 4.266Z" fill="#000F60" stroke="#000F60" stroke-width="1.82447" stroke-linecap="round"/>
<path d="M132.509 4.61175C132.311 4.01601 128.856 2.56921 126.216 1.56158C125.431 1.26225 124.598 1.84382 124.594 2.68343L124.308 55.2161C124.304 56.0491 125.119 56.64 125.909 56.3766L131.683 54.452C132.177 54.2874 132.511 53.8378 132.515 53.317C132.615 36.8357 132.748 5.32887 132.509 4.61175Z" fill="#000F60" stroke="#000F60" stroke-width="1.82447" stroke-linecap="round"/>
<path d="M169.206 4.61175C169.007 4.01601 165.553 2.56921 162.912 1.56158C162.128 1.26225 161.295 1.84382 161.29 2.68343L161.005 55.2161C161 56.0491 161.816 56.64 162.606 56.3766L168.38 54.452C168.874 54.2874 169.208 53.8378 169.211 53.317C169.312 36.8357 169.445 5.32887 169.206 4.61175Z" fill="#000F60" stroke="#000F60" stroke-width="1.82447" stroke-linecap="round"/>
<path d="M1.50681 2.17912V55.697C1.50681 56.3688 2.05137 56.9133 2.72312 56.9133H30.9171C31.347 56.9133 31.7449 56.6864 31.9638 56.3165L39.3822 43.7821C39.8531 42.9863 41.0047 42.9863 41.4756 43.7821L48.894 56.3165C49.1129 56.6864 49.5108 56.9133 49.9407 56.9133H78.4388C79.1105 56.9133 79.6551 56.3688 79.6551 55.697V2.17912C79.6551 1.50737 79.1105 0.962807 78.4388 0.962807H50.4635C49.7918 0.962807 49.2472 1.50737 49.2472 2.17912V22.6564C49.2472 23.8447 47.7183 24.3279 47.0354 23.3554L40.1933 13.6104C39.7131 12.9265 38.7021 12.9194 38.2123 13.5965L31.0757 23.4618C30.3844 24.4175 28.8739 23.9284 28.8739 22.7489V2.17912C28.8739 1.50737 28.3293 0.962807 27.6576 0.962807H2.72312C2.05137 0.962807 1.50681 1.50737 1.50681 2.17912Z" fill="white" stroke="#000F60" stroke-width="1.82447" stroke-linecap="round"/>
<path d="M124.485 56.84H98.6482C97.9772 56.84 97.4333 56.299 97.4333 55.628V24.5809C97.4333 23.9099 96.8893 23.3665 96.2183 23.3665H93.1933C92.5223 23.3665 91.9783 22.8226 91.9783 22.1516V6.48102C91.9783 5.81001 92.532 5.27997 93.1784 5.09989C94.9623 4.60288 96.3253 3.0915 97.0598 1.94884C97.3086 1.56172 97.724 1.29883 98.1842 1.29883H124.485C125.156 1.29883 125.7 1.84278 125.7 2.51379V55.625C125.7 56.2961 125.156 56.84 124.485 56.84Z" fill="white" stroke="#000F60" stroke-width="1.82492"/>
<path d="M161.182 56.84H135.345C134.674 56.84 134.13 56.299 134.13 55.628V24.5809C134.13 23.9099 133.586 23.3665 132.915 23.3665H129.89C129.219 23.3665 128.675 22.8226 128.675 22.1516V6.48102C128.675 5.81001 129.229 5.27997 129.875 5.09989C131.659 4.60288 133.022 3.0915 133.757 1.94884C134.005 1.56172 134.421 1.29883 134.881 1.29883H161.182C161.853 1.29883 162.397 1.84278 162.397 2.51379V55.625C162.397 56.2961 161.853 56.84 161.182 56.84Z" fill="white" stroke="#000F60" stroke-width="1.82492"/>
</svg>
