<svg width="203" height="425" viewBox="0 0 203 425" fill="none" xmlns="http://www.w3.org/2000/svg">
<rect x="1.65922" y="1.65586" width="200.289" height="422.348" rx="32.6558" fill="black"/>
<rect x="1.65922" y="1.65586" width="200.289" height="422.348" rx="32.6558" stroke="white" stroke-width="1.45137"/>
<g clip-path="url(#clip0_90_3623)">
<rect x="8.69156" y="10.9685" width="186.224" height="403.723" rx="27.4043" fill="#000F60"/>
<path d="M102.366 360.374C97.418 313.558 195.236 234.771 202.087 230.203C206.02 271.563 212.668 355.197 207.796 358.851C201.707 363.419 141.189 407.189 133.196 383.591C125.203 359.993 107.314 407.189 102.366 360.374Z" fill="#FFB800"/>
<path d="M232.355 328.402C167.803 325.661 137.962 402.622 131.111 441.445L44.7114 447.915C55.2417 445.758 69.9843 418.836 44.7114 328.402C19.4385 237.968 -24.4338 304.423 -43.2109 348.955L-10.0973 -2.35324L219.034 -21.7646L290.97 227.158C193.532 178.439 112.842 286.915 95.7141 319.648C78.5864 352.381 83.5344 441.445 112.842 396.532C136.288 360.602 193.405 308.483 219.034 286.915L232.355 328.402Z" fill="#5973FE"/>
<path d="M85.4987 311.468C83.9762 273.102 111.254 236.613 125.083 223.165C150.964 201.47 163.144 231.919 132.695 255.517C108.336 274.396 98.4398 302.206 96.5367 313.752L85.4987 311.468Z" fill="#000F60"/>
<path d="M80.7299 231.842C53.3172 204.688 59.028 147.89 63.9394 121.188C67.1402 80.1174 46.8934 114.4 43.1243 145.288C39.7954 172.568 63.6838 231.502 72.2504 240.328C81.1527 249.498 86.5551 238.97 80.7299 231.842Z" fill="#FFB800"/>
<path d="M82.3926 106.503C123.88 86.8209 120.074 30.7601 109.156 4.38745H145.44C146.624 3.92889 147.933 3.90477 149.381 4.38745H145.44C132.623 9.35286 134.537 65.2573 134.537 80.2402C134.537 96.6066 123.88 119.554 109.156 109.548C101.78 104.535 51.5627 121.128 82.3926 106.503Z" fill="#000F60"/>
<path d="M22.7172 130.757C27.8935 107.616 9.9031 78.2323 0.260835 66.4332C-3.92594 47.4024 -2.4796 11.2439 36.8 18.8562C85.8994 28.3716 51.644 109.443 52.7858 76.7098C53.9277 43.9768 18.1498 15.8113 36.8 66.4332C55.4501 117.055 16.2467 159.684 22.7172 130.757Z" fill="#000F60"/>
<path d="M59.1933 331.882C60.7898 296.899 19.501 243.976 -1.34296 221.887L4.64414 144.184C102.433 272.68 57.1976 375.611 59.1933 331.882Z" fill="#000F60"/>
<path d="M155.673 215.023C139.962 212.321 183.571 196.589 185.631 196.007C191.216 193.978 194.062 194.371 190.669 201.871C193.718 199.523 200.887 196.012 203.826 195.926C218.095 195.508 211.748 244.094 184.829 249.018C157.911 253.942 168.972 324.568 145.347 295.553C121.723 266.538 185.325 238.024 194.999 224.885C204.672 211.745 198.777 198.541 192.466 209.393C186.154 220.245 178.298 234.06 164.91 232.785C151.522 231.51 177.966 220.624 183.389 207.644C188.812 194.663 171.383 217.724 155.673 215.023Z" fill="#FFB800"/>
<path d="M100.144 117.921C69.0861 114.876 63.4436 175.788 70.8369 200.896C76.6648 220.688 85.8634 233.861 92.5621 209.806C100.935 179.737 141.281 236.449 141.281 190.394C141.281 144.34 255.846 67.0748 204.083 80.3964C172.432 88.5418 156.886 131.78 190 55.2758C223.113 -21.228 140.139 -40.6394 141.281 55.2758C142.423 151.191 92.5621 178.595 84.1887 164.132C75.8153 149.668 138.967 121.727 100.144 117.921Z" fill="#FFB800"/>
<path d="M83.4076 75.6889C87.0755 41.3826 56.3473 14.4662 40.5247 5.29625C60.5726 3.13862 102.125 2.43739 107.951 16.8935C115.233 34.9636 108.49 44.1336 103.635 40.8971C98.7807 37.6607 97.7018 34.1545 100.669 54.652C103.635 75.1495 78.8226 118.572 83.4076 75.6889Z" fill="#FFB800"/>
<path d="M141.605 335.243C134.417 348.501 128.199 344.579 125.988 340.961C117.697 318.317 142.718 292.33 164.505 281.696C186.291 271.062 195.914 285.25 184.982 289.252C174.05 293.255 150.591 318.67 141.605 335.243Z" fill="#FFB800"/>
<path d="M98.928 184.989C89.1308 202.083 82.9733 220.959 89.9476 227.369C99.9407 236.555 109.388 223.312 133.845 189.031L134.442 188.194C159.343 153.292 173.63 217.041 185.876 177.866C198.123 138.69 256.496 102.007 217.717 82.7756C178.937 63.5439 192.816 117.678 178.529 140.471C164.241 163.264 145.464 147.237 153.22 131.211C160.976 115.185 145.464 94.8844 142.198 114.116C138.932 133.348 115.781 155.582 98.928 184.989Z" fill="#000F60"/>
<path d="M40.5246 358.471C35.5766 291.102 -5.52987 295.288 -8.95541 294.146V395.01C9.18727 405.286 44.483 412.366 40.5246 358.471Z" fill="#FFB800"/>
<path d="M33.4578 355.458C29.9777 307.986 1.06632 310.937 -1.34296 310.132V381.205C11.4173 388.446 36.2418 393.435 33.4578 355.458Z" fill="#000F60"/>
</g>
<defs>
<clipPath id="clip0_90_3623">
<rect x="8.69156" y="10.9685" width="186.224" height="403.723" rx="27.4043" fill="white"/>
</clipPath>
</defs>
</svg>
