<svg width="672" height="189" viewBox="0 0 672 189" fill="none" xmlns="http://www.w3.org/2000/svg">
<path d="M591.402 55.2422H598.315V62.1553C594.502 62.1553 591.402 59.0559 591.402 55.2422Z" fill="white"/>
<path d="M584.489 62.1553H591.402V55.2422C587.589 55.2422 584.489 58.33 584.489 62.1553Z" fill="white"/>
<path d="M591.402 48.3291V55.2422H584.489C584.489 51.4169 587.589 48.3291 591.402 48.3291Z" fill="white"/>
<path d="M584.489 41.416V48.3291H591.402C591.402 44.5039 588.303 41.416 584.489 41.416Z" fill="white"/>
<path d="M598.315 48.3291H591.402V41.416C595.216 41.416 598.315 44.5039 598.315 48.3291Z" fill="white"/>
<path d="M605.229 41.416H598.315V48.3291C602.129 48.3291 605.229 45.2297 605.229 41.416Z" fill="white"/>
<path d="M598.315 55.2422V48.3291H605.229C605.229 52.1428 602.129 55.2422 598.315 55.2422Z" fill="white"/>
<path d="M605.229 62.1553V55.2422H598.315C598.315 59.0559 601.415 62.1553 605.229 62.1553Z" fill="white"/>
<path d="M95.9756 151.809H102.889V158.722C99.075 158.722 95.9756 155.623 95.9756 151.809Z" fill="white"/>
<path d="M89.0625 158.722H95.9756V151.809C92.1619 151.809 89.0625 154.897 89.0625 158.722Z" fill="white"/>
<path d="M95.9756 144.896V151.809H89.0625C89.0625 147.984 92.1619 144.896 95.9756 144.896Z" fill="white"/>
<path d="M89.0625 137.983V144.896H95.9756C95.9756 141.071 92.8762 137.983 89.0625 137.983Z" fill="white"/>
<path d="M102.889 144.896H95.9756V137.983C99.7893 137.983 102.889 141.071 102.889 144.896Z" fill="white"/>
<path d="M109.802 137.983H102.889V144.896C106.702 144.896 109.802 141.797 109.802 137.983Z" fill="white"/>
<path d="M102.889 151.809V144.896H109.802C109.802 148.71 106.702 151.809 102.889 151.809Z" fill="white"/>
<path d="M109.802 158.722V151.809H102.889C102.889 155.623 105.988 158.722 109.802 158.722Z" fill="white"/>
<path d="M621.703 20.887H628.616V27.8C624.802 27.8 621.703 24.7007 621.703 20.887Z" fill="white"/>
<path d="M614.79 27.8H621.703V20.887C617.889 20.887 614.79 23.9748 614.79 27.8Z" fill="white"/>
<path d="M621.703 13.9739V20.887H614.79C614.79 17.0617 617.889 13.9739 621.703 13.9739Z" fill="white"/>
<path d="M614.79 7.06079V13.9739H621.703C621.703 10.1486 618.604 7.06079 614.79 7.06079Z" fill="white"/>
<path d="M628.616 13.9739H621.703V7.06079C625.517 7.06079 628.616 10.1486 628.616 13.9739Z" fill="white"/>
<path d="M635.529 7.06079H628.616V13.9739C632.43 13.9739 635.529 10.8745 635.529 7.06079Z" fill="white"/>
<path d="M628.616 20.887V13.9739H635.529C635.529 17.7876 632.43 20.887 628.616 20.887Z" fill="white"/>
<path d="M635.529 27.8V20.887H628.616C628.616 24.7007 631.716 27.8 635.529 27.8Z" fill="white"/>
<path d="M459.164 97.0081H466.077V103.921C462.263 103.921 459.164 100.822 459.164 97.0081Z" fill="white"/>
<path d="M452.251 103.921H459.164V97.0081C455.35 97.0081 452.251 100.096 452.251 103.921Z" fill="white"/>
<path d="M459.164 90.095V97.0081H452.251C452.251 93.1828 455.35 90.095 459.164 90.095Z" fill="white"/>
<path d="M452.251 83.1819V90.095H459.164C459.164 86.2697 456.065 83.1819 452.251 83.1819Z" fill="white"/>
<path d="M466.077 90.095H459.164V83.1819C462.978 83.1819 466.077 86.2697 466.077 90.095Z" fill="white"/>
<path d="M472.99 83.1819H466.077V90.095C469.891 90.095 472.99 86.9956 472.99 83.1819Z" fill="white"/>
<path d="M466.077 97.0081V90.095H472.99C472.99 93.9087 469.891 97.0081 466.077 97.0081Z" fill="white"/>
<path d="M472.99 103.921V97.0081H466.077C466.077 100.822 469.177 103.921 472.99 103.921Z" fill="white"/>
<path d="M658.14 13.9321H665.053V20.8452C661.239 20.8452 658.14 17.7458 658.14 13.9321Z" fill="white"/>
<path d="M651.227 20.8452H658.14V13.9321C654.326 13.9321 651.227 17.02 651.227 20.8452Z" fill="white"/>
<path d="M658.14 7.01904V13.9321H651.227C651.227 10.1069 654.326 7.01904 658.14 7.01904Z" fill="white"/>
<path d="M651.227 0.105957V7.01904H658.14C658.14 3.1938 655.04 0.105957 651.227 0.105957Z" fill="white"/>
<path d="M665.053 7.01904H658.14V0.105957C661.953 0.105957 665.053 3.1938 665.053 7.01904Z" fill="white"/>
<path d="M671.966 0.105957H665.053V7.01904C668.866 7.01904 671.966 3.91968 671.966 0.105957Z" fill="white"/>
<path d="M665.053 13.9321V7.01904H671.966C671.966 10.8328 668.866 13.9321 665.053 13.9321Z" fill="white"/>
<path d="M671.966 20.8452V13.9321H665.053C665.053 17.7458 668.152 20.8452 671.966 20.8452Z" fill="white"/>
<path d="M194.85 148.281H201.763V155.194C197.949 155.194 194.85 152.094 194.85 148.281Z" fill="white"/>
<path d="M187.937 155.194H194.85V148.281C191.036 148.281 187.937 151.368 187.937 155.194Z" fill="white"/>
<path d="M194.85 141.367V148.281H187.937C187.937 144.455 191.036 141.367 194.85 141.367Z" fill="white"/>
<path d="M187.937 134.454V141.367H194.85C194.85 137.542 191.75 134.454 187.937 134.454Z" fill="white"/>
<path d="M201.763 141.367H194.85V134.454C198.663 134.454 201.763 137.542 201.763 141.367Z" fill="white"/>
<path d="M208.676 134.454H201.763V141.367C205.576 141.367 208.676 138.268 208.676 134.454Z" fill="white"/>
<path d="M201.763 148.281V141.367H208.676C208.676 145.181 205.576 148.281 201.763 148.281Z" fill="white"/>
<path d="M208.676 155.194V148.281H201.763C201.763 152.094 204.862 155.194 208.676 155.194Z" fill="white"/>
<path d="M319.661 147.66H326.574V154.573C322.76 154.573 319.661 151.473 319.661 147.66Z" fill="white"/>
<path d="M312.748 154.573H319.661V147.66C315.847 147.66 312.748 150.748 312.748 154.573Z" fill="white"/>
<path d="M319.661 140.747V147.66H312.748C312.748 143.834 315.847 140.747 319.661 140.747Z" fill="white"/>
<path d="M312.748 133.833V140.747H319.661C319.661 136.921 316.562 133.833 312.748 133.833Z" fill="white"/>
<path d="M326.574 140.747H319.661V133.833C323.475 133.833 326.574 136.921 326.574 140.747Z" fill="white"/>
<path d="M333.487 133.833H326.574V140.747C330.388 140.747 333.487 137.647 333.487 133.833Z" fill="white"/>
<path d="M326.574 147.66V140.747H333.487C333.487 144.56 330.388 147.66 326.574 147.66Z" fill="white"/>
<path d="M333.487 154.573V147.66H326.574C326.574 151.473 329.674 154.573 333.487 154.573Z" fill="white"/>
<path d="M543.474 79.4543H553.498V89.4788C547.968 89.4788 543.474 84.9844 543.474 79.4543Z" fill="white"/>
<path d="M533.449 89.4788H543.474V79.4543C537.944 79.4543 533.449 83.9319 533.449 89.4788Z" fill="white"/>
<path d="M543.474 69.4298V79.4543H533.449C533.449 73.9074 537.944 69.4298 543.474 69.4298Z" fill="white"/>
<path d="M533.449 59.4053V69.4298H543.474C543.474 63.8829 538.979 59.4053 533.449 59.4053Z" fill="white"/>
<path d="M553.498 69.4298H543.474V59.4053C549.004 59.4053 553.498 63.8829 553.498 69.4298Z" fill="white"/>
<path d="M563.523 59.4053H553.498V69.4298C559.028 69.4298 563.523 64.9355 563.523 59.4053Z" fill="white"/>
<path d="M553.498 79.4543V69.4298H563.523C563.523 74.9599 559.028 79.4543 553.498 79.4543Z" fill="white"/>
<path d="M563.523 89.4788V79.4543H553.498C553.498 84.9844 557.992 89.4788 563.523 89.4788Z" fill="white"/>
<path d="M401.065 103.761H411.09V113.786C405.56 113.786 401.065 109.291 401.065 103.761Z" fill="white"/>
<path d="M391.041 113.786H401.066V103.761C395.535 103.761 391.041 108.239 391.041 113.786Z" fill="white"/>
<path d="M401.066 93.7367V103.761H391.041C391.041 98.2143 395.535 93.7367 401.066 93.7367Z" fill="white"/>
<path d="M391.041 83.7122V93.7367H401.066C401.066 88.1898 396.571 83.7122 391.041 83.7122Z" fill="white"/>
<path d="M411.09 93.7367H401.065V83.7122C406.596 83.7122 411.09 88.1898 411.09 93.7367Z" fill="white"/>
<path d="M421.114 83.7122H411.09V93.7367C416.62 93.7367 421.114 89.2423 421.114 83.7122Z" fill="white"/>
<path d="M411.09 103.761V93.7367H421.114C421.114 99.2668 416.62 103.761 411.09 103.761Z" fill="white"/>
<path d="M421.114 113.786V103.761H411.09C411.09 109.291 415.584 113.786 421.114 113.786Z" fill="white"/>
<path d="M272.346 178.021H282.37V188.046C276.84 188.046 272.346 183.551 272.346 178.021Z" fill="white"/>
<path d="M262.321 188.046H272.346V178.021C266.816 178.021 262.321 182.499 262.321 188.046Z" fill="white"/>
<path d="M272.346 167.997V178.021H262.321C262.321 172.474 266.816 167.997 272.346 167.997Z" fill="white"/>
<path d="M262.321 157.972V167.997H272.346C272.346 162.45 267.851 157.972 262.321 157.972Z" fill="white"/>
<path d="M282.37 167.997H272.346V157.972C277.876 157.972 282.37 162.45 282.37 167.997Z" fill="white"/>
<path d="M292.395 157.972H282.37V167.997C287.9 167.997 292.395 163.502 292.395 157.972Z" fill="white"/>
<path d="M282.37 178.021V167.997H292.395C292.395 173.527 287.9 178.021 282.37 178.021Z" fill="white"/>
<path d="M292.395 188.046V178.021H282.37C282.37 183.551 286.864 188.046 292.395 188.046Z" fill="white"/>
<path d="M269.012 118.407H270.699V120.094C269.768 120.094 269.012 119.338 269.012 118.407Z" fill="white"/>
<path d="M267.324 120.094H269.011V118.407C268.081 118.407 267.324 119.161 267.324 120.094Z" fill="white"/>
<path d="M269.011 116.72V118.407H267.324C267.324 117.474 268.081 116.72 269.011 116.72Z" fill="white"/>
<path d="M267.324 115.033V116.72H269.011C269.011 115.787 268.255 115.033 267.324 115.033Z" fill="white"/>
<path d="M270.699 116.72H269.012V115.033C269.942 115.033 270.699 115.787 270.699 116.72Z" fill="white"/>
<path d="M272.385 115.033H270.698V116.72C271.629 116.72 272.385 115.964 272.385 115.033Z" fill="white"/>
<path d="M270.698 118.407V116.72H272.385C272.385 117.651 271.629 118.407 270.698 118.407Z" fill="white"/>
<path d="M272.385 120.094V118.407H270.698C270.698 119.338 271.455 120.094 272.385 120.094Z" fill="white"/>
<path d="M374.637 185.624H376.324V187.311C375.393 187.311 374.637 186.555 374.637 185.624Z" fill="white"/>
<path d="M372.949 187.311H374.636V185.624C373.706 185.624 372.949 186.378 372.949 187.311Z" fill="white"/>
<path d="M374.636 183.937V185.624H372.949C372.949 184.691 373.706 183.937 374.636 183.937Z" fill="white"/>
<path d="M372.949 182.25V183.937H374.636C374.636 183.004 373.88 182.25 372.949 182.25Z" fill="white"/>
<path d="M376.324 183.937H374.637V182.25C375.567 182.25 376.324 183.004 376.324 183.937Z" fill="white"/>
<path d="M378.01 182.25H376.323V183.937C377.254 183.937 378.01 183.181 378.01 182.25Z" fill="white"/>
<path d="M376.323 185.624V183.937H378.01C378.01 184.868 377.254 185.624 376.323 185.624Z" fill="white"/>
<path d="M378.01 187.311V185.624H376.323C376.323 186.555 377.08 187.311 378.01 187.311Z" fill="white"/>
<path d="M388.627 82.7788H390.314V84.4659C389.383 84.4659 388.627 83.7095 388.627 82.7788Z" fill="white"/>
<path d="M386.939 84.4659H388.627V82.7788C387.696 82.7788 386.939 83.5324 386.939 84.4659Z" fill="white"/>
<path d="M388.627 81.0917V82.7788H386.939C386.939 81.8453 387.696 81.0917 388.627 81.0917Z" fill="white"/>
<path d="M386.939 79.4045V81.0917H388.627C388.627 80.1581 387.87 79.4045 386.939 79.4045Z" fill="white"/>
<path d="M390.314 81.0917H388.627V79.4045C389.558 79.4045 390.314 80.1581 390.314 81.0917Z" fill="white"/>
<path d="M392.001 79.4045H390.313V81.0917C391.244 81.0917 392.001 80.3353 392.001 79.4045Z" fill="white"/>
<path d="M390.313 82.7788V81.0917H392.001C392.001 82.0224 391.244 82.7788 390.313 82.7788Z" fill="white"/>
<path d="M392.001 84.4659V82.7788H390.313C390.313 83.7095 391.07 84.4659 392.001 84.4659Z" fill="white"/>
<path d="M166.06 58.4844H167.747V60.1715C166.816 60.1715 166.06 59.4151 166.06 58.4844Z" fill="white"/>
<path d="M164.372 60.1715H166.059V58.4844C165.128 58.4844 164.372 59.238 164.372 60.1715Z" fill="white"/>
<path d="M166.059 56.7972V58.4844H164.372C164.372 57.5508 165.128 56.7972 166.059 56.7972Z" fill="white"/>
<path d="M164.372 55.1101V56.7972H166.059C166.059 55.8637 165.303 55.1101 164.372 55.1101Z" fill="white"/>
<path d="M167.747 56.7972H166.06V55.1101C166.99 55.1101 167.747 55.8637 167.747 56.7972Z" fill="white"/>
<path d="M169.433 55.1101H167.746V56.7972C168.677 56.7972 169.433 56.0408 169.433 55.1101Z" fill="white"/>
<path d="M167.746 58.4844V56.7972H169.433C169.433 57.728 168.677 58.4844 167.746 58.4844Z" fill="white"/>
<path d="M169.433 60.1715V58.4844H167.746C167.746 59.4151 168.502 60.1715 169.433 60.1715Z" fill="white"/>
<path d="M2.31836 99.7266H4.00549V101.414C3.07476 101.414 2.31836 100.657 2.31836 99.7266Z" fill="white"/>
<path d="M0.630859 101.414H2.31799V99.7266C1.38726 99.7266 0.630859 100.48 0.630859 101.414Z" fill="white"/>
<path d="M2.31799 98.0394V99.7266H0.630859C0.630859 98.793 1.38726 98.0394 2.31799 98.0394Z" fill="white"/>
<path d="M0.630859 96.3523V98.0394H2.31799C2.31799 97.1059 1.56159 96.3523 0.630859 96.3523Z" fill="white"/>
<path d="M4.00549 98.0394H2.31836V96.3523C3.24909 96.3523 4.00549 97.1059 4.00549 98.0394Z" fill="white"/>
<path d="M5.69202 96.3523H4.00488V98.0394C4.93562 98.0394 5.69202 97.283 5.69202 96.3523Z" fill="white"/>
<path d="M4.00488 99.7266V98.0394H5.69202C5.69202 98.9702 4.93562 99.7266 4.00488 99.7266Z" fill="white"/>
<path d="M5.69202 101.414V99.7266H4.00488C4.00488 100.657 4.76128 101.414 5.69202 101.414Z" fill="white"/>
<path d="M526.174 128.88H527.861V130.567C526.93 130.567 526.174 129.811 526.174 128.88Z" fill="white"/>
<path d="M524.486 130.567H526.173V128.88C525.243 128.88 524.486 129.634 524.486 130.567Z" fill="white"/>
<path d="M526.173 127.193V128.88H524.486C524.486 127.947 525.243 127.193 526.173 127.193Z" fill="white"/>
<path d="M524.486 125.506V127.193H526.173C526.173 126.259 525.417 125.506 524.486 125.506Z" fill="white"/>
<path d="M527.861 127.193H526.174V125.506C527.105 125.506 527.861 126.259 527.861 127.193Z" fill="white"/>
<path d="M529.547 125.506H527.86V127.193C528.791 127.193 529.547 126.437 529.547 125.506Z" fill="white"/>
<path d="M527.86 128.88V127.193H529.547C529.547 128.124 528.791 128.88 527.86 128.88Z" fill="white"/>
<path d="M529.547 130.567V128.88H527.86C527.86 129.811 528.617 130.567 529.547 130.567Z" fill="white"/>
<path d="M153.565 184.474H155.253V186.161C154.322 186.161 153.565 185.405 153.565 184.474Z" fill="white"/>
<path d="M151.878 186.161H153.565V184.474C152.634 184.474 151.878 185.228 151.878 186.161Z" fill="white"/>
<path d="M153.565 182.787V184.474H151.878C151.878 183.541 152.634 182.787 153.565 182.787Z" fill="white"/>
<path d="M151.878 181.1V182.787H153.565C153.565 181.853 152.809 181.1 151.878 181.1Z" fill="white"/>
<path d="M155.253 182.787H153.565V181.1C154.496 181.1 155.253 181.853 155.253 182.787Z" fill="white"/>
<path d="M156.939 181.1H155.252V182.787C156.183 182.787 156.939 182.031 156.939 181.1Z" fill="white"/>
<path d="M155.252 184.474V182.787H156.939C156.939 183.718 156.183 184.474 155.252 184.474Z" fill="white"/>
<path d="M156.939 186.161V184.474H155.252C155.252 185.405 156.008 186.161 156.939 186.161Z" fill="white"/>
</svg>
