<svg width="314" height="119" viewBox="0 0 314 119" fill="none" xmlns="http://www.w3.org/2000/svg">
<path d="M152.858 105.137C180.195 107.255 204.055 87.828 206.082 61.6659C208.11 35.5038 187.527 12.6327 160.191 10.5142C132.855 8.39576 108.995 27.8228 106.967 53.9849C104.94 80.147 125.522 103.018 152.858 105.137Z" fill="#5973FE" stroke="black" stroke-width="1.50289"/>
<mask id="mask0_315_190" style="mask-type:alpha" maskUnits="userSpaceOnUse" x="107" y="11" width="99" height="94">
<ellipse cx="156.525" cy="57.8246" rx="48.9547" ry="46.7016" transform="rotate(4.43133 156.525 57.8246)" fill="#CDFF49"/>
</mask>
<g mask="url(#mask0_315_190)">
<rect x="107.711" y="54.0986" width="9.83191" height="56.7894" transform="rotate(-15.3898 107.711 54.0986)" fill="white"/>
<rect x="152.64" y="57.5811" width="33.6029" height="56.7894" transform="rotate(-15.3898 152.64 57.5811)" fill="white"/>
<rect x="146.878" y="80.8162" width="22.5918" height="26.3453" transform="rotate(5.22789 146.878 80.8162)" fill="black"/>
<rect x="162.232" y="82.2214" width="4.68422" height="26.3453" transform="rotate(5.22789 162.232 82.2214)" fill="#5973FE"/>
</g>
<g filter="url(#filter0_i_315_190)">
<ellipse cx="157.094" cy="50.4733" rx="48.9547" ry="46.7016" transform="rotate(4.43133 157.094 50.4733)" fill="#5973FE"/>
</g>
<path d="M205.165 54.1986C203.206 79.4743 180.125 98.3577 153.543 96.2977C126.961 94.2377 107.065 72.0238 109.024 46.748C110.982 21.4723 134.064 2.58893 160.646 4.64892C187.227 6.70891 207.124 28.9228 205.165 54.1986Z" stroke="black" stroke-width="1.47956"/>
<mask id="mask1_315_190" style="mask-type:alpha" maskUnits="userSpaceOnUse" x="111" y="7" width="92" height="87">
<ellipse cx="157.094" cy="50.4734" rx="45.2677" ry="43.0146" transform="rotate(4.43133 157.094 50.4734)" fill="#CDFF49"/>
</mask>
<g mask="url(#mask1_315_190)">
<rect x="167.896" y="-26.3481" width="32.6281" height="142.153" transform="rotate(14.7744 167.896 -26.3481)" fill="white"/>
<rect x="198.544" y="-18.2642" width="3.75519" height="142.153" transform="rotate(14.7744 198.544 -18.2642)" fill="black"/>
<rect x="160.118" y="0.671631" width="1.19081" height="97.7299" transform="rotate(14.7744 160.118 0.671631)" fill="black"/>
<rect x="137.06" y="1.96973" width="5.68271" height="83.4544" transform="rotate(14.7744 137.06 1.96973)" fill="black"/>
</g>
<g clip-path="url(#clip0_315_190)">
<path d="M157.472 15.3144L157.016 16.7515L156.132 58.7101L156.549 59.1438L176.268 48.0414L157.472 15.3144Z" fill="black"/>
<path d="M156.091 58.3011L137.972 47.0697L156.961 17.0136L156.503 38.7684L156.091 58.3011Z" fill="white" stroke="black" stroke-width="0.950577"/>
<path d="M156.471 62.8318L156.225 63.1193L155.91 78.0656L156.135 78.7711L176.202 51.7356L156.471 62.8318Z" fill="black"/>
<path d="M138.882 52.4922L155.99 63.0919L155.692 77.2693L138.882 52.4922Z" fill="white" stroke="black" stroke-width="0.950577"/>
<path d="M157.437 39.5258L175.239 48.0745L157.041 58.3205L157.437 39.5258Z" fill="black" stroke="black" stroke-width="0.950577"/>
<path d="M137.314 47.2208L156.549 59.1437L156.978 38.7782L137.314 47.2208Z" fill="black"/>
<path d="M155.439 39.1028C155.819 39.1028 169.856 45.1231 176.351 48.1333" stroke="white" stroke-width="0.950577" stroke-linecap="round"/>
<path d="M155.439 39.1028L156.389 59.0649" stroke="white" stroke-width="0.950577" stroke-linecap="round"/>
</g>
<path d="M69.1965 95.3558C80.0696 84.1048 77.3447 64.2095 63.6114 50.9376C49.8781 37.6657 29.9014 35.6219 19.0284 46.8729C8.15532 58.1239 10.8802 78.0192 24.6135 91.2911C38.3467 104.563 58.3235 106.607 69.1965 95.3558Z" fill="#5973FE" stroke="black" stroke-width="1.52246"/>
<mask id="mask2_315_190" style="mask-type:alpha" maskUnits="userSpaceOnUse" x="13" y="40" width="63" height="62">
<ellipse cx="44.1124" cy="71.1143" rx="27.2978" ry="34.1223" transform="rotate(-45.9787 44.1124 71.1143)" fill="#D9D9D9"/>
</mask>
<g mask="url(#mask2_315_190)">
<rect x="67.3438" y="50.76" width="13.6489" height="81.1751" transform="rotate(45 67.3438 50.76)" fill="white"/>
<rect x="82.4294" y="54.3521" width="3.59182" height="81.1751" transform="rotate(45 82.4294 54.3521)" fill="black"/>
<rect x="89.9065" y="47.1685" width="1.43673" height="81.1751" transform="rotate(34.6895 89.9065 47.1685)" fill="black"/>
<rect x="50.3965" y="17.7158" width="1.43673" height="81.1751" transform="rotate(34.6895 50.3965 17.7158)" fill="black"/>
<rect x="91.0882" y="47.9861" width="3.59182" height="81.1751" transform="rotate(34.6895 91.0882 47.9861)" fill="white"/>
<rect x="51.5782" y="18.5334" width="3.59182" height="81.1751" transform="rotate(34.6895 51.5782 18.5334)" fill="white"/>
</g>
<path d="M73.102 91.1654C83.975 79.9144 81.2501 60.0191 67.5169 46.7472C53.7836 33.4752 33.8068 31.4315 22.9338 42.6825C12.0608 53.9334 14.7857 73.8287 28.5189 87.1007C42.2522 100.373 62.229 102.416 73.102 91.1654Z" fill="#5973FE" stroke="black" stroke-width="1.52246"/>
<mask id="mask3_315_190" style="mask-type:alpha" maskUnits="userSpaceOnUse" x="17" y="36" width="63" height="62">
<ellipse cx="48.0179" cy="66.9239" rx="27.2978" ry="34.1223" transform="rotate(-45.9787 48.0179 66.9239)" fill="#D9D9D9"/>
</mask>
<g mask="url(#mask3_315_190)">
<rect x="24.8656" y="25.5933" width="13.6489" height="81.1751" transform="rotate(-5.59397 24.8656 25.5933)" fill="white"/>
<rect x="55.2968" y="24.7988" width="6.3351" height="81.1751" transform="rotate(-5.59397 55.2968 24.7988)" fill="white"/>
<rect x="5.85675" y="23.124" width="10.7755" height="81.1751" transform="rotate(-5.59397 5.85675 23.124)" fill="white"/>
<rect x="38.4493" y="24.2627" width="3.59182" height="81.1751" transform="rotate(-5.59397 38.4493 24.2627)" fill="black"/>
<rect x="63.6123" y="23.2415" width="1.43673" height="81.1751" transform="rotate(-5.59397 63.6123 23.2415)" fill="black"/>
<rect x="65.0426" y="23.1018" width="3.59182" height="81.1751" transform="rotate(-5.59397 65.0426 23.1018)" fill="white"/>
</g>
<mask id="path-38-outside-1_315_190" maskUnits="userSpaceOnUse" x="22.5159" y="42.8631" width="52.9522" height="52.9522" fill="black">
<rect fill="white" x="22.5159" y="42.8631" width="52.9522" height="52.9522"/>
<path fill-rule="evenodd" clip-rule="evenodd" d="M31.457 58.6267L52.8266 48.932C53.5826 48.589 54.3884 48.3573 55.3449 48.3672C56.4914 48.3791 57.3087 48.8467 57.8936 49.2014C57.9391 49.229 57.9834 49.2587 58.0262 49.2901C58.7735 49.8384 59.347 50.5363 59.7347 51.391C60.1032 52.2031 60.3113 53.1755 60.2279 54.1432C60.2272 54.1525 60.2262 54.1616 60.2254 54.1709L57.2456 83.4875C57.1799 84.1341 56.7742 84.6963 56.1815 84.9628C55.5888 85.2292 54.8989 85.1591 54.3718 84.7789L30.62 67.6491C30.6134 67.6446 30.6068 67.64 30.6 67.6354C30.07 67.2732 29.2503 66.7131 28.7158 65.7529C28.2242 64.8698 28.0135 63.8572 28.1128 62.8513C28.2122 61.8452 28.617 60.8934 29.2746 60.1248C29.9797 59.3007 30.8851 58.8862 31.457 58.6267ZM41.9054 57.8815L32.96 61.9397C32.3723 62.2063 32.1631 62.3449 32.0389 62.4902C31.8669 62.6909 31.7597 62.9415 31.7333 63.2088C31.707 63.4762 31.763 63.7468 31.8946 63.9834C31.97 64.119 32.1006 64.2541 32.6926 64.659C32.705 64.6675 32.7173 64.6762 32.7295 64.6849L50.9548 77.829L41.9054 57.8815ZM45.2185 56.3785L54.3077 76.4137L56.6041 53.82C56.6247 53.5534 56.5645 53.2089 56.4216 52.894C56.3057 52.6386 56.1522 52.4408 55.9301 52.2659C55.7248 52.1436 55.6062 52.0834 55.5136 52.0473C55.4342 52.0166 55.3789 52.0058 55.3074 52.0052C55.0094 52.0021 54.733 52.0621 54.3296 52.2451L45.2185 56.3785Z"/>
</mask>
<path fill-rule="evenodd" clip-rule="evenodd" d="M31.457 58.6267L52.8266 48.932C53.5826 48.589 54.3884 48.3573 55.3449 48.3672C56.4914 48.3791 57.3087 48.8467 57.8936 49.2014C57.9391 49.229 57.9834 49.2587 58.0262 49.2901C58.7735 49.8384 59.347 50.5363 59.7347 51.391C60.1032 52.2031 60.3113 53.1755 60.2279 54.1432C60.2272 54.1525 60.2262 54.1616 60.2254 54.1709L57.2456 83.4875C57.1799 84.1341 56.7742 84.6963 56.1815 84.9628C55.5888 85.2292 54.8989 85.1591 54.3718 84.7789L30.62 67.6491C30.6134 67.6446 30.6068 67.64 30.6 67.6354C30.07 67.2732 29.2503 66.7131 28.7158 65.7529C28.2242 64.8698 28.0135 63.8572 28.1128 62.8513C28.2122 61.8452 28.617 60.8934 29.2746 60.1248C29.9797 59.3007 30.8851 58.8862 31.457 58.6267ZM41.9054 57.8815L32.96 61.9397C32.3723 62.2063 32.1631 62.3449 32.0389 62.4902C31.8669 62.6909 31.7597 62.9415 31.7333 63.2088C31.707 63.4762 31.763 63.7468 31.8946 63.9834C31.97 64.119 32.1006 64.2541 32.6926 64.659C32.705 64.6675 32.7173 64.6762 32.7295 64.6849L50.9548 77.829L41.9054 57.8815ZM45.2185 56.3785L54.3077 76.4137L56.6041 53.82C56.6247 53.5534 56.5645 53.2089 56.4216 52.894C56.3057 52.6386 56.1522 52.4408 55.9301 52.2659C55.7248 52.1436 55.6062 52.0834 55.5136 52.0473C55.4342 52.0166 55.3789 52.0058 55.3074 52.0052C55.0094 52.0021 54.733 52.0621 54.3296 52.2451L45.2185 56.3785Z" fill="black"/>
<path d="M31.457 58.6267L32.4811 60.8842L32.4812 60.8842L31.457 58.6267ZM52.8266 48.932L51.8024 46.6745L51.8024 46.6745L52.8266 48.932ZM55.3449 48.3672L55.3192 50.846L55.3194 50.846L55.3449 48.3672ZM57.8936 49.2014L59.1792 47.0819L59.1791 47.0818L57.8936 49.2014ZM58.0262 49.2901L56.5589 51.2881L56.5596 51.2886L58.0262 49.2901ZM60.2279 54.1432L57.7581 53.9302L57.7568 53.9457L57.7557 53.9613L60.2279 54.1432ZM60.2254 54.1709L62.6916 54.4216L62.6923 54.4141L62.693 54.4066L60.2254 54.1709ZM57.2456 83.4875L54.7794 83.2369L54.7794 83.237L57.2456 83.4875ZM54.3718 84.7789L55.822 82.7684L55.8219 82.7683L54.3718 84.7789ZM30.62 67.6491L32.0701 65.6385L32.0432 65.6192L32.0159 65.6005L30.62 67.6491ZM30.6 67.6354L32.0153 65.6002L32.007 65.5944L31.9986 65.5887L30.6 67.6354ZM28.7158 65.7529L26.5498 66.9585L26.5499 66.9586L28.7158 65.7529ZM28.1128 62.8513L30.5797 63.095L30.5798 63.0948L28.1128 62.8513ZM29.2746 60.1248L27.3911 58.5132L27.3911 58.5132L29.2746 60.1248ZM41.9054 57.8815L44.1628 56.8574L43.1387 54.5999L40.8812 55.6241L41.9054 57.8815ZM32.0389 62.4902L33.9215 64.1028L33.9228 64.1012L32.0389 62.4902ZM31.7333 63.2088L29.2664 62.965L29.2664 62.9657L31.7333 63.2088ZM31.8946 63.9834L29.7283 65.1885L29.7285 65.1889L31.8946 63.9834ZM32.6926 64.659L34.0945 62.6146L34.092 62.6128L32.6926 64.659ZM32.7295 64.6849L34.1795 62.6744L34.1765 62.6721L32.7295 64.6849ZM50.9548 77.829L49.5047 79.8396L57.0613 85.2894L53.2122 76.8049L50.9548 77.829ZM45.2185 56.3785L44.1944 54.121L41.9369 55.1451L42.961 57.4026L45.2185 56.3785ZM54.3077 76.4137L52.0502 77.4379L55.8451 85.8028L56.7739 76.6644L54.3077 76.4137ZM56.6041 53.82L59.0703 54.0707L59.0733 54.041L59.0756 54.0113L56.6041 53.82ZM55.9301 52.2659L57.4638 50.3184L57.3372 50.2188L57.1989 50.1363L55.9301 52.2659ZM55.5136 52.0473L56.4128 49.7372L56.4087 49.7357L55.5136 52.0473ZM55.3074 52.0052L55.2816 54.4839L55.2833 54.4839L55.3074 52.0052ZM32.4812 60.8842L53.8507 51.1895L51.8024 46.6745L30.4329 56.3692L32.4812 60.8842ZM53.8507 51.1895C54.3668 50.9553 54.8116 50.8408 55.3192 50.846L55.3706 45.8885C53.9652 45.8739 52.7984 46.2227 51.8024 46.6745L53.8507 51.1895ZM55.3194 50.846C55.7609 50.8506 56.0917 51.0078 56.6082 51.321L59.1791 47.0818C58.5258 46.6857 57.2219 45.9075 55.3704 45.8885L55.3194 50.846ZM56.6081 51.3209C56.591 51.3106 56.5746 51.2996 56.5589 51.2881L59.4935 47.2921C59.3922 47.2177 59.2873 47.1475 59.1792 47.0819L56.6081 51.3209ZM56.5596 51.2886C56.9702 51.5899 57.2684 51.9546 57.4773 52.4151L61.9922 50.3669C61.4256 49.118 60.5767 48.087 59.4928 47.2916L56.5596 51.2886ZM57.4773 52.4151C57.6935 52.8917 57.8004 53.4396 57.7581 53.9302L62.6976 54.3561C62.8222 52.9114 62.5128 51.5144 61.9922 50.3669L57.4773 52.4151ZM57.7557 53.9613C57.757 53.9424 57.7583 53.9286 57.7587 53.9249C57.7589 53.9231 57.759 53.922 57.7588 53.9241C57.7587 53.9251 57.7582 53.9302 57.7577 53.9352L62.693 54.4066C62.693 54.4069 62.693 54.4074 62.6933 54.4038C62.6936 54.4013 62.6941 54.3957 62.6947 54.3892C62.6959 54.3763 62.698 54.3532 62.7001 54.3251L57.7557 53.9613ZM57.7592 53.9202L54.7794 83.2369L59.7118 83.7382L62.6916 54.4216L57.7592 53.9202ZM54.7794 83.237C54.8032 83.0021 54.9506 82.7982 55.1652 82.7018L57.1978 87.2237C58.5978 86.5944 59.5566 85.2661 59.7118 83.738L54.7794 83.237ZM55.1652 82.7018C55.3805 82.605 55.6308 82.6305 55.822 82.7684L52.9217 86.7894C54.167 87.6876 55.7971 87.8534 57.1978 87.2237L55.1652 82.7018ZM55.8219 82.7683L32.0701 65.6385L29.17 69.6597L52.9218 86.7895L55.8219 82.7683ZM32.0159 65.6005L32.0153 65.6002L29.1848 69.6706C29.2028 69.6831 29.2193 69.6943 29.2242 69.6977L32.0159 65.6005ZM31.9986 65.5887C31.4608 65.2212 31.1026 64.9439 30.8817 64.5471L26.5499 66.9586C27.398 68.4822 28.6792 69.3252 29.2015 69.6821L31.9986 65.5887ZM30.8818 64.5473C30.6354 64.1046 30.5301 63.5976 30.5797 63.095L25.646 62.6076C25.4968 64.1169 25.8131 65.635 26.5498 66.9585L30.8818 64.5473ZM30.5798 63.0948C30.6294 62.5922 30.8315 62.1182 31.1581 61.7364L27.3911 58.5132C26.4025 59.6685 25.795 61.0983 25.6459 62.6077L30.5798 63.0948ZM31.1581 61.7364C31.4699 61.372 31.9066 61.1448 32.4811 60.8842L30.4329 56.3692C29.8636 56.6275 28.4896 57.2293 27.3911 58.5132L31.1581 61.7364ZM40.8812 55.6241L31.9359 59.6822L33.9841 64.1972L42.9295 60.139L40.8812 55.6241ZM31.9359 59.6822C31.3824 59.9333 30.6818 60.2629 30.1549 60.8791L33.9228 64.1012C33.8892 64.1405 33.8537 64.1784 33.8169 64.2142C33.7803 64.2497 33.7459 64.2797 33.7156 64.3044C33.6564 64.3525 33.6169 64.3765 33.6159 64.3771C33.6157 64.3772 33.6407 64.3621 33.7053 64.3294C33.769 64.2971 33.8587 64.2541 33.9841 64.1972L31.9359 59.6822ZM30.1562 60.8775C29.652 61.4662 29.3425 62.1953 29.2664 62.965L34.2002 63.4525C34.177 63.6877 34.0818 63.9156 33.9215 64.1028L30.1562 60.8775ZM29.2664 62.9657C29.1905 63.7359 29.3518 64.5116 29.7283 65.1885L34.0609 62.7783C34.1742 62.982 34.2235 63.2165 34.2003 63.4519L29.2664 62.9657ZM29.7285 65.1889C30.133 65.9158 30.7787 66.3532 31.2933 66.7052L34.092 62.6128C33.9601 62.5226 33.8687 62.4575 33.8058 62.4108C33.7412 62.363 33.7226 62.3462 33.7301 62.3528C33.7389 62.3605 33.7927 62.4079 33.8627 62.491C33.8988 62.5338 33.9358 62.5819 33.9721 62.6349C34.0085 62.6882 34.0379 62.7371 34.0606 62.778L29.7285 65.1889ZM31.2908 66.7034C31.2846 66.6992 31.2815 66.697 31.2826 66.6977L34.1765 62.6721C34.1532 62.6554 34.1255 62.6358 34.0945 62.6146L31.2908 66.7034ZM31.2795 66.6955L49.5047 79.8396L52.4048 75.8184L34.1795 62.6744L31.2795 66.6955ZM53.2122 76.8049L44.1628 56.8574L39.6479 58.9057L48.6973 78.8531L53.2122 76.8049ZM42.961 57.4026L52.0502 77.4379L56.5652 75.3896L47.476 55.3544L42.961 57.4026ZM56.7739 76.6644L59.0703 54.0707L54.1379 53.5693L51.8415 76.1631L56.7739 76.6644ZM59.0756 54.0113C59.1322 53.28 58.9736 52.5191 58.6791 51.8699L54.1642 53.9182C54.1513 53.8899 54.1443 53.8664 54.1393 53.8404C54.1365 53.8257 54.133 53.8032 54.131 53.772C54.1289 53.7417 54.1276 53.6934 54.1326 53.6287L59.0756 54.0113ZM58.6791 51.8699C58.4017 51.2585 58.0021 50.7424 57.4638 50.3184L54.3964 54.2135C54.3651 54.1888 54.3145 54.1429 54.2621 54.0757C54.2098 54.0088 54.1787 53.9503 54.1642 53.9182L58.6791 51.8699ZM57.1989 50.1363C56.962 49.9952 56.7016 49.8497 56.4128 49.7372L54.6144 54.3574C54.557 54.335 54.526 54.3184 54.5339 54.3226C54.5381 54.3247 54.5501 54.3311 54.572 54.3435C54.5937 54.3558 54.6229 54.3727 54.6613 54.3955L57.1989 50.1363ZM56.4087 49.7357C56.0836 49.6098 55.7337 49.5303 55.3315 49.5264L55.2833 54.4839C55.193 54.4831 55.0649 54.4748 54.9161 54.4447C54.7742 54.416 54.6692 54.3786 54.6185 54.359L56.4087 49.7357ZM55.3332 49.5264C54.5872 49.5186 53.95 49.6953 53.3055 49.9877L55.3537 54.5026C55.4574 54.4556 55.4739 54.4569 55.4348 54.4662C55.4139 54.4712 55.3858 54.4765 55.3534 54.48C55.3211 54.4835 55.2958 54.4841 55.2816 54.4839L55.3332 49.5264ZM53.3055 49.9877L44.1944 54.121L46.2426 58.636L55.3537 54.5026L53.3055 49.9877Z" fill="white" mask="url(#path-38-outside-1_315_190)"/>
<path d="M244.423 99.5467C233.549 88.2958 236.274 68.4005 250.008 55.1285C263.741 41.8566 283.718 39.8128 294.591 51.0638C305.464 62.3148 302.739 82.2101 289.006 95.482C275.272 108.754 255.296 110.798 244.423 99.5467Z" fill="#F7931A" stroke="black" stroke-width="1.52246"/>
<mask id="mask4_315_190" style="mask-type:alpha" maskUnits="userSpaceOnUse" x="238" y="44" width="63" height="63">
<ellipse cx="27.2978" cy="34.1223" rx="27.2978" ry="34.1223" transform="matrix(-0.694926 -0.719081 -0.719081 0.694926 313.013 71.2222)" fill="#D9D9D9"/>
</mask>
<g mask="url(#mask4_315_190)">
<rect width="13.6489" height="81.1751" transform="matrix(-0.707107 0.707107 0.707107 0.707107 246.275 54.9512)" fill="white"/>
<rect width="3.59182" height="81.1751" transform="matrix(-0.707107 0.707107 0.707107 0.707107 231.19 58.543)" fill="black"/>
<rect width="1.43673" height="81.1751" transform="matrix(-0.822248 0.569129 0.569129 0.822248 223.713 51.3594)" fill="black"/>
<rect width="1.43673" height="81.1751" transform="matrix(-0.822248 0.569129 0.569129 0.822248 263.222 21.9067)" fill="black"/>
<rect width="3.59182" height="81.1751" transform="matrix(-0.822248 0.569129 0.569129 0.822248 222.531 52.177)" fill="white"/>
<rect width="3.59182" height="81.1751" transform="matrix(-0.822248 0.569129 0.569129 0.822248 262.041 22.7239)" fill="white"/>
</g>
<path d="M240.517 95.3563C229.644 84.1053 232.369 64.21 246.102 50.9381C259.835 37.6662 279.812 35.6224 290.685 46.8734C301.558 58.1244 298.833 78.0197 285.1 91.2916C271.367 104.564 251.39 106.607 240.517 95.3563Z" fill="#F7931A" stroke="black" stroke-width="1.52246"/>
<mask id="mask5_315_190" style="mask-type:alpha" maskUnits="userSpaceOnUse" x="234" y="40" width="63" height="62">
<ellipse cx="27.2978" cy="34.1223" rx="27.2978" ry="34.1223" transform="matrix(-0.694926 -0.719081 -0.719081 0.694926 309.108 67.0317)" fill="#D9D9D9"/>
</mask>
<g mask="url(#mask5_315_190)">
<rect width="13.6489" height="81.1751" transform="matrix(-0.995238 -0.0974781 -0.0974781 0.995238 288.754 29.7837)" fill="white"/>
<rect width="6.3351" height="81.1751" transform="matrix(-0.995238 -0.0974781 -0.0974781 0.995238 258.322 28.9897)" fill="white"/>
<rect width="10.7755" height="81.1751" transform="matrix(-0.995238 -0.0974781 -0.0974781 0.995238 307.762 27.3149)" fill="white"/>
<rect width="3.59182" height="81.1751" transform="matrix(-0.995238 -0.0974781 -0.0974781 0.995238 275.17 28.4531)" fill="black"/>
<rect width="1.43673" height="81.1751" transform="matrix(-0.995238 -0.0974781 -0.0974781 0.995238 250.007 27.4324)" fill="black"/>
<rect width="3.59182" height="81.1751" transform="matrix(-0.995238 -0.0974781 -0.0974781 0.995238 248.577 27.2927)" fill="white"/>
<path d="M269.606 57.3423L271.318 52.7513L271.633 51.9056L272.479 52.2209L275.875 53.4872L276.721 53.8025L276.406 54.6484L274.609 59.4637C276.472 60.4185 278.127 61.5498 279.243 62.9616C280.442 64.4797 280.992 66.293 280.574 68.4252L280.59 68.4395L280.448 68.9731C280.006 70.639 279.248 71.9008 278.216 72.7837C277.698 73.2272 277.127 73.5611 276.521 73.8025C277.377 74.6248 278.034 75.5787 278.382 76.7024C278.914 78.4241 278.669 80.3778 277.598 82.5982L269.606 57.3423ZM269.606 57.3423C269.265 57.2191 268.922 57.0972 268.58 56.9764L270.298 52.3705L270.614 51.5248L269.768 51.2093L266.374 49.9433L265.528 49.6279L265.213 50.4734L263.441 55.2211C263.275 55.1625 263.111 55.1041 262.948 55.0456L262.952 55.0342L262.127 54.726L257.443 52.9772L256.597 52.6612L256.282 53.5075L254.93 57.135L254.609 57.9968L255.476 58.3018L255.776 57.4502L255.476 58.3018L255.476 58.3018L255.477 58.3019L255.478 58.3024L255.483 58.3043L255.504 58.3116L255.584 58.3396C255.652 58.3638 255.75 58.3984 255.867 58.4401C255.918 58.4579 255.972 58.4771 256.028 58.4972L256.019 58.5019L257.927 59.214C258.441 59.4058 258.62 59.6362 258.693 59.7876C258.768 59.9422 258.791 60.1341 258.763 60.3574L256.425 66.6257L256.111 67.4677L256.111 67.4677L253.119 75.4862C253.057 75.5887 252.987 75.6608 252.926 75.6953C252.898 75.7109 252.868 75.7217 252.825 75.7244C252.781 75.7272 252.696 75.7231 252.558 75.672L250.378 74.8628L250.211 74.7977L250.132 74.767L250.111 74.7589L250.106 74.7569L250.105 74.7564L250.104 74.7563L250.104 74.7562L249.776 75.597L250.104 74.7562L249.381 74.4734L248.993 75.147L246.806 78.951L246.275 79.8745L247.273 80.2467L251.691 81.8946M269.606 57.3423L251.691 81.8946M251.691 81.8946C251.691 81.8948 251.692 81.8949 251.692 81.8951L251.691 81.8946ZM260.566 78.7006L262.733 72.8943C262.751 72.9005 262.769 72.9068 262.787 72.9131C264.066 73.3567 265.81 73.9618 267.276 74.8381C268.196 75.388 268.905 75.99 269.3 76.6332C269.663 77.2231 269.783 77.8757 269.489 78.687L269.477 78.719C269.191 79.4865 268.688 79.8929 268.013 80.1005C267.289 80.3232 266.351 80.3172 265.288 80.1406C263.582 79.8571 261.824 79.1885 260.566 78.7006ZM266.54 62.689C267.597 63.0529 268.981 63.5361 270.145 64.2557C270.891 64.7172 271.447 65.2203 271.746 65.7567C272.017 66.2414 272.11 66.8056 271.847 67.5402L271.832 67.5812C271.57 68.2823 271.14 68.642 270.605 68.8314C270.023 69.0369 269.266 69.056 268.392 68.9245C267.044 68.7216 265.666 68.2068 264.632 67.8043L266.54 62.689Z" fill="black" stroke="white" stroke-width="1.80529"/>
</g>
<defs>
<filter id="filter0_i_315_190" x="108.151" y="3.75537" width="97.8876" height="93.4358" filterUnits="userSpaceOnUse" color-interpolation-filters="sRGB">
<feFlood flood-opacity="0" result="BackgroundImageFix"/>
<feBlend mode="normal" in="SourceGraphic" in2="BackgroundImageFix" result="shape"/>
<feColorMatrix in="SourceAlpha" type="matrix" values="0 0 0 0 0 0 0 0 0 0 0 0 0 0 0 0 0 0 127 0" result="hardAlpha"/>
<feMorphology radius="3.32901" operator="erode" in="SourceAlpha" result="effect1_innerShadow_315_190"/>
<feOffset/>
<feComposite in2="hardAlpha" operator="arithmetic" k2="-1" k3="1"/>
<feColorMatrix type="matrix" values="0 0 0 0 1 0 0 0 0 1 0 0 0 0 1 0 0 0 1 0"/>
<feBlend mode="normal" in2="shape" result="effect1_innerShadow_315_190"/>
</filter>
<clipPath id="clip0_315_190">
<rect width="38.9737" height="63.4708" fill="white" transform="translate(137.995 14.9041) rotate(1.20676)"/>
</clipPath>
</defs>
</svg>
