<svg width="25" height="25" viewBox="0 0 25 25" fill="none" xmlns="http://www.w3.org/2000/svg">
<path d="M14.7285 3.34375V5.34375H18.3185L8.48852 15.1737L9.89852 16.5837L19.7285 6.75375V10.3438H21.7285V3.34375M19.7285 19.3438H5.72852V5.34375H12.7285V3.34375H5.72852C5.19808 3.34375 4.68937 3.55446 4.3143 3.92954C3.93923 4.30461 3.72852 4.81332 3.72852 5.34375V19.3438C3.72852 19.8742 3.93923 20.3829 4.3143 20.758C4.68937 21.133 5.19808 21.3438 5.72852 21.3438H19.7285C20.2589 21.3438 20.7677 21.133 21.1427 20.758C21.5178 20.3829 21.7285 19.8742 21.7285 19.3438V12.3438H19.7285V19.3438Z" fill="#545454"/>
</svg>
