<svg width="344" height="345" viewBox="0 0 344 345" fill="none" xmlns="http://www.w3.org/2000/svg">
<path d="M139.428 293.476L139.247 293.757L139.006 293.526L113.632 269.152L113.414 268.942L113.644 268.745L141.828 244.583L141.828 244.583L141.834 244.577C144.852 242.142 148.362 241.637 151.084 243.407C153.793 245.17 155.613 249.119 155.428 255.352C155.335 258.49 154.335 262.359 152.886 266.404C151.435 270.453 149.528 274.698 147.608 278.593C143.767 286.383 139.865 292.794 139.428 293.476Z" fill="#D5DFE9" stroke="black" stroke-width="0.549135"/>
<mask id="mask0_343_765" style="mask-type:alpha" maskUnits="userSpaceOnUse" x="113" y="242" width="43" height="52">
<path d="M155.154 255.344C154.787 267.722 140.06 291.98 139.196 293.328L113.823 268.954L142.007 244.792C147.917 240.022 155.521 242.967 155.154 255.344Z" fill="#D9D9D9"/>
</mask>
<g mask="url(#mask0_343_765)">
<path d="M148.883 279.84L148.218 281.149L147.861 279.725C146.891 275.855 144.659 270.019 141.134 265.117C137.604 260.209 132.848 256.332 126.837 256.154L125.45 256.113L126.49 255.194L144.825 238.98L145.059 238.773L145.356 238.869L157.601 242.802L157.969 242.92L157.982 243.307L158.568 260.629L158.572 260.771L158.508 260.897L148.883 279.84Z" fill="black" stroke="black" stroke-width="1.09827"/>
<mask id="mask1_343_765" style="mask-type:alpha" maskUnits="userSpaceOnUse" x="126" y="239" width="33" height="42">
<path d="M126.854 255.605C139.368 255.975 146.428 271.75 148.393 279.591L158.019 260.648L157.433 243.325L145.188 239.392L126.854 255.605Z" fill="black" stroke="black" stroke-width="0.549135"/>
</mask>
<g mask="url(#mask1_343_765)">
<path d="M155.608 249.314L143.964 271.494L133.884 259.384L149.571 239.796L153.341 242.38L155.608 249.314Z" fill="#D5DFE9"/>
<path d="M158.407 256.814L148.095 280.406L146.513 278.162C151.18 268.961 153.256 263.803 156.309 253.455L157.018 257.322L158.407 256.814Z" fill="white"/>
<path d="M147.077 240.546L129.259 257.873L125.481 255.564C130.149 246.363 134.621 243.748 137.674 233.401L138.384 237.267L147.077 240.546Z" fill="white"/>
</g>
<path d="M121.025 257.63C140.087 259.513 146.507 278.345 147.334 287.525L140.14 298.575L110.271 268.299L121.025 257.63Z" fill="black" stroke="black" stroke-width="1.09827"/>
<path d="M121.025 257.63C140.087 259.513 146.507 278.345 147.334 287.525L140.14 298.575L110.271 268.299L121.025 257.63Z" fill="black"/>
<mask id="mask2_343_765" style="mask-type:alpha" maskUnits="userSpaceOnUse" x="110" y="257" width="38" height="42">
<path d="M121.025 257.631C140.087 259.513 146.507 278.345 147.334 287.526L140.14 298.575L110.271 268.3L121.025 257.631Z" fill="black"/>
</mask>
<g mask="url(#mask2_343_765)">
<path d="M143.979 270.945L135.897 284.165L124.13 273.379L134.948 260.514C140.205 261.109 143.159 267.716 143.979 270.945Z" fill="#D5DFE9"/>
<path d="M127.878 258.108L116.018 269.019L113.04 267.557L123.859 254.692C129.115 255.287 127.058 254.879 127.878 258.108Z" fill="white"/>
</g>
</g>
<path d="M113.722 268.845C112.222 270.298 112.046 273.016 113.22 276.412C114.383 279.773 116.825 283.646 120.286 287.216C123.746 290.785 127.542 293.347 130.865 294.613C134.223 295.892 136.945 295.8 138.444 294.347C139.944 292.893 140.12 290.176 138.946 286.779C137.783 283.418 135.341 279.545 131.88 275.976C128.42 272.406 124.625 269.845 121.301 268.578C117.943 267.299 115.221 267.391 113.722 268.845Z" fill="#D5DFE9" stroke="black" stroke-width="0.825411"/>
<path d="M114.904 270.064C114.338 270.613 114.039 271.436 114.032 272.518C114.026 273.601 114.315 274.909 114.889 276.361C116.037 279.264 118.291 282.666 121.39 285.863C124.489 289.059 127.819 291.418 130.685 292.655C132.119 293.274 133.417 293.604 134.5 293.631C135.581 293.658 136.414 293.384 136.98 292.836C137.545 292.287 137.845 291.463 137.851 290.382C137.858 289.298 137.569 287.991 136.994 286.538C135.847 283.636 133.593 280.234 130.494 277.037C127.395 273.84 124.064 271.482 121.199 270.245C119.765 269.626 118.467 269.296 117.384 269.269C116.303 269.242 115.47 269.516 114.904 270.064Z" fill="black" stroke="black" stroke-width="0.825411"/>
<path d="M146.786 280.02C144.541 271.649 138.246 259.666 126.883 257.485" stroke="black" stroke-width="0.471393"/>
<path d="M48.8336 197.694L48.5314 197.837L48.7302 198.105L69.6518 226.394L69.8317 226.637L70.0564 226.434L97.6312 201.579L97.6313 201.579L97.6372 201.573C100.44 198.892 101.39 195.476 99.9832 192.55C98.5825 189.637 94.8989 187.326 88.6937 186.711C85.5698 186.401 81.6041 186.897 77.4073 187.816C73.2056 188.736 68.7513 190.083 64.6418 191.488C56.4237 194.299 49.5659 197.348 48.8336 197.694Z" fill="#D5DFE9" stroke="black" stroke-width="0.549135"/>
<mask id="mask3_343_765" style="mask-type:alpha" maskUnits="userSpaceOnUse" x="48" y="186" width="53" height="41">
<path d="M88.6666 186.984C76.3441 185.762 50.3984 197.258 48.9509 197.942L69.8725 226.23L97.4474 201.375C102.935 196.125 100.989 188.206 88.6666 186.984Z" fill="#D9D9D9"/>
</mask>
<g mask="url(#mask3_343_765)">
<path d="M63.5687 190.065L62.1852 190.557L63.552 191.093C67.2655 192.551 72.7677 195.512 77.1769 199.637C81.592 203.767 84.828 208.98 84.2342 214.964L84.0972 216.345L85.142 215.432L103.571 199.326L103.807 199.12L103.75 198.813L101.418 186.165L101.348 185.785L100.967 185.723L83.862 182.922L83.7225 182.899L83.5893 182.946L63.5687 190.065Z" fill="black" stroke="black" stroke-width="1.09827"/>
<mask id="mask4_343_765" style="mask-type:alpha" maskUnits="userSpaceOnUse" x="62" y="183" width="42" height="33">
<path d="M84.7807 215.018C86.0171 202.559 71.2772 193.536 63.7527 190.582L83.7732 183.464L100.878 186.265L103.21 198.912L84.7807 215.018Z" fill="black" stroke="black" stroke-width="0.549135"/>
</mask>
<g mask="url(#mask4_343_765)">
<path d="M94.7043 187.308L71.2153 196.013L81.9336 207.562L103.37 194.514L101.291 190.444L94.7043 187.308Z" fill="#D5DFE9"/>
<path d="M87.6251 183.57L62.9055 190.774L64.9286 192.631C74.6521 189.181 80.0332 187.783 90.6869 186.081L86.9431 184.882L87.6251 183.57Z" fill="white"/>
<path d="M102.308 196.891L82.8397 212.342L84.6459 216.384C94.3694 212.934 97.5355 208.834 108.189 207.132L104.445 205.933L102.308 196.891Z" fill="white"/>
</g>
<path d="M82.0258 220.538C82.6014 201.392 64.7472 192.612 55.7481 190.615L43.8681 196.334L70.0665 229.836L82.0258 220.538Z" fill="black" stroke="black" stroke-width="1.09827"/>
<path d="M82.0258 220.538C82.6014 201.392 64.7472 192.612 55.7481 190.615L43.8681 196.334L70.0665 229.836L82.0258 220.538Z" fill="black"/>
<mask id="mask5_343_765" style="mask-type:alpha" maskUnits="userSpaceOnUse" x="43" y="190" width="40" height="40">
<path d="M82.0258 220.539C82.6014 201.392 64.7472 192.612 55.7481 190.616L43.8681 196.335L70.0665 229.837L82.0258 220.539Z" fill="black"/>
</mask>
<g mask="url(#mask5_343_765)">
<path d="M71.7621 196.067L57.6148 202.389L66.8044 215.441L80.9496 206.36C81.033 201.071 74.8593 197.294 71.7621 196.067Z" fill="#D5DFE9"/>
<path d="M82.4308 213.681L70.0897 224.045L71.1576 227.186L85.3028 218.105C85.3862 212.815 85.528 214.908 82.4308 213.681Z" fill="white"/>
</g>
</g>
<path d="M69.9679 226.344C68.3343 227.644 65.6163 227.471 62.3987 225.871C59.2141 224.287 55.6861 221.369 52.5894 217.479C49.4927 213.59 47.4387 209.498 46.6088 206.039C45.7704 202.545 46.2106 199.857 47.8442 198.557C49.4778 197.256 52.1958 197.429 55.4134 199.029C58.598 200.613 62.1259 203.531 65.2226 207.421C68.3193 211.31 70.3734 215.402 71.2032 218.861C72.0416 222.355 71.6015 225.043 69.9679 226.344Z" fill="#D5DFE9" stroke="black" stroke-width="0.825411"/>
<path d="M68.9097 225.016C68.2932 225.507 67.4378 225.698 66.3645 225.566C65.2891 225.434 64.0294 224.979 62.6626 224.224C59.9308 222.713 56.8456 220.042 54.0724 216.559C51.2992 213.076 49.3871 209.471 48.5274 206.47C48.0973 204.969 47.9365 203.639 48.0485 202.562C48.1602 201.486 48.5385 200.695 49.1549 200.204C49.7714 199.713 50.6268 199.522 51.7002 199.654C52.7755 199.786 54.0352 200.241 55.402 200.997C58.1339 202.507 61.219 205.178 63.9922 208.661C66.7654 212.144 68.6775 215.749 69.5372 218.75C69.9673 220.251 70.1281 221.581 70.0161 222.659C69.9044 223.734 69.5262 224.525 68.9097 225.016Z" fill="black" stroke="black" stroke-width="0.825411"/>
<path d="M63.1221 192.12C71.1357 195.42 82.2135 203.198 82.9205 214.747" stroke="black" stroke-width="0.471392"/>
<path d="M92.3477 206.714L167.989 138.692L208.203 183.39L126.149 257.212L88.2781 215.118L92.3477 206.714Z" fill="#D5DFE9" stroke="black" stroke-width="1.41418"/>
<path d="M92.1091 206.753L67.5967 229.144L110.022 272.276L135.006 248.942C126.521 219.15 102.873 208.403 92.1091 206.753Z" fill="#D5DFE9" stroke="black" stroke-width="1.41418"/>
<path d="M89.4145 222.78L83.5221 227.73C80.1281 225.656 74.2514 225.452 71.7373 225.609L76.6869 220.424C78.7611 219.292 86.0362 221.523 89.4145 222.78Z" fill="black" stroke="black" stroke-width="0.471392"/>
<path d="M77.4961 219.716C89.9094 221.13 115.773 231.783 119.921 263.084" stroke="black" stroke-width="1.41418"/>
<path d="M80.6934 217.359C93.1067 218.773 118.64 231.501 122.647 260.256" stroke="black" stroke-width="1.41418"/>
<path d="M98.8425 216.887C97.2712 218.301 94.5528 220.705 94.3643 220.894C99.5496 223.486 105.206 227.729 106.856 229.379L110.627 225.372C109.307 223.298 102.221 218.851 98.8425 216.887Z" fill="white"/>
<path d="M90.1211 208.873C102.534 210.287 125.004 222.308 132.782 250.591" stroke="black" stroke-width="1.41418"/>
<path d="M87.7646 210.759C100.178 212.173 122.412 223.25 130.897 252.712" stroke="black" stroke-width="1.41418"/>
<path d="M85.4072 212.645C97.8206 214.059 120.055 225.136 128.54 254.598" stroke="black" stroke-width="1.41418"/>
<path d="M110.933 271.407C108.368 273.901 103.705 274.065 97.9484 271.882C92.251 269.72 85.7423 265.341 79.8046 259.234C73.8669 253.127 69.6726 246.497 67.6727 240.742C65.652 234.926 65.9477 230.269 68.5128 227.775C71.0779 225.281 75.7412 225.117 81.4977 227.3C87.1951 229.461 93.7038 233.841 99.6415 239.948C105.579 246.055 109.774 252.684 111.773 258.44C113.794 264.256 113.498 268.913 110.933 271.407Z" fill="#D5DFE9" stroke="black" stroke-width="1.41418"/>
<path d="M108.907 269.321C107.939 270.263 106.513 270.734 104.661 270.69C102.805 270.646 100.58 270.085 98.1222 269.028C93.2091 266.915 87.4972 262.883 82.1798 257.414C76.8624 251.945 72.9924 246.121 71.0191 241.151C70.0317 238.664 69.5327 236.424 69.5412 234.568C69.5497 232.715 70.0608 231.303 71.0288 230.362C71.9968 229.421 73.4228 228.95 75.2752 228.993C77.1309 229.037 79.3555 229.599 81.8137 230.656C86.7268 232.768 92.4387 236.8 97.7561 242.27C103.074 247.739 106.943 253.562 108.917 258.533C109.904 261.02 110.403 263.259 110.395 265.115C110.386 266.968 109.875 268.38 108.907 269.321Z" fill="black" stroke="black" stroke-width="1.41418"/>
<g filter="url(#filter0_i_343_765)">
<path d="M65.8994 243.317C75.2775 231.57 91.1591 237.717 96.7623 243.162C103.149 249.367 104.68 257.099 103.804 264.01C102.186 276.786 88.7473 280.949 73.8303 279.799C69.8947 279.496 63.4748 281.522 59.8893 283.253C59.6325 283.377 59.332 283.217 59.3567 282.933C59.6169 279.947 64.8147 275.325 67.5183 273.976C57.5426 278.706 56.4376 279.043 52.6143 279.747C52.242 279.815 51.9734 279.393 52.1937 279.085C55.4693 274.508 59.1707 268.564 59.5273 268.035C55.5682 273.783 49.9041 270.485 48.8466 270.351C53.1192 270.597 56.5157 264.547 57.012 262.516C59.2016 253.555 63.7563 246.002 65.8994 243.317Z" fill="white"/>
</g>
<path d="M96.7623 243.162L96.4707 243.462L96.4707 243.462L96.7623 243.162ZM65.8994 243.317L66.2265 243.578L66.2265 243.578L65.8994 243.317ZM57.012 262.516L57.4185 262.615L57.4185 262.615L57.012 262.516ZM48.8466 270.351L48.8707 269.933C48.6455 269.92 48.4506 270.088 48.4299 270.313C48.4092 270.537 48.5703 270.738 48.794 270.766L48.8466 270.351ZM59.5436 268.011L59.8889 268.248L59.2021 267.769L59.5436 268.011ZM52.1937 279.085L51.8534 278.841L51.8534 278.841L52.1937 279.085ZM52.6143 279.747L52.5386 279.335L52.5386 279.335L52.6143 279.747ZM67.7689 273.857L67.9483 274.235L67.5979 273.475L67.7689 273.857ZM59.3567 282.933L59.7736 282.97L59.7736 282.97L59.3567 282.933ZM59.8893 283.253L59.7073 282.876L59.7073 282.876L59.8893 283.253ZM73.8303 279.799L73.8625 279.382L73.8625 279.382L73.8303 279.799ZM97.054 242.862C94.186 240.075 88.7306 237.138 82.7997 236.377C76.8484 235.614 70.3735 237.042 65.5723 243.056L66.2265 243.578C70.8034 237.845 76.9584 236.472 82.6932 237.208C88.4485 237.945 93.7354 240.804 96.4707 243.462L97.054 242.862ZM65.5723 243.056C63.3945 245.784 58.8106 253.392 56.6054 262.417L57.4185 262.615C59.5925 253.718 64.118 246.219 66.2265 243.578L65.5723 243.056ZM56.6054 262.417C56.3756 263.357 55.4379 265.321 54.0238 267.02C52.6013 268.728 50.8007 270.044 48.8707 269.933L48.8226 270.769C51.1651 270.903 53.1991 269.318 54.667 267.555C56.1434 265.782 57.152 263.706 57.4185 262.615L56.6054 262.417ZM48.794 270.766C48.8734 270.776 49.0316 270.824 49.3093 270.921C49.5669 271.011 49.8997 271.131 50.2769 271.252C51.0344 271.496 52.0028 271.752 53.0738 271.816C55.2429 271.947 57.7983 271.283 59.8719 268.272L59.1826 267.797C57.2972 270.535 55.041 271.096 53.124 270.981C52.1519 270.922 51.2585 270.689 50.5329 270.455C50.1684 270.338 49.8543 270.224 49.5843 270.13C49.3343 270.043 49.0843 269.959 48.8992 269.936L48.794 270.766ZM59.8719 268.272C59.8776 268.264 59.8832 268.256 59.8889 268.248L59.1983 267.775C59.1931 267.782 59.1879 267.79 59.1826 267.797L59.8719 268.272ZM59.2021 267.769C59.1951 267.779 59.1876 267.79 59.1802 267.801L59.8744 268.269C59.8801 268.26 59.8835 268.255 59.885 268.253L59.2021 267.769ZM59.1802 267.801C58.8055 268.357 55.1277 274.266 51.8534 278.841L52.534 279.328C55.811 274.75 59.5358 268.771 59.8744 268.269L59.1802 267.801ZM52.69 280.158C54.613 279.805 55.8732 279.539 57.9083 278.762C59.9276 277.992 62.7132 276.718 67.6976 274.354L67.339 273.598C62.3477 275.964 59.5929 277.224 57.6099 277.98C55.6428 278.731 54.4388 278.986 52.5386 279.335L52.69 280.158ZM67.6976 274.354C67.7806 274.315 67.8641 274.275 67.9483 274.235L67.5895 273.479C67.5054 273.519 67.4219 273.559 67.339 273.598L67.6976 274.354ZM67.5979 273.475C67.5112 273.514 67.4223 273.556 67.3314 273.602L67.7052 274.35C67.7866 274.31 67.8649 274.273 67.9399 274.239L67.5979 273.475ZM67.3314 273.602C65.9257 274.303 63.9137 275.829 62.2229 277.547C61.3749 278.409 60.5962 279.331 60.0103 280.236C59.4291 281.134 59.0135 282.051 58.9398 282.897L59.7736 282.97C59.83 282.323 60.1617 281.542 60.7128 280.691C61.2591 279.847 61.9977 278.97 62.8196 278.134C64.4686 276.458 66.4073 274.998 67.7052 274.35L67.3314 273.602ZM60.0712 283.63C61.8383 282.777 64.3149 281.846 66.8373 281.167C69.3678 280.486 71.9018 280.07 73.7981 280.216L73.8625 279.382C71.8232 279.225 69.1795 279.67 66.6197 280.359C64.0519 281.05 61.5258 281.998 59.7073 282.876L60.0712 283.63ZM73.7981 280.216C81.2954 280.795 88.4636 280.042 93.979 277.507C99.5144 274.963 103.389 270.617 104.22 264.062L103.389 263.957C102.601 270.179 98.9472 274.303 93.6295 276.747C88.2917 279.2 81.2822 279.954 73.8625 279.382L73.7981 280.216ZM104.22 264.062C105.108 257.05 103.554 249.178 97.054 242.862L96.4707 243.462C102.744 249.557 104.252 257.147 103.389 263.957L104.22 264.062ZM58.9398 282.897C58.9124 283.211 59.0725 283.473 59.3085 283.609C59.5354 283.74 59.8212 283.751 60.0712 283.63L59.7073 282.876C59.7006 282.88 59.7077 282.873 59.7263 282.884C59.7364 282.89 59.7506 282.901 59.7614 282.921C59.773 282.943 59.7743 282.962 59.7736 282.97L58.9398 282.897ZM51.8534 278.841C51.4138 279.455 51.9479 280.295 52.69 280.158L52.5386 279.335C52.5345 279.336 52.5336 279.336 52.535 279.336C52.5362 279.336 52.5375 279.336 52.5385 279.337C52.54 279.337 52.5377 279.337 52.535 279.333C52.5323 279.328 52.5326 279.326 52.5326 279.328C52.5326 279.329 52.5324 279.33 52.532 279.331C52.5316 279.333 52.5316 279.332 52.534 279.328L51.8534 278.841Z" fill="#F7931A"/>
<path d="M190.158 160.556L123.928 226.551L131.234 238.336L199.822 169.277L190.158 160.556Z" fill="black" stroke="black" stroke-width="0.471392"/>
<path d="M113.087 243.286L107.194 248.471C108.137 249.225 110.887 256.327 112.144 259.313L118.272 253.656L117.329 251.299L131.471 239.043L130.293 235.272L124.298 227.965L111.099 239.043L113.087 243.286Z" fill="black" stroke="black" stroke-width="0.471392"/>
<path d="M175.863 148.431L185.462 159.449L117.227 218.773C113.927 215.944 110.627 213.116 104.735 210.288L175.863 148.431Z" fill="white"/>
<path d="M335.137 2.35767C225.136 33.4671 151.712 128.409 125.843 173.458C156.31 185.009 170.414 208.613 173.762 218.866C283.599 162.383 335.452 48.7927 341.76 7.87747C342.342 4.10301 338.812 1.31836 335.137 2.35767Z" fill="#D5DFE9" stroke="black" stroke-width="2.51103"/>
<mask id="mask6_343_765" style="mask-type:alpha" maskUnits="userSpaceOnUse" x="124" y="0" width="220" height="221">
<path d="M335.137 2.35767C225.136 33.4671 151.712 128.409 125.843 173.458C156.31 185.009 170.414 208.613 173.762 218.866C283.599 162.383 335.452 48.7927 341.76 7.87747C342.342 4.10301 338.812 1.31836 335.137 2.35767Z" fill="#D9D9D9" stroke="black" stroke-width="2.51103"/>
</mask>
<g mask="url(#mask6_343_765)">
<path d="M135.468 176.178L143.419 164.878L161.834 176.806C161.834 176.806 154.081 189.074 153.464 188.524C145.721 181.619 135.468 176.178 135.468 176.178Z" fill="white"/>
<path d="M254.742 82.2232C223.94 99.1308 182.968 151.904 162.252 176.806L142.373 165.087C166.646 126.585 221.566 65.5252 234.235 71.1329C246.999 76.7826 251.115 76.7129 254.742 82.2232Z" fill="white"/>
<path d="M267.507 71.3425L254.533 81.8052C249.511 76.9923 232.492 71.1332 225.447 69.4592L234.027 58.9966C244.573 56.3182 267.507 71.3425 267.507 71.3425Z" fill="white"/>
<path d="M282.573 54.3928L266.46 70.7145C262.945 64.8554 248.116 60.1821 241.141 58.5778L255.998 44.9764C266.879 42.2979 277.83 49.6497 282.573 54.3928Z" fill="white"/>
<path d="M273.575 39.9546L264.368 45.3952L279.853 54.6023L288.432 47.2784C286.089 43.9304 277.551 41.0009 273.575 39.9546Z" fill="white"/>
<path d="M310.821 27.8181L292.617 42.675L282.782 37.8622L271.063 35.3512L296.174 21.7498L310.821 27.8181Z" fill="white"/>
<path d="M312.078 28.4459C310.822 26.3534 303.08 23.4238 302.661 23.4238C307.823 19.727 318.23 12.2916 318.564 12.1242C318.899 11.9568 331.817 7.03235 338.234 4.59106L336.979 8.98537C333.965 8.98537 319.122 21.959 312.078 28.4459Z" fill="white"/>
<path d="M303.289 51.4631L316.89 33.2581L338.025 5.21826H339.908C340.243 7.39449 329.864 32.0724 324.632 44.1393C324.298 46.9851 315.704 60.8097 311.449 67.3663C311.728 69.7379 312.37 74.6065 312.705 75.1087C313.04 75.6109 303.777 62.7628 299.104 56.2759C303.289 57.1129 303.289 52.5791 303.289 51.4631Z" fill="black" stroke="black" stroke-width="1.25552"/>
<path d="M214.565 69.0412C230.19 66.9487 265.958 75.528 284.037 126.586" stroke="black" stroke-width="2.51103"/>
<path d="M231.515 58.5779L220.425 68.4128L229.632 69.8775L241.141 59.4149L231.515 58.5779Z" fill="black" stroke="black" stroke-width="2.51103"/>
<path d="M226.912 58.5782C241.978 55.7184 276.296 62.3448 293.036 111.728" stroke="black" stroke-width="2.51103"/>
<path d="M255.37 43.9307L238.002 58.1599L246.163 59.4154L262.903 45.3954L255.37 43.9307Z" fill="black" stroke="black" stroke-width="2.51103"/>
<path d="M133.585 162.158C147.535 165.855 177.57 181.284 186.107 213.425" stroke="black" stroke-width="2.51103"/>
<path d="M247.209 43.7213C261.229 41.7683 293.538 48.5758 308.102 89.7567" stroke="black" stroke-width="2.51103"/>
<path d="M338.862 4.3817C337.606 2.28909 309.218 15.1233 295.965 21.1219L302.242 23.6329C314.798 16.0998 325.679 9.82222 338.862 4.3817Z" fill="black" stroke="black" stroke-width="1.25552"/>
<path d="M266.669 37.6531C265.414 38.4901 259.694 41.5591 256.625 43.5122L255.579 43.9307L264.368 44.7677L272.947 39.7456L266.669 37.6531Z" fill="black" stroke="black" stroke-width="2.51103"/>
<path d="M258.509 36.188C273.087 36.746 304.461 46.6506 313.333 81.8051" stroke="black" stroke-width="2.51103"/>
<path d="M262.275 34.5143C277.063 33.9563 308.102 41.7545 313.961 77.4111" stroke="black" stroke-width="2.51103"/>
<path d="M298.267 22.3772L274.831 35.1417H268.972L292.199 21.9587L298.267 22.3772Z" fill="black" stroke="black" stroke-width="1.25552"/>
<path d="M286.549 20.9126C300.778 21.5404 324.633 28.2364 327.353 52.9282" stroke="black" stroke-width="2.51103"/>
<path d="M287.386 56.904L293.245 50.8357C303.289 56.904 308.032 69.2499 311.659 76.5738L306.637 83.4791C305.633 75.109 293.036 62.4841 287.386 56.904Z" fill="black" stroke="black" stroke-width="2.51103"/>
<path d="M277.76 81.5959C286.13 74.4813 288.223 71.3425 293.036 63.1816C296.872 66.5297 304.419 74.3139 303.917 78.6663C303.415 83.0188 294.221 96.5226 289.688 102.73C284.875 91.64 277.073 82.1797 277.76 81.5959Z" fill="black" stroke="black" stroke-width="1.25552"/>
<path d="M275.039 83.8975L265.623 92.0583C271.984 96.7456 278.876 112.286 281.526 119.47C285.084 117.378 288.641 113.402 289.687 111.519C286.339 100.219 279.573 89.9658 275.039 83.8975Z" fill="black" stroke="black" stroke-width="1.25552"/>
<path d="M217.077 66.7387C237.375 63.5998 270.437 80.9679 285.921 122.818" stroke="black" stroke-width="1.25552"/>
<path d="M219.797 65.274C238.839 62.5538 272.529 78.6662 287.176 120.726" stroke="black" stroke-width="1.25552"/>
<path d="M270.646 99.8008C255.161 129.515 209.753 169.482 174.39 189.152L182.551 203.381C226.242 179.108 265.484 135.653 279.644 116.96L270.646 99.8008Z" fill="black" stroke="black" stroke-width="1.25552"/>
<path d="M136.933 162.577C136.933 161.112 182.34 94.1511 222.726 69.25" stroke="black" stroke-width="2.09253"/>
<path d="M129.818 174.504C131.492 171.365 135.426 164.753 137.77 163.414" stroke="black" stroke-width="2.09253"/>
</g>
<g filter="url(#filter1_i_343_765)">
<path d="M158.44 182.263C129.927 209.322 73.2778 263.451 71.4369 263.405C71.4838 261.522 149.607 175.555 160.772 172.692C165.407 171.504 164.443 176.566 158.44 182.263Z" fill="#D5DFE9"/>
</g>
<path d="M158.44 182.263C129.927 209.322 73.2778 263.451 71.4369 263.405C71.4838 261.522 149.607 175.555 160.772 172.692C165.407 171.504 164.443 176.566 158.44 182.263Z" stroke="black" stroke-width="1.25552"/>
<path d="M161.316 179.648C161.614 179.471 161.713 179.086 161.537 178.788C161.36 178.49 160.975 178.391 160.677 178.567L161.316 179.648ZM101.819 236.661C137.633 198.125 146.557 188.378 161.316 179.648L160.677 178.567C145.722 187.414 136.65 197.338 100.9 235.806L101.819 236.661Z" fill="black"/>
<path d="M155.138 191.454L163.927 175.551L158.277 182.875L118.31 220.54L121.658 224.098L155.138 191.454Z" fill="black" stroke="black" stroke-width="0.418505"/>
<circle cx="234.235" cy="114.658" r="29.9231" fill="#D5DFE9" stroke="black" stroke-width="1.25552"/>
<circle cx="234.236" cy="114.658" r="24.9011" fill="#D9D9D9" stroke="black" stroke-width="1.25552"/>
<g filter="url(#filter2_i_343_765)">
<circle cx="234.235" cy="114.658" r="28.0399" fill="#D5DFE9"/>
</g>
<circle cx="234.235" cy="114.658" r="27.4121" stroke="black" stroke-width="1.25552"/>
<circle cx="234.236" cy="114.658" r="21.1345" fill="white" stroke="black" stroke-width="1.25552"/>
<g filter="url(#filter3_i_343_765)">
<circle cx="234.235" cy="114.658" r="19.6698" fill="#5973FE"/>
</g>
<circle cx="234.235" cy="114.658" r="18.4142" stroke="black" stroke-width="2.51103"/>
<circle cx="232.561" cy="105.869" r="3.76655" fill="white"/>
<circle cx="227.54" cy="107.544" r="2.09253" fill="white"/>
<circle cx="231.725" cy="112.985" r="5.44057" fill="white"/>
<g filter="url(#filter4_i_343_765)">
<path d="M92.8396 163.684L125.633 173.249L127.516 174.505L97.384 201.917C85.7884 183.827 58.7726 189.588 38.2618 195.989L8.92096 205.147C7.55316 205.574 6.67684 203.721 7.8747 202.935L60.2367 168.563C69.866 162.242 81.7818 160.459 92.8396 163.684Z" fill="#D5DFE9"/>
</g>
<path d="M92.8396 163.684L125.633 173.249L127.516 174.505L97.384 201.917C85.7884 183.827 58.7726 189.588 38.2618 195.989L8.92096 205.147C7.55316 205.574 6.67684 203.721 7.8747 202.935L60.2367 168.563C69.866 162.242 81.7818 160.459 92.8396 163.684Z" stroke="black" stroke-width="1.67402"/>
<path d="M97.9349 169.076L121.448 176.179L123.959 177.114L99.0581 199.615C90.7013 186.548 75.0945 185.25 59.8729 188.232L38.0578 192.506C36.8077 192.751 36.1621 191.07 37.2548 190.415L66.3397 172.989C75.8496 167.291 87.3223 165.87 97.9349 169.076Z" fill="black"/>
<g filter="url(#filter5_i_343_765)">
<path d="M179.533 252.445L173.145 218.888L172.075 216.893L141.91 244.269C158.808 257.54 150.494 283.882 142.162 303.687L130.244 332.019C129.688 333.34 131.449 334.389 132.346 333.272L171.562 284.433C178.774 275.451 181.687 263.76 179.533 252.445Z" fill="#D5DFE9"/>
</g>
<path d="M179.533 252.445L173.145 218.888L172.075 216.893L141.91 244.269C158.808 257.54 150.494 283.882 142.162 303.687L130.244 332.019C129.688 333.34 131.449 334.389 132.346 333.272L171.562 284.433C178.774 275.451 181.687 263.76 179.533 252.445Z" stroke="black" stroke-width="1.67402"/>
<path d="M174.653 246.858L169.829 222.774L169.138 220.185L144.361 242.823C156.57 252.39 156.371 268.049 151.949 282.916L145.61 304.223C145.247 305.444 146.859 306.248 147.615 305.222L167.74 277.935C174.32 269.013 176.831 257.728 174.653 246.858Z" fill="black"/>
<g filter="url(#filter6_i_343_765)">
<path d="M40.7189 208.319C46.8295 200.872 57.2404 204.819 60.9214 208.295C65.117 212.256 66.1379 217.176 65.5814 221.568C64.5527 229.688 55.766 232.303 45.9985 231.536C43.4838 231.338 39.4257 232.546 37.0539 233.619C36.7977 233.735 36.5062 233.575 36.559 233.298C36.9216 231.4 40.1456 228.641 41.8526 227.818C35.6613 230.651 34.6986 230.985 32.4748 231.387C32.1014 231.454 31.8378 231.025 32.0608 230.718C34.1344 227.864 36.3834 224.345 36.6074 224.021C34.0296 227.666 30.3139 225.555 29.6214 225.468C32.4188 225.634 34.6276 221.796 34.9475 220.505C36.3592 214.813 39.3225 210.021 40.7189 208.319Z" fill="white"/>
</g>
<path d="M60.9214 208.295L61.2087 207.99L61.2087 207.99L60.9214 208.295ZM40.7189 208.319L40.3954 208.053L40.3954 208.053L40.7189 208.319ZM34.9475 220.505L35.3537 220.606L35.3537 220.606L34.9475 220.505ZM29.6214 225.468L29.6463 225.05C29.421 225.037 29.2256 225.204 29.2047 225.429C29.1838 225.654 29.3449 225.855 29.5688 225.883L29.6214 225.468ZM36.618 224.006L36.9603 224.246L36.2796 223.759L36.618 224.006ZM32.0608 230.718L31.7222 230.472L31.7222 230.472L32.0608 230.718ZM32.4748 231.387L32.5491 231.798L32.5491 231.798L32.4748 231.387ZM42.0164 227.743L42.1907 228.123L41.8504 227.359L42.0164 227.743ZM36.559 233.298L36.1479 233.22L36.1479 233.22L36.559 233.298ZM37.0539 233.619L36.8814 233.238L36.8814 233.238L37.0539 233.619ZM45.9985 231.536L45.9657 231.953L45.9657 231.953L45.9985 231.536ZM61.2087 207.99C59.3018 206.19 55.696 204.297 51.7845 203.796C47.855 203.292 43.5651 204.19 40.3954 208.053L41.0425 208.584C43.9833 205 47.9542 204.149 51.6781 204.626C55.4199 205.105 58.8601 206.924 60.6341 208.599L61.2087 207.99ZM40.3954 208.053C38.9632 209.799 35.9693 214.646 34.5413 220.405L35.3537 220.606C36.7491 214.979 39.6818 210.243 41.0425 208.584L40.3954 208.053ZM34.5413 220.405C34.4005 220.973 33.8055 222.198 32.8956 223.261C31.9792 224.331 30.8439 225.121 29.6463 225.05L29.5965 225.885C31.1963 225.981 32.5641 224.935 33.5314 223.805C34.5052 222.668 35.1746 221.329 35.3537 220.606L34.5413 220.405ZM29.5688 225.883C29.604 225.887 29.6932 225.913 29.8796 225.976C30.0465 226.033 30.2676 226.112 30.5168 226.19C31.0183 226.349 31.6647 226.517 32.3815 226.562C33.8396 226.652 35.5633 226.222 36.9491 224.262L36.2657 223.779C35.0737 225.465 33.6507 225.802 32.4333 225.726C31.8125 225.688 31.239 225.54 30.7685 225.392C30.5317 225.317 30.3287 225.245 30.1498 225.184C29.9903 225.13 29.8119 225.07 29.674 225.053L29.5688 225.883ZM36.9491 224.262C36.9528 224.257 36.9566 224.252 36.9603 224.246L36.2757 223.765C36.2723 223.77 36.269 223.774 36.2657 223.779L36.9491 224.262ZM36.2796 223.759C36.274 223.767 36.2683 223.775 36.2631 223.783L36.9516 224.259C36.955 224.254 36.9564 224.252 36.9564 224.252L36.2796 223.759ZM36.2631 223.783C36.0196 224.135 33.7965 227.617 31.7222 230.472L32.3994 230.964C34.4722 228.111 36.7472 224.554 36.9516 224.259L36.2631 223.783ZM32.5491 231.798C34.8318 231.386 35.8393 231.03 42.0268 228.198L41.6784 227.437C35.4833 230.273 34.5654 230.584 32.4004 230.975L32.5491 231.798ZM42.0268 228.198C42.081 228.173 42.1356 228.148 42.1907 228.123L41.8421 227.362C41.7872 227.387 41.7326 227.412 41.6784 227.437L42.0268 228.198ZM41.8504 227.359C41.7918 227.384 41.7319 227.411 41.6709 227.441L42.0343 228.195C42.0859 228.17 42.1353 228.147 42.1823 228.127L41.8504 227.359ZM41.6709 227.441C40.7648 227.878 39.4959 228.804 38.4107 229.854C37.8653 230.382 37.3561 230.95 36.9571 231.516C36.562 232.076 36.2546 232.661 36.1479 233.22L36.97 233.377C37.0446 232.987 37.2762 232.515 37.641 231.998C38.0018 231.487 38.4733 230.958 38.9926 230.456C40.0368 229.445 41.2335 228.581 42.0343 228.195L41.6709 227.441ZM37.2265 234C38.3885 233.475 39.9724 232.912 41.5753 232.506C43.1859 232.099 44.7765 231.859 45.9657 231.953L46.0313 231.118C44.7057 231.014 43.01 231.28 41.3699 231.695C39.7222 232.112 38.0912 232.69 36.8814 233.238L37.2265 234ZM45.9657 231.953C50.8867 232.34 55.6029 231.879 59.2367 230.267C62.8899 228.647 65.4604 225.853 65.9966 221.621L65.1663 221.515C64.6737 225.403 62.3365 227.977 58.8973 229.502C55.4387 231.036 50.8777 231.499 46.0313 231.118L45.9657 231.953ZM65.9966 221.621C66.5665 217.123 65.5196 212.061 61.2087 207.99L60.6341 208.599C64.7145 212.452 65.7093 217.229 65.1663 221.515L65.9966 221.621ZM36.1479 233.22C36.0871 233.538 36.2334 233.817 36.4722 233.963C36.6958 234.1 36.9798 234.112 37.2265 234L36.8814 233.238C36.8718 233.242 36.8819 233.232 36.909 233.249C36.924 233.258 36.9444 233.276 36.9583 233.307C36.9731 233.339 36.9721 233.366 36.97 233.377L36.1479 233.22ZM31.7222 230.472C31.284 231.075 31.7937 231.935 32.5491 231.798L32.4004 230.975C32.3966 230.975 32.3961 230.975 32.3979 230.975C32.3997 230.976 32.4015 230.976 32.4029 230.977C32.4051 230.978 32.4031 230.977 32.4002 230.973C32.3974 230.968 32.3974 230.965 32.3974 230.966C32.3974 230.966 32.3972 230.967 32.397 230.968C32.3967 230.969 32.3969 230.968 32.3994 230.964L31.7222 230.472Z" fill="#F7931A"/>
<g filter="url(#filter7_i_343_765)">
<path d="M108.791 278.964C114.902 271.517 125.313 275.464 128.994 278.94C133.189 282.901 134.21 287.821 133.654 292.213C132.625 300.334 123.838 302.948 114.071 302.181C111.556 301.983 107.498 303.191 105.126 304.264C104.87 304.38 104.578 304.22 104.631 303.944C104.994 302.046 108.218 299.286 109.925 298.463C103.734 301.297 102.771 301.63 100.547 302.032C100.174 302.099 99.91 301.67 100.133 301.363C102.207 298.51 104.456 294.99 104.68 294.666C102.102 298.311 98.3862 296.201 97.6937 296.113C100.491 296.279 102.7 292.441 103.02 291.151C104.431 285.458 107.395 280.666 108.791 278.964Z" fill="white"/>
</g>
<path d="M128.994 278.94L129.281 278.636L129.281 278.636L128.994 278.94ZM108.791 278.964L108.468 278.699L108.468 278.699L108.791 278.964ZM103.02 291.151L103.426 291.251L103.426 291.251L103.02 291.151ZM97.6937 296.113L97.7185 295.695C97.4932 295.682 97.2979 295.849 97.277 296.074C97.2561 296.299 97.4172 296.5 97.6411 296.528L97.6937 296.113ZM104.69 294.651L105.033 294.892L104.352 294.405L104.69 294.651ZM100.133 301.363L99.7945 301.117L99.7945 301.117L100.133 301.363ZM100.547 302.032L100.621 302.444L100.621 302.444L100.547 302.032ZM110.089 298.388L110.263 298.769L109.923 298.004L110.089 298.388ZM104.631 303.944L104.22 303.865L104.22 303.865L104.631 303.944ZM105.126 304.264L104.954 303.883L104.954 303.883L105.126 304.264ZM114.071 302.181L114.038 302.598L114.038 302.598L114.071 302.181ZM129.281 278.636C127.374 276.835 123.768 274.942 119.857 274.441C115.927 273.937 111.637 274.836 108.468 278.699L109.115 279.23C112.056 275.646 116.027 274.794 119.75 275.271C123.492 275.751 126.932 277.569 128.706 279.244L129.281 278.636ZM108.468 278.699C107.036 280.444 104.042 285.291 102.614 291.05L103.426 291.251C104.821 285.624 107.754 280.888 109.115 279.23L108.468 278.699ZM102.614 291.05C102.473 291.618 101.878 292.843 100.968 293.906C100.051 294.976 98.9161 295.766 97.7185 295.695L97.6688 296.531C99.2686 296.626 100.636 295.58 101.604 294.45C102.577 293.313 103.247 291.974 103.426 291.251L102.614 291.05ZM97.6411 296.528C97.6763 296.533 97.7655 296.558 97.9518 296.622C98.1187 296.679 98.3398 296.757 98.589 296.836C99.0906 296.994 99.737 297.163 100.454 297.207C101.912 297.298 103.636 296.867 105.021 294.908L104.338 294.424C103.146 296.11 101.723 296.447 100.506 296.372C99.8847 296.333 99.3112 296.186 98.8408 296.037C98.604 295.963 98.401 295.89 98.2221 295.829C98.0626 295.775 97.8842 295.715 97.7463 295.698L97.6411 296.528ZM105.021 294.908C105.025 294.902 105.029 294.897 105.033 294.892L104.348 294.41C104.345 294.415 104.341 294.42 104.338 294.424L105.021 294.908ZM104.352 294.405C104.346 294.412 104.341 294.42 104.335 294.428L105.024 294.904C105.027 294.899 105.029 294.897 105.029 294.897L104.352 294.405ZM104.335 294.428C104.092 294.78 101.869 298.263 99.7945 301.117L100.472 301.609C102.544 298.757 104.82 295.2 105.024 294.904L104.335 294.428ZM100.621 302.444C102.904 302.031 103.912 301.676 110.099 298.844L109.751 298.082C103.556 300.918 102.638 301.229 100.473 301.62L100.621 302.444ZM110.099 298.844C110.153 298.819 110.208 298.794 110.263 298.769L109.914 298.008C109.859 298.033 109.805 298.058 109.751 298.082L110.099 298.844ZM109.923 298.004C109.864 298.029 109.804 298.057 109.743 298.086L110.107 298.84C110.158 298.815 110.208 298.793 110.255 298.772L109.923 298.004ZM109.743 298.086C108.837 298.523 107.568 299.449 106.483 300.499C105.938 301.027 105.428 301.595 105.029 302.161C104.634 302.721 104.327 303.306 104.22 303.865L105.042 304.022C105.117 303.632 105.348 303.161 105.713 302.644C106.074 302.132 106.546 301.603 107.065 301.101C108.109 300.091 109.306 299.226 110.107 298.84L109.743 298.086ZM105.299 304.646C106.461 304.12 108.045 303.557 109.648 303.152C111.258 302.744 112.849 302.505 114.038 302.598L114.104 301.764C112.778 301.66 111.082 301.925 109.442 302.34C107.794 302.757 106.163 303.336 104.954 303.883L105.299 304.646ZM114.038 302.598C118.959 302.985 123.675 302.524 127.309 300.913C130.962 299.292 133.533 296.499 134.069 292.266L133.239 292.161C132.746 296.048 130.409 298.622 126.97 300.148C123.511 301.681 118.95 302.145 114.104 301.764L114.038 302.598ZM134.069 292.266C134.639 287.768 133.592 282.706 129.281 278.636L128.706 279.244C132.787 283.097 133.782 287.874 133.239 292.161L134.069 292.266ZM104.22 303.865C104.159 304.184 104.306 304.462 104.544 304.608C104.768 304.745 105.052 304.757 105.299 304.646L104.954 303.883C104.944 303.887 104.954 303.878 104.981 303.894C104.996 303.903 105.017 303.922 105.031 303.952C105.045 303.984 105.044 304.011 105.042 304.022L104.22 303.865ZM99.7945 301.117C99.3562 301.721 99.8659 302.58 100.621 302.444L100.473 301.62C100.469 301.621 100.468 301.62 100.47 301.621C100.472 301.621 100.474 301.621 100.475 301.622C100.477 301.623 100.475 301.623 100.472 301.618C100.47 301.614 100.47 301.61 100.47 301.611C100.47 301.612 100.47 301.612 100.469 301.613C100.469 301.614 100.469 301.613 100.472 301.609L99.7945 301.117Z" fill="#F7931A"/>
<defs>
<filter id="filter0_i_343_765" x="48.4277" y="236.189" width="56.0205" height="47.5251" filterUnits="userSpaceOnUse" color-interpolation-filters="sRGB">
<feFlood flood-opacity="0" result="BackgroundImageFix"/>
<feBlend mode="normal" in="SourceGraphic" in2="BackgroundImageFix" result="shape"/>
<feColorMatrix in="SourceAlpha" type="matrix" values="0 0 0 0 0 0 0 0 0 0 0 0 0 0 0 0 0 0 127 0" result="hardAlpha"/>
<feOffset dy="8.37011"/>
<feComposite in2="hardAlpha" operator="arithmetic" k2="-1" k3="1"/>
<feColorMatrix type="matrix" values="0 0 0 0 0.858824 0 0 0 0 1 0 0 0 0 0.00784314 0 0 0 1 0"/>
<feBlend mode="normal" in2="shape" result="effect1_innerShadow_343_765"/>
</filter>
<filter id="filter1_i_343_765" x="70.7939" y="171.89" width="93.5234" height="92.1423" filterUnits="userSpaceOnUse" color-interpolation-filters="sRGB">
<feFlood flood-opacity="0" result="BackgroundImageFix"/>
<feBlend mode="normal" in="SourceGraphic" in2="BackgroundImageFix" result="shape"/>
<feColorMatrix in="SourceAlpha" type="matrix" values="0 0 0 0 0 0 0 0 0 0 0 0 0 0 0 0 0 0 127 0" result="hardAlpha"/>
<feOffset dy="4.60356"/>
<feComposite in2="hardAlpha" operator="arithmetic" k2="-1" k3="1"/>
<feColorMatrix type="matrix" values="0 0 0 0 1 0 0 0 0 1 0 0 0 0 1 0 0 0 1 0"/>
<feBlend mode="normal" in2="shape" result="effect1_innerShadow_343_765"/>
</filter>
<filter id="filter2_i_343_765" x="206.195" y="86.6179" width="56.0801" height="56.0798" filterUnits="userSpaceOnUse" color-interpolation-filters="sRGB">
<feFlood flood-opacity="0" result="BackgroundImageFix"/>
<feBlend mode="normal" in="SourceGraphic" in2="BackgroundImageFix" result="shape"/>
<feColorMatrix in="SourceAlpha" type="matrix" values="0 0 0 0 0 0 0 0 0 0 0 0 0 0 0 0 0 0 127 0" result="hardAlpha"/>
<feOffset dx="-2.92954" dy="-3.34804"/>
<feComposite in2="hardAlpha" operator="arithmetic" k2="-1" k3="1"/>
<feColorMatrix type="matrix" values="0 0 0 0 0 0 0 0 0 0 0 0 0 0 0 0 0 0 1 0"/>
<feBlend mode="normal" in2="shape" result="effect1_innerShadow_343_765"/>
</filter>
<filter id="filter3_i_343_765" x="214.565" y="94.9885" width="39.3398" height="39.3396" filterUnits="userSpaceOnUse" color-interpolation-filters="sRGB">
<feFlood flood-opacity="0" result="BackgroundImageFix"/>
<feBlend mode="normal" in="SourceGraphic" in2="BackgroundImageFix" result="shape"/>
<feColorMatrix in="SourceAlpha" type="matrix" values="0 0 0 0 0 0 0 0 0 0 0 0 0 0 0 0 0 0 127 0" result="hardAlpha"/>
<feOffset dx="2.92954" dy="4.18505"/>
<feComposite in2="hardAlpha" operator="arithmetic" k2="-1" k3="1"/>
<feColorMatrix type="matrix" values="0 0 0 0 0 0 0 0 0 0 0 0 0 0 0 0 0 0 1 0"/>
<feBlend mode="normal" in2="shape" result="effect1_innerShadow_343_765"/>
</filter>
<filter id="filter4_i_343_765" x="6.46777" y="161.273" width="122.404" height="44.7786" filterUnits="userSpaceOnUse" color-interpolation-filters="sRGB">
<feFlood flood-opacity="0" result="BackgroundImageFix"/>
<feBlend mode="normal" in="SourceGraphic" in2="BackgroundImageFix" result="shape"/>
<feColorMatrix in="SourceAlpha" type="matrix" values="0 0 0 0 0 0 0 0 0 0 0 0 0 0 0 0 0 0 127 0" result="hardAlpha"/>
<feOffset dy="5.02207"/>
<feComposite in2="hardAlpha" operator="arithmetic" k2="-1" k3="1"/>
<feColorMatrix type="matrix" values="0 0 0 0 1 0 0 0 0 1 0 0 0 0 1 0 0 0 1 0"/>
<feBlend mode="normal" in2="shape" result="effect1_innerShadow_343_765"/>
</filter>
<filter id="filter5_i_343_765" x="129.294" y="215.553" width="51.7705" height="119.034" filterUnits="userSpaceOnUse" color-interpolation-filters="sRGB">
<feFlood flood-opacity="0" result="BackgroundImageFix"/>
<feBlend mode="normal" in="SourceGraphic" in2="BackgroundImageFix" result="shape"/>
<feColorMatrix in="SourceAlpha" type="matrix" values="0 0 0 0 0 0 0 0 0 0 0 0 0 0 0 0 0 0 127 0" result="hardAlpha"/>
<feOffset dy="5.02207"/>
<feComposite in2="hardAlpha" operator="arithmetic" k2="-1" k3="1"/>
<feColorMatrix type="matrix" values="0 0 0 0 1 0 0 0 0 1 0 0 0 0 1 0 0 0 1 0"/>
<feBlend mode="normal" in2="shape" result="effect1_innerShadow_343_765"/>
</filter>
<filter id="filter6_i_343_765" x="29.2031" y="203.668" width="36.9365" height="30.4077" filterUnits="userSpaceOnUse" color-interpolation-filters="sRGB">
<feFlood flood-opacity="0" result="BackgroundImageFix"/>
<feBlend mode="normal" in="SourceGraphic" in2="BackgroundImageFix" result="shape"/>
<feColorMatrix in="SourceAlpha" type="matrix" values="0 0 0 0 0 0 0 0 0 0 0 0 0 0 0 0 0 0 127 0" result="hardAlpha"/>
<feOffset dy="8.37011"/>
<feComposite in2="hardAlpha" operator="arithmetic" k2="-1" k3="1"/>
<feColorMatrix type="matrix" values="0 0 0 0 0.858824 0 0 0 0 1 0 0 0 0 0.00784314 0 0 0 1 0"/>
<feBlend mode="normal" in2="shape" result="effect1_innerShadow_343_765"/>
</filter>
<filter id="filter7_i_343_765" x="97.2754" y="274.313" width="36.9365" height="30.4077" filterUnits="userSpaceOnUse" color-interpolation-filters="sRGB">
<feFlood flood-opacity="0" result="BackgroundImageFix"/>
<feBlend mode="normal" in="SourceGraphic" in2="BackgroundImageFix" result="shape"/>
<feColorMatrix in="SourceAlpha" type="matrix" values="0 0 0 0 0 0 0 0 0 0 0 0 0 0 0 0 0 0 127 0" result="hardAlpha"/>
<feOffset dy="8.37011"/>
<feComposite in2="hardAlpha" operator="arithmetic" k2="-1" k3="1"/>
<feColorMatrix type="matrix" values="0 0 0 0 0.858824 0 0 0 0 1 0 0 0 0 0.00784314 0 0 0 1 0"/>
<feBlend mode="normal" in2="shape" result="effect1_innerShadow_343_765"/>
</filter>
</defs>
</svg>
