<svg width="992" height="543" viewBox="0 0 992 543" fill="none" xmlns="http://www.w3.org/2000/svg">
<g filter="url(#filter0_i_302_190)">
<path d="M162.869 498.22V29.3016C162.869 27.1995 164.573 25.4954 166.675 25.4954H168.905C172.296 25.4954 173.994 21.3956 171.596 18.9979L156.045 3.44673C154.559 1.96033 152.149 1.96033 150.662 3.44673L135.111 18.9979C132.713 21.3956 134.412 25.4954 137.803 25.4954H139.271C141.373 25.4954 143.077 27.1995 143.077 29.3015V498.22C143.077 503.686 147.508 508.116 152.973 508.116C158.439 508.116 162.869 503.686 162.869 498.22Z" fill="#D5DFE9"/>
</g>
<path d="M162.108 29.3016V498.22C162.108 503.265 158.018 507.355 152.973 507.355C147.928 507.355 143.838 503.265 143.838 498.22V29.3015C143.838 26.779 141.793 24.7342 139.271 24.7342H137.803C135.09 24.7342 133.731 21.4543 135.649 19.5362L151.201 3.985C152.39 2.79589 154.318 2.79589 155.507 3.985L171.058 19.5361C172.976 21.4543 171.618 24.7342 168.905 24.7342H166.675C164.153 24.7342 162.108 26.7791 162.108 29.3016Z" stroke="black" stroke-width="1.52246"/>
<g filter="url(#filter1_d_302_190)">
<rect x="181.139" y="101.238" width="50.2413" height="319.717" rx="9.89601" fill="#0CAF5C"/>
<rect x="181.9" y="102" width="48.7188" height="318.195" rx="9.13478" stroke="black" stroke-width="1.52246"/>
</g>
<g filter="url(#filter2_d_302_190)">
<rect x="248.888" y="226.841" width="50.2413" height="210.861" rx="9.89601" fill="#DE1F26"/>
<rect x="249.65" y="227.603" width="48.7188" height="209.339" rx="9.13478" stroke="black" stroke-width="1.52246"/>
</g>
<g filter="url(#filter3_d_302_190)">
<rect x="316.638" y="165.943" width="50.2413" height="228.369" rx="9.89601" fill="#0CAF5C"/>
<rect x="317.399" y="166.704" width="48.7188" height="226.847" rx="9.13478" stroke="black" stroke-width="1.52246"/>
</g>
<g filter="url(#filter4_d_302_190)">
<rect x="618.847" y="207.811" width="50.2413" height="237.504" rx="9.89601" fill="#DE1F26"/>
<rect x="619.608" y="208.572" width="48.7188" height="235.982" rx="9.13478" stroke="black" stroke-width="1.52246"/>
</g>
<g filter="url(#filter5_d_302_190)">
<rect x="693.448" y="178.122" width="50.2413" height="194.875" rx="9.89601" fill="#0CAF5C"/>
<rect x="694.209" y="178.884" width="48.7188" height="193.353" rx="9.13478" stroke="black" stroke-width="1.52246"/>
</g>
<g filter="url(#filter6_d_302_190)">
<rect x="766.526" y="236.737" width="50.2413" height="202.488" rx="9.89601" fill="#0CAF5C"/>
<rect x="767.287" y="237.499" width="48.7188" height="200.965" rx="9.13478" stroke="black" stroke-width="1.52246"/>
</g>
<g filter="url(#filter7_i_302_190)">
<rect x="383.626" y="443.031" width="21.3145" height="280.133" rx="10.6572" transform="rotate(90 383.626 443.031)" fill="#D5DFE9"/>
</g>
<rect x="382.865" y="443.792" width="19.792" height="278.611" rx="9.89602" transform="rotate(90 382.865 443.792)" stroke="black" stroke-width="1.52246"/>
<g filter="url(#filter8_i_302_190)">
<rect x="910.399" y="441.509" width="21.3145" height="286.223" rx="10.6572" transform="rotate(90 910.399 441.509)" fill="#F0F0F0"/>
</g>
<rect x="909.637" y="442.27" width="19.792" height="284.701" rx="9.89602" transform="rotate(90 909.637 442.27)" stroke="black" stroke-width="1.52246"/>
<g filter="url(#filter9_iii_302_190)">
<rect x="355.461" y="184.974" width="22.8369" height="160.62" rx="11.4185" fill="#D5DFE9"/>
</g>
<rect x="356.222" y="185.735" width="21.3145" height="159.097" rx="10.6572" stroke="black" stroke-width="1.52246"/>
<g filter="url(#filter10_iii_302_190)">
<rect width="22.8369" height="38.0616" rx="11.4185" transform="matrix(1 0 0 -1 355.461 178.122)" fill="#D5DFE9"/>
</g>
<rect x="0.761232" y="-0.761232" width="21.3145" height="36.5391" rx="10.6572" transform="matrix(1 0 0 -1 355.461 176.6)" stroke="black" stroke-width="1.52246"/>
<g filter="url(#filter11_iii_302_190)">
<rect x="634.072" y="167.466" width="22.8369" height="149.201" rx="11.4185" fill="#D5DFE9"/>
</g>
<rect x="634.833" y="168.227" width="21.3145" height="147.679" rx="10.6572" stroke="black" stroke-width="1.52246"/>
<g filter="url(#filter12_iii_302_190)">
<rect x="634.072" y="360.818" width="22.8369" height="146.918" rx="11.4185" fill="#D5DFE9"/>
</g>
<rect x="634.833" y="361.58" width="21.3145" height="145.395" rx="10.6572" stroke="black" stroke-width="1.52246"/>
<g filter="url(#filter13_iii_302_190)">
<rect x="634.072" y="93.6257" width="22.8369" height="61.6598" rx="11.4185" fill="#D5DFE9"/>
</g>
<rect x="634.833" y="94.387" width="21.3145" height="60.1373" rx="10.6572" stroke="black" stroke-width="1.52246"/>
<g filter="url(#filter14_d_302_190)">
<path d="M730.621 510.781H699.125C696.689 510.781 695.985 513.826 696.841 515.348L705.12 535.14C705.881 537.043 708.386 537.424 709.021 537.424H740.992C744.323 537.424 744.323 534.379 743.657 532.856L734.522 514.206C733.285 511.923 732.143 510.781 730.621 510.781Z" fill="white"/>
<path d="M730.621 510.781H699.125C696.689 510.781 695.985 513.826 696.841 515.348L705.12 535.14C705.881 537.043 708.386 537.424 709.021 537.424H740.992C744.323 537.424 744.323 534.379 743.657 532.856L734.522 514.206C733.285 511.923 732.143 510.781 730.621 510.781Z" stroke="black" stroke-width="0.761232"/>
</g>
<path d="M368.072 519.433V512.517L496.618 508.232V519.001C496.618 519.724 496.327 520.133 495.989 520.377C495.629 520.636 495.183 520.727 494.893 520.727H369.797C369.183 520.727 368.753 520.622 368.484 520.43C368.245 520.259 368.072 519.973 368.072 519.433Z" fill="black" stroke="black" stroke-width="0.862729"/>
<path d="M490.148 449.121H398.267C394.126 449.121 390.503 454.01 389.209 456.454L368.503 510.806C367.468 513.912 370.372 514.976 371.954 515.12H493.168C496.273 515.12 496.762 513.969 496.618 513.394V456.454C496.618 450.587 492.305 449.121 490.148 449.121Z" fill="white" stroke="black" stroke-width="0.862729"/>
<path d="M210.976 496.698V493.653L288.622 464.346V470.436L266.927 495.176C266.013 496.394 263.501 496.698 262.36 496.698H210.976Z" fill="black" stroke="black" stroke-width="0.761232"/>
<path d="M211.738 494.034C210.596 494.034 210.596 492.892 211.357 492.131L234.575 466.63C235.717 465.488 238.381 463.585 239.903 463.585H286.719C288.242 463.585 288.622 465.107 287.861 466.249L265.785 492.512C265.043 493.254 264.086 493.746 263.05 493.919L262.36 494.034C245.739 494.161 212.419 494.034 211.738 494.034Z" fill="white" stroke="black" stroke-width="0.761232"/>
<path d="M132.567 539.702L132.589 538.101L196.382 513.841L196.382 518.408L173.545 540.103C172.871 540.965 169.797 541.261 168.977 541.245L134.09 541.245C133.241 541.245 132.556 540.551 132.567 539.702Z" fill="black" stroke="black" stroke-width="0.546768"/>
<path d="M133.131 538.384C132.31 538.368 132.327 537.548 132.884 537.012L157.94 514.982C158.776 514.179 160.716 512.85 161.809 512.871L195.429 513.534C196.522 513.555 196.774 514.654 196.211 515.463L171.965 538.056C171.421 538.579 170.728 538.918 169.981 539.028L169.484 539.101C157.546 538.957 133.619 538.394 133.131 538.384Z" fill="white" stroke="black" stroke-width="0.546768"/>
<path d="M50.2068 441.889V437.322L131.278 414.865V419.813L96.642 441.889H50.2068Z" fill="black" stroke="black" stroke-width="0.761232"/>
<path d="M94.9397 437.703H50.6714C49.8993 437.703 49.6177 436.686 50.2797 436.289L84.8999 415.517C85.6097 415.091 86.422 414.866 87.2498 414.866H129.789C130.552 414.866 130.841 415.863 130.195 416.271L97.3787 436.997C96.6487 437.458 95.8031 437.703 94.9397 437.703Z" fill="white" stroke="black" stroke-width="0.761232"/>
<path d="M165.5 468.931L165.497 466.75L204.195 455.973L204.199 458.336L187.674 468.9L165.5 468.931Z" fill="black" stroke="black" stroke-width="0.363506"/>
<path d="M186.858 466.902L165.719 466.931C165.35 466.932 165.215 466.446 165.531 466.256L182.049 456.314C182.388 456.11 182.776 456.002 183.171 456.002L203.485 455.974C203.849 455.973 203.987 456.449 203.68 456.644L188.022 466.563C187.674 466.784 187.271 466.901 186.858 466.902Z" fill="white" stroke="black" stroke-width="0.363506"/>
<path d="M959.516 458.921L959.516 457.228C959.516 456.765 959.925 456.41 960.382 456.474L988.494 460.388C988.692 460.416 988.877 460.518 988.978 460.692C989.537 461.657 989.31 462.783 989.017 463.48C988.915 463.721 988.671 463.861 988.409 463.868L969.989 464.378C969.867 464.381 969.746 464.355 969.636 464.302L959.945 459.606C959.683 459.479 959.516 459.213 959.516 458.921Z" fill="black" stroke="black" stroke-width="0.761232"/>
<path d="M979.883 455.972H960.33C959.512 455.972 959.27 457.085 960.014 457.425L969.992 461.987C970.099 462.036 970.217 462.06 970.335 462.055L988.309 461.413C989.108 461.385 989.328 460.301 988.604 459.963L980.205 456.043C980.104 455.996 979.994 455.972 979.883 455.972Z" fill="white" stroke="black" stroke-width="0.761232"/>
<path d="M684.381 446.457L651.648 405.35C650.126 403.438 650.887 397.738 652.41 397.738L814.552 400.022C817.597 400.022 819.5 400.783 820.642 401.544L881.921 444.173C881.858 446.594 881.91 446.815 881.919 449.121C881.921 449.541 881.58 449.882 881.16 449.882H690.09C687.426 449.882 685.904 447.979 684.381 446.457Z" fill="black" stroke="black" stroke-width="0.761232"/>
<path d="M684.182 441.509L651.449 400.402C649.926 398.49 651.449 396.596 652.971 396.596H814.352C817.397 396.596 819.301 397.357 820.442 398.118L880.199 442.27C884.005 444.934 880.072 445.061 877.535 444.934H689.891C687.227 444.934 685.704 443.031 684.182 441.509Z" fill="white" stroke="black" stroke-width="0.761232"/>
<path d="M538.361 375.281H486.217C484.085 375.281 482.792 377.184 482.791 378.707L483.172 404.208C483.172 407.253 485.456 407.634 487.359 407.634H552.063C557.392 407.634 557.011 401.924 556.25 400.021L545.974 379.468C544.451 376.042 541.026 375.281 538.361 375.281Z" fill="black" stroke="black" stroke-width="0.761232"/>
<path d="M538.361 370.714H486.217C484.085 370.714 482.792 372.617 482.791 374.14L483.172 399.641C483.172 402.686 485.456 403.067 487.359 403.067H552.063C557.011 403.067 556.25 399.641 555.489 397.738L545.974 374.901C544.451 371.476 541.026 370.714 538.361 370.714Z" fill="white" stroke="black" stroke-width="0.761232"/>
<path d="M623.227 325.42L615.484 319.377C615.444 319.346 615.407 319.31 615.374 319.272C613.107 316.666 610.849 316.666 609.715 316.666L572.394 314.002C570.601 314.002 569.463 318.118 570.557 320.043C570.576 320.076 570.598 320.107 570.622 320.136L577.817 328.846C579.319 330.749 580.482 331.51 582.385 331.51H620.372C624.749 331.51 623.988 326.182 623.227 325.42Z" fill="black" stroke="black" stroke-width="0.761232"/>
<path d="M622.466 324.279L615.995 316.286C613.712 313.622 611.428 313.622 610.286 313.622H574.011C570.586 313.622 569.824 315.905 571.347 317.808L577.437 325.04C579.34 327.324 580.862 328.466 582.765 328.466L620.943 328.085C624.75 328.085 623.227 325.04 622.466 324.279Z" fill="white" stroke="black" stroke-width="0.761232"/>
<path d="M432.812 372.166L432.908 369.572H461.272V372.236C461.272 373.287 460.42 374.139 459.369 374.139H434.714C433.636 374.139 432.773 373.244 432.812 372.166Z" fill="black" stroke="black" stroke-width="0.761232"/>
<path d="M434.095 358.409C434.16 357.83 434.648 357.393 435.23 357.393H460.13C460.761 357.393 461.272 357.904 461.272 358.535V369.192C461.272 369.823 460.761 370.334 460.13 370.334H434.046C433.366 370.334 432.836 369.742 432.911 369.066L434.095 358.409Z" fill="white" stroke="black" stroke-width="0.761232"/>
<path d="M468.123 346.355V340.646C468.123 340.225 468.464 339.885 468.884 339.885H480.515C480.843 339.885 481.134 340.094 481.237 340.405L482.167 343.193C482.193 343.27 482.206 343.352 482.206 343.434V346.355C482.206 347.877 481.444 348.639 479.922 348.639H471.168C468.732 348.639 468.123 347.116 468.123 346.355Z" fill="black" stroke="black" stroke-width="0.761232"/>
<path d="M468.123 342.929V337.22C468.123 336.8 468.464 336.459 468.884 336.459H480.432C480.798 336.459 481.113 336.72 481.18 337.08L482.206 342.549C482.586 344.452 481.825 345.213 479.922 345.213H471.168C468.732 345.213 468.123 343.69 468.123 342.929Z" fill="#D9D9D9" stroke="black" stroke-width="0.761232"/>
<path d="M579.117 293.069C578.239 292.307 578.356 288.882 579.117 288.882L604.737 291.546C606.225 291.546 607.349 291.91 608.11 292.282C608.145 292.299 608.181 292.313 608.218 292.325L615.023 294.51C615.187 294.562 615.332 294.667 615.409 294.821C616.002 296.014 615.726 298.017 615.013 298.017H587.99C587.076 298.017 585.706 297.636 584.564 296.875L579.117 293.069Z" fill="black" stroke="black" stroke-width="0.761232"/>
<path d="M579.498 290.785C577.976 289.643 578.737 288.501 579.498 288.501L604.619 288.882C606.141 288.882 607.283 289.263 608.044 289.643L614.895 293.83C616.037 294.591 615.657 295.353 614.895 295.353H587.872C586.958 295.353 585.588 294.972 584.446 294.211L579.498 290.785Z" fill="white" stroke="black" stroke-width="0.761232"/>
<path d="M590.609 362.834C582.616 362.707 568.268 362.834 566.631 362.834C566.216 362.834 565.719 360.777 565.488 360.874C564.676 361.218 564.627 362.844 565.108 364.3C565.368 365.088 566.024 365.921 566.25 366.259L571.578 373.491C573.101 375.394 575.004 375.394 575.765 375.394H575.765H599.744C601.563 375.394 601.991 373.257 601.693 371.739C601.667 371.602 601.595 371.48 601.496 371.382L594.415 364.356C593.273 363.215 591.751 362.834 590.609 362.834Z" fill="black" stroke="black" stroke-width="0.761232"/>
<path d="M590.609 360.113C582.616 359.986 568.268 360.113 566.631 360.113C563.966 360.113 565.489 362.397 566.25 363.539L566.25 363.539L571.578 370.771C573.101 372.674 575.004 372.674 575.765 372.674H575.765H599.744C601.647 372.674 602.408 371.532 600.886 369.629L594.415 361.636C593.274 360.494 591.751 360.113 590.609 360.113Z" fill="white" stroke="black" stroke-width="0.761232"/>
<path d="M542.88 344.099L540.559 340.452C540.481 340.33 540.44 340.188 540.44 340.043V338.486C540.44 338.02 540.855 337.663 541.315 337.733L552.82 339.476C552.939 339.494 553.051 339.54 553.149 339.61L555.346 341.179C555.546 341.322 555.665 341.553 555.665 341.798V343.69C555.665 344.111 555.324 344.452 554.903 344.452H543.522C543.262 344.452 543.02 344.319 542.88 344.099Z" fill="black" stroke="black" stroke-width="0.761232"/>
<path d="M542.877 341.84L540.506 338.414C540.156 337.909 540.518 337.22 541.132 337.22H552.601C552.851 337.22 553.085 337.342 553.227 337.548L555.599 340.973C555.948 341.478 555.587 342.168 554.973 342.168H543.503C543.253 342.168 543.019 342.045 542.877 341.84Z" fill="white" stroke="black" stroke-width="0.761232"/>
<path d="M207.05 380.589L152.583 380.239C151.746 380.234 151.07 379.554 151.07 378.717V376.65C151.07 376.049 151.424 375.505 151.973 375.26L188.334 359.05C190.228 358.206 192.258 357.704 194.328 357.57L242.319 354.453C243.197 354.396 243.941 355.093 243.941 355.972V359.203C243.941 359.733 243.664 360.226 243.212 360.502L213.077 378.915C211.263 380.023 209.176 380.603 207.05 380.589Z" fill="black" stroke="black" stroke-width="0.761232"/>
<path d="M207.122 376.804H151.449C150.657 376.804 150.391 375.744 151.09 375.371L187.334 356.029C189.871 354.675 192.702 353.967 195.577 353.967H242.66C244.202 353.967 244.767 355.996 243.447 356.793L213.024 375.161C211.243 376.236 209.202 376.804 207.122 376.804Z" fill="white" stroke="black" stroke-width="0.761232"/>
<path d="M60.2951 356.236L4.90361 355.88C4.06661 355.874 3.39093 355.194 3.39093 354.357V352.484C3.39093 351.789 3.86207 351.182 4.53569 351.009L41.8381 341.456C42.9559 341.17 44.0993 340.995 45.2515 340.934L91.9935 338.447C92.8649 338.401 93.5969 339.095 93.5969 339.967V342.296C93.5969 342.91 93.228 343.464 92.6613 343.7L64.7703 355.353C63.3531 355.945 61.831 356.245 60.2951 356.236Z" fill="black" stroke="black" stroke-width="0.761232"/>
<path d="M60.411 352.444H5.13736C4.28255 352.444 4.07684 351.252 4.88219 350.966L40.6721 338.233C42.5561 337.562 44.5411 337.22 46.5408 337.22H92.5881C94.2626 337.22 94.71 339.529 93.1566 340.155L64.6745 351.619C63.3193 352.164 61.8719 352.444 60.411 352.444Z" fill="white" stroke="black" stroke-width="0.761232"/>
<path d="M755.125 307.151L713.642 305.266C713.39 305.254 713.15 305.152 712.902 305.103C711.36 304.797 711.43 309.486 712.496 310.196L741.423 328.466C745.077 330.902 747.893 330.369 751.319 330.369L806.267 329.99C806.427 329.989 806.591 329.97 806.726 329.885C807.61 329.325 807.576 327.426 806.627 326.65C806.551 326.588 806.463 326.544 806.373 326.506L767.305 310.196C761.215 307.151 758.931 307.151 755.125 307.151Z" fill="black" stroke="black" stroke-width="0.761232"/>
<path d="M755.125 304.487H714.78C710.593 304.487 711.735 307.152 714.399 308.674L741.423 325.802C745.077 328.238 747.893 327.705 751.319 327.705L804.605 327.324C808.411 327.324 806.889 326.182 805.366 325.421L767.305 307.532C761.215 304.487 758.931 304.487 755.125 304.487Z" fill="white" stroke="black" stroke-width="0.761232"/>
<path d="M827.401 338.649C826.033 337.424 826.784 334.175 827.896 334.175L851.114 336.459C854.159 336.459 855.301 336.84 857.585 337.981L880.802 345.974C882.215 346.681 882.317 349.028 881.106 349.97C880.919 350.115 880.679 350.161 880.443 350.161H854.54C852.104 350.161 850.226 349.654 849.592 349.4L827.649 338.807C827.56 338.764 827.474 338.714 827.401 338.649Z" fill="black" stroke="black" stroke-width="0.761232"/>
<path d="M828.657 336.459C824.699 334.327 827.896 333.414 830.18 333.414H851.114C854.159 333.414 855.301 333.794 857.584 334.936L880.041 344.832C882.324 345.974 881.182 347.116 880.041 347.116H854.539C852.103 347.116 850.226 346.608 849.591 346.355L828.657 336.459Z" fill="white" stroke="black" stroke-width="0.761232"/>
<path d="M734.736 353.445L727.26 348.105C727.06 347.962 726.941 347.731 726.941 347.485V345.339C726.941 344.872 727.357 344.516 727.818 344.587L741.686 346.72C741.752 346.73 741.816 346.749 741.877 346.776L750.846 350.722C751.122 350.844 751.301 351.117 751.301 351.419V352.825C751.301 353.246 750.96 353.586 750.54 353.586H735.178C735.02 353.586 734.865 353.537 734.736 353.445Z" fill="black" stroke="black" stroke-width="0.761232"/>
<path d="M735.494 351.534L727.273 345.444C726.683 345.007 726.992 344.071 727.726 344.071H742.296C742.459 344.071 742.618 344.123 742.749 344.221L750.97 350.31C751.56 350.747 751.251 351.683 750.517 351.683H735.947C735.784 351.683 735.625 351.631 735.494 351.534Z" fill="#D9D9D9" stroke="black" stroke-width="0.761232"/>
<path d="M372.794 328.465L380.536 322.422C380.576 322.39 380.614 322.355 380.647 322.316C382.914 319.71 385.172 319.71 386.306 319.71L420.371 317.046C422.654 317.046 422.845 321.614 422.083 323.897L419.039 331.129C418.277 333.032 416.755 334.554 414.852 334.554H375.648C371.271 334.554 372.033 329.226 372.794 328.465Z" fill="black" stroke="black" stroke-width="0.761232"/>
<path d="M373.555 327.323L380.026 319.33C382.309 316.666 384.593 316.666 385.735 316.666H419.61C421.893 316.666 422.274 318.569 421.513 320.853L418.468 328.084C417.706 329.987 416.184 331.129 414.281 331.129H375.078C371.271 331.129 372.794 328.084 373.555 327.323Z" fill="white" stroke="black" stroke-width="0.761232"/>
<path d="M402.156 292.688H374.697C374.276 292.688 373.935 292.347 373.935 291.927V289.441C373.935 289.108 374.152 288.814 374.469 288.715L379.249 287.221C379.763 287.06 380.299 286.979 380.838 286.979H393.852C393.896 286.979 393.939 286.975 393.982 286.967L407.049 284.695V287.461C407.049 287.641 406.985 287.815 406.869 287.953L403.318 292.149C403.029 292.491 402.604 292.688 402.156 292.688Z" fill="black" stroke="black" stroke-width="0.761232"/>
<path d="M402.201 289.643H374.697C373.965 289.643 373.655 288.712 374.24 288.273L378.604 285C379.527 284.308 380.649 283.934 381.802 283.934H406.439C407.105 283.934 407.45 284.728 406.996 285.214L403.314 289.159C403.026 289.468 402.623 289.643 402.201 289.643Z" fill="#D9D9D9" stroke="black" stroke-width="0.761232"/>
<defs>
<filter id="filter0_i_302_190" x="133.989" y="2.33203" width="38.7299" height="505.784" filterUnits="userSpaceOnUse" color-interpolation-filters="sRGB">
<feFlood flood-opacity="0" result="BackgroundImageFix"/>
<feBlend mode="normal" in="SourceGraphic" in2="BackgroundImageFix" result="shape"/>
<feColorMatrix in="SourceAlpha" type="matrix" values="0 0 0 0 0 0 0 0 0 0 0 0 0 0 0 0 0 0 127 0" result="hardAlpha"/>
<feOffset dx="-6.85109"/>
<feComposite in2="hardAlpha" operator="arithmetic" k2="-1" k3="1"/>
<feColorMatrix type="matrix" values="0 0 0 0 0 0 0 0 0 0 0 0 0 0 0 0 0 0 1 0"/>
<feBlend mode="normal" in2="shape" result="effect1_innerShadow_302_190"/>
</filter>
<filter id="filter1_d_302_190" x="181.139" y="101.238" width="53.2862" height="322.762" filterUnits="userSpaceOnUse" color-interpolation-filters="sRGB">
<feFlood flood-opacity="0" result="BackgroundImageFix"/>
<feColorMatrix in="SourceAlpha" type="matrix" values="0 0 0 0 0 0 0 0 0 0 0 0 0 0 0 0 0 0 127 0" result="hardAlpha"/>
<feOffset dx="3.04493" dy="3.04493"/>
<feComposite in2="hardAlpha" operator="out"/>
<feColorMatrix type="matrix" values="0 0 0 0 0 0 0 0 0 0 0 0 0 0 0 0 0 0 1 0"/>
<feBlend mode="normal" in2="BackgroundImageFix" result="effect1_dropShadow_302_190"/>
<feBlend mode="normal" in="SourceGraphic" in2="effect1_dropShadow_302_190" result="shape"/>
</filter>
<filter id="filter2_d_302_190" x="248.888" y="226.841" width="53.2862" height="213.906" filterUnits="userSpaceOnUse" color-interpolation-filters="sRGB">
<feFlood flood-opacity="0" result="BackgroundImageFix"/>
<feColorMatrix in="SourceAlpha" type="matrix" values="0 0 0 0 0 0 0 0 0 0 0 0 0 0 0 0 0 0 127 0" result="hardAlpha"/>
<feOffset dx="3.04493" dy="3.04493"/>
<feComposite in2="hardAlpha" operator="out"/>
<feColorMatrix type="matrix" values="0 0 0 0 0 0 0 0 0 0 0 0 0 0 0 0 0 0 1 0"/>
<feBlend mode="normal" in2="BackgroundImageFix" result="effect1_dropShadow_302_190"/>
<feBlend mode="normal" in="SourceGraphic" in2="effect1_dropShadow_302_190" result="shape"/>
</filter>
<filter id="filter3_d_302_190" x="316.638" y="165.943" width="53.2862" height="231.414" filterUnits="userSpaceOnUse" color-interpolation-filters="sRGB">
<feFlood flood-opacity="0" result="BackgroundImageFix"/>
<feColorMatrix in="SourceAlpha" type="matrix" values="0 0 0 0 0 0 0 0 0 0 0 0 0 0 0 0 0 0 127 0" result="hardAlpha"/>
<feOffset dx="3.04493" dy="3.04493"/>
<feComposite in2="hardAlpha" operator="out"/>
<feColorMatrix type="matrix" values="0 0 0 0 0 0 0 0 0 0 0 0 0 0 0 0 0 0 1 0"/>
<feBlend mode="normal" in2="BackgroundImageFix" result="effect1_dropShadow_302_190"/>
<feBlend mode="normal" in="SourceGraphic" in2="effect1_dropShadow_302_190" result="shape"/>
</filter>
<filter id="filter4_d_302_190" x="618.847" y="207.811" width="53.2862" height="240.549" filterUnits="userSpaceOnUse" color-interpolation-filters="sRGB">
<feFlood flood-opacity="0" result="BackgroundImageFix"/>
<feColorMatrix in="SourceAlpha" type="matrix" values="0 0 0 0 0 0 0 0 0 0 0 0 0 0 0 0 0 0 127 0" result="hardAlpha"/>
<feOffset dx="3.04493" dy="3.04493"/>
<feComposite in2="hardAlpha" operator="out"/>
<feColorMatrix type="matrix" values="0 0 0 0 0 0 0 0 0 0 0 0 0 0 0 0 0 0 1 0"/>
<feBlend mode="normal" in2="BackgroundImageFix" result="effect1_dropShadow_302_190"/>
<feBlend mode="normal" in="SourceGraphic" in2="effect1_dropShadow_302_190" result="shape"/>
</filter>
<filter id="filter5_d_302_190" x="693.448" y="178.122" width="53.2862" height="197.92" filterUnits="userSpaceOnUse" color-interpolation-filters="sRGB">
<feFlood flood-opacity="0" result="BackgroundImageFix"/>
<feColorMatrix in="SourceAlpha" type="matrix" values="0 0 0 0 0 0 0 0 0 0 0 0 0 0 0 0 0 0 127 0" result="hardAlpha"/>
<feOffset dx="3.04493" dy="3.04493"/>
<feComposite in2="hardAlpha" operator="out"/>
<feColorMatrix type="matrix" values="0 0 0 0 0 0 0 0 0 0 0 0 0 0 0 0 0 0 1 0"/>
<feBlend mode="normal" in2="BackgroundImageFix" result="effect1_dropShadow_302_190"/>
<feBlend mode="normal" in="SourceGraphic" in2="effect1_dropShadow_302_190" result="shape"/>
</filter>
<filter id="filter6_d_302_190" x="766.526" y="236.737" width="53.2862" height="205.532" filterUnits="userSpaceOnUse" color-interpolation-filters="sRGB">
<feFlood flood-opacity="0" result="BackgroundImageFix"/>
<feColorMatrix in="SourceAlpha" type="matrix" values="0 0 0 0 0 0 0 0 0 0 0 0 0 0 0 0 0 0 127 0" result="hardAlpha"/>
<feOffset dx="3.04493" dy="3.04493"/>
<feComposite in2="hardAlpha" operator="out"/>
<feColorMatrix type="matrix" values="0 0 0 0 0 0 0 0 0 0 0 0 0 0 0 0 0 0 1 0"/>
<feBlend mode="normal" in2="BackgroundImageFix" result="effect1_dropShadow_302_190"/>
<feBlend mode="normal" in="SourceGraphic" in2="effect1_dropShadow_302_190" result="shape"/>
</filter>
<filter id="filter7_i_302_190" x="103.493" y="443.031" width="280.133" height="21.3145" filterUnits="userSpaceOnUse" color-interpolation-filters="sRGB">
<feFlood flood-opacity="0" result="BackgroundImageFix"/>
<feBlend mode="normal" in="SourceGraphic" in2="BackgroundImageFix" result="shape"/>
<feColorMatrix in="SourceAlpha" type="matrix" values="0 0 0 0 0 0 0 0 0 0 0 0 0 0 0 0 0 0 127 0" result="hardAlpha"/>
<feOffset dy="-5.32862"/>
<feComposite in2="hardAlpha" operator="arithmetic" k2="-1" k3="1"/>
<feColorMatrix type="matrix" values="0 0 0 0 0 0 0 0 0 0 0 0 0 0 0 0 0 0 1 0"/>
<feBlend mode="normal" in2="shape" result="effect1_innerShadow_302_190"/>
</filter>
<filter id="filter8_i_302_190" x="624.175" y="441.509" width="286.223" height="21.3145" filterUnits="userSpaceOnUse" color-interpolation-filters="sRGB">
<feFlood flood-opacity="0" result="BackgroundImageFix"/>
<feBlend mode="normal" in="SourceGraphic" in2="BackgroundImageFix" result="shape"/>
<feColorMatrix in="SourceAlpha" type="matrix" values="0 0 0 0 0 0 0 0 0 0 0 0 0 0 0 0 0 0 127 0" result="hardAlpha"/>
<feOffset dy="-5.32862"/>
<feComposite in2="hardAlpha" operator="arithmetic" k2="-1" k3="1"/>
<feColorMatrix type="matrix" values="0 0 0 0 0 0 0 0 0 0 0 0 0 0 0 0 0 0 1 0"/>
<feBlend mode="normal" in2="shape" result="effect1_innerShadow_302_190"/>
</filter>
<filter id="filter9_iii_302_190" x="355.461" y="184.974" width="22.8369" height="160.62" filterUnits="userSpaceOnUse" color-interpolation-filters="sRGB">
<feFlood flood-opacity="0" result="BackgroundImageFix"/>
<feBlend mode="normal" in="SourceGraphic" in2="BackgroundImageFix" result="shape"/>
<feColorMatrix in="SourceAlpha" type="matrix" values="0 0 0 0 0 0 0 0 0 0 0 0 0 0 0 0 0 0 127 0" result="hardAlpha"/>
<feOffset dx="4.56739"/>
<feComposite in2="hardAlpha" operator="arithmetic" k2="-1" k3="1"/>
<feColorMatrix type="matrix" values="0 0 0 0 0 0 0 0 0 0 0 0 0 0 0 0 0 0 1 0"/>
<feBlend mode="normal" in2="shape" result="effect1_innerShadow_302_190"/>
<feColorMatrix in="SourceAlpha" type="matrix" values="0 0 0 0 0 0 0 0 0 0 0 0 0 0 0 0 0 0 127 0" result="hardAlpha"/>
<feOffset dx="-6.85109"/>
<feComposite in2="hardAlpha" operator="arithmetic" k2="-1" k3="1"/>
<feColorMatrix type="matrix" values="0 0 0 0 0 0 0 0 0 0 0 0 0 0 0 0 0 0 1 0"/>
<feBlend mode="normal" in2="effect1_innerShadow_302_190" result="effect2_innerShadow_302_190"/>
<feColorMatrix in="SourceAlpha" type="matrix" values="0 0 0 0 0 0 0 0 0 0 0 0 0 0 0 0 0 0 127 0" result="hardAlpha"/>
<feMorphology radius="3.04493" operator="erode" in="SourceAlpha" result="effect3_innerShadow_302_190"/>
<feOffset/>
<feComposite in2="hardAlpha" operator="arithmetic" k2="-1" k3="1"/>
<feColorMatrix type="matrix" values="0 0 0 0 1 0 0 0 0 1 0 0 0 0 1 0 0 0 1 0"/>
<feBlend mode="normal" in2="effect2_innerShadow_302_190" result="effect3_innerShadow_302_190"/>
</filter>
<filter id="filter10_iii_302_190" x="355.461" y="140.061" width="22.8369" height="38.0615" filterUnits="userSpaceOnUse" color-interpolation-filters="sRGB">
<feFlood flood-opacity="0" result="BackgroundImageFix"/>
<feBlend mode="normal" in="SourceGraphic" in2="BackgroundImageFix" result="shape"/>
<feColorMatrix in="SourceAlpha" type="matrix" values="0 0 0 0 0 0 0 0 0 0 0 0 0 0 0 0 0 0 127 0" result="hardAlpha"/>
<feOffset dx="4.56739"/>
<feComposite in2="hardAlpha" operator="arithmetic" k2="-1" k3="1"/>
<feColorMatrix type="matrix" values="0 0 0 0 0 0 0 0 0 0 0 0 0 0 0 0 0 0 1 0"/>
<feBlend mode="normal" in2="shape" result="effect1_innerShadow_302_190"/>
<feColorMatrix in="SourceAlpha" type="matrix" values="0 0 0 0 0 0 0 0 0 0 0 0 0 0 0 0 0 0 127 0" result="hardAlpha"/>
<feOffset dx="-6.85109"/>
<feComposite in2="hardAlpha" operator="arithmetic" k2="-1" k3="1"/>
<feColorMatrix type="matrix" values="0 0 0 0 0 0 0 0 0 0 0 0 0 0 0 0 0 0 1 0"/>
<feBlend mode="normal" in2="effect1_innerShadow_302_190" result="effect2_innerShadow_302_190"/>
<feColorMatrix in="SourceAlpha" type="matrix" values="0 0 0 0 0 0 0 0 0 0 0 0 0 0 0 0 0 0 127 0" result="hardAlpha"/>
<feMorphology radius="3.04493" operator="erode" in="SourceAlpha" result="effect3_innerShadow_302_190"/>
<feOffset/>
<feComposite in2="hardAlpha" operator="arithmetic" k2="-1" k3="1"/>
<feColorMatrix type="matrix" values="0 0 0 0 1 0 0 0 0 1 0 0 0 0 1 0 0 0 1 0"/>
<feBlend mode="normal" in2="effect2_innerShadow_302_190" result="effect3_innerShadow_302_190"/>
</filter>
<filter id="filter11_iii_302_190" x="634.072" y="167.466" width="22.8369" height="149.201" filterUnits="userSpaceOnUse" color-interpolation-filters="sRGB">
<feFlood flood-opacity="0" result="BackgroundImageFix"/>
<feBlend mode="normal" in="SourceGraphic" in2="BackgroundImageFix" result="shape"/>
<feColorMatrix in="SourceAlpha" type="matrix" values="0 0 0 0 0 0 0 0 0 0 0 0 0 0 0 0 0 0 127 0" result="hardAlpha"/>
<feOffset dx="4.56739"/>
<feComposite in2="hardAlpha" operator="arithmetic" k2="-1" k3="1"/>
<feColorMatrix type="matrix" values="0 0 0 0 0 0 0 0 0 0 0 0 0 0 0 0 0 0 1 0"/>
<feBlend mode="normal" in2="shape" result="effect1_innerShadow_302_190"/>
<feColorMatrix in="SourceAlpha" type="matrix" values="0 0 0 0 0 0 0 0 0 0 0 0 0 0 0 0 0 0 127 0" result="hardAlpha"/>
<feOffset dx="-6.85109"/>
<feComposite in2="hardAlpha" operator="arithmetic" k2="-1" k3="1"/>
<feColorMatrix type="matrix" values="0 0 0 0 0 0 0 0 0 0 0 0 0 0 0 0 0 0 1 0"/>
<feBlend mode="normal" in2="effect1_innerShadow_302_190" result="effect2_innerShadow_302_190"/>
<feColorMatrix in="SourceAlpha" type="matrix" values="0 0 0 0 0 0 0 0 0 0 0 0 0 0 0 0 0 0 127 0" result="hardAlpha"/>
<feMorphology radius="3.04493" operator="erode" in="SourceAlpha" result="effect3_innerShadow_302_190"/>
<feOffset/>
<feComposite in2="hardAlpha" operator="arithmetic" k2="-1" k3="1"/>
<feColorMatrix type="matrix" values="0 0 0 0 1 0 0 0 0 1 0 0 0 0 1 0 0 0 1 0"/>
<feBlend mode="normal" in2="effect2_innerShadow_302_190" result="effect3_innerShadow_302_190"/>
</filter>
<filter id="filter12_iii_302_190" x="634.072" y="360.818" width="22.8369" height="146.918" filterUnits="userSpaceOnUse" color-interpolation-filters="sRGB">
<feFlood flood-opacity="0" result="BackgroundImageFix"/>
<feBlend mode="normal" in="SourceGraphic" in2="BackgroundImageFix" result="shape"/>
<feColorMatrix in="SourceAlpha" type="matrix" values="0 0 0 0 0 0 0 0 0 0 0 0 0 0 0 0 0 0 127 0" result="hardAlpha"/>
<feOffset dx="4.56739"/>
<feComposite in2="hardAlpha" operator="arithmetic" k2="-1" k3="1"/>
<feColorMatrix type="matrix" values="0 0 0 0 0 0 0 0 0 0 0 0 0 0 0 0 0 0 1 0"/>
<feBlend mode="normal" in2="shape" result="effect1_innerShadow_302_190"/>
<feColorMatrix in="SourceAlpha" type="matrix" values="0 0 0 0 0 0 0 0 0 0 0 0 0 0 0 0 0 0 127 0" result="hardAlpha"/>
<feOffset dx="-6.85109"/>
<feComposite in2="hardAlpha" operator="arithmetic" k2="-1" k3="1"/>
<feColorMatrix type="matrix" values="0 0 0 0 0 0 0 0 0 0 0 0 0 0 0 0 0 0 1 0"/>
<feBlend mode="normal" in2="effect1_innerShadow_302_190" result="effect2_innerShadow_302_190"/>
<feColorMatrix in="SourceAlpha" type="matrix" values="0 0 0 0 0 0 0 0 0 0 0 0 0 0 0 0 0 0 127 0" result="hardAlpha"/>
<feMorphology radius="3.04493" operator="erode" in="SourceAlpha" result="effect3_innerShadow_302_190"/>
<feOffset/>
<feComposite in2="hardAlpha" operator="arithmetic" k2="-1" k3="1"/>
<feColorMatrix type="matrix" values="0 0 0 0 1 0 0 0 0 1 0 0 0 0 1 0 0 0 1 0"/>
<feBlend mode="normal" in2="effect2_innerShadow_302_190" result="effect3_innerShadow_302_190"/>
</filter>
<filter id="filter13_iii_302_190" x="634.072" y="93.6257" width="22.8369" height="61.6597" filterUnits="userSpaceOnUse" color-interpolation-filters="sRGB">
<feFlood flood-opacity="0" result="BackgroundImageFix"/>
<feBlend mode="normal" in="SourceGraphic" in2="BackgroundImageFix" result="shape"/>
<feColorMatrix in="SourceAlpha" type="matrix" values="0 0 0 0 0 0 0 0 0 0 0 0 0 0 0 0 0 0 127 0" result="hardAlpha"/>
<feOffset dx="4.56739"/>
<feComposite in2="hardAlpha" operator="arithmetic" k2="-1" k3="1"/>
<feColorMatrix type="matrix" values="0 0 0 0 0 0 0 0 0 0 0 0 0 0 0 0 0 0 1 0"/>
<feBlend mode="normal" in2="shape" result="effect1_innerShadow_302_190"/>
<feColorMatrix in="SourceAlpha" type="matrix" values="0 0 0 0 0 0 0 0 0 0 0 0 0 0 0 0 0 0 127 0" result="hardAlpha"/>
<feOffset dx="-6.85109"/>
<feComposite in2="hardAlpha" operator="arithmetic" k2="-1" k3="1"/>
<feColorMatrix type="matrix" values="0 0 0 0 0 0 0 0 0 0 0 0 0 0 0 0 0 0 1 0"/>
<feBlend mode="normal" in2="effect1_innerShadow_302_190" result="effect2_innerShadow_302_190"/>
<feColorMatrix in="SourceAlpha" type="matrix" values="0 0 0 0 0 0 0 0 0 0 0 0 0 0 0 0 0 0 127 0" result="hardAlpha"/>
<feMorphology radius="3.04493" operator="erode" in="SourceAlpha" result="effect3_innerShadow_302_190"/>
<feOffset/>
<feComposite in2="hardAlpha" operator="arithmetic" k2="-1" k3="1"/>
<feColorMatrix type="matrix" values="0 0 0 0 1 0 0 0 0 1 0 0 0 0 1 0 0 0 1 0"/>
<feBlend mode="normal" in2="effect2_innerShadow_302_190" result="effect3_innerShadow_302_190"/>
</filter>
<filter id="filter14_d_302_190" x="695.35" y="510.4" width="49.0355" height="28.9268" filterUnits="userSpaceOnUse" color-interpolation-filters="sRGB">
<feFlood flood-opacity="0" result="BackgroundImageFix"/>
<feColorMatrix in="SourceAlpha" type="matrix" values="0 0 0 0 0 0 0 0 0 0 0 0 0 0 0 0 0 0 127 0" result="hardAlpha"/>
<feOffset dx="-0.761232" dy="1.52246"/>
<feComposite in2="hardAlpha" operator="out"/>
<feColorMatrix type="matrix" values="0 0 0 0 0 0 0 0 0 0 0 0 0 0 0 0 0 0 1 0"/>
<feBlend mode="normal" in2="BackgroundImageFix" result="effect1_dropShadow_302_190"/>
<feBlend mode="normal" in="SourceGraphic" in2="effect1_dropShadow_302_190" result="shape"/>
</filter>
</defs>
</svg>
