<svg width="874" height="451" viewBox="0 0 874 451" fill="none" xmlns="http://www.w3.org/2000/svg">
<path d="M70.0603 290.391H55.8506C54.4619 290.391 53.7659 288.703 54.7492 287.715L64.7964 277.612C65.2428 277.163 65.2428 276.434 64.7964 275.987C64.3501 275.538 63.625 275.538 63.1786 275.987L53.1314 286.09C52.1498 287.077 50.4704 286.379 50.4704 284.981V270.692C50.4704 270.055 49.959 269.541 49.3263 269.541C48.6935 269.541 48.1822 270.055 48.1822 270.692V284.981C48.1822 286.378 46.5028 287.077 45.5212 286.09L35.4739 275.987C35.0276 275.538 34.3025 275.538 33.8561 275.987C33.4098 276.436 33.4098 277.163 33.8561 277.612L43.9034 287.715C44.885 288.703 44.1907 290.391 42.802 290.391H28.5922C27.9612 290.391 27.4481 290.906 27.4481 291.542C27.4481 292.178 27.9595 292.692 28.5922 292.692H42.802C44.1907 292.692 44.8867 294.381 43.9034 295.368L33.8561 305.472C33.4098 305.921 33.4098 306.648 33.8561 307.097C34.3025 307.546 35.0259 307.546 35.4739 307.097L45.5212 296.993C46.5028 296.006 48.1822 296.705 48.1822 298.101V312.39C48.1822 313.025 48.6935 313.541 49.3263 313.541C49.959 313.541 50.4704 313.025 50.4704 312.39V298.101C50.4704 296.705 52.1498 296.005 53.1314 296.992L63.1786 307.095C63.625 307.544 64.3484 307.544 64.7964 307.095C65.2428 306.646 65.2428 305.917 64.7964 305.47L54.7492 295.367C53.7676 294.379 54.4619 292.691 55.8506 292.691H70.0603C70.6914 292.691 71.2044 292.176 71.2044 291.54C71.2044 290.904 70.6931 290.39 70.0603 290.39V290.391Z" fill="white"/>
<path d="M17.104 378.862H11.5371C10.993 378.862 10.7204 379.524 11.1056 379.91L15.0417 383.868C15.2166 384.044 15.2166 384.33 15.0417 384.505C14.8669 384.681 14.5828 384.681 14.4079 384.505L10.4718 380.547C10.0872 380.16 9.4293 380.434 9.4293 380.981V386.58C9.4293 386.829 9.22897 387.03 8.98108 387.03C8.73318 387.03 8.53286 386.829 8.53286 386.58V380.981C8.53286 380.434 7.87493 380.16 7.49036 380.547L3.55421 384.505C3.37934 384.681 3.09527 384.681 2.92041 384.505C2.74554 384.329 2.74554 384.044 2.92041 383.868L6.85656 379.91C7.24113 379.524 6.96911 378.862 6.42509 378.862H0.858196C0.610972 378.862 0.409973 378.66 0.409973 378.411C0.409973 378.162 0.610302 377.96 0.858196 377.96H6.42509C6.96911 377.96 7.2418 377.299 6.85656 376.912L2.92041 372.954C2.74554 372.778 2.74554 372.493 2.92041 372.317C3.09527 372.141 3.37867 372.141 3.55421 372.317L7.49036 376.275C7.87493 376.662 8.53286 376.389 8.53286 375.842V370.244C8.53286 369.995 8.73318 369.793 8.98108 369.793C9.22897 369.793 9.4293 369.995 9.4293 370.244V375.842C9.4293 376.389 10.0872 376.663 10.4718 376.276L14.4079 372.318C14.5828 372.142 14.8662 372.142 15.0417 372.318C15.2166 372.494 15.2166 372.779 15.0417 372.955L11.1056 376.913C10.721 377.3 10.993 377.961 11.5371 377.961H17.104C17.3512 377.961 17.5522 378.163 17.5522 378.412C17.5522 378.661 17.3519 378.863 17.104 378.863V378.862Z" fill="white"/>
<path d="M385.597 14.7923H375.827C374.872 14.7923 374.394 13.6312 375.07 12.9526L381.978 6.00629C382.284 5.69769 382.284 5.19636 381.978 4.88895C381.671 4.58036 381.172 4.58036 380.865 4.88895L373.958 11.8352C373.283 12.5139 372.128 12.0339 372.128 11.0726V1.2485C372.128 0.811034 371.777 0.45752 371.342 0.45752C370.907 0.45752 370.555 0.811034 370.555 1.2485V11.0726C370.555 12.0327 369.4 12.5139 368.726 11.8352L361.818 4.88895C361.511 4.58036 361.013 4.58036 360.706 4.88895C360.399 5.19754 360.399 5.69769 360.706 6.00629L367.613 12.9526C368.288 13.6312 367.811 14.7923 366.856 14.7923H357.087C356.653 14.7923 356.3 15.1458 356.3 15.5833C356.3 16.0208 356.652 16.3743 357.087 16.3743H366.856C367.811 16.3743 368.289 17.5353 367.613 18.214L360.706 25.1603C360.399 25.4689 360.399 25.969 360.706 26.2776C361.013 26.5862 361.51 26.5862 361.818 26.2776L368.726 19.3313C369.4 18.6526 370.555 19.1327 370.555 20.0927V29.9169C370.555 30.3531 370.907 30.7078 371.342 30.7078C371.777 30.7078 372.128 30.3531 372.128 29.9169V20.0927C372.128 19.1327 373.283 18.6515 373.958 19.3301L380.865 26.2764C381.172 26.585 381.67 26.585 381.978 26.2764C382.284 25.9678 382.284 25.4665 381.978 25.1591L375.07 18.2128C374.395 17.5342 374.872 16.3731 375.827 16.3731H385.597C386.03 16.3731 386.383 16.0196 386.383 15.5821C386.383 15.1446 386.032 14.7911 385.597 14.7911V14.7923Z" fill="white"/>
<path d="M220.767 183.561H215.448C214.928 183.561 214.667 182.929 215.035 182.559L218.797 178.777C218.964 178.609 218.964 178.336 218.797 178.169C218.63 178.001 218.358 178.001 218.191 178.169L214.43 181.951C214.062 182.32 213.434 182.059 213.434 181.536V176.186C213.434 175.948 213.242 175.756 213.005 175.756C212.768 175.756 212.577 175.948 212.577 176.186V181.536C212.577 182.058 211.948 182.32 211.581 181.951L207.82 178.169C207.653 178.001 207.381 178.001 207.214 178.169C207.047 178.337 207.047 178.609 207.214 178.777L210.975 182.559C211.343 182.929 211.083 183.561 210.563 183.561H205.243C205.007 183.561 204.815 183.753 204.815 183.992C204.815 184.23 205.007 184.422 205.243 184.422H210.563C211.083 184.422 211.343 185.055 210.975 185.424L207.214 189.206C207.047 189.374 207.047 189.647 207.214 189.815C207.381 189.983 207.652 189.983 207.82 189.815L211.581 186.032C211.948 185.663 212.577 185.924 212.577 186.447V191.796C212.577 192.034 212.768 192.227 213.005 192.227C213.242 192.227 213.434 192.034 213.434 191.796V186.447C213.434 185.924 214.062 185.662 214.43 186.032L218.191 189.814C218.358 189.982 218.629 189.982 218.797 189.814C218.964 189.646 218.964 189.373 218.797 189.206L215.035 185.423C214.668 185.054 214.928 184.422 215.448 184.422H220.767C221.003 184.422 221.196 184.229 221.196 183.991C221.196 183.753 221.004 183.56 220.767 183.56V183.561Z" fill="white"/>
<path d="M321.25 109.308H315.93C315.41 109.308 315.15 108.676 315.518 108.306L319.279 104.524C319.446 104.356 319.446 104.083 319.279 103.915C319.112 103.747 318.841 103.747 318.674 103.915L314.912 107.698C314.545 108.067 313.916 107.806 313.916 107.282V101.933C313.916 101.695 313.725 101.502 313.488 101.502C313.251 101.502 313.06 101.695 313.06 101.933V107.282C313.06 107.805 312.431 108.067 312.063 107.698L308.302 103.915C308.135 103.747 307.864 103.747 307.697 103.915C307.529 104.083 307.529 104.356 307.697 104.524L311.458 108.306C311.825 108.676 311.565 109.308 311.045 109.308H305.726C305.49 109.308 305.298 109.5 305.298 109.738C305.298 109.977 305.489 110.169 305.726 110.169H311.045C311.565 110.169 311.826 110.801 311.458 111.171L307.697 114.953C307.529 115.121 307.529 115.394 307.697 115.562C307.864 115.73 308.134 115.73 308.302 115.562L312.063 111.779C312.431 111.41 313.06 111.671 313.06 112.194V117.543C313.06 117.781 313.251 117.974 313.488 117.974C313.725 117.974 313.916 117.781 313.916 117.543V112.194C313.916 111.671 314.545 111.409 314.912 111.779L318.674 115.561C318.841 115.729 319.111 115.729 319.279 115.561C319.446 115.393 319.446 115.12 319.279 114.953L315.518 111.17C315.15 110.801 315.41 110.169 315.93 110.169H321.25C321.486 110.169 321.678 109.976 321.678 109.738C321.678 109.5 321.487 109.307 321.25 109.307V109.308Z" fill="white"/>
<path d="M557.993 140.694H552.673C552.154 140.694 551.893 140.061 552.261 139.692L556.022 135.91C556.19 135.741 556.19 135.469 556.022 135.301C555.855 135.133 555.584 135.133 555.417 135.301L551.656 139.083C551.288 139.453 550.659 139.192 550.659 138.668V133.319C550.659 133.081 550.468 132.888 550.231 132.888C549.994 132.888 549.803 133.081 549.803 133.319V138.668C549.803 139.191 549.174 139.453 548.807 139.083L545.045 135.301C544.878 135.133 544.607 135.133 544.44 135.301C544.273 135.469 544.273 135.741 544.44 135.91L548.201 139.692C548.568 140.061 548.309 140.694 547.789 140.694H542.469C542.233 140.694 542.041 140.886 542.041 141.124C542.041 141.362 542.232 141.555 542.469 141.555H547.789C548.309 141.555 548.569 142.187 548.201 142.557L544.44 146.339C544.273 146.507 544.273 146.779 544.44 146.947C544.607 147.115 544.878 147.115 545.045 146.947L548.807 143.165C549.174 142.796 549.803 143.057 549.803 143.58V148.929C549.803 149.166 549.994 149.36 550.231 149.36C550.468 149.36 550.659 149.166 550.659 148.929V143.58C550.659 143.057 551.288 142.795 551.656 143.164L555.417 146.947C555.584 147.115 555.855 147.115 556.022 146.947C556.19 146.779 556.19 146.506 556.022 146.338L552.261 142.556C551.894 142.186 552.154 141.554 552.673 141.554H557.993C558.229 141.554 558.421 141.362 558.421 141.124C558.421 140.885 558.23 140.693 557.993 140.693V140.694Z" fill="white"/>
<path d="M605.189 100.888H599.869C599.349 100.888 599.089 100.256 599.457 99.8861L603.218 96.1039C603.385 95.9358 603.385 95.6628 603.218 95.4955C603.051 95.3274 602.78 95.3274 602.613 95.4955L598.851 99.2777C598.484 99.6473 597.855 99.3859 597.855 98.8625V93.5132C597.855 93.275 597.664 93.0825 597.427 93.0825C597.19 93.0825 596.999 93.275 596.999 93.5132V98.8625C596.999 99.3853 596.37 99.6473 596.002 99.2777L592.241 95.4955C592.074 95.3274 591.803 95.3274 591.636 95.4955C591.468 95.6635 591.468 95.9358 591.636 96.1039L595.397 99.8861C595.764 100.256 595.504 100.888 594.984 100.888H589.665C589.429 100.888 589.237 101.08 589.237 101.319C589.237 101.557 589.428 101.749 589.665 101.749H594.984C595.504 101.749 595.765 102.381 595.397 102.751L591.636 106.533C591.468 106.701 591.468 106.974 591.636 107.142C591.803 107.31 592.073 107.31 592.241 107.142L596.002 103.359C596.37 102.99 596.999 103.251 596.999 103.774V109.123C596.999 109.361 597.19 109.554 597.427 109.554C597.664 109.554 597.855 109.361 597.855 109.123V103.774C597.855 103.251 598.484 102.989 598.851 103.359L602.613 107.141C602.78 107.309 603.05 107.309 603.218 107.141C603.385 106.973 603.385 106.7 603.218 106.533L599.457 102.75C599.09 102.381 599.349 101.749 599.869 101.749H605.189C605.425 101.749 605.617 101.556 605.617 101.318C605.617 101.08 605.426 100.887 605.189 100.887V100.888Z" fill="white"/>
<path d="M692.731 255.517H687.411C686.891 255.517 686.631 254.885 686.999 254.515L690.76 250.733C690.927 250.565 690.927 250.292 690.76 250.125C690.593 249.957 690.322 249.957 690.154 250.125L686.393 253.907C686.026 254.276 685.397 254.015 685.397 253.492V248.142C685.397 247.904 685.206 247.712 684.969 247.712C684.732 247.712 684.54 247.904 684.54 248.142V253.492C684.54 254.014 683.912 254.276 683.544 253.907L679.783 250.125C679.616 249.957 679.345 249.957 679.177 250.125C679.01 250.293 679.01 250.565 679.177 250.733L682.939 254.515C683.306 254.885 683.046 255.517 682.526 255.517H677.207C676.971 255.517 676.779 255.71 676.779 255.948C676.779 256.186 676.97 256.378 677.207 256.378H682.526C683.046 256.378 683.307 257.011 682.939 257.38L679.177 261.162C679.01 261.33 679.01 261.603 679.177 261.771C679.345 261.939 679.615 261.939 679.783 261.771L683.544 257.989C683.912 257.619 684.54 257.88 684.54 258.403V263.752C684.54 263.99 684.732 264.183 684.969 264.183C685.206 264.183 685.397 263.99 685.397 263.752V258.403C685.397 257.88 686.026 257.618 686.393 257.988L690.154 261.77C690.322 261.938 690.592 261.938 690.76 261.77C690.927 261.602 690.927 261.329 690.76 261.162L686.999 257.38C686.631 257.01 686.891 256.378 687.411 256.378H692.731C692.967 256.378 693.159 256.185 693.159 255.947C693.159 255.709 692.968 255.516 692.731 255.516V255.517Z" fill="white"/>
<path d="M733.572 198.037H729.864C729.502 198.037 729.32 197.596 729.577 197.339L732.199 194.702C732.315 194.585 732.315 194.395 732.199 194.278C732.082 194.161 731.893 194.161 731.776 194.278L729.155 196.915C728.898 197.172 728.46 196.99 728.46 196.625V192.896C728.46 192.73 728.327 192.596 728.162 192.596C727.997 192.596 727.863 192.73 727.863 192.896V196.625C727.863 196.99 727.425 197.172 727.169 196.915L724.547 194.278C724.43 194.161 724.241 194.161 724.125 194.278C724.008 194.395 724.008 194.585 724.125 194.702L726.746 197.339C727.003 197.596 726.821 198.037 726.459 198.037H722.751C722.586 198.037 722.452 198.171 722.452 198.337C722.452 198.503 722.586 198.638 722.751 198.638H726.459C726.821 198.638 727.003 199.078 726.746 199.336L724.125 201.972C724.008 202.09 724.008 202.279 724.125 202.397C724.241 202.514 724.43 202.514 724.547 202.397L727.169 199.76C727.425 199.502 727.863 199.685 727.863 200.049V203.778C727.863 203.944 727.997 204.078 728.162 204.078C728.327 204.078 728.46 203.944 728.46 203.778V200.049C728.46 199.685 728.898 199.502 729.155 199.76L731.776 202.396C731.893 202.513 732.082 202.513 732.199 202.396C732.315 202.279 732.315 202.089 732.199 201.972L729.577 199.335C729.321 199.078 729.502 198.637 729.864 198.637H733.572C733.737 198.637 733.871 198.503 733.871 198.337C733.871 198.171 733.737 198.037 733.572 198.037V198.037Z" fill="white"/>
<path d="M770.111 296.02H766.403C766.041 296.02 765.859 295.58 766.116 295.322L768.738 292.685C768.854 292.568 768.854 292.378 768.738 292.261C768.621 292.144 768.432 292.144 768.316 292.261L765.694 294.898C765.438 295.156 764.999 294.973 764.999 294.608V290.88C764.999 290.714 764.866 290.579 764.701 290.579C764.536 290.579 764.402 290.714 764.402 290.88V294.608C764.402 294.973 763.964 295.156 763.708 294.898L761.086 292.261C760.969 292.144 760.78 292.144 760.664 292.261C760.547 292.378 760.547 292.568 760.664 292.685L763.286 295.322C763.542 295.58 763.361 296.02 762.998 296.02H759.29C759.125 296.02 758.992 296.155 758.992 296.321C758.992 296.487 759.125 296.621 759.29 296.621H762.998C763.361 296.621 763.542 297.061 763.286 297.319L760.664 299.956C760.547 300.073 760.547 300.263 760.664 300.38C760.78 300.497 760.969 300.497 761.086 300.38L763.708 297.743C763.964 297.486 764.402 297.668 764.402 298.032V301.761C764.402 301.927 764.536 302.061 764.701 302.061C764.866 302.061 764.999 301.927 764.999 301.761V298.032C764.999 297.668 765.438 297.485 765.694 297.743L768.316 300.379C768.432 300.496 768.621 300.496 768.738 300.379C768.854 300.262 768.854 300.072 768.738 299.955L766.116 297.319C765.86 297.061 766.041 296.62 766.403 296.62H770.111C770.276 296.62 770.41 296.486 770.41 296.32C770.41 296.154 770.277 296.02 770.111 296.02V296.02Z" fill="white"/>
<path d="M781.53 369.216H777.822C777.459 369.216 777.278 368.737 777.534 368.457L780.156 365.591C780.273 365.463 780.273 365.256 780.156 365.13C780.04 365.002 779.85 365.002 779.734 365.13L777.112 367.996C776.856 368.276 776.418 368.078 776.418 367.681V363.627C776.418 363.447 776.284 363.301 776.119 363.301C775.954 363.301 775.821 363.447 775.821 363.627V367.681C775.821 368.077 775.382 368.276 775.126 367.996L772.504 365.13C772.388 365.002 772.199 365.002 772.082 365.13C771.966 365.257 771.966 365.463 772.082 365.591L774.704 368.457C774.96 368.737 774.779 369.216 774.417 369.216H770.708C770.544 369.216 770.41 369.362 770.41 369.542C770.41 369.723 770.543 369.869 770.708 369.869H774.417C774.779 369.869 774.961 370.348 774.704 370.628L772.082 373.494C771.966 373.621 771.966 373.828 772.082 373.955C772.199 374.082 772.387 374.082 772.504 373.955L775.126 371.089C775.382 370.809 775.821 371.007 775.821 371.403V375.457C775.821 375.637 775.954 375.783 776.119 375.783C776.284 375.783 776.418 375.637 776.418 375.457V371.403C776.418 371.007 776.856 370.808 777.112 371.088L779.734 373.954C779.85 374.082 780.039 374.082 780.156 373.954C780.273 373.827 780.273 373.62 780.156 373.493L777.534 370.627C777.278 370.347 777.459 369.868 777.822 369.868H781.53C781.694 369.868 781.828 369.722 781.828 369.542C781.828 369.361 781.695 369.215 781.53 369.215V369.216Z" fill="white"/>
<path d="M523.61 10.5369H517.064C516.424 10.5369 516.104 9.7205 516.557 9.2433L521.185 4.35909C521.391 4.1421 521.391 3.78959 521.185 3.57344C520.98 3.35645 520.646 3.35645 520.44 3.57344L515.811 8.45765C515.359 8.93485 514.586 8.59732 514.586 7.92143V1.01369C514.586 0.70609 514.35 0.45752 514.058 0.45752C513.767 0.45752 513.531 0.70609 513.531 1.01369V7.92143C513.531 8.59649 512.758 8.93485 512.305 8.45765L507.677 3.57344C507.471 3.35645 507.137 3.35645 506.931 3.57344C506.726 3.79042 506.726 4.1421 506.931 4.35909L511.56 9.2433C512.012 9.7205 511.693 10.5369 511.053 10.5369H504.506C504.216 10.5369 503.979 10.7855 503.979 11.0931C503.979 11.4007 504.215 11.6492 504.506 11.6492H511.053C511.693 11.6492 512.013 12.4656 511.56 12.9428L506.931 17.827C506.726 18.044 506.726 18.3957 506.931 18.6127C507.137 18.8297 507.47 18.8297 507.677 18.6127L512.305 13.7285C512.758 13.2513 513.531 13.5888 513.531 14.2638V21.1716C513.531 21.4784 513.767 21.7278 514.058 21.7278C514.35 21.7278 514.586 21.4784 514.586 21.1716V14.2638C514.586 13.5888 515.359 13.2504 515.811 13.7276L520.44 18.6118C520.646 18.8288 520.979 18.8288 521.185 18.6118C521.391 18.3949 521.391 18.0424 521.185 17.8262L516.557 12.942C516.105 12.4648 516.424 11.6484 517.064 11.6484H523.61C523.901 11.6484 524.138 11.3998 524.138 11.0922C524.138 10.7846 523.902 10.536 523.61 10.536V10.5369Z" fill="white"/>
<path d="M851.47 236.494H841.701C840.746 236.494 840.268 235.294 840.944 234.593L847.851 227.417C848.158 227.098 848.158 226.581 847.851 226.263C847.544 225.944 847.046 225.944 846.739 226.263L839.831 233.439C839.156 234.14 838.002 233.644 838.002 232.651V222.502C838.002 222.05 837.65 221.685 837.215 221.685C836.78 221.685 836.429 222.05 836.429 222.502V232.651C836.429 233.643 835.274 234.14 834.599 233.439L827.692 226.263C827.385 225.944 826.886 225.944 826.579 226.263C826.272 226.582 826.272 227.098 826.579 227.417L833.487 234.593C834.162 235.294 833.684 236.494 832.73 236.494H822.96C822.526 236.494 822.174 236.859 822.174 237.311C822.174 237.763 822.525 238.128 822.96 238.128H832.73C833.684 238.128 834.163 239.327 833.487 240.029L826.579 247.204C826.272 247.523 826.272 248.04 826.579 248.359C826.886 248.677 827.384 248.677 827.692 248.359L834.599 241.183C835.274 240.482 836.429 240.978 836.429 241.969V252.118C836.429 252.569 836.78 252.935 837.215 252.935C837.65 252.935 838.002 252.569 838.002 252.118V241.969C838.002 240.978 839.156 240.48 839.831 241.182L846.739 248.357C847.046 248.676 847.543 248.676 847.851 248.357C848.158 248.039 848.158 247.521 847.851 247.203L840.944 240.027C840.269 239.326 840.746 238.127 841.701 238.127H851.47C851.904 238.127 852.257 237.762 852.257 237.31C852.257 236.858 851.905 236.492 851.47 236.492V236.494Z" fill="white"/>
<path d="M872.06 419.881H853.648C851.848 419.881 850.946 417.654 852.221 416.352L865.239 403.031C865.818 402.439 865.818 401.478 865.239 400.888C864.661 400.297 863.721 400.297 863.143 400.888L850.124 414.21C848.852 415.511 846.676 414.591 846.676 412.747V393.907C846.676 393.068 846.014 392.39 845.194 392.39C844.374 392.39 843.711 393.068 843.711 393.907V412.747C843.711 414.588 841.535 415.511 840.263 414.21L827.245 400.888C826.666 400.297 825.727 400.297 825.148 400.888C824.57 401.48 824.57 402.439 825.148 403.031L838.167 416.352C839.439 417.654 838.539 419.881 836.74 419.881H818.328C817.51 419.881 816.845 420.559 816.845 421.398C816.845 422.236 817.508 422.914 818.328 422.914H836.74C838.539 422.914 839.441 425.141 838.167 426.443L825.148 439.764C824.57 440.356 824.57 441.315 825.148 441.907C825.727 442.498 826.664 442.498 827.245 441.907L840.263 428.585C841.535 427.284 843.711 428.204 843.711 430.046V448.886C843.711 449.722 844.374 450.403 845.194 450.403C846.014 450.403 846.676 449.722 846.676 448.886V430.046C846.676 428.204 848.852 427.282 850.124 428.583L863.143 441.904C863.721 442.496 864.659 442.496 865.239 441.904C865.818 441.312 865.818 440.351 865.239 439.762L852.221 426.44C850.949 425.139 851.848 422.912 853.648 422.912H872.06C872.878 422.912 873.542 422.234 873.542 421.395C873.542 420.556 872.88 419.878 872.06 419.878V419.881Z" fill="white"/>
</svg>
