<svg width="48" height="49" viewBox="0 0 48 49" fill="none" xmlns="http://www.w3.org/2000/svg">
<g clip-path="url(#clip0_90_4003)">
<path d="M24.0004 0.25C17.6367 0.25 11.5279 2.78013 7.03168 7.27938C2.53079 11.7804 0.00167401 17.8847 0.000427246 24.25C0.000427246 30.6126 2.53168 36.7214 7.03168 41.2206C11.5279 45.7199 17.6367 48.25 24.0004 48.25C30.3642 48.25 36.4729 45.7199 40.9692 41.2206C45.4692 36.7214 48.0004 30.6126 48.0004 24.25C48.0004 17.8874 45.4692 11.7786 40.9692 7.27938C36.4729 2.78013 30.3642 0.25 24.0004 0.25Z" fill="url(#paint0_linear_90_4003)"/>
<path d="M10.8641 23.9961C17.8616 20.9481 22.5266 18.9385 24.8591 17.9676C31.5266 15.1952 32.9104 14.7137 33.8141 14.6974C34.0129 14.6942 34.4554 14.7433 34.7441 14.9768C34.9841 15.1737 35.0516 15.4399 35.0854 15.6268C35.1154 15.8136 35.1566 16.2392 35.1229 16.5715C34.7629 20.3665 33.1991 29.5757 32.4041 33.8263C32.0704 35.6248 31.4066 36.2278 30.7654 36.2867C29.3704 36.415 28.3129 35.3657 26.9629 34.4811C24.8516 33.0962 23.6591 32.2345 21.6079 30.8833C19.2379 29.3218 20.7754 28.4635 22.1254 27.061C22.4779 26.6938 28.6204 21.1082 28.7366 20.6016C28.7516 20.5382 28.7666 20.302 28.6241 20.1775C28.4854 20.0526 28.2791 20.0953 28.1291 20.1291C27.9154 20.1771 24.5441 22.4076 18.0041 26.8202C17.0479 27.478 16.1816 27.7986 15.4016 27.7817C14.5466 27.7633 12.8966 27.2972 11.6704 26.899C10.1704 26.4103 8.97411 26.152 9.07911 25.3221C9.13161 24.8901 9.72786 24.448 10.8641 23.9961Z" fill="white"/>
</g>
<defs>
<linearGradient id="paint0_linear_90_4003" x1="2400" y1="0.25" x2="2400" y2="4800.25" gradientUnits="userSpaceOnUse">
<stop stop-color="#2AABEE"/>
<stop offset="1" stop-color="#229ED9"/>
</linearGradient>
<clipPath id="clip0_90_4003">
<rect width="48" height="48" fill="white" transform="translate(0.000427246 0.25)"/>
</clipPath>
</defs>
</svg>
