<svg width="300" height="114" viewBox="0 0 300 114" fill="none" xmlns="http://www.w3.org/2000/svg">
<g style="mix-blend-mode:luminosity" clip-path="url(#clip0_201_1305)">
<mask id="mask0_201_1305" style="mask-type:luminance" maskUnits="userSpaceOnUse" x="0" y="0" width="300" height="114">
<path d="M300 0H0V114H300V0Z" fill="white"/>
</mask>
<g mask="url(#mask0_201_1305)">
<path d="M57.4798 114C89.0389 114 114.623 88.4803 114.623 57C114.623 25.5197 89.0389 0 57.4798 0C25.9206 0 0.336914 25.5197 0.336914 57C0.336914 88.4803 25.9206 114 57.4798 114Z" fill="#0098EA"/>
<path d="M76.9906 31.8135H37.9668C30.7917 31.8135 26.2441 39.534 29.8537 45.7753L53.9378 87.4154C55.5094 90.1343 59.448 90.1343 61.0196 87.4154L85.1086 45.7753C88.7135 39.544 84.1657 31.8135 76.9955 31.8135H76.9906ZM53.9182 74.9281L48.6731 64.8023L36.0172 42.2236C35.1823 40.7784 36.2135 38.9265 37.9619 38.9265H53.9133V74.933L53.9182 74.9281ZM78.9304 42.2187L66.2794 64.8072L61.0343 74.9281V38.9216H76.9857C78.7341 38.9216 79.7653 40.7735 78.9304 42.2187Z" fill="white"/>
<path d="M150.644 88.4874H163.443V43.9637H181.14V31.8353H132.946V43.9637H150.644V88.4874Z" fill="#232328"/>
<path d="M211.899 89.4448C228.056 89.4448 241.256 76.2792 241.256 60.1612C241.256 44.0435 228.056 30.8777 211.899 30.8777C195.661 30.8777 182.542 44.0435 182.542 60.1612C182.542 76.2792 195.661 89.4448 211.899 89.4448ZM211.899 77.1568C202.62 77.1568 195.341 69.3372 195.341 60.1612C195.341 50.9853 202.62 43.1657 211.899 43.1657C221.097 43.1657 228.377 50.9853 228.377 60.1612C228.377 69.3372 221.097 77.1568 211.899 77.1568Z" fill="#232328"/>
<path d="M299.663 88.4875V31.8354H286.863V66.7841L259.267 31.8354H248.308V88.4875H261.026V53.4589L288.704 88.4875H299.663Z" fill="#232328"/>
</g>
</g>
<defs>
<clipPath id="clip0_201_1305">
<rect width="300" height="114" fill="white"/>
</clipPath>
</defs>
</svg>
