<svg width="25" height="25" viewBox="0 0 25 25" fill="none" xmlns="http://www.w3.org/2000/svg">
<g clip-path="url(#clip0_90_3536)">
<path d="M12.7285 0.34375C19.3628 0.34375 24.7285 5.70946 24.7285 12.3438C24.7285 18.978 19.3628 24.3438 12.7285 24.3438C6.09423 24.3438 0.728516 18.978 0.728516 12.3438C0.728516 5.70946 6.09423 0.34375 12.7285 0.34375ZM10.5342 18.6695C15.8485 18.6695 18.7628 14.2638 18.7628 10.4409V10.0638C19.3285 9.65232 19.8257 9.13804 20.2028 8.55518C19.6885 8.77804 19.1228 8.93232 18.5399 9.01804C19.1399 8.65804 19.6028 8.09232 19.8085 7.42375C19.2428 7.74946 18.6257 7.98946 17.9742 8.12661C17.4428 7.56089 16.6885 7.21804 15.8657 7.21804C14.2714 7.21804 12.9685 8.52089 12.9685 10.1152C12.9685 10.338 12.9857 10.5609 13.0542 10.7666C10.6542 10.6466 8.51137 9.49804 7.08852 7.74946C6.84852 8.17804 6.69423 8.67518 6.69423 9.20661C6.69423 10.2009 7.20852 11.0923 7.97994 11.6066C7.49994 11.6066 7.05423 11.4695 6.67709 11.2466V11.2809C6.67709 12.6866 7.67137 13.8523 8.99137 14.1266C8.75137 14.1952 8.49423 14.2295 8.23709 14.2295C8.04852 14.2295 7.87709 14.2123 7.68852 14.178C8.04852 15.3266 9.12852 16.1666 10.3799 16.1838C9.38566 16.9552 8.13423 17.418 6.77994 17.418C6.53994 17.418 6.31709 17.418 6.09423 17.3837C7.3628 18.2066 8.88852 18.6866 10.5171 18.6866" fill="#222222"/>
</g>
<defs>
<clipPath id="clip0_90_3536">
<rect width="24" height="24" fill="white" transform="translate(0.728516 0.34375)"/>
</clipPath>
</defs>
</svg>
