<svg width="49" height="49" viewBox="0 0 49 49" fill="none" xmlns="http://www.w3.org/2000/svg">
<g clip-path="url(#clip0_90_4014)">
<path d="M24.5004 0.25C37.769 0.25 48.5004 10.9814 48.5004 24.25C48.5004 37.5186 37.769 48.25 24.5004 48.25C11.2318 48.25 0.500397 37.5186 0.500397 24.25C0.500397 10.9814 11.2318 0.25 24.5004 0.25ZM20.1118 36.9014C30.7404 36.9014 36.569 28.09 36.569 20.4443V19.69C37.7004 18.8671 38.6947 17.8386 39.449 16.6729C38.4204 17.1186 37.289 17.4271 36.1233 17.5986C37.3233 16.8786 38.249 15.7471 38.6604 14.41C37.529 15.0614 36.2947 15.5414 34.9918 15.8157C33.929 14.6843 32.4204 13.9986 30.7747 13.9986C27.5861 13.9986 24.9804 16.6043 24.9804 19.7929C24.9804 20.2386 25.0147 20.6843 25.1518 21.0957C20.3518 20.8557 16.0661 18.5586 13.2204 15.0614C12.7404 15.9186 12.4318 16.9129 12.4318 17.9757C12.4318 19.9643 13.4604 21.7471 15.0033 22.7757C14.0433 22.7757 13.1518 22.5014 12.3975 22.0557V22.1243C12.3975 24.9357 14.3861 27.2671 17.0261 27.8157C16.5461 27.9529 16.0318 28.0214 15.5175 28.0214C15.1404 28.0214 14.7975 27.9871 14.4204 27.9186C15.1404 30.2157 17.3004 31.8957 19.8033 31.93C17.8147 33.4729 15.3118 34.3986 12.6033 34.3986C12.1233 34.3986 11.6775 34.3986 11.2318 34.33C13.769 35.9757 16.8204 36.9357 20.0775 36.9357" fill="#26B1F3"/>
</g>
<defs>
<clipPath id="clip0_90_4014">
<rect width="48" height="48" fill="white" transform="translate(0.500397 0.25)"/>
</clipPath>
</defs>
</svg>
